<?xml version="1.0" encoding="utf-8"?>
<?xml-stylesheet type="text/css" href="../style.css"?>
<svg id="background" xmlns="http://www.w3.org/2000/svg" viewBox="0 0 1922 1081">
  <rect class="background-1" x="0.5" y="0.5" width="1921" height="1080"/>
  <g id="tree2">
    <path class="background-2" d="M485.56,386.68s-88.7,9.22-89.15,76c0,0-171.8,5.77-81.62,76.77,0,0,55.39,46.33,82.78,37.17,0,0-46.61,73.83,61.39,78.33,0,0,52,2.08,67-20.21h19s155.49,5.7,96.25-77.29c0,0,183.75-136-26.25-161,0,0-20-5-40,13,0,0,16-27.14-49-28.57C526,380.88,498.15,309.91,485.56,386.68Z" transform="translate(1.04 0.55)"/>
    <path class="background-3" d="M526.35,712,507,574.45l-80-74,32,19.65V476l17.4,55.43,24.47,26-13.46-67.51,32,104.08,62.4-86.88V441.21l10.69,21.47L606,457.45l-16,28-8.17,54,43.17-26-92,89s1,95,15,97Z" transform="translate(1.04 0.55)"/>
  </g>
  <path class="background-4" d="M477.38,726.52S465,695.45,527,701.45c0,0,65-45,95-9,0,0,67.44-40.93,92.22-12,0,0,72.44-5.3,65.11,17.83,0,0,42.67-24.82,42.67,11.16,0,0,43.83-61.29,110.92-11.16,0,0,40.62-33.13,58.85,0,0,0,15-36.32,24.62-15.09,0,0-.61,25.28,0,31.25s0,26,0,26S495.79,778.59,477.38,726.52Z" transform="translate(1.04 0.55)"/>
  <g id="tree1">
    <path class="background-5" d="M1302.79,478.52s115.9,57.13-96,67l-21,11.9S1161,575,1149,550.71c0,0-178-45.26-53-64.26,0,0-12.35-65.43,89.83-88.21,0,0,58.17-75.79,72.17-8.79C1258,389.45,1374.61,386.58,1302.79,478.52Z" transform="translate(1.04 0.55)"/>
    <path class="background-6" d="M1198.32,602l-12.53-108.48L1149,469.08l36.83,17.52,3.17-46.15,9.36,65.21L1270,435.45l-32,47,46.42-20.68-42.24,31.75s-35.44,7.48-35.81,25.21c-.11,5.48.12,15.54.5,26.82.84,25.18,2.39,56.45,2.39,56.45Z" transform="translate(1.04 0.55)"/>
  </g>
  <path class="background-7" d="M1453.74,606S1450,586.45,1370,590.45c0,0-2.17-44.77-85.58-27.89,0,0-53.64-20.25-66,19.82,0,0-110.39-36.93-113.39,45.07,0,0-113.22,4-88.61,113l437.39-4Z" transform="translate(1.04 0.55)"/>
  <path class="background-8" d="M0,546s13-39.21,62-38.9,24.36,24.31,24.36,24.31,28.64-8,23.64,25,34.42,0,34.42,0,133.58-62,100.58,30c0,0,43.19-7.89,43.59,31.55,0,0,69.08,5.45,46.75,47.45,0,0,22.66,24-3.34,35,0,0,7,14,27,7s91-48,91-6c0,0,38.83-9.08,27.42,8,0,0,18.41,17.18,0,17.11S0,762.35,0,762.35Z" transform="translate(1.04 0.55)"/>
  <path class="background-9" d="M1920,602s-33.35-22.44-39.17,0c0,0,2.33-29.4-44.75-10,0,0,23.92-54.58-7.08-69.58,0,0,24-46-51-22,0,0-94.35,7.62-112.17,47.31,0,0-22.4-39.31-50.11-16.31,0,0-182.72-67-138.72,53,0,0-38.17-11.89-41.58,33.55,0,0-84.59,81.73,0,98.09s18.36,20.36,18.36,20.36l466.22,4Z" transform="translate(1.04 0.55)"/>
  <g id="railing">
    <polygon class="background-10" points="44.59 723.45 44.59 626.93 64 609 75.76 626.93 81.41 723.45 44.59 723.45"/>
    <polygon class="background-10" points="127 736 127 628.52 146.41 608.55 158.18 628.52 163.82 736 127 736"/>
    <polygon class="background-10" points="203 736 203 628.52 222.41 608.55 234.18 628.52 239.82 736 203 736"/>
    <polygon class="background-10" points="279 749 279 630.55 298.42 608.55 310.18 630.55 315.82 749 279 749"/>
    <polygon class="background-10" points="367 749 367 630.55 386.42 608.55 398.18 630.55 403.82 749 367 749"/>
    <polygon class="background-10" points="460 736 460 628.52 479.42 608.55 491.18 628.52 496.82 736 460 736"/>
    <polygon class="background-10" points="546 749 546 630.55 565.41 608.55 577.18 630.55 582.82 749 546 749"/>
    <polygon class="background-10" points="636 741 636 630.99 655.41 610.55 667.18 630.99 672.82 741 636 741"/>
    <polygon class="background-10" points="726 744 726 633.99 745.41 613.55 757.18 633.99 762.82 744 726 744"/>
    <polygon class="background-10" points="823 746 823 635.99 842.41 615.55 854.18 635.99 859.82 746 823 746"/>
    <polygon class="background-10" points="924 749 924 638.99 943.41 618.55 955.18 638.99 960.82 749 924 749"/>
    <polygon class="background-10" points="1035 744 1035 633.99 1054.41 613.55 1066.18 633.99 1071.82 744 1035 744"/>
    <polygon class="background-10" points="1150 741 1150 630.99 1169.41 610.55 1181.18 630.99 1186.82 741 1150 741"/>
    <polygon class="background-10" points="1267 741 1267 630.99 1286.41 610.55 1298.18 630.99 1303.82 741 1267 741"/>
    <polygon class="background-10" points="1378 741 1378 630.99 1397.41 610.55 1409.18 630.99 1414.82 741 1378 741"/>
    <polygon class="background-10" points="1496 733 1496 622.99 1515.41 602.55 1527.18 622.99 1532.82 733 1496 733"/>
    <polygon class="background-10" points="1630 737 1630 626.99 1649.41 606.55 1661.18 626.99 1666.82 737 1630 737"/>
    <polygon class="background-10" points="1749 723 1749 628.17 1768.41 610.55 1780.18 628.17 1785.82 723 1749 723"/>
    <polygon class="background-10" points="1845 719 1845 624.17 1864.41 606.55 1876.18 624.17 1881.82 719 1845 719"/>
    <rect class="background-10" x="1" y="645" width="1920" height="21"/>
  </g>
  <g id="garden">
    <path class="background-11" d="M0,729.34S80.46,712,118.46,729s111.3-4.06,132.15-3.53,34.27,15.82,72.56,10.18,129.57-14.21,185.43-6.43,56.26,28.56,115.56,7.67S709.48,719,772,721.5s125.49,25.17,180,11.31,104.37-20.28,177.44-13.07,158.66,22,220.36,11.58,75.42-19.77,137.06-14.57,172.09,22.85,241.87-1.47S1739.46,665,1817.46,692,1920,729.34,1920,729.34v350.11H0Z" transform="translate(1.04 0.55)"/>
    <path class="background-12" d="M11.46,797s411-51,309,59c0,0-104.22,32,263.39,24s48.61-65,48.61-65-65-18,83-18,336-63,258,2-150-34-137,57-218,70-218,70l-214.67,2.1S282.76,947,272.11,880s62.35-51-77.65-59S0,861,0,861V798.38Z" transform="translate(1.04 0.55)"/>
    <path class="background-12" d="M1920,821.46,1142.71,880s-284.73,1.61-69.24,50.55S635,971.45,635,971.45-86,1002.94,96.45,896.7L0,898.64v77.18s15,37.63,531,45.63,631-27,631-27,150-28,31-46,427-46,427-46L1920,880Z" transform="translate(1.04 0.55)"/>
    <path class="background-12" d="M1920,904.92l-436.62,25.6S1127,892.45,1416,1003.45c0,0-411,54-502,36s-723.78-16.81-723.78-16.81H0v56.81H1704.8s86.56-107.53-75.14-87.26,16.3-35.74,16.3-35.74Z" transform="translate(1.04 0.55)"/>
  </g>
  <path class="background-13" d="M495.85,769.54S332,791.46,449.48,821.46s133.48-35,107.48-37S495.85,769.54,495.85,769.54Z" transform="translate(1.04 0.55)"/>
  <path class="background-14" d="M327.46,206s33.21-125.07,79.61-19c0,0,100.22-51.6,70.31,2.71,0,0,154.58,32.21,48.58,43.52,0,0-9.36,63.29-80.68,40.79C445.28,273.94,136,257.45,327.46,206Z" transform="translate(1.04 0.55)"/>
  <path class="background-14" d="M1113.66,211.52s26.13-86.39,53.72-13.73c0,0,63.25-70,65.92-7.67,0,0,81.31-79.78,69.49-2.22,0,0,114.1-15.37,31.64,37.09s-342.15,56.93-317.81,27.2S1113.66,211.52,1113.66,211.52Z" transform="translate(1.04 0.55)"/>
  <path d="M168.33,352.45H145.16s-.13-2-4.16,0-9.31,0-9.31,0-2.73-3,6.27-5,6-14,23-10l26,9s11,3,12-5-3-6-3-6-2-24-5-26,4,3,4,3a8.22,8.22,0,0,0,0-9c-3-5,4.16,1.27,4.16,1.27l1.84,6.73s0,2,1-1,0-13,3-6,5,7,5,7l3-4s2-6,3,1,0,8,1,7,6-9,6-1c0,0-3,5-1,5s4-2,4-2,2-4,2,2,1,4,1,4,5.13-4,2.07,4c0,0,.93,7,6.93-9s5-1,5-1l6-10s2-11,5-3-2,11-2,11l6-5s6-9,3,2-3,7-3,7,.68,1.85,3.84-1.57,11.16-8.43,5.16,1.57c0,0,13-5-3,9,0,0-4,1,1,3s4,3-4,8c0,0,2,5-5,11,0,0-3,13-21,12,0,0,12,7,16,15a18.46,18.46,0,0,1,6,11l7,9s1.8,2-2.6,0c0,0,.6,4-5.4-2,0,0,3,9-6-1,0,0,4,8-7-3,0,0,2,15-15-3,0,0-9,1-34-16C194,372.45,175.69,363.45,168.33,352.45Z" transform="translate(1.04 0.55)"/>
  <path d="M1483.91,190.34l21.6,8.37s.85-1.81,3.88,1.51,8.68,3.36,8.68,3.36,3.63-1.81-4-6.93-.54-15.22-17.84-17.63l-27.49-1s-11.34-1.17-9.38-9,5-4.51,5-4.51,10.54-21.66,14.06-22.44-4.82,1.35-4.82,1.35a8.21,8.21,0,0,1,3.26-8.39c4.6-3.58-4.34-.33-4.34-.33l-4.15,5.62s-.72,1.87-.57-1.29,4.7-12.13-.63-6.68-7.19,4.72-7.19,4.72l-1.35-4.82s.3-6.31-3.16-.15-2.89,7.46-3.46,6.17-2.35-10.56-5.24-3.1c0,0,1,5.74-.87,5s-3-3.31-3-3.31-.42-4.45-2.59,1.14-2.37,3.37-2.37,3.37-3.32-5.62-3.37,3c0,0-3.41,6.22-3.22-10.87s-4.3-2.74-4.3-2.74l-2-11.49s2.11-11-3.58-4.61-2.11,11-2.11,11l-3.79-6.83s-2.34-10.56-3.52.78.27,7.61.27,7.61-1.3,1.48-3-2.85-7.36-11.89-5.38-.4c0,0-10.32-9.36-.46,9.48,0,0,3.37,2.38-2,2.43s-4.82,1.36.84,8.91c0,0-3.67,3.94.68,12.06,0,0-1.9,13.21,15.25,18.78,0,0-13.72,2.19-20.34,8.2a18.49,18.49,0,0,0-9.57,8.09l-9.78,5.87s-2.39,1.21,2.43.94c0,0-2,3.51,5.75.08,0,0-6,7.31,6,1.24,0,0-6.62,6,7.61-.27,0,0-7.28,13.26,15.07,2.62,0,0,8,4.19,37.49-2.63C1452.78,199.73,1473.07,197.94,1483.91,190.34Z" transform="translate(1.04 0.55)"/>
  <path d="M1430.91,428.34l21.6,8.37s.85-1.81,3.88,1.51,8.68,3.36,8.68,3.36,3.63-1.81-4-6.93-.54-15.22-17.84-17.63l-27.49-1s-11.34-1.17-9.38-9,5-4.51,5-4.51,10.54-21.66,14.06-22.44-4.82,1.35-4.82,1.35a8.21,8.21,0,0,1,3.26-8.39c4.6-3.58-4.34-.33-4.34-.33l-4.15,5.62s-.72,1.87-.57-1.29,4.7-12.13-.63-6.68-7.19,4.72-7.19,4.72l-1.35-4.82s.3-6.31-3.16-.15-2.89,7.46-3.46,6.17-2.35-10.56-5.24-3.1c0,0,1,5.74-.87,5s-3-3.31-3-3.31-.42-4.45-2.59,1.14-2.37,3.37-2.37,3.37-3.32-5.62-3.37,3c0,0-3.41,6.22-3.22-10.87s-4.3-2.74-4.3-2.74l-2-11.49s2.11-11-3.58-4.61-2.11,11-2.11,11l-3.79-6.83s-2.34-10.56-3.52.78.27,7.61.27,7.61-1.3,1.48-3-2.85-7.36-11.89-5.38-.4c0,0-10.32-9.36-.46,9.48,0,0,3.37,2.38-2,2.43s-4.82,1.36.84,8.91c0,0-3.67,3.94.68,12.06,0,0-1.9,13.21,15.25,18.78,0,0-13.72,2.19-20.34,8.2a18.49,18.49,0,0,0-9.57,8.09l-9.78,5.87s-2.39,1.21,2.43.94c0,0-2,3.51,5.75.08,0,0-6,7.31,6,1.24,0,0-6.62,6,7.61-.27,0,0-7.28,13.26,15.07,2.62,0,0,8,4.19,37.49-2.63C1399.78,437.73,1420.07,435.94,1430.91,428.34Z" transform="translate(1.04 0.55)"/>
</svg>