<?xml version="1.0" encoding="utf-8"?>
<?xml-stylesheet type="text/css" href="../style.css"?>
<svg id="bird-lose" xmlns="http://www.w3.org/2000/svg" viewBox="0 0 321.66 223.34">
  <g data-name="Layer 2">
    <g>
      <path id="bird" class="cls-1" d="M84.69,116.49h-53s-.3-4.57-9.52,0-21.28,0-21.28,0-6.23-6.86,14.35-11.43S29,73,67.84,82.19l59.47,20.58s25.15,6.86,27.44-11.43-6.86-13.73-6.86-13.73-4.57-54.89-11.44-59.46S145.6,25,145.6,25s6.86-9.15,0-20.58,9.52,2.89,9.52,2.89l4.2,15.4s0,4.58,2.29-2.28,0-29.73,6.86-13.73,11.44,16,11.44,16l6.86-9.14s4.57-13.73,6.86,2.28,0,18.3,2.29,16,13.72-20.58,13.72-2.29c0,0-6.86,11.44-2.29,11.44s9.15-4.57,9.15-4.57,4.58-9.15,4.58,4.57,2.28,9.15,2.28,9.15,11.73-9.26,4.72,9.09c0,0,2.14,16.07,15.87-20.53s11.43-2.28,11.43-2.28L269.1,13.58s4.58-25.16,11.44-6.87S276,31.87,276,31.87l13.73-11.43S303.41-.15,296.55,25s-6.86,16-6.86,16,1.55,4.23,8.78-3.6S324,18.15,310.27,41c0,0,29.73-11.44-6.86,20.58,0,0-9.15,2.29,2.29,6.86s9.14,6.87-9.15,18.3c0,0,4.57,11.44-11.44,25.16,0,0-6.86,29.73-48,27.44,0,0,27.45,16,36.6,34.31a42.25,42.25,0,0,1,13.72,25.16l16,20.58s4.1,4.57-6,0c0,0,1.37,9.15-12.35-4.57,0,0,6.86,20.58-13.72-2.29,0,0,9.15,18.3-16-6.86,0,0,4.58,34.3-34.3-6.86,0,0-20.59,2.28-77.76-36.6C143.32,162.23,101.53,141.65,84.69,116.49Z"/>
    </g>
  </g>
</svg>