<?xml version="1.0" encoding="utf-8"?>
<?xml-stylesheet type="text/css" href="../style.css"?>
<svg id="bird-win" xmlns="http://www.w3.org/2000/svg" viewBox="0 0 321.66 231.85">
  <path id="bird" class="bird-win-1" d="M275.94,205H223s-.3-4.57-9.52,0-21.29,0-21.29,0-6.22-6.86,14.36-11.44,13.72-32,52.6-22.87l59.46,20.59s25.16,6.86,27.45-11.44-6.86-13.72-6.86-13.72-4.58-54.89-11.44-59.46,9.15,6.86,9.15,6.86,6.86-9.15,0-20.59,9.52,2.9,9.52,2.9l4.2,15.4s0,4.58,2.29-2.29,0-29.73,6.86-13.72,11.44,16,11.44,16l6.86-9.15s4.57-13.72,6.86,2.29,0,18.3,2.29,16,13.72-20.58,13.72-2.29c0,0-6.86,11.44-2.29,11.44s9.15-4.58,9.15-4.58,4.57-9.14,4.57,4.58,2.29,9.15,2.29,9.15,11.73-9.26,4.72,9.09c0,0,2.14,16.06,15.86-20.53S446.64,125,446.64,125l13.72-22.87s4.58-25.15,11.44-6.86-4.58,25.16-4.58,25.16L481,108.94s13.72-20.58,6.86,4.58-6.86,16-6.86,16,1.55,4.23,8.78-3.61,25.52-19.26,11.8,3.61c0,0,29.73-11.44-6.86,20.58,0,0-9.15,2.29,2.28,6.86s9.15,6.86-9.14,18.3c0,0,4.57,11.43-11.44,25.16,0,0-6.86,29.73-48,27.44,0,0,27.45,16,36.6,34.31a42.2,42.2,0,0,1,13.72,25.15l16,20.59s4.1,4.57-6,0c0,0,1.38,9.15-12.34-4.58,0,0,6.86,20.59-13.72-2.28,0,0,9.15,18.29-16-6.87,0,0,4.57,34.31-34.31-6.86,0,0-20.58,2.29-77.76-36.59C334.57,250.74,292.79,230.16,275.94,205Z" transform="translate(-191.26 -88.51)"/>
  <path class="bird-win-2" d="M295.93,143q14.73,18.6,30.08,36.69t31.49,35.8q16,17.53,32.56,34.51T424,283.51q17.16,16.38,34.87,32.17l4.48,4a2.56,2.56,0,0,0,3.54,0,2.53,2.53,0,0,0,0-3.54q-17.78-15.69-35-32t-34-33.37q-16.65-16.9-32.71-34.37T333.43,180.7q-15.44-18-30.24-36.55l-3.72-4.69a2.52,2.52,0,0,0-3.54,0,2.56,2.56,0,0,0,0,3.53Z" transform="translate(-191.26 -88.51)"/>
  <path class="bird-win-2" d="M289.79,310q18.6-14.73,36.69-30.08t35.8-31.49q17.54-16,34.51-32.56T430.31,182q16.38-17.15,32.17-34.87l4-4.48a2.56,2.56,0,0,0,0-3.54,2.53,2.53,0,0,0-3.54,0q-15.69,17.79-32,35t-33.37,34q-16.9,16.65-34.37,32.71T327.5,272.49q-18,15.43-36.55,30.24l-4.69,3.72a2.52,2.52,0,0,0,0,3.54,2.56,2.56,0,0,0,3.53,0Z" transform="translate(-191.26 -88.51)"/>
</svg>