<?xml version="1.0" encoding="utf-8"?>
<?xml-stylesheet type="text/css" href="../style.css"?>
<svg id="bird-draw" xmlns="http://www.w3.org/2000/svg" viewBox="0 0 355.68 231.16">
  <path id="bird" class="bird-draw-1" d="M275.94,205H223s-.3-4.57-9.52,0-21.29,0-21.29,0-6.22-6.86,14.36-11.44,13.72-32,52.6-22.87l59.46,20.59s25.16,6.86,27.45-11.44-6.86-13.72-6.86-13.72-4.58-54.89-11.44-59.46,9.15,6.86,9.15,6.86,6.86-9.15,0-20.59,9.52,2.9,9.52,2.9l4.2,15.4s0,4.58,2.29-2.29,0-29.73,6.86-13.72,11.44,16,11.44,16l6.86-9.15s4.57-13.72,6.86,2.29,0,18.3,2.29,16,13.72-20.58,13.72-2.29c0,0-6.86,11.44-2.29,11.44s9.15-4.58,9.15-4.58,4.57-9.14,4.57,4.58,2.29,9.15,2.29,9.15,11.73-9.26,4.72,9.09c0,0,2.14,16.06,15.86-20.53S446.64,125,446.64,125l13.72-22.87s4.58-25.15,11.44-6.86-4.58,25.16-4.58,25.16L481,108.94s13.72-20.58,6.86,4.58-6.86,16-6.86,16,1.55,4.23,8.78-3.61,25.52-19.26,11.8,3.61c0,0,29.73-11.44-6.86,20.58,0,0-9.15,2.29,2.28,6.86s9.15,6.86-9.14,18.3c0,0,4.57,11.43-11.44,25.16,0,0-6.86,29.73-48,27.44,0,0,27.45,16,36.6,34.31a42.2,42.2,0,0,1,13.72,25.15l16,20.59s4.1,4.57-6,0c0,0,1.38,9.15-12.34-4.58,0,0,6.86,20.59-13.72-2.28,0,0,9.15,18.29-16-6.87,0,0,4.57,34.31-34.31-6.86,0,0-20.58,2.29-77.76-36.59C334.57,250.74,292.79,230.16,275.94,205Z" transform="translate(-157.25 -80.69)"/>
  <path class="bird-draw-2" d="M200.34,155.83c2.2-8.61,10.39-13.56,18.5-15.61a67.51,67.51,0,0,1,14-1.84,46.5,46.5,0,0,1,12.4,1,22.07,22.07,0,0,1,11.37,6.21c2.2,2.36,5.73-1.18,3.53-3.53-6.56-7-16.57-8.82-25.79-8.67-10.11.16-21.37,1.65-29.64,7.95a24.47,24.47,0,0,0-9.2,13.21c-.79,3.12,4,4.45,4.82,1.33Z" transform="translate(-157.25 -80.69)"/>
  <path class="bird-draw-2" d="M181,133.38c2-5,6.39-8.76,10.9-11.53a67,67,0,0,1,17.2-7.2,96.11,96.11,0,0,1,19.07-3.14,71.8,71.8,0,0,1,17.33.55c6,1,11.84,3.24,16.34,7.46,2.35,2.2,5.89-1.33,3.54-3.53-9.32-8.74-22.75-10.21-35-9.61-13.8.67-28,3.57-40,10.56-6.15,3.56-11.49,8.42-14.2,15.11a2.53,2.53,0,0,0,1.75,3.08,2.55,2.55,0,0,0,3.07-1.75Z" transform="translate(-157.25 -80.69)"/>
  <path class="bird-draw-2" d="M161.48,114A70.51,70.51,0,0,1,199.2,89.49a124.3,124.3,0,0,1,24.49-3.62A102.18,102.18,0,0,1,246.8,87a69.21,69.21,0,0,1,24.1,8.81c2.76,1.68,5.27-2.64,2.52-4.31-14-8.51-30.6-11.27-46.77-10.79-16.74.49-34.18,3.49-48.72,12.18a73.79,73.79,0,0,0-20,17.48,2.58,2.58,0,0,0,0,3.54,2.51,2.51,0,0,0,3.53,0Z" transform="translate(-157.25 -80.69)"/>
</svg>