<?xml version="1.0" encoding="utf-8"?>
<?xml-stylesheet type="text/css" href="../style.css"?>
<svg id="computericon" xmlns="http://www.w3.org/2000/svg" viewBox="0 0 276.91 342.19">
  <g id="computericon-2" data-name="computericon">
    <ellipse class="computericon-1" cx="138.46" cy="171.09" rx="137.96" ry="170.59"/>
    <g id="comutericon">
      <g id="computer">
        <path class="computericon-2" d="M111.22,105.56s-13,109.67-2.61,168c0,0,175,3.48,182.78-3.48,0,0,11.31-131.13,0-161.74C291.39,108.33,153,94.25,111.22,105.56Z" transform="translate(-61.54 -28.91)"/>
        <path class="computericon-3" d="M119.05,122.1s-8.7,70.5,2.62,134.91c0,0,92.81,18.28,156.94,0,0,0,9.85-60.93,0-134.91C278.61,122.1,211.31,99.47,119.05,122.1Z" transform="translate(-61.54 -28.91)"/>
        <path class="computericon-4" d="M128.63,132.55s-13.93,68.5,0,117.37c0,0,77,15.54,140.79,0,0,0,13.27-35.56-5-123.47C264.41,126.45,178.24,111.66,128.63,132.55Z" transform="translate(-61.54 -28.91)"/>
        <path class="computericon-5" d="M163.91,194.78s-.47,9.14,11.72,3.91c0,0,21.54,18.89,50.8,1.62,0,0-8.15,6.22,7.51-1.62" transform="translate(-61.54 -28.91)"/>
        <path class="computericon-6" d="M181.06,202.3s-7.06,30,19.43,30.15S219,204,219,204A40.82,40.82,0,0,1,181.06,202.3Z" transform="translate(-61.54 -28.91)"/>
        <ellipse class="computericon-6" cx="120.61" cy="130.62" rx="20.45" ry="32.2"/>
        <ellipse class="computericon-6" cx="153.25" cy="129.75" rx="19.15" ry="31.33"/>
        <path class="computericon-7" d="M163.91,155.69s-20.68-12,6-32.81,28.38,16.41,28.38,16.41-19-22.21-26.9-3.16C171.35,136.13,168.72,138.8,163.91,155.69Z" transform="translate(-61.54 -28.91)"/>
        <path class="computericon-7" d="M239.16,136.13s-13-34.36-43.51-9.4c0,0-4.36,12.33,2.6,12.56,0,0,30.47-18.69,35.69,7.18C233.94,146.47,240,149.28,239.16,136.13Z" transform="translate(-61.54 -28.91)"/>
        <ellipse class="computericon-8" cx="120.18" cy="141.07" rx="4.35" ry="11.31"/>
        <ellipse class="computericon-8" cx="153.25" cy="141.07" rx="4.35" ry="11.31"/>
        <path class="computericon-8" d="M194.3,91.3S168,83.59,152.68,117.64c0,0-12.79,12.51,5.95,6.74s37-21.1,37-21.1S200.79,95.3,194.3,91.3Z" transform="translate(-61.54 -28.91)"/>
        <path class="computericon-8" d="M214.46,95.93s3,27.22,40.32,28.31c0,0,16.46,7,3.93-8.09S225,90.08,225,90.08,215.67,88.4,214.46,95.93Z" transform="translate(-61.54 -28.91)"/>
      </g>
      <text class="computericon-9" transform="translate(74.49 281.08)">
        Co<tspan class="computericon-10" x="32.95" y="0">m</tspan><tspan x="58.07" y="0">puter</tspan>
      </text>
    </g>
  </g>
</svg>