<?xml version="1.0" encoding="utf-8"?>
<?xml-stylesheet type="text/css" href="../style.css"?>
<svg id="birds" xmlns="http://www.w3.org/2000/svg" viewBox="0 0 355.68 231.16">
  <g id="rock">
    <path class="rockicon-1" d="M141.32,137.06s-10.47-2.1-14,7.68c0,0-4.19,16.77-14.67,22.36,0,0-14.67,11.17-11.87,21l-4.89,19.56s-1.4,16.07,2.79,26.55l.7,20.26s-4.19,10.48,9.08,14.67c0,0,36.33,13.27,41.92,16.76,0,0,14.67,7.69,26.54,7l36,0s10.13,1.35,13.62-3.53L237,283.76l23,.7,23.05-21,19.56-34.23s4.89-1.37,0-14.31L292.21,158l-11.87-7.69s-7.69-2.09-7.69-9.78c0,0,2.1-7-16.06-13.27l-39.82-18.16s-10.48-4.19-17.12,0c0,0-12.92,14.67-22.7,14.67,0,0-12.57,2.09-18.16,9.78S141.32,137.06,141.32,137.06Z" transform="translate(-95.14 -106.94)"/>
    <path class="rockicon-2" d="M178.35,150.33l27.24-4.19,35.58-25.89-24.4-11.13s-12.58-4.89-17.12,0-14.32,16.76-22.7,14.67c0,0-16.07,4.19-18.16,9.78,0,0-6.29,8.38-17.47,3.49,0,0-9,7,3.87,13.27l8,7s2.12,7,13.63,0Z" transform="translate(-95.14 -106.94)"/>
    <path class="rockicon-3" d="M262.76,160.42l29.45-2.4-11.87-7.69a9.67,9.67,0,0,1-7.69-9.78c0-8.38-16.06-13.27-16.06-13.27l-15.42-7Z" transform="translate(-95.14 -106.94)"/>
    <path class="rockicon-4" d="M241.17,187.26l46.15,28s15-2,13.77-9S292.21,158,292.21,158l-29.45,2.4Z" transform="translate(-95.14 -106.94)"/>
    <path class="rockicon-3" d="M223.06,208.31l60.07,55.19,19.56-34.23s4.89,1.42,0-14.31l-1.6-8.69s1.6,6.93-13.77,9l-46.15-28-16,5.68Z" transform="translate(-95.14 -106.94)"/>
    <polygon class="rockicon-4" points="104.52 109.83 113.25 147.47 134.21 149.57 158.76 129.7 127.92 101.37 104.52 109.83"/>
    <polygon class="rockicon-5" points="164.94 177.51 188 156.55 158.76 129.7 134.21 149.57 164.94 177.51"/>
    <path class="rockicon-3" d="M199.65,216.78l-35,74.52L219,292.88s5.43,1.35,7.53-3.53L237,283.76l23,.7-30.74-27.95-21-2.09Z" transform="translate(-95.14 -106.94)"/>
    <path class="rockicon-5" d="M95.92,207.61s35-2.06,90.49,37.39l-21.74,46.3-56.18-22.21s-12.57-2.8-9.08-14.67l-.7-20.26S93.12,219.49,95.92,207.61Z" transform="translate(-95.14 -106.94)"/>
  </g>
  <g id="paper">
    <path class="papericon-1" d="M276.09,309.72,122.88,294.4l-1.34-130.13a157.78,157.78,0,0,1,4.58-29.3,65.62,65.62,0,0,1,43.53-46.19h0l108,14.51h0a166.15,166.15,0,0,0-26.48,82.58l-4.12,88.71a33.74,33.74,0,0,0,25.63,34.32Z" transform="translate(-121.04 -88.27)"/>
    <path class="papericon-2" d="M277.7,103.29s-27.17,40.16-26.48,82.58l-4.12,88.71s-3.26,27.89,29,35.14C276.09,309.72,234.16,286.34,277.7,103.29Z" transform="translate(-121.04 -88.27)"/>
  </g>
  <g id="scissor">
    <path class="scissoricon-1" d="M200.11,192.44s-4.47,3.52-5.75,14.37,0,63.38,0,63.38.75,20.26,21.12,22.81c0,0,3.78-1.27,3.78-2.55V264.22Z" transform="translate(-145.66 -106.5)"/>
    <path class="scissoricon-1" d="M225.65,289.17s2.55,3.83,6.38,1.28,13.41-3.83,11.49-28.73L223,199.47l-14.59-21.39s-8.94,2.55-11.5,10.21l3.2,4.15Z" transform="translate(-145.66 -106.5)"/>
    <path class="scissoricon-1" d="M208.41,178.08s8.3,3.83,8.94,6.38a7,7,0,0,1-1.14,5.06Z" transform="translate(-145.66 -106.5)"/>
    <path class="scissoricon-2" d="M196.91,188.29s-4.74,1.92-4.92,0c-.15-1.55-4.79-7.72-7.23-10.68a4.78,4.78,0,0,1-.88-2.17c-.15-.81-2.25-2.05-13.14-2.47,0,0-19.38-4.84-23.75-22.94a29.53,29.53,0,0,1,4.2-23.46c5-7.47,15-14.95,33.59-7.87,0,0,6.39,2.08,15.33,14.45a38.77,38.77,0,0,1,3.6-11.19c8.13-16.35,30.19-20.13,43.09-7.19,5.06,5.08,8.66,12.94,6.3,25,0,0-.64,18.52-19.79,24.26,0,0-7.66,2.56-8.3,8.3l-1.92,8.94s-.64,3.83-5.74,3.19a15.81,15.81,0,0,0-8.94-6.38S198.83,181.27,196.91,188.29Z" transform="translate(-145.66 -106.5)"/>
    <path class="scissoricon-3" d="M202,151.9s-3.83,6.14-1.91,8.5,4.47,8.1,4.47,8.1,2.62-9.66,1.95-12.17C206.53,156.33,203.94,152.54,202,151.9Z" transform="translate(-145.66 -106.5)"/>
    <ellipse class="scissoricon-4" cx="225.92" cy="134.82" rx="19.44" ry="9.74" transform="translate(-140.9 170.81) rotate(-63.62)"/>
    <ellipse class="scissoricon-4" cx="175.21" cy="144.33" rx="9.74" ry="19.44" transform="translate(-195.6 8.88) rotate(-32.15)"/>
    <path class="scissoricon-5" d="M200.11,133.15s5.74,13,1.91,18.75" transform="translate(-145.66 -106.5)"/>
    <line class="scissoricon-5" x1="58.92" y1="62" x2="62.75" y2="71.58"/>
    <path class="scissoricon-6" d="M174.92,131.35c-3.75,2.21-13.74,10.52,6.52,28.79a3.3,3.3,0,0,0,4.64-.21c1.32-1.44,2.48-4.14,2.06-9.2-.66-8-8.37-16.37-11.07-19.09A1.76,1.76,0,0,0,174.92,131.35Z" transform="translate(-145.66 -106.5)"/>
    <path class="scissoricon-6" d="M222.91,124.41c5.39-.17,18,1.74-1.13,27a2.92,2.92,0,0,1-3.09,1.05c-2.46-.67-6-3.25-4.65-12.71,0,0,.58-5.87,5.67-13.55A4,4,0,0,1,222.91,124.41Z" transform="translate(-145.66 -106.5)"/>
    <path class="scissoricon-4" d="M180.81,140.16c-3.75,1.94-8.85,7,3.82,18.5a1.5,1.5,0,0,0,2.4-.58c1.06-2.72,2.08-8.4-2.29-16.68A2.93,2.93,0,0,0,180.81,140.16Z" transform="translate(-145.66 -106.5)"/>
    <path class="scissoricon-4" d="M216.13,137.13c3.61-.45,12.86-.44,1.82,14.23a1,1,0,0,1-1.55.15,8.31,8.31,0,0,1-2.75-6.89,28.88,28.88,0,0,1,.53-5.75A2.32,2.32,0,0,1,216.13,137.13Z" transform="translate(-145.66 -106.5)"/>
    <ellipse class="scissoricon-6" cx="39.12" cy="43.49" rx="1.92" ry="2.55"/>
    <ellipse class="scissoricon-6" cx="71.05" cy="37.74" rx="1.92" ry="2.55"/>
    <ellipse class="scissoricon-6" cx="64.02" cy="89.78" rx="5.11" ry="6.7"/>
  </g>
</svg>