<?xml version="1.0" encoding="utf-8"?>
<?xml-stylesheet type="text/css" href="../style.css"?>
<svg id="papericon" xmlns="http://www.w3.org/2000/svg" viewBox="0 0 158.31 222.7">
  <g id="paper">
    <path class="papericon-1" d="M276.09,309.72,122.88,294.4l-1.34-130.13a157.78,157.78,0,0,1,4.58-29.3,65.62,65.62,0,0,1,43.53-46.19h0l108,14.51h0a166.15,166.15,0,0,0-26.48,82.58l-4.12,88.71a33.74,33.74,0,0,0,25.63,34.32Z" transform="translate(-121.04 -88.27)"/>
    <path class="papericon-2" d="M277.7,103.29s-27.17,40.16-26.48,82.58l-4.12,88.71s-3.26,27.89,29,35.14C276.09,309.72,234.16,286.34,277.7,103.29Z" transform="translate(-121.04 -88.27)"/>
  </g>
</svg>