<?xml version="1.0" encoding="utf-8"?>
<?xml-stylesheet type="text/css" href="../style.css"?>
<svg id="rockicon" xmlns="http://www.w3.org/2000/svg" viewBox="0 0 209.73 186.11">
  <g id="rock">
    <path class="rockicon-1" d="M141.32,137.06s-10.47-2.1-14,7.68c0,0-4.19,16.77-14.67,22.36,0,0-14.67,11.17-11.87,21l-4.89,19.56s-1.4,16.07,2.79,26.55l.7,20.26s-4.19,10.48,9.08,14.67c0,0,36.33,13.27,41.92,16.76,0,0,14.67,7.69,26.54,7l36,0s10.13,1.35,13.62-3.53L237,283.76l23,.7,23.05-21,19.56-34.23s4.89-1.37,0-14.31L292.21,158l-11.87-7.69s-7.69-2.09-7.69-9.78c0,0,2.1-7-16.06-13.27l-39.82-18.16s-10.48-4.19-17.12,0c0,0-12.92,14.67-22.7,14.67,0,0-12.57,2.09-18.16,9.78S141.32,137.06,141.32,137.06Z" transform="translate(-95.14 -106.94)"/>
    <path class="rockicon-2" d="M178.35,150.33l27.24-4.19,35.58-25.89-24.4-11.13s-12.58-4.89-17.12,0-14.32,16.76-22.7,14.67c0,0-16.07,4.19-18.16,9.78,0,0-6.29,8.38-17.47,3.49,0,0-9,7,3.87,13.27l8,7s2.12,7,13.63,0Z" transform="translate(-95.14 -106.94)"/>
    <path class="rockicon-3" d="M262.76,160.42l29.45-2.4-11.87-7.69a9.67,9.67,0,0,1-7.69-9.78c0-8.38-16.06-13.27-16.06-13.27l-15.42-7Z" transform="translate(-95.14 -106.94)"/>
    <path class="rockicon-4" d="M241.17,187.26l46.15,28s15-2,13.77-9S292.21,158,292.21,158l-29.45,2.4Z" transform="translate(-95.14 -106.94)"/>
    <path class="rockicon-3" d="M223.06,208.31l60.07,55.19,19.56-34.23s4.89,1.42,0-14.31l-1.6-8.69s1.6,6.93-13.77,9l-46.15-28-16,5.68Z" transform="translate(-95.14 -106.94)"/>
    <polygon class="rockicon-4" points="104.52 109.83 113.25 147.47 134.21 149.57 158.76 129.7 127.92 101.37 104.52 109.83"/>
    <polygon class="rockicon-5" points="164.94 177.51 188 156.55 158.76 129.7 134.21 149.57 164.94 177.51"/>
    <path class="rockicon-3" d="M199.65,216.78l-35,74.52L219,292.88s5.43,1.35,7.53-3.53L237,283.76l23,.7-30.74-27.95-21-2.09Z" transform="translate(-95.14 -106.94)"/>
    <path class="rockicon-5" d="M95.92,207.61s35-2.06,90.49,37.39l-21.74,46.3-56.18-22.21s-12.57-2.8-9.08-14.67l-.7-20.26S93.12,219.49,95.92,207.61Z" transform="translate(-95.14 -106.94)"/>
  </g>
</svg>