<?xml version="1.0" encoding="utf-8"?>
<?xml-stylesheet type="text/css" href="../style.css"?>
<svg id="scissoricon" xmlns="http://www.w3.org/2000/svg" viewBox="0 0 108.68 187.01">
  <g id="scissor">
    <path class="scissoricon-1" d="M200.11,192.44s-4.47,3.52-5.75,14.37,0,63.38,0,63.38.75,20.26,21.12,22.81c0,0,3.78-1.27,3.78-2.55V264.22Z" transform="translate(-145.66 -106.5)"/>
    <path class="scissoricon-1" d="M225.65,289.17s2.55,3.83,6.38,1.28,13.41-3.83,11.49-28.73L223,199.47l-14.59-21.39s-8.94,2.55-11.5,10.21l3.2,4.15Z" transform="translate(-145.66 -106.5)"/>
    <path class="scissoricon-1" d="M208.41,178.08s8.3,3.83,8.94,6.38a7,7,0,0,1-1.14,5.06Z" transform="translate(-145.66 -106.5)"/>
    <path class="scissoricon-2" d="M196.91,188.29s-4.74,1.92-4.92,0c-.15-1.55-4.79-7.72-7.23-10.68a4.78,4.78,0,0,1-.88-2.17c-.15-.81-2.25-2.05-13.14-2.47,0,0-19.38-4.84-23.75-22.94a29.53,29.53,0,0,1,4.2-23.46c5-7.47,15-14.95,33.59-7.87,0,0,6.39,2.08,15.33,14.45a38.77,38.77,0,0,1,3.6-11.19c8.13-16.35,30.19-20.13,43.09-7.19,5.06,5.08,8.66,12.94,6.3,25,0,0-.64,18.52-19.79,24.26,0,0-7.66,2.56-8.3,8.3l-1.92,8.94s-.64,3.83-5.74,3.19a15.81,15.81,0,0,0-8.94-6.38S198.83,181.27,196.91,188.29Z" transform="translate(-145.66 -106.5)"/>
    <path class="scissoricon-3" d="M202,151.9s-3.83,6.14-1.91,8.5,4.47,8.1,4.47,8.1,2.62-9.66,1.95-12.17C206.53,156.33,203.94,152.54,202,151.9Z" transform="translate(-145.66 -106.5)"/>
    <ellipse class="scissoricon-4" cx="225.92" cy="134.82" rx="19.44" ry="9.74" transform="translate(-140.9 170.81) rotate(-63.62)"/>
    <ellipse class="scissoricon-4" cx="175.21" cy="144.33" rx="9.74" ry="19.44" transform="translate(-195.6 8.88) rotate(-32.15)"/>
    <path class="scissoricon-5" d="M200.11,133.15s5.74,13,1.91,18.75" transform="translate(-145.66 -106.5)"/>
    <line class="scissoricon-5" x1="58.92" y1="62" x2="62.75" y2="71.58"/>
    <path class="scissoricon-6" d="M174.92,131.35c-3.75,2.21-13.74,10.52,6.52,28.79a3.3,3.3,0,0,0,4.64-.21c1.32-1.44,2.48-4.14,2.06-9.2-.66-8-8.37-16.37-11.07-19.09A1.76,1.76,0,0,0,174.92,131.35Z" transform="translate(-145.66 -106.5)"/>
    <path class="scissoricon-6" d="M222.91,124.41c5.39-.17,18,1.74-1.13,27a2.92,2.92,0,0,1-3.09,1.05c-2.46-.67-6-3.25-4.65-12.71,0,0,.58-5.87,5.67-13.55A4,4,0,0,1,222.91,124.41Z" transform="translate(-145.66 -106.5)"/>
    <path class="scissoricon-4" d="M180.81,140.16c-3.75,1.94-8.85,7,3.82,18.5a1.5,1.5,0,0,0,2.4-.58c1.06-2.72,2.08-8.4-2.29-16.68A2.93,2.93,0,0,0,180.81,140.16Z" transform="translate(-145.66 -106.5)"/>
    <path class="scissoricon-4" d="M216.13,137.13c3.61-.45,12.86-.44,1.82,14.23a1,1,0,0,1-1.55.15,8.31,8.31,0,0,1-2.75-6.89,28.88,28.88,0,0,1,.53-5.75A2.32,2.32,0,0,1,216.13,137.13Z" transform="translate(-145.66 -106.5)"/>
    <ellipse class="scissoricon-6" cx="39.12" cy="43.49" rx="1.92" ry="2.55"/>
    <ellipse class="scissoricon-6" cx="71.05" cy="37.74" rx="1.92" ry="2.55"/>
    <ellipse class="scissoricon-6" cx="64.02" cy="89.78" rx="5.11" ry="6.7"/>
  </g>
</svg>