<?xml version="1.0" encoding="utf-8"?>
<?xml-stylesheet type="text/css" href="../style.css"?>
<svg version="1.1" id="youcharacter" xmlns="http://www.w3.org/2000/svg" xmlns:xlink="http://www.w3.org/1999/xlink" x="0px"
	 y="0px" viewBox="0 0 400 400" style="enable-background:new 0 0 400 400;" xml:space="preserve">
<g id="youcharacter_1_">
	<ellipse class="youcharacter" cx="202.5" cy="201.6" rx="140.5" ry="173.8"/>
	<g id="yourChacracter">
		<path class="st1" d="M275.9,103.1c0,0,7.9-12.4,15.3,1.5c0,0-3.1-10.2,11.4-9.3c0,0,30.7,7.6,10.6,24.6c0,0,25.4,7.4,6.8,16.9
			c0,0-3.4,20-21.6,8.2c0,0-21.3,24.6-32.3,0C266.1,145,265.2,104.3,275.9,103.1z"/>
		<path class="st1" d="M136.3,105.9c0,0-8.8-13-16.3,2c0,0,3.1-10.9-12.4-9.6c0,0-32.5,8.9-10.6,26.6c0,0-27,8.6-6.8,18.2
			c0,0,4.2,21.3,23.3,8.2c0,0,23.4,25.7,34.5-0.9C147.9,150.4,147.8,107,136.3,105.9z"/>
		<path class="st2" d="M170.9,199.6c0,0,7.9,23.6,2.6,30.7c-5.3,7,22,11.4,22,11.4s30.5-2.6,41-11.4c0,0-13.6-15.5,0.9-28.9
			C237.5,201.4,197.8,218.3,170.9,199.6z"/>
		<path class="st3" d="M129.7,128.7c0,0-8.8-7.1,0-14c0,0-5.3-15.7,7-17.5c0,0-5.3-10.5,10.5-12.3c0,0,0.5-10.3,16.9-8.7
			c0,0,12.5-15.9,31.1-6.2c0,0,18.8-11.4,23.1,0c0,0,21.8-9.6,25.3,6.1c0,0,15.8-5.3,15.8,10.5c0,0,15.8,0,12.3,15.8
			c0,0,21.7,15.8,9.1,26.3c0,0,3.2,22.8-7.3,22.8c0,0,5.3-52.5-24.5-66.6c0,0-22.3-11.9-50.2-12.2c-28.8-0.3-55.1,17.8-62.9,45.5
			c-3,10.5-3.3,22.2,2.8,33.2C138.6,151.5,119.2,149.7,129.7,128.7z"/>
		<path class="st4" d="M139.6,106.4c0,0,18.6-32.8,59.1-35.5c0,0,31.8,2.6,50.2,12.2c0,0,25.4,11.4,24.5,66.6c0,0,14.6-8.2,11.3,5.1
			c-3.4,13.3-5.1,37.8-22.7,34.3c0,0-22.8,15.8-36.8,19.3c0,0-21.2,10.5-43.9,0l-29.7-14l-5.3-3.5l-5.6-1.9
			c-6.2-2.1-10.8-7.2-12.1-13.6c-1.4-6.7-3.3-15.1-5.1-19.6c-3.5-8.8-8.8-12.1,7.8-8.7l7.1,2.6C138.6,149.7,129.2,135.9,139.6,106.4
			z"/>
		<path class="st5" d="M281.3,156.1l-10.5,8.5c0,0-1.8,3.5,1.8,3.5c3.5,0-3.5,8.8-3.5,8.8s-7.1,1.8,0.8,2.6
			C277.8,180.4,281.3,156.1,281.3,156.1z"/>
		<path class="st5" d="M138.5,176c0,0-7-1.8-1.8-7c5.3-5.3-7-14-7-14"/>
		<path class="st5" d="M137.6,183.9c0,0-21-43.8-5.3-29.8"/>
		<g id="eyebrow">
			<path class="st6" d="M151.6,96.3l12.3-5.3c0,0,1-1.5,3.7-1.6c1.5,0,3.5,0.3,6.2,1.6c7.6,3.5,5.2,5.3,5.2,5.3s-8.2-1.6-10.7-3.4
				c-2.6-1.8-11.3,5.2-11.3,5.2L151.6,96.3z"/>
			<path class="st6" d="M253.2,96.3c0,0-11.3-5.3-21.4-5.3c0,0-0.4-1.8-6.1,2.6s-5.8,6.1-5.8,6.1s-7,0-1.8-3.5
				c5.3-3.5,7.4-5.6,7.4-5.6s4.9-3.2,10.2-3.2c5.3,0,19.3,7,19.3,7L253.2,96.3z"/>
		</g>
		<g id="googles">
			<ellipse class="st7" cx="164.8" cy="128.7" rx="33.3" ry="31.5"/>
			<ellipse class="st7" cx="241" cy="129.6" rx="33.3" ry="31.5"/>
			<circle class="st6" cx="163.1" cy="130.5" r="9.6"/>
			<circle class="st6" cx="243.7" cy="128.7" r="9.6"/>
			<line class="st8" x1="198.1" y1="128.7" x2="207.7" y2="129.6"/>
		</g>
		<path class="st5" d="M197.6,162c0,0-11.8,3.5-6.5-1.8c5.3-5.3,8.7,1.8,8.7,1.8s-1.3,1.8,3.7,0c0,0,2.7-5.5,7.4-3.6
			c4.7,1.9,0,2.2,0,2.2s1.2,3.2,4.7-0.3c3.5-3.5-7-7-7-7h-13.4c0,0-11.6,3.5-7,8.8"/>
		<path class="st5" d="M178.8,179.5c0,0,4.4,1.9,8.3,2.7s-1.3-0.9,44.2-7.9c0,0,3.8-1.8-1.6-8.8c0,0,7.7,3.6,2.9,11.4"/>
		<path class="st9" d="M182.3,179.5c0,0,15.8-12.3,43.8-8.8c0,0,7,0,5.3,3.5"/>
		<path class="st9" d="M187.1,182.2c0,0,3.9,13.1,25,4.3s15.7-11.7,15.7-11.7L187.1,182.2z"/>
		<line class="st5" x1="201.7" y1="195.2" x2="224.3" y2="186.5"/>
		<path class="st10" d="M175.3,224.8c0,0-7.8-6-13.1,16.9c-0.6,2.7-0.1,5.5,1.4,7.8l18.7,28l15.8-22.6l24.5,26.3l25.1-25.1
			c3-3,4.3-7.4,3.2-11.6c-1.9-7.5-6-18.6-13.4-20.3h-4.7l3.8,6.2c0,0-12,8.8-41,11.4c0,0-27.3-4.4-22-11.4L175.3,224.8z"/>
	</g>
	<rect x="106.2" y="286.5" class="st11" width="192.3" height="43.8"/>
	<text transform="matrix(1 0 0 1 155.3477 320.29)" class="st12 st13 st14">You</text>
</g>
</svg>
