<?xml version="1.0" encoding="utf-8"?>
<?xml-stylesheet type="text/css" href="../style.css"?>
<svg id="background" data-name="background" xmlns="http://www.w3.org/2000/svg" viewBox="0 0 1922.61 1080.74">
    <polygon class="beb8f6bb-cbd9-4b18-a09b-1b3367853c30" points="192.41 481.01 234.32 487.04 931.37 486.72 1059.81 484.03 1623.88 432.3 1726.15 414.19 1726.15 617.67 1371.78 603.4 1128.55 603.4 1120.54 610.64 282.58 617.67 192.41 620.66 192.41 481.01"/>
    <rect class="bb9a78f9-404a-4ebd-aabb-a528f5c606b7" y="3.11" width="192.36" height="1077.64"/>
    <rect class="bb9a78f9-404a-4ebd-aabb-a528f5c606b7" x="1726.24" width="196.37" height="1080.74"/>
    <rect class="b8af2b7c-8e88-4de8-8ccc-a97954aabac1" x="1736.26" y="236.02" width="176.33" height="820.91"/>
    <rect class="b8af2b7c-8e88-4de8-8ccc-a97954aabac1" x="9.02" y="234.99" width="172.32" height="820.91"/>
    <rect class="bb9a78f9-404a-4ebd-aabb-a528f5c606b7" x="6.01" y="460.66" width="17.03" height="5.18"/>
    <rect class="bb9a78f9-404a-4ebd-aabb-a528f5c606b7" x="2" y="698.76" width="17.03" height="5.18"/>
    <rect class="bb9a78f9-404a-4ebd-aabb-a528f5c606b7" x="1895.56" y="733.95" width="17.03" height="5.18"/>
    <rect class="bb9a78f9-404a-4ebd-aabb-a528f5c606b7" x="1895.56" y="440.99" width="17.03" height="5.18"/>
    <rect class="bb9a78f9-404a-4ebd-aabb-a528f5c606b7" x="10.02" y="982.4" width="172.32" height="11.39"/>
    <rect class="bb9a78f9-404a-4ebd-aabb-a528f5c606b7" x="1735.25" y="987.58" width="179.34" height="11.39"/>
    <text class="af43f897-5139-48ec-baba-8387ac4766f7" transform="translate(45.08 1038.43) scale(0.97 1)">S<tspan class="b7d5aae6-ab48-4ab9-8157-035436d208a1" x="18.37" y="0">T</tspan>
        <tspan x="34.1" y="0">A</tspan>
        <tspan class="f322b3a4-053c-4fd7-a080-43ff556b9489" x="56.91" y="0">R</tspan>
        <tspan x="77.29" y="0">T</tspan>
    </text>
    <text class="af43f897-5139-48ec-baba-8387ac4766f7" transform="translate(1777.33 1038.43) scale(0.97 1)">S<tspan class="ab1d6ad7-a773-4985-9e4e-dc4a2fe1f80e" x="18.37" y="0">T</tspan>
        <tspan x="34.1" y="0">A</tspan>
        <tspan class="f322b3a4-053c-4fd7-a080-43ff556b9489" x="56.91" y="0">R</tspan>
        <tspan x="77.29" y="0">T</tspan>
    </text>
    <path class="a4f720ac-9ecb-4499-af5c-e9e012bc94af" d="M1147.29,1050.1" transform="translate(-0.99 3.41)"/>
    <polygon class="e897e49c-0fae-48a8-a1b4-1b14c19cdab4" points="725.36 1053.22 1288.99 616.56 1310.03 617.54 1124.23 1053.37 725.36 1053.22"/>
    <polygon class="e71b3044-50d1-44ac-b0da-f16fa9592b37" points="1140.99 1052.22 1314.79 610.64 1336.31 611.57 1547.99 1053.15 1140.99 1052.22"/>
    <polygon class="e2e7fb9c-b6da-4dbf-9936-4c8fca60f4ef" points="325.96 1053.27 1068.43 707.98 1267.38 616.56 1287.82 613.82 898.68 910.59 708.99 1053.27 325.96 1053.27"/>
    <polygon class="e2e7fb9c-b6da-4dbf-9936-4c8fca60f4ef" points="192.41 962.79 192.41 886.98 756.77 739.72 1061.53 658.88 1184.81 626.55 1220.5 617.67 1237.28 616.53 968.47 706.18 484.61 865.74 192.41 962.79"/>
    <polygon class="e2e7fb9c-b6da-4dbf-9936-4c8fca60f4ef" points="192.41 837.11 754.12 714.99 1144.83 629.74 1199.45 616.25 1213.9 614.84 967.3 681.37 796.93 725.98 192.41 882.99 192.41 837.11"/>
    <polygon class="e2e7fb9c-b6da-4dbf-9936-4c8fca60f4ef" points="192.41 802.2 628.96 721.61 939.33 662.47 1159.68 619.47 1166.33 616.54 1195.13 615.19 841.86 693.88 192.41 833.12 192.41 802.2"/>
    <polygon class="e71b3044-50d1-44ac-b0da-f16fa9592b37" points="1569.97 1053.52 1336.31 611.57 1358 613.25 1535.61 736.84 1726.15 870.02 1726.15 1053.56 1569.97 1053.52"/>
    <polygon class="b4ce112e-d565-41b2-a50c-908b735bbfe8" points="1726.15 828.13 1361.07 608.13 1132.71 605.67 1128.55 603.4 1414.52 604.82 1551.99 608.13 1688.16 613.26 1700.44 613.9 1713.22 615.3 1726.15 617.67 1726.15 828.13"/>
    <polygon class="b4ce112e-d565-41b2-a50c-908b735bbfe8" points="192.41 786.24 192.41 620.66 307.08 617.67 411.14 615.48 523 615.91 627.09 614.89 952.89 613.41 1099.8 612.01 1133.65 612.84 1155.86 611.05 1163.92 614.45 908.19 661.8 694.75 699.41 334.12 760.93 192.41 786.24"/>
    <polygon class="beb8f6bb-cbd9-4b18-a09b-1b3367853c30" points="914.55 421.14 1072.75 415.96 1074.39 476.56 1048.81 484.93 931.37 486.72 931.33 479.37 914.58 476.11 914.55 421.14"/>
    <polyline class="ef6505a9-3f6b-4c71-bc89-62f0caede5cd" points="917.44 470.94 917.44 425.19 1061.08 417.72 1062.29 467.23 919.07 471.97"/>
    <polygon class="b80b2db4-cd52-4699-ab3d-54a6dbf313d2" points="192.41 67.07 1726.15 60.09 1726.15 129.91 192.41 133.9 192.41 67.07"/>
    <polygon class="fd751571-ad83-463f-b79b-4fa8e5a16366" points="192.41 230.65 192.41 133.9 1726.15 129.91 1726.15 218.68 1686.01 231.63 192.41 230.65"/>
    <polygon class="b3fa75d3-261d-4e0c-9393-35b24992865e" points="192.41 340.37 192.41 230.65 1686.01 231.63 1703.92 257 1638.15 268.27 1625.83 274.16 1653.75 301.84 1578.35 302.36 1523.49 336.36 192.41 340.37"/>
    <polygon class="bb9a78f9-404a-4ebd-aabb-a528f5c606b7" points="192.41 67.07 192.36 3.11 1726.24 0 1726.15 60.09 192.41 67.07"/>
    <polygon class="a35c5ca8-cc80-49c4-bad3-3847e2bf9591" points="192.41 340.37 1523.49 336.36 1578.35 302.36 1653.75 301.84 1625.83 274.16 1638.15 268.27 1703.92 257 1686.01 231.63 1726.15 218.68 1726.15 350.35 1424.1 352.27 1399.47 379.32 1348.59 379.36 1301.97 402.92 1255.17 385.34 1183.05 405.18 993.74 395.15 1032.72 376.96 990.39 388.91 1004.18 383.37 950.87 370.85 922.86 377.32 880.31 389.47 668.09 406.02 562.92 406.74 518.94 396.76 509.62 379.94 479.2 376.46 440 375.49 418.51 374.96 380.12 380.1 357.75 370.88 311.61 369.74 293.52 378.86 245.19 371.76 238.79 373.32 268.76 397.82 249.17 398.43 240.35 394.49 222.58 392.24 192.41 394.24 192.41 340.37"/>
    <path class="ffee8fa7-d7b6-442f-a9ab-95abb061586f" d="M193.41,390.82l30.17-2,17.76,2.26,8.83,3.93,19.59-.61L251,383.34c-8.63-8.57-33.8-23.76,36.45-8.42,19.49,4.26,20.25-15.49,25.17-8.59l.78-27.25,45.43-4-.06,32.41,17.08,10.17,34.83-6.31L489,373.26c25,.4,33.93,7.68,30.9,20.08l44,10,105.17-.73c57.59-66.92,129.15-68.6,212.21-16.54,44.76-26,85.27-22.66,123.88-6.1l-24.73,9.93c52.72-30.25,85.36-13.89,114,11.65-112.44,15.39-217.77,28.32-203.16-.3l7.81,15.52,11.08-.82,148.42-11,57.72-7,62.13,3.87,50.1-14.49,27.58-5.45L1303,399.51c7.45-11.89,22.53-20,46.62-23.56l50.87,0c-8.23-10.25,2.86-19.05,24.64-27.06l95.11-1,206.94-.9v63.84l-102.28,18.11L1472.37,447l-422.56,34.53,25.57-8.36-1.64-60.6c-166.14,1.78-158.19,5.17-158.19,5.17l0,55L932.33,476l0,7.34-356.07,5.15-296-5.93-45,1.1-41.91-6Z" transform="translate(-0.99 3.41)"/>
    <line class="e2e7fb9c-b6da-4dbf-9936-4c8fca60f4ef" x1="1726.16" y1="1053.56" x2="1726.24" y2="1080.74"/>
    <polygon class="bb9a78f9-404a-4ebd-aabb-a528f5c606b7" points="1742.5 1079.42 1736.26 1056.93 181.34 1055.9 182.34 1080.74 1742.5 1079.42"/>
    <polygon class="acc80bed-b5fb-48ef-9756-f1432ce77071" points="209.05 603.4 208.61 499.74 425.05 499.74 471.01 603.4 209.05 603.4"/>
    <polygon class="acc80bed-b5fb-48ef-9756-f1432ce77071" points="487.86 603.4 438.84 499.74 608.88 499.74 693.77 596.04 487.86 603.4"/>
    <polygon class="acc80bed-b5fb-48ef-9756-f1432ce77071" points="714.85 603.4 628.8 499.74 847.86 499.74 904.54 603.4 714.85 603.4"/>
    <polygon class="acc80bed-b5fb-48ef-9756-f1432ce77071" points="917.44 603.4 858.59 499.74 1100.63 491.86 1100.63 603.4 917.44 603.4"/>
    <polygon class="acc80bed-b5fb-48ef-9756-f1432ce77071" points="1109.82 603.4 1109.82 491.86 1296.71 471.97 1276.61 598.74 1109.82 603.4"/>
    <polygon class="acc80bed-b5fb-48ef-9756-f1432ce77071" points="1287.82 597.57 1310.03 471.97 1488.2 460.66 1466.76 597.57 1287.82 597.57"/>
    <polygon class="acc80bed-b5fb-48ef-9756-f1432ce77071" points="1479.01 597.57 1501.99 460.66 1716.61 428.74 1687.35 603.4 1479.01 597.57"/>
    <polygon class="acc80bed-b5fb-48ef-9756-f1432ce77071" points="1703.92 597.57 1716.61 491.86 1716.61 597.57 1703.92 597.57"/>
    <polyline class="e2e7fb9c-b6da-4dbf-9936-4c8fca60f4ef" points="192.36 1080.74 192.41 1053.56 308.42 1053.1 463.93 981.43 672.8 886 1059.42 708.88 1069.01 704.31 1250.88 617.67 1256.4 615.23 1259.32 613.93 1246.86 615.91 1073.96 674.22 940.37 718.84 765.91 777.1 192.41 968.77 192.41 962.79"/>
    <polygon class="e2e7fb9c-b6da-4dbf-9936-4c8fca60f4ef" points="1166.33 616.54 1149.83 605.85 1163.92 605.85 1192.71 614.84 1166.33 616.54"/>
    <polygon class="e2e7fb9c-b6da-4dbf-9936-4c8fca60f4ef" points="1199.45 616.25 1176.04 606.13 1186.25 606.25 1213.9 614.84 1199.45 616.25"/>
    <polygon class="e2e7fb9c-b6da-4dbf-9936-4c8fca60f4ef" points="1220.5 617.67 1198.16 606.37 1220.5 606.13 1237.28 616.53 1220.5 617.67"/>
    <polygon class="e2e7fb9c-b6da-4dbf-9936-4c8fca60f4ef" points="1243.44 617.67 1226.08 606.67 1234.76 606.77 1259.32 613.93 1243.44 617.67"/>
    <polygon class="e2e7fb9c-b6da-4dbf-9936-4c8fca60f4ef" points="1267.38 616.56 1245.49 606.88 1255.02 606.99 1287.82 613.82 1267.38 616.56"/>
    <polygon class="e2e7fb9c-b6da-4dbf-9936-4c8fca60f4ef" points="1288.99 616.56 1292.46 613.82 1266.65 607.11 1283.27 606.67 1310.03 617.54 1288.99 616.56"/>
    <polygon class="e2e7fb9c-b6da-4dbf-9936-4c8fca60f4ef" points="1313.14 614.84 1294.51 607.41 1340.46 607.91 1358 613.25 1313.14 614.84"/>
</svg>