<?xml version="1.0" encoding="utf-8"?>
<?xml-stylesheet type="text/css" href="../style.css"?>
<svg xmlns="http://www.w3.org/2000/svg" viewBox="0 0 318.67 280.75">
    <g id="draw-layer" data-name="Layer 2">
        <g id="draw" data-name="draw">
            <path class="a765dead-14c5-4d80-95b3-c4bb1fc24512" d="M250.52,218.35c0,.42.32.5.54.63a77.26,77.26,0,0,1,17.87,14.11c5.15,5.52,9.43,11.6,11.48,19,1.21,4.32,1.55,8.65-.45,12.89-1.85,3.92-5,6.52-8.71,8.5a53.33,53.33,0,0,1-15.25,5,147.69,147.69,0,0,1-31.34,2.23q-10.07-.21-20.06-1.37a162.65,162.65,0,0,1-21-3.53,43.28,43.28,0,0,1-13.81-5.6,18.84,18.84,0,0,1-3.5-3,1.4,1.4,0,0,0-1.15-.48c-1.51,0-3,0-4.52,0a1.06,1.06,0,0,0-.9.34c-3.22,3.54-7.39,5.53-11.8,7.06a103.53,103.53,0,0,1-18.5,4.14c-5.16.79-10.35,1.41-15.56,1.79a204.91,204.91,0,0,1-23.9.53c-4.61-.2-9.22-.49-13.79-1.12-7.64-1-15.16-2.54-22-6.29-4.5-2.45-7.78-5.93-9.15-11a18.23,18.23,0,0,1,.38-9.5,42.62,42.62,0,0,1,8.59-16.1,75.9,75.9,0,0,1,22.92-18.78c.67-.36.74-.64.36-1.3a97.14,97.14,0,0,1-10.55-28.39,100.93,100.93,0,0,1-1.86-24.47,1.87,1.87,0,0,0-.64-1.59,65.15,65.15,0,0,1-18-29.76,57.17,57.17,0,0,1-2-21c.72-7.48,2.86-14.48,7.47-20.56,4.18-5.53,9.5-9.38,16.45-10.54a28.53,28.53,0,0,1,14.6,1.51,52.22,52.22,0,0,1,15.48,9.2c.21.17.42.35.64.51,1.58,1.25,1.59,1.26,3.14,0a97.81,97.81,0,0,1,39.23-18.86,95.66,95.66,0,0,1,19.68-2.38A98.37,98.37,0,0,1,251.07,125a96.39,96.39,0,0,1,7.86,22.55,1.85,1.85,0,0,0,.62,1.12,52.93,52.93,0,0,1,17.2,29.84c2,9.43,1.35,18.69-3.19,27.38C269.86,213,263.91,217,256,218.08A34.4,34.4,0,0,1,250.52,218.35ZM219.31,246h0l-.25.18a.21.21,0,0,0-.16.1l-.41.33-.42.32-3.92,2.55a118.69,118.69,0,0,1-11.28,6.19L194.64,259c-.23.06-.46.11-.69.19a90,90,0,0,1-15.87,3.93l-5.79.86c4.67,3.43,9.87,4.84,15.17,6l.09,0h.09l.39.09a95.23,95.23,0,0,0,9.91,1.78c2.86.42,5.72.89,8.62,1,2.46.41,5,.54,7.44.72,3.21.24,6.41.45,9.63.46a147,147,0,0,0,15-.17l1.46,0c.28,0,.58.1.83-.13v0l.8-.05,1,0,.1,0,.09,0,.44,0,.28-.09,2-.12.25-.09,1-.06a1.25,1.25,0,0,0,.89-.14l1.18-.09a.44.44,0,0,0,.46-.12l.75-.06a8.53,8.53,0,0,0,2.07-.34l.41-.06c.23,0,.46.07.64-.15v0h.09l.09,0,.62-.07a.47.47,0,0,0,.45-.13l.58-.07a.46.46,0,0,0,.46-.13l.36-.06a.75.75,0,0,0,.66-.15l.37-.06a.52.52,0,0,0,.47-.14,2.75,2.75,0,0,0,1.16-.25,16.12,16.12,0,0,0,3.32-.95,10.84,10.84,0,0,0,2.23-.75l.82-.35a8.38,8.38,0,0,0,2.26-1,4,4,0,0,0,1.48-.8,1.83,1.83,0,0,0,.8-.48l.21-.15a1.66,1.66,0,0,0,.76-.54,2.17,2.17,0,0,0,.89-.69A1.34,1.34,0,0,0,272,265a3.72,3.72,0,0,0,1.17-1.29l.44-.62.21-.39h0l.13-.19a1.19,1.19,0,0,0,.3-.73.61.61,0,0,0,.2-.52,1.28,1.28,0,0,0,.21-.93.49.49,0,0,0,.13-.49c.26-1.33-.24-2.61-.19-3.93a3.55,3.55,0,0,0-.35-1.5.11.11,0,0,0,0-.13.75.75,0,0,0-.17-.63l-.08-.4a4.1,4.1,0,0,0-.55-1.51.11.11,0,0,0,0-.14c0-.15,0-.31-.2-.37l-.21-.65a6.33,6.33,0,0,0-1-2.07,1.41,1.41,0,0,0-.42-.82l-.23-.4h0a.89.89,0,0,0-.39-.64h0l-.87-1.4a1.1,1.1,0,0,0-.58-.67,3.18,3.18,0,0,0-1-1.42,18.68,18.68,0,0,0-1.69-2.54,72.2,72.2,0,0,0-23.64-18.41c-.58-.29-.82-.12-1.15.36a88.76,88.76,0,0,1-6,7.92,100.79,100.79,0,0,1-14.66,14,.12.12,0,0,0-.13.11l0,0a4.26,4.26,0,0,0-1.26,1l-.41.29Zm-109.94,2-.24-.17a.66.66,0,0,0-.14-.15,95.8,95.8,0,0,1-25.2-25.18c-.4-.6-.74-.59-1.33-.29a71.93,71.93,0,0,0-23,17.88c-3.61,4.31-6.58,9-7.93,14.56-1.39,5.76.07,9.33,5.12,12.44a33.12,33.12,0,0,0,7.69,3.36,81,81,0,0,0,16.41,3,106.46,106.46,0,0,0,12,.63h2a130.5,130.5,0,0,0,14.8-.39c.24,0,.48,0,.72,0q9.21-.57,18.34-2a84.28,84.28,0,0,0,10-1.89c5.28-1.11,10.41-2.58,15-5.92l-.4-.12a101,101,0,0,1-19.54-4.09,24.25,24.25,0,0,0-4-1.27c-.56-.21-1.13-.4-1.68-.65l-6.8-3.05a2.17,2.17,0,0,0-.34-.22,40.93,40.93,0,0,1-6-3.16,11.86,11.86,0,0,0-3-1.77l0,0c-.08-.34-.34-.36-.62-.34a.45.45,0,0,0-.43-.43l-.22-.16a2.08,2.08,0,0,0-1-.65Zm127.91-36.58c-.37-.59-.9-1.18-.05-1.79,2.11-.21,4.05.55,6,1.09a27.38,27.38,0,0,0,13.08.85c6.89-1.47,11-6,13.29-12.41a35.77,35.77,0,0,0,1.06-18.64c-2.14-11.63-7.59-21.37-16.86-28.84a2.44,2.44,0,0,1-1-1.55c-4-19.4-13.24-36-28-49.21-22.14-20-48.15-27.56-77.59-22.85-16.49,2.64-31,9.73-43.77,20.51a68.43,68.43,0,0,1-6.17,5.1,6.09,6.09,0,0,1-2.19,1.09c-.94.19-1.35-.2-1.28-1.16a3,3,0,0,1,.39-1.16,13.84,13.84,0,0,1,2.53-3.22c.34-.35.45-.57,0-1-4.61-4.13-9.54-7.8-15.37-10.07-4.55-1.78-9.24-2.55-14-1.15-6.46,1.86-10.56,6.39-13.33,12.24-3.69,7.77-4.25,16-3,24.39a56.56,56.56,0,0,0,12.22,27.73,51,51,0,0,0,5.13,5.61c.25-.55.45-1,.69-1.47s.59-1.09,1.29-1,.82.77.93,1.33a11.4,11.4,0,0,1,.21,1.93c.1,3-.24,6-.32,8.93A86,86,0,0,0,73,186.57,92.05,92.05,0,0,0,156.71,260,89.05,89.05,0,0,0,190.64,256,91.61,91.61,0,0,0,235,225.18,83.65,83.65,0,0,0,242,215c.14-.24.61-.63,0-.8-1.15-.34-2.1-1.13-3.3-1.34C238.37,212.25,237.67,212,237.28,211.45Z"/>
            <path class="efbf7a9f-72e1-4e24-b832-55d6a9693dee" d="M94.74,274.14h-1c0-.33,0-.59-.47-.6s-.58.2-.56.6a106.46,106.46,0,0,1-12-.63,81,81,0,0,1-16.41-3,33.12,33.12,0,0,1-7.69-3.36c-5-3.11-6.51-6.68-5.12-12.44,1.35-5.56,4.32-10.25,7.93-14.56a71.93,71.93,0,0,1,23-17.88c.59-.3.93-.31,1.33.29A95.8,95.8,0,0,0,109,247.71a.66.66,0,0,1,.14.15l.24.17h0c.14,1,.31,1.12,1,.65l.22.16c0,.15,0,.3,0,.45a.89.89,0,0,1-.9.39c-1.38-.43-2.45.53-3.64.85-.7.19-1.67-.18-1.91.15-.62.87-1.5.8-2.29,1.07-1,.36-2,.75-3.08,1-1.94.53-4,.42-6,.94-1.18.31-2.5.51-3.73.71-1.93.31-4,.15-5.81,1a.61.61,0,0,1-.3,0c-3.07-.23-6.1.57-9.17.22a2,2,0,0,0-.78.17c-.23.06-.41.24-.68.1a4.5,4.5,0,0,0-2.75-.22,23.57,23.57,0,0,1-2.91,0c-.71,0-1.55.37-2.28,0-1.1-.62-2.34-.33-3.47-.35a12.77,12.77,0,0,1-3.36-.55c-.87-.26-1.34-.11-1.75.64a6.55,6.55,0,0,0,.9,6.89,14.51,14.51,0,0,0,6.16,3.4,20.17,20.17,0,0,0,3.87,1.2,77.57,77.57,0,0,0,10.48,1.92c3.5.45,7,.86,10.53,1,.65.36,1.37.14,2,.2,0,.11.09.29.16.31.22.05.22-.16.25-.31H91a1.05,1.05,0,0,0,.85.92,1,1,0,0,1,.79.94c0,.81.51,1,1.24.93.44-.06.85-.06.7.61A1.93,1.93,0,0,0,94.74,274.14Zm-19.5-33.92a4.14,4.14,0,0,0-.71-2.2c-1.34-2.1-2.83-2.24-5.42-1.76-4.31.81-7.19,3.58-9,7.5a5.93,5.93,0,0,0-.35,4.86c.95,2.28,3.37,3.13,6.25,2.4a12.69,12.69,0,0,0,7-4.85A9.85,9.85,0,0,0,75.24,240.22Z"/>
            <path class="bbec2c05-5612-47fd-9006-8c312bf1f78d" d="M74.61,163.69c33.62,36.26,85.28,62.55,155.2,21.77,23.55,11.64,27.92-1.2,18.56-31.56,12.29-1.79,28,41,14.14,48-13.25,13.73-23.27,12.34-31.06-3.69l6.88,13.37c-9.66,48.71-116.81,71.28-148.54,5.62C75.56,201.67,73.7,183,74.61,163.69Z"/>
            <path class="b66d8698-f2b0-4174-8168-8b4a1e7d2fa9" d="M238.68,212.88c1.2.21,2.15,1,3.3,1.34.59.17.12.56,0,.8a83.65,83.65,0,0,1-7,10.16A91.61,91.61,0,0,1,190.64,256a91.64,91.64,0,0,1-88.83-19.13A90.23,90.23,0,0,1,73,186.57a86,86,0,0,1-1.78-19.79c.08-3,.42-5.95.32-8.93a11.4,11.4,0,0,0-.21-1.93c-.11-.56-.23-1.23-.93-1.33s-1,.46-1.29,1-.44.92-.69,1.47a51,51,0,0,1-5.13-5.61A56.56,56.56,0,0,1,51,123.71c-1.2-8.38-.64-16.62,3-24.39,2.77-5.85,6.87-10.38,13.33-12.24,4.81-1.4,9.5-.63,14,1.15,5.83,2.27,10.76,5.94,15.37,10.07.43.39.32.61,0,1a13.84,13.84,0,0,0-2.53,3.22,3,3,0,0,0-.39,1.16c-.07,1,.34,1.35,1.28,1.16a6.09,6.09,0,0,0,2.19-1.09,68.43,68.43,0,0,0,6.17-5.1c12.74-10.78,27.28-17.87,43.77-20.51,29.44-4.71,55.45,2.9,77.59,22.85,14.71,13.24,23.91,29.81,28,49.21a2.44,2.44,0,0,0,1,1.55c9.27,7.47,14.72,17.21,16.86,28.84a35.77,35.77,0,0,1-1.06,18.64c-2.26,6.42-6.4,10.94-13.29,12.41a27.38,27.38,0,0,1-13.08-.85c-2-.54-3.91-1.3-6-1.09a14.48,14.48,0,0,1-3.75-3.53.84.84,0,0,0-.81-.82h0c0-.59-.42-1-.63-1.45-.5-1.13-1.24-2.18-1.23-3.48s-.76-2.41-.61-3.7l.41.2c.32.94.4,2,1.23,2.68a5.35,5.35,0,0,0,2.26,3.29,12.52,12.52,0,0,0,4.48,3.24c.94.44,1.79,1.15,2.92,1.07h.2l.21.2a32.91,32.91,0,0,0,10.75.65,18.23,18.23,0,0,0,6-1.64c4-1.89,6.22-5.25,7.46-9.26a23,23,0,0,0,1.14-8.05,40.49,40.49,0,0,0-.22-4.8,27.39,27.39,0,0,0-1.24-5.87c.15-.82-.44-1.41-.64-2.12a24.11,24.11,0,0,0-2.64-6.31c.06-1.43-1-2.34-1.61-3.46a4.51,4.51,0,0,0-1.47-2.09c.05-.42-.23-.67-.45-1a30.69,30.69,0,0,1-2.44-3.34.57.57,0,0,0-.61-.61h-.21a4.37,4.37,0,0,0-1.67-2,24.07,24.07,0,0,0-3.77-2.9,1.29,1.29,0,0,0-1.51.16.38.38,0,0,0,0,.68,8.33,8.33,0,0,1,1.92,3.1c1.12,2.34,2.81,4.4,3.07,7.13.21,2.14,1.55,4.07,1.2,6.33,0,.21.14.44.2.67a4.79,4.79,0,0,1,.34,2.3,16.88,16.88,0,0,0-.56,4.75,1,1,0,0,1-.17.78,5.41,5.41,0,0,0-.88,2.25c-.2.58-.2,1.19-.39,1.78-.43,1.29-1.52,2.09-2.19,3.21a14.12,14.12,0,0,1-5.22,4.89c-.73.41-1.56.33-2.19.71-1.8,1.08-3.71.73-5.61.72-1,0-1.77-.76-2.77-.66a6.75,6.75,0,0,1-3.48-1,2.83,2.83,0,0,1-1.78-3c.1-.84,0-1.71,0-2.56,0-.45-.08-.87-.53-1s-.58.29-.79.54c-.78.91-1.53,1.83-2.89,1.86-.42,0-.62.36-.75.75s-.24.86-.75.84-.91.4-1.29.74c-.86.78-1.64,2-2.61,2.21-2.1.37-3.27,2.08-5,2.91-1.27.61-2.42,1.67-3.75,2.25-.73.32-1.26.88-2,1.15-1,.39-2.31.28-3,1.44a.42.42,0,0,1-.25.16c-1.9.51-3.64,1.49-5.57,1.91-.65.14-1.56.19-1.85.63a4,4,0,0,1-2.55,1.34c-2.25.66-4.37,1.87-6.82,1.76-.2,0-.42.21-.6.35a1.53,1.53,0,0,1-.92.42c-1.78,0-3.37,1.11-5.19.86a.54.54,0,0,0-.38.12c-.8.66-1.85.56-2.75.9-1.23.47-2.5-.31-3.73.19a7.3,7.3,0,0,1-1.24.33,28.88,28.88,0,0,1-4.16,0c-1,.06-1.7.64-2.59.68-2.2.1-4.4.11-6.6.23-1.72.09-3.41-.32-5.12-.22a3.23,3.23,0,0,1-2.15-.46,2.23,2.23,0,0,0-1.45-.24,14.68,14.68,0,0,1-4.49,0A16.11,16.11,0,0,0,145,209a9.6,9.6,0,0,1-1.67-.35s-2.64-.82-4-1a31.71,31.71,0,0,1-4.39-.83,20.23,20.23,0,0,0-3.21-1.18c-.57-.09-1.19.11-1.71-.24a7.71,7.71,0,0,0-3.42-1.48c-1.17-.11-2-1.08-3.21-1.12a1.74,1.74,0,0,1-1.81-1.08c-.07-.2-.42-.33-.67-.42-1.58-.53-3.39-.51-4.62-1.91-.14-.15-.45-.14-.68-.21a5.65,5.65,0,0,1-2.72-1.4,3.39,3.39,0,0,0-2.14-1.37c-1.43-.09-2.22-1.49-3.69-1.66-.81-.09-1.54-.91-2.13-1.69a3.72,3.72,0,0,0-2.62-1.45,1.65,1.65,0,0,1-.88-.45c-1.66-1.26-2.67-3.29-4.78-4-.09,0-.15-.14-.23-.21-.93-.85-1.48-2.2-3-2.25-.15,0-.31-.24-.46-.39-2.32-2.32-4.64-4.63-7-7-.58-.58-1.35-1.09-1.64-1.79-.79-1.89-2.65-2.94-3.48-4.76-.41-.91-1.33-1.34-2-2a29,29,0,0,1-2.37-3.63c-.14-.2-.24-.44-.53-.42s-.29.31-.35.53a11,11,0,0,0-.38,2.42q0,3.67,0,7.35c0,.32-.11.69.2,1a57.75,57.75,0,0,0,1.24,9.25c.41,1.8.84,3.6,1.22,5.41a22.49,22.49,0,0,0,1.24,4.25,2,2,0,0,0,.08.7c.87,1.94,1.46,4,2.25,5.95.93,2.31,2,4.58,3.14,6.82a52.49,52.49,0,0,0,4.19,7.08,18.79,18.79,0,0,0,2,3.1,85.47,85.47,0,0,0,9.17,11.18,81.59,81.59,0,0,0,10.27,9,85.75,85.75,0,0,0,13.64,8.48,90.62,90.62,0,0,0,21.58,7.42,85.56,85.56,0,0,0,15.71,1.72,82.75,82.75,0,0,0,9.32-.25c2.93-.3,5.88-.63,8.78-1.2a89.23,89.23,0,0,0,9.41-2.35,82.94,82.94,0,0,0,8.61-3.16,85.85,85.85,0,0,0,7.95-3.88,68.56,68.56,0,0,0,7.38-4.5c2.08-1.54,4.26-3,6.22-4.64q3.25-2.79,6.33-5.81a88.61,88.61,0,0,0,7.21-8.18A101.26,101.26,0,0,0,238.68,212.88ZM56.92,102.75c-2,4.46-2.24,9.21-2.45,14,.07.71.18,1.42.19,2.13a34.62,34.62,0,0,0,.71,6.59,55.08,55.08,0,0,0,4.38,13.48,46.43,46.43,0,0,0,9.91,13.87c.16.15.22.49.52.4s.28-.42.32-.69a84.9,84.9,0,0,1,3.31-13.24c.31-.92.53-1.87.8-2.81,1-1.44,1.17-3.18,1.84-4.73a21.49,21.49,0,0,0,2.44-5.63c.21-.64,0-1.24-.93-1.16a.77.77,0,0,1-.72-.26c-1.34-1.52-3.44-2.08-4.61-3.87s-3.65-2.46-4.1-4.87c0,0,0-.07-.06-.08-1-.52-1.07-1.54-1.26-2.48a2.51,2.51,0,0,0-.82-1.27c-.21-.22-.55-.46-.56-.71-.1-1.66-1.42-3-1.26-4.71.11-1.23-1-2.25-.67-3.54a5.65,5.65,0,0,0,.08-1.7,13.58,13.58,0,0,1,.23-5.28c.29-.89.19-1.76.4-2.61.13-.54-.25-.55-.52-.41a12.08,12.08,0,0,0-3.19,2.44,17.83,17.83,0,0,0-2.17,3A10.74,10.74,0,0,0,56.92,102.75ZM173.11,138a87.73,87.73,0,0,0,1.19,14.83,25.31,25.31,0,0,0,3.36,9.5,7,7,0,0,0,5.13,3.56,6.61,6.61,0,0,0,6.37-3c2.05-2.76,2.94-6,3.63-9.28a84.24,84.24,0,0,0,1.26-18.69,63.13,63.13,0,0,0-1.69-14.23c-.75-3-1.73-5.85-3.85-8.17a6.36,6.36,0,0,0-9.68-.09,16,16,0,0,0-3.51,6.76C173.48,125.37,173.25,131.73,173.11,138Zm-20.46.18a83.7,83.7,0,0,0-1.39-15.72,23.59,23.59,0,0,0-3.33-8.76,7,7,0,0,0-5.06-3.33,6.69,6.69,0,0,0-6.45,3.21,23.24,23.24,0,0,0-3.45,9,84.67,84.67,0,0,0-1.26,18.81,60.64,60.64,0,0,0,1.91,14.93,16.72,16.72,0,0,0,3.72,7.45,6.34,6.34,0,0,0,9.48.09,15.7,15.7,0,0,0,3.61-6.82C152.28,150.88,152.52,144.52,152.65,138.15Zm-36.47,33.46c4.57,0,6.76-.19,10.08-2.27a6.19,6.19,0,0,0,2.76-7.43c-.88-2.95-3.13-4.82-5.73-6.22a20.61,20.61,0,0,0-12.74-2.35,12.3,12.3,0,0,0-6.6,2.74,6.25,6.25,0,0,0-2.37,4.67,7.63,7.63,0,0,0,2.56,5.72A18.5,18.5,0,0,0,116.18,171.61Zm92.79,0a19,19,0,0,0,8.93-2.38,11.24,11.24,0,0,0,5.94-6.21,5.83,5.83,0,0,0-.71-5.63,10.08,10.08,0,0,0-6-3.7,19.3,19.3,0,0,0-7.9-.22,17.22,17.22,0,0,0-10.57,5.28c-3.05,3.37-3.16,7.77,1.17,10.68C202.25,171.13,205,171.61,209,171.64Zm-56.11.13c.25,4.44,1.47,8.54,4.71,11.77a7.35,7.35,0,0,0,10.73,0c3.14-3.14,4.38-7.1,4.7-11.4.25-3.32-1-5.44-4-6.75a14.72,14.72,0,0,0-11.85-.1C154.25,166.41,152.54,168.45,152.86,171.77Z"/>
            <path class="efbf7a9f-72e1-4e24-b832-55d6a9693dee" d="M240.08,273.9l-1.46,0a2.7,2.7,0,0,0,.56-3.42c.69-.2,1.7.3,1.91-.88l5.55-.41c.36.28.67.38.82-.2a7.16,7.16,0,0,0,2.47-.41c0,.16,0,.34.26.37s.32-.16.35-.37a1.3,1.3,0,0,1,.83-.21c0,.11.09.29.16.3.22.05.22-.15.25-.3.55,0,1.07-.31,1.64-.21.33.31.37.06.41-.2l3.5-.62c.32.31.37.06.41-.2l2.67-.62c.34.33.53.23.62-.21h.2l1.24-.41c.34.34.53.23.61-.2l.21-.21a.42.42,0,0,0,.41-.2c.17,0,.34,0,.5-.06a18,18,0,0,0,3.82-1.8c.68.28.57-.24.61-.61.77-1,1.7-1.93,1.85-3.29.58-.15.49-.46.21-.82v-.62c.55-1.11-.12-2.1-.32-3.14a5.35,5.35,0,0,0-1.13-2.13c-.67-.93-1.44-.34-2.2-.3a16.87,16.87,0,0,0-4.63.39c-1.66.54-3.47-.12-5.2.42-1.24.39-2.58,0-3.84.1-2.56.2-5.1-.79-7.65-.09-.23.07-.52-.12-.79-.17-1.15-.2-2.25-.83-3.46-.62-2,.34-3.75-.94-5.71-.66a.45.45,0,0,1-.28-.11,3.06,3.06,0,0,0-2.24-.47,7.12,7.12,0,0,1-1.59-.25c-.82-.17-1.54-.81-2.31-.73a9.45,9.45,0,0,1-3.76-.79c-2.38-.74-4.67-1.76-7.17-2.06-.48-.06-.28-.36-.35-.58l.42-.32c.39.21.34-.14.41-.33a.21.21,0,0,1,.16-.1l.25-.18h0l.19-.15.41-.29c.89.33,1.12.15,1.26-1l0,0a.24.24,0,0,0,.13-.11,100.79,100.79,0,0,0,14.66-14,88.76,88.76,0,0,0,6-7.92c.33-.48.57-.65,1.15-.36a72.2,72.2,0,0,1,23.64,18.41,18.68,18.68,0,0,1,1.69,2.54c-.74.15-.4.5-.19.88s.46.92,1.11.73c0,0,0-.13.05-.19a1.1,1.1,0,0,1,.58.67c-.16.88-.45,1.77.14,2.57.68-.19,0-1.07.73-1.17h0c0,.31-.06.62.39.64h0a.36.36,0,0,0,.23.4,1.41,1.41,0,0,1,.42.82c-.64.12-.51.55-.29.9a2.3,2.3,0,0,0,1.26,1.17l.21.65c-.12.23-.12.39.2.37a.11.11,0,0,1,0,.14c.17.51-.5,1.32.55,1.51l.08.4c-.37.32-.29.53.17.63a.12.12,0,0,1,0,.14c0,.51-.26,1.11.35,1.49-.05,1.32.45,2.6.19,3.93a.49.49,0,0,0-.13.49,1.28,1.28,0,0,1-.21.93c-.21.12-.22.31-.2.52a1.19,1.19,0,0,1-.3.73l-.13.19h0a.42.42,0,0,0-.21.39l-.44.62c-.46-.2-1-.52-1.41-.19s.09.92.2,1.39a.18.18,0,0,0,0,.09,1.34,1.34,0,0,1-.62.58c-.36,0-.62-.68-1-.12-.27.35-.27.62.15.81a1.66,1.66,0,0,1-.76.54l-.21.15a1.83,1.83,0,0,1-.8.48c-.29-.07-.27-.69-.48-.51-.41.34-1.32.39-1,1.31a8.38,8.38,0,0,1-2.26,1c0-.33,0-.67-.48-.58s-.27.6-.34.93a10.84,10.84,0,0,1-2.23.75c-.6-.57-3.17-.31-3.6.38-.2.32.2.37.28.57a2.75,2.75,0,0,1-1.16.25.42.42,0,0,0-.47.14l-.37.06c-.23,0-.48-.07-.66.15l-.36.06a.46.46,0,0,0-.46.13l-.58.07a.47.47,0,0,0-.45.13l-.62.07q-.13-.24-.18,0v0c-.23,0-.47-.07-.64.15l-.41.06c-.36-.88-1.1-.35-1.66-.41s-.38.44-.41.75l-.75.06a.49.49,0,0,0-.46.12l-1.18.09c-.31,0-.63-.12-.89.14l-1,.06-.25.09-2,.12-.28.09-.44,0c-.07-.09-.13-.08-.19,0l-1,0a.38.38,0,0,0-.48-.38c-.26,0-.33.2-.32.43v0C240.62,273.77,240.33,273.67,240.08,273.9Zm15.37-37.78c-2.65,0-4.19,1-4.67,3.1a6,6,0,0,0,.13,3.21c1.31,4.14,4.17,6.75,8.11,8.37a6.19,6.19,0,0,0,4.57.16c2.86-1,3.25-3.84,2.4-6.52a12.86,12.86,0,0,0-4.31-5.86A9.44,9.44,0,0,0,255.45,236.12Zm11.19,5.51c-.06.7.45,1.08.3,1.61C267.48,242.54,267.48,242.54,266.64,241.63Zm5.77,9.54-.2.18c.06.06.11.15.18.17s.13-.07.2-.11Zm-52.55-4.88c0,.06-.08.13-.06.17s.1,0,.16.07.08-.12.07-.16S219.92,246.31,219.86,246.29Zm53.82,9.93-.17-.07c0,.06-.08.13-.06.17s.1.05.16.08A1.34,1.34,0,0,0,273.68,256.22Zm-19.55,15.46.16-.08s-.09-.08-.14-.09-.11.05-.16.08Z"/>
            <path class="ace18d6b-e102-4c43-a326-2280752576de" d="M270.69,258.13v.62c-.3.21-.18.54-.21.82-.15,1.36-1.08,2.28-1.85,3.29-.26.15-.61.21-.61.61a18,18,0,0,1-3.82,1.8c-.16,0-.33,0-.5.06-.13-.18-.31-.28-.49-.11s0,.23.08.31l-.21.21c-.22,0-.47,0-.61.2l-1.24.41c0-.2,0-.42.19-.55s.65,0,.49-.43-.47-.31-.72-.23c-1.51.49-3,0-4.56.15-3.6.3-7.2-.3-10.8-.17a1.12,1.12,0,0,1-.41,0c-2.48-.81-5.1-.54-7.64-1-1.52-.26-3.06-.4-4.6-.55-1.24-.13-2.36-.75-3.57-.86a45.51,45.51,0,0,1-7.36-1.5c-2.71-.69-5.43-1.44-8.1-2.33q-3-1-6-2.15c-1.15-.43-2.31-.77-3.47-1.15a.79.79,0,0,0-.91.3c-.51.79-.7.37-.89-.18a118.69,118.69,0,0,0,11.28-6.19c.64.32,1.22.61,1.88-.11a.6.6,0,0,1,1,.47.56.56,0,0,0,.38.55,15,15,0,0,0,3.44,1.16,37.2,37.2,0,0,1,4.57.87c1.33.31,2.56,1,3.89,1.14,2.43.3,4.75,1.08,7.18,1.41a54.26,54.26,0,0,0,8.81.9,4.3,4.3,0,0,1,1.42.12c2.74.8,5.57.61,8.37.64,1.71,0,3.43-.15,5.16-.16a1.48,1.48,0,0,0,1.08-.2,2.42,2.42,0,0,1,1.64-.42c1-.05,2.12.32,3.13-.09a8.25,8.25,0,0,1,2.83-.32,1.36,1.36,0,0,1,1.22.75C270.59,256.8,270.27,257.56,270.69,258.13Z"/>
            <path class="ace18d6b-e102-4c43-a326-2280752576de" d="M62.88,265.74a14.51,14.51,0,0,1-6.16-3.4,6.55,6.55,0,0,1-.9-6.89c.41-.75.88-.9,1.75-.64a12.77,12.77,0,0,0,3.36.55c1.13,0,2.37-.27,3.47.35.73.41,1.57.07,2.28,0a23.57,23.57,0,0,0,2.91,0,4.5,4.5,0,0,1,2.75.22c.27.14.45,0,.68-.1a2,2,0,0,1,.78-.17c3.07.35,6.1-.45,9.17-.22a.61.61,0,0,0,.3,0c1.84-.85,3.88-.69,5.81-1,1.23-.2,2.55-.4,3.73-.71,2-.52,4-.41,6-.94,1-.29,2.06-.68,3.08-1,.79-.27,1.67-.2,2.29-1.07.24-.33,1.21,0,1.91-.15,1.19-.32,2.26-1.28,3.64-.85a.89.89,0,0,0,.9-.39l.44,0c.28,0,.54,0,.62.34l-.11.11c.1.13.1,0,.16-.06a11.86,11.86,0,0,1,3,1.77,40.93,40.93,0,0,0,6,3.16,2.17,2.17,0,0,1,.34.22c-1.13.44-2.19,1-3.32,1.5a52.53,52.53,0,0,1-6.6,2.06,34,34,0,0,0-3.4,1,9.68,9.68,0,0,1-2.81.82,5.77,5.77,0,0,0-2,.39A32.55,32.55,0,0,1,97.74,262a15.1,15.1,0,0,1-5,.66c-.18,0-.38.14-.58.17-1.36.14-2.64,1-4.09.49a1.42,1.42,0,0,0-.59.09,34,34,0,0,1-10.74.89,1.14,1.14,0,0,0-.69.12c-.9.69-1.89.31-2.84.26-.3,0-.61-.19-.9-.16a25.68,25.68,0,0,1-6.07,0,3.12,3.12,0,0,0-1.22,0,3.3,3.3,0,0,1-2.35.18C62.45,265.19,63,265.38,62.88,265.74Z"/>
            <path class="a5b7ca93-7774-4602-a10f-758aee466936" d="M91,270.05H89.81c-.68-.06-1.4.16-2-.2.22-.82.92-.92,1.59-1a9.81,9.81,0,0,0,1.32-.12c2.12-.59,4.35-.48,6.47-1.1,1.33-.38,2.78-.36,4.1-.75,2.2-.65,4.48-1,6.69-1.63,1.11-.33,2.3-.53,3.41-.94a12.48,12.48,0,0,1,2-.59,25.61,25.61,0,0,0,5.19-1.45c2.09-.88,4.36-1.24,6.38-2.29a14,14,0,0,1,4.74-1.45,24.25,24.25,0,0,1,4,1.27,101,101,0,0,0,19.54,4.09l.4.12c-4.56,3.34-9.69,4.81-15,5.92.18-1.3-.64-2.76.82-3.9l-.78-.07a18.44,18.44,0,0,0-4.47.94,91.75,91.75,0,0,1-9.22,1.5,114.91,114.91,0,0,1-12.57,1.32,7.79,7.79,0,0,0-3.2.35h-1.64A164.1,164.1,0,0,1,91,270.05Z"/>
            <path class="a5b7ca93-7774-4602-a10f-758aee466936" d="M188,270.11l-.39-.09c0-.09-.11-.11-.18,0-5.3-1.19-10.5-2.6-15.17-6l5.79-.86A90,90,0,0,0,194,259.18c.23-.08.46-.13.69-.19.12.52.48.27.8.3.81.07,1.66-.43,2.34-.14a22.9,22.9,0,0,1,2.64,1,19,19,0,0,0,5,2c2.06.48,4,1.26,6,1.9a76.4,76.4,0,0,0,7.47,2c3.42.73,6.76,1.75,10.25,2.22,1.73.24,3.49.46,5.23.69.79.11,1.07.3.76,1.06-2.34-.05-4.65.35-7,.21h-2.47c-2.65.1-5.3-.35-7.95-.21a1.58,1.58,0,0,1-.31,0l-10.65-.81c-.13-.19-.34-.18-.54-.21-1.38-.18-2.76-.41-4.14-.56a51.16,51.16,0,0,1-5.9-.87c-1.88-.41-3.86-.26-5.65-1.17-.52-.26-.91-.1-1.09.71C189.21,268.19,189.14,269.43,188,270.11Z"/>
            <path class="a005be83-96d3-48fd-9f9d-3ae0eb72d177" d="M129.6,258.51a14,14,0,0,0-4.74,1.45c-2,1.05-4.29,1.41-6.38,2.29a25.61,25.61,0,0,1-5.19,1.45,12.48,12.48,0,0,0-2,.59c-1.11.41-2.3.61-3.41.94-2.21.66-4.49,1-6.69,1.63-1.32.39-2.77.37-4.1.75-2.12.62-4.35.51-6.47,1.1a9.81,9.81,0,0,1-1.32.12c-.67.1-1.37.2-1.59,1-3.53-.13-7-.54-10.53-1a77.57,77.57,0,0,1-10.48-1.92,20.17,20.17,0,0,1-3.87-1.2c.08-.36-.43-.55-.26-1a3.3,3.3,0,0,0,2.35-.18,3.12,3.12,0,0,1,1.22,0,25.68,25.68,0,0,0,6.07,0c.29,0,.6.15.9.16,1,.05,1.94.43,2.84-.26a1.14,1.14,0,0,1,.69-.12,34,34,0,0,0,10.74-.89,1.42,1.42,0,0,1,.59-.09c1.45.48,2.73-.35,4.09-.49.2,0,.4-.19.58-.17a15.1,15.1,0,0,0,5-.66A32.55,32.55,0,0,0,103,260.6a5.77,5.77,0,0,1,2-.39,9.68,9.68,0,0,0,2.81-.82,34,34,0,0,1,3.4-1,52.53,52.53,0,0,0,6.6-2.06c1.13-.46,2.19-1.06,3.32-1.5l6.8,3.05C128.47,258.11,129,258.3,129.6,258.51Z"/>
            <path class="a005be83-96d3-48fd-9f9d-3ae0eb72d177" d="M235.13,270.05c.31-.76,0-.95-.76-1.06-1.74-.23-3.5-.45-5.23-.69-3.49-.47-6.83-1.49-10.25-2.22a76.4,76.4,0,0,1-7.47-2c-2-.64-3.93-1.42-6-1.9a19,19,0,0,1-5-2,22.9,22.9,0,0,0-2.64-1c-.68-.29-1.53.21-2.34.14-.32,0-.68.22-.8-.3l8.22-3.31c.19.55.38,1,.89.18a.79.79,0,0,1,.91-.3c1.16.38,2.32.72,3.47,1.15q3,1.13,6,2.15c2.67.89,5.39,1.64,8.1,2.33a45.51,45.51,0,0,0,7.36,1.5c1.21.11,2.33.73,3.57.86,1.54.15,3.08.29,4.6.55,2.54.44,5.16.17,7.64,1a1.12,1.12,0,0,0,.41,0c3.6-.13,7.2.47,10.8.17,1.52-.12,3.05.34,4.56-.15.25-.08.61-.07.72.23s-.31.3-.49.43-.17.35-.19.55H261c-.23,0-.47,0-.62.21l-2.67.62a.4.4,0,0,0-.41.2l-3.5.62a.42.42,0,0,0-.41.2c-.57-.1-1.09.2-1.64.21h-.41a1.3,1.3,0,0,0-.83.21h-.61a7.16,7.16,0,0,1-2.47.41c-.28,0-.6-.1-.82.2l-5.55.41Z"/>
            <path class="e901f684-2342-459b-b8af-a29cb4279d97" d="M270.69,258.13c-.42-.57-.1-1.33-.53-1.93a1.36,1.36,0,0,0-1.22-.75,8.25,8.25,0,0,0-2.83.32c-1,.41-2.08,0-3.13.09a2.42,2.42,0,0,0-1.64.42,1.48,1.48,0,0,1-1.08.2c-1.73,0-3.45.18-5.16.16-2.8,0-5.63.16-8.37-.64a4.3,4.3,0,0,0-1.42-.12,54.26,54.26,0,0,1-8.81-.9c-2.43-.33-4.75-1.11-7.18-1.41-1.33-.17-2.56-.83-3.89-1.14a37.2,37.2,0,0,0-4.57-.87,15,15,0,0,1-3.44-1.16.56.56,0,0,1-.38-.55.6.6,0,0,0-1-.47c-.66.72-1.24.43-1.88.11l3.92-2.55c.07.22-.13.52.35.58,2.5.3,4.79,1.32,7.17,2.06a9.45,9.45,0,0,0,3.76.79c.77-.08,1.49.56,2.31.73a7.12,7.12,0,0,0,1.59.25,3.06,3.06,0,0,1,2.24.47.45.45,0,0,0,.28.11c2-.28,3.74,1,5.71.66,1.21-.21,2.31.42,3.46.62.27,0,.56.24.79.17,2.55-.7,5.09.29,7.65.09,1.26-.1,2.6.29,3.84-.1,1.73-.54,3.54.12,5.2-.42a16.87,16.87,0,0,1,4.63-.39c.76,0,1.53-.63,2.2.3a5.35,5.35,0,0,1,1.13,2.13C270.57,256,271.24,257,270.69,258.13Z"/>
            <path class="a005be83-96d3-48fd-9f9d-3ae0eb72d177" d="M109.13,270.05a7.79,7.79,0,0,1,3.2-.35,114.91,114.91,0,0,0,12.57-1.32,91.75,91.75,0,0,0,9.22-1.5,18.44,18.44,0,0,1,4.47-.94l.78.07c-1.46,1.14-.64,2.6-.82,3.9a84.28,84.28,0,0,1-10,1.89q-9.12,1.38-18.34,2c-.24,0-.48,0-.72,0-.11-.88.62-.41,1-.55C110,272.16,109.93,270.94,109.13,270.05Z"/>
            <path class="ace18d6b-e102-4c43-a326-2280752576de" d="M206.76,269.23l10.65.81a1.58,1.58,0,0,0,.31,0c2.65-.14,5.3.31,7.95.21-.06.11-.1.31-.18.33-.94.21-1.09.51-.29,1.19.51.42.26,1.18-.43,1.46-.31.13-.68.06-1,.16s-.76.33-.14.71c-3.22,0-6.42-.22-9.63-.46-2.48-.18-5-.31-7.44-.72-.19-.56-.24-1.24-1.13-1.11-.3,0-.37-.3-.22-.38C206.11,271,205.83,269.67,206.76,269.23Z"/>
            <path class="a005be83-96d3-48fd-9f9d-3ae0eb72d177" d="M206.76,269.23c-.93.44-.65,1.72-1.55,2.21-.15.08-.08.42.22.38.89-.13.94.55,1.13,1.11-2.9-.15-5.76-.62-8.62-1a95.23,95.23,0,0,1-9.91-1.78c1.11-.68,1.18-1.92,1.41-3,.18-.81.57-1,1.09-.71,1.79.91,3.77.76,5.65,1.17a51.16,51.16,0,0,0,5.9.87c1.38.15,2.76.38,4.14.56C206.42,269.05,206.63,269,206.76,269.23Z"/>
            <path class="ace18d6b-e102-4c43-a326-2280752576de" d="M109.13,270.05c.8.89.83,2.11,1.39,3.15-.36.14-1.09-.33-1,.55a130.5,130.5,0,0,1-14.8.39,1.93,1.93,0,0,1-.12-.69c.15-.67-.26-.67-.7-.61-.73.09-1.2-.12-1.24-.93a1,1,0,0,0-.79-.94,1.05,1.05,0,0,1-.85-.92,164.1,164.1,0,0,0,16.45,0c0,.17.05.35.26.37s.32-.16.36-.37Z"/>
            <path class="e901f684-2342-459b-b8af-a29cb4279d97" d="M223.63,274.11c-.62-.38-.25-.58.14-.71s.69,0,1-.16c.69-.28.94-1,.43-1.46-.8-.68-.65-1,.29-1.19.08,0,.12-.22.18-.33h1.24a.56.56,0,0,0,.56.6.57.57,0,0,0,.67-.6c2.34.14,4.65-.26,7-.21l6-.41c-.21,1.18-1.22.68-1.91.88a2.7,2.7,0,0,1-.56,3.42A147,147,0,0,1,223.63,274.11Z"/>
            <path class="e901f684-2342-459b-b8af-a29cb4279d97" d="M258.56,271.27c-.08-.2-.48-.25-.28-.57.43-.69,3-.95,3.6-.38A16.12,16.12,0,0,1,258.56,271.27Z"/>
            <path class="e901f684-2342-459b-b8af-a29cb4279d97" d="M272,265a.18.18,0,0,1,0-.09c-.11-.47-.68-1-.2-1.39s1,0,1.41.19A3.72,3.72,0,0,1,272,265Z"/>
            <path class="e901f684-2342-459b-b8af-a29cb4279d97" d="M270.92,246.59c-.74.1-.05,1-.73,1.17-.59-.8-.3-1.69-.14-2.57Z"/>
            <path class="e901f684-2342-459b-b8af-a29cb4279d97" d="M272.93,250.53a2.3,2.3,0,0,1-1.26-1.17c-.22-.35-.35-.78.29-.9A6.33,6.33,0,0,1,272.93,250.53Z"/>
            <path class="e901f684-2342-459b-b8af-a29cb4279d97" d="M269.47,244.52c0,.06,0,.18-.05.19-.65.19-.86-.28-1.11-.73s-.55-.73.19-.88A3.18,3.18,0,0,1,269.47,244.52Z"/>
            <path class="e901f684-2342-459b-b8af-a29cb4279d97" d="M250.13,272.89c0-.31-.08-.8.41-.75s1.3-.47,1.66.41A8.53,8.53,0,0,1,250.13,272.89Z"/>
            <path class="e901f684-2342-459b-b8af-a29cb4279d97" d="M267.19,268.2c-.32-.92.59-1,1-1.31.21-.18.19.44.48.51A4,4,0,0,1,267.19,268.2Z"/>
            <path class="ace18d6b-e102-4c43-a326-2280752576de" d="M221.17,244.61c-.14,1.11-.37,1.29-1.26,1A4.26,4.26,0,0,1,221.17,244.61Z"/>
            <path class="e901f684-2342-459b-b8af-a29cb4279d97" d="M270.44,266.23c-.42-.19-.42-.46-.15-.81.42-.56.68.17,1,.12A2.17,2.17,0,0,1,270.44,266.23Z"/>
            <path class="e901f684-2342-459b-b8af-a29cb4279d97" d="M264.11,269.57c.07-.33-.2-.81.34-.93s.48.25.48.58Z"/>
            <path class="a005be83-96d3-48fd-9f9d-3ae0eb72d177" d="M110.37,248.68c-.69.47-.86.36-1-.65A2.08,2.08,0,0,1,110.37,248.68Z"/>
            <path class="ace18d6b-e102-4c43-a326-2280752576de" d="M92.69,274.15c0-.4.12-.62.56-.6s.47.27.47.6Z"/>
            <path class="e901f684-2342-459b-b8af-a29cb4279d97" d="M273.93,253.2c-1.05-.19-.38-1-.55-1.51A4.1,4.1,0,0,1,273.93,253.2Z"/>
            <path class="e901f684-2342-459b-b8af-a29cb4279d97" d="M274.56,255.86c-.61-.38-.32-1-.35-1.49A3.47,3.47,0,0,1,274.56,255.86Z"/>
            <path class="e901f684-2342-459b-b8af-a29cb4279d97" d="M240.91,273.79c0-.23.06-.4.32-.43a.38.38,0,0,1,.48.38Z"/>
            <path class="e901f684-2342-459b-b8af-a29cb4279d97" d="M274.18,254.23c-.46-.1-.54-.31-.17-.63A.75.75,0,0,1,274.18,254.23Z"/>
            <path class="e901f684-2342-459b-b8af-a29cb4279d97" d="M271.31,247.23c-.45,0-.42-.33-.39-.64A.89.89,0,0,1,271.31,247.23Z"/>
            <path class="a005be83-96d3-48fd-9f9d-3ae0eb72d177" d="M111,249.27l-.44,0v-.45A.45.45,0,0,1,111,249.27Z"/>
            <path class="e901f684-2342-459b-b8af-a29cb4279d97" d="M240.08,273.9c.25-.23.54-.13.83-.13C240.66,274,240.36,273.9,240.08,273.9Z"/>
            <path class="e901f684-2342-459b-b8af-a29cb4279d97" d="M246.85,273.3c.26-.26.58-.14.89-.14A1.25,1.25,0,0,1,246.85,273.3Z"/>
            <path class="ace18d6b-e102-4c43-a326-2280752576de" d="M218.89,246.29c-.07.19,0,.54-.41.33Z"/>
            <path class="e901f684-2342-459b-b8af-a29cb4279d97" d="M255.9,271.87c.18-.22.43-.17.66-.15A.75.75,0,0,1,255.9,271.87Z"/>
            <path class="e901f684-2342-459b-b8af-a29cb4279d97" d="M252.61,272.49c.17-.22.41-.18.64-.15C253.07,272.56,252.84,272.51,252.61,272.49Z"/>
            <path class="e901f684-2342-459b-b8af-a29cb4279d97" d="M273.34,251.55c-.32,0-.32-.14-.2-.37C273.34,251.24,273.34,251.4,273.34,251.55Z"/>
            <path class="e901f684-2342-459b-b8af-a29cb4279d97" d="M273.56,263.05a.42.42,0,0,1,.21-.39Z"/>
            <path class="e901f684-2342-459b-b8af-a29cb4279d97" d="M256.93,271.66a.42.42,0,0,1,.47-.14A.52.52,0,0,1,256.93,271.66Z"/>
            <path class="e901f684-2342-459b-b8af-a29cb4279d97" d="M255.08,272.06a.46.46,0,0,1,.46-.13A.46.46,0,0,1,255.08,272.06Z"/>
            <path class="e901f684-2342-459b-b8af-a29cb4279d97" d="M274.21,261.73c0-.21,0-.4.2-.52A.61.61,0,0,1,274.21,261.73Z"/>
            <path class="e901f684-2342-459b-b8af-a29cb4279d97" d="M254.05,272.26a.47.47,0,0,1,.45-.13A.47.47,0,0,1,254.05,272.26Z"/>
            <path class="e901f684-2342-459b-b8af-a29cb4279d97" d="M271.54,247.64a.36.36,0,0,1-.23-.4Z"/>
            <path class="e901f684-2342-459b-b8af-a29cb4279d97" d="M248.92,273.07a.49.49,0,0,1,.46-.12A.44.44,0,0,1,248.92,273.07Z"/>
            <path class="e901f684-2342-459b-b8af-a29cb4279d97" d="M274.62,260.28a.49.49,0,0,1,.13-.49A.49.49,0,0,1,274.62,260.28Z"/>
            <path class="a005be83-96d3-48fd-9f9d-3ae0eb72d177" d="M187.46,270c.07-.09.13-.07.18,0h-.09Z"/>
            <path class="e901f684-2342-459b-b8af-a29cb4279d97" d="M273.78,262.65l.13-.19Z"/>
            <path class="a005be83-96d3-48fd-9f9d-3ae0eb72d177" d="M109.37,248l-.24-.17Z"/>
            <path class="ace18d6b-e102-4c43-a326-2280752576de" d="M221.34,244.46a.24.24,0,0,1-.13.11A.12.12,0,0,1,221.34,244.46Z"/>
            <path class="e901f684-2342-459b-b8af-a29cb4279d97" d="M269.47,266.92l.21-.15Z"/>
            <path class="ace18d6b-e102-4c43-a326-2280752576de" d="M219.3,246l-.25.18Z"/>
            <path class="e901f684-2342-459b-b8af-a29cb4279d97" d="M245.64,273.45l.25-.09Z"/>
            <path class="e901f684-2342-459b-b8af-a29cb4279d97" d="M242.74,273.71c.06-.09.12-.1.19,0l-.09,0Z"/>
            <path class="e901f684-2342-459b-b8af-a29cb4279d97" d="M243.37,273.66l.28-.09Z"/>
            <path class="ace18d6b-e102-4c43-a326-2280752576de" d="M219.5,245.86l-.19.15Z"/>
            <path class="e901f684-2342-459b-b8af-a29cb4279d97" d="M253.25,272.36q0-.27.18,0l-.09,0Z"/>
            <path class="a765dead-14c5-4d80-95b3-c4bb1fc24512" d="M173.11,138c.14-6.24.37-12.6,2.21-18.76a16,16,0,0,1,3.51-6.76,6.36,6.36,0,0,1,9.68.09c2.12,2.32,3.1,5.2,3.85,8.17a63.13,63.13,0,0,1,1.69,14.23,84.24,84.24,0,0,1-1.26,18.69c-.69,3.3-1.58,6.52-3.63,9.28a6.61,6.61,0,0,1-6.37,3,7,7,0,0,1-5.13-3.56,25.31,25.31,0,0,1-3.36-9.5A87.73,87.73,0,0,1,173.11,138Zm17.42,7.54c-.34.15-.47.47-.67.75a7.71,7.71,0,0,1-9.7,2.34,9.79,9.79,0,0,1-3.55-3.46,59.69,59.69,0,0,0,1.4,9.46,16.4,16.4,0,0,0,2.73,6.24,3.46,3.46,0,0,0,5.7.08,10.52,10.52,0,0,0,1.66-2.82,38.75,38.75,0,0,0,2.42-12.6l.12-.14s0-.05,0-.07Zm-12.8-21.46a20.15,20.15,0,0,0,.27,3.88c.39,2.17.94,4.28,2.58,5.9a4.3,4.3,0,0,0,6.3-.18,8.27,8.27,0,0,0,1.62-2.82,21.42,21.42,0,0,0,.9-9.4,12.68,12.68,0,0,0-1.91-6.09,4.42,4.42,0,0,0-7.66-.12,9.23,9.23,0,0,0-1,2A18.66,18.66,0,0,0,177.73,124.05Z"/>
            <path class="a765dead-14c5-4d80-95b3-c4bb1fc24512" d="M152.65,138.15c-.13,6.37-.37,12.73-2.22,18.9a15.7,15.7,0,0,1-3.61,6.82,6.34,6.34,0,0,1-9.48-.09,16.72,16.72,0,0,1-3.72-7.45,60.64,60.64,0,0,1-1.91-14.93A84.67,84.67,0,0,1,133,122.59a23.24,23.24,0,0,1,3.45-9,6.69,6.69,0,0,1,6.45-3.21,7,7,0,0,1,5.06,3.33,23.59,23.59,0,0,1,3.33,8.76A83.7,83.7,0,0,1,152.65,138.15ZM148,124.08c0-.68.05-1.37,0-2a13.8,13.8,0,0,0-2-6.78,4.41,4.41,0,0,0-7.55-.11,9,9,0,0,0-1.3,2.66,22.28,22.28,0,0,0-.69,9.22,11.45,11.45,0,0,0,2.4,6.52,4.16,4.16,0,0,0,3.32,1.54c2.43,0,3.69-1.55,4.58-3.5A16.59,16.59,0,0,0,148,124.08Zm-12.66,21.57a36.93,36.93,0,0,0,2.43,12.66,8.51,8.51,0,0,0,1.95,3,3.16,3.16,0,0,0,4.51.31,9.05,9.05,0,0,0,2.73-4.38,45.17,45.17,0,0,0,2.18-12.07c-1.62,2.58-3.76,4.18-6.78,4.26S137.09,148,135.32,145.65Z"/>
            <path class="a84e7fbb-77ea-4c86-82b1-b57fb917d615" d="M116.18,171.61a18.5,18.5,0,0,1-12-5.14,7.63,7.63,0,0,1-2.56-5.72,6.25,6.25,0,0,1,2.37-4.67,12.3,12.3,0,0,1,6.6-2.74,20.61,20.61,0,0,1,12.74,2.35c2.6,1.4,4.85,3.27,5.73,6.22a6.19,6.19,0,0,1-2.76,7.43C122.94,171.42,120.75,171.59,116.18,171.61Z"/>
            <path class="a84e7fbb-77ea-4c86-82b1-b57fb917d615" d="M209,171.64c-3.93,0-6.72-.51-9.19-2.18-4.33-2.91-4.22-7.31-1.17-10.68a17.22,17.22,0,0,1,10.57-5.28,19.3,19.3,0,0,1,7.9.22,10.08,10.08,0,0,1,6,3.7,5.83,5.83,0,0,1,.71,5.63,11.24,11.24,0,0,1-5.94,6.21A19,19,0,0,1,209,171.64Z"/>
            <path class="b8543b23-2704-49fa-9de5-5ea1617942fc" d="M74.61,136.46c-.27.94-.49,1.89-.8,2.81a84.9,84.9,0,0,0-3.31,13.24c0,.27,0,.59-.32.69s-.36-.25-.52-.4a46.43,46.43,0,0,1-9.91-13.87,55.08,55.08,0,0,1-4.38-13.48,34.62,34.62,0,0,1-.71-6.59c0-.71-.12-1.42-.19-2.13,1,.06,1.28.81,1.4,1.59a2.85,2.85,0,0,0,.61,1.37A17.5,17.5,0,0,1,59,123.2,13.7,13.7,0,0,0,62,127c1.77,1.86,3.68,3.6,5.55,5.37a2.72,2.72,0,0,0,.94.59,9.28,9.28,0,0,1,2.18,1.47C71.87,135.33,73,136.43,74.61,136.46Z"/>
            <path class="e73b27d8-ea00-4682-b00c-72dc6524ff0d" d="M56.92,102.75a10.74,10.74,0,0,1,1.81-4.12,17.83,17.83,0,0,1,2.17-3,12.08,12.08,0,0,1,3.19-2.44c.27-.14.65-.13.52.41-.21.85-.11,1.72-.4,2.61a13.58,13.58,0,0,0-.23,5.28,5.65,5.65,0,0,1-.08,1.7c-.3,1.29.78,2.31.67,3.54-.16,1.73,1.16,3,1.26,4.71,0,.25.35.49.56.71a2.51,2.51,0,0,1,.82,1.27c.19.94.24,2,1.26,2.48,0,0,0,0,.06.08.45,2.41,2.94,3.1,4.1,4.87s3.27,2.35,4.61,3.87a.77.77,0,0,0,.72.26c.92-.08,1.14.52.93,1.16a21.49,21.49,0,0,1-2.44,5.63c-.3-.41-.52-1-.93-1.19-1.31-.66-2.26-1.88-3.71-2.33a2.26,2.26,0,0,1-1.1-.71c-1.21-1.6-3-2.56-4.25-4.17-1-1.29-2.35-2.28-2.77-4a.7.7,0,0,0-.17-.25c-1.83-1.74-2.56-4.05-3.24-6.36-.19-.63-.83-.91-.88-1.56-.2-2.44-1.41-4.66-1.51-7.13C57.87,103.61,57.82,102.76,56.92,102.75Z"/>
            <path class="bbec2c05-5612-47fd-9006-8c312bf1f78d" d="M56.92,102.75c.9,0,.95.86,1,1.32.1,2.47,1.31,4.69,1.51,7.13.05.65.69.93.88,1.56.68,2.31,1.41,4.62,3.24,6.36a.7.7,0,0,1,.17.25c.42,1.68,1.79,2.67,2.77,4,1.21,1.61,3,2.57,4.25,4.17a2.26,2.26,0,0,0,1.1.71c1.45.45,2.4,1.67,3.71,2.33.41.21.63.78.93,1.19-.67,1.55-.89,3.29-1.84,4.73-1.63,0-2.74-1.13-3.92-2A9.28,9.28,0,0,0,68.51,133a2.72,2.72,0,0,1-.94-.59c-1.87-1.77-3.78-3.51-5.55-5.37a13.7,13.7,0,0,1-3-3.82,17.5,17.5,0,0,0-2.56-3.51,2.85,2.85,0,0,1-.61-1.37c-.12-.78-.4-1.53-1.4-1.59C54.68,112,55,107.21,56.92,102.75Z"/>
            <path class="a765dead-14c5-4d80-95b3-c4bb1fc24512" d="M152.86,171.77c-.32-3.32,1.39-5.36,4.25-6.53a14.72,14.72,0,0,1,11.85.1c3,1.31,4.29,3.43,4,6.75-.32,4.3-1.56,8.26-4.7,11.4a7.35,7.35,0,0,1-10.73,0C154.33,180.31,153.11,176.21,152.86,171.77ZM163,173.18c-3.09,0-5.24.91-6.62,2.8a1.26,1.26,0,0,0-.3,1.31,13.1,13.1,0,0,0,3.42,5.06,5,5,0,0,0,6.67.19,11.9,11.9,0,0,0,3.42-4.66,1.82,1.82,0,0,0-.4-2.28A7.6,7.6,0,0,0,163,173.18Zm7.51,1.37a10,10,0,0,0,.44-2.8,4.12,4.12,0,0,0-2.4-4.27,10.9,10.9,0,0,0-3.5-1.1,12.75,12.75,0,0,0-7.24.87c-1.23.57-2.43,1.29-2.7,2.74a9.6,9.6,0,0,0,.22,4.45C161.12,170.44,165.77,170.47,170.49,174.55Z"/>
            <path class="bbec2c05-5612-47fd-9006-8c312bf1f78d" d="M233.48,206.13c-.59,0-.86-.23-.81-.82A.84.84,0,0,1,233.48,206.13Z"/>
            <path class="e73b27d8-ea00-4682-b00c-72dc6524ff0d" d="M256.5,160.09a.57.57,0,0,1-.61-.61A.57.57,0,0,1,256.5,160.09Z"/>
            <path class="a3b24f0d-195a-4d96-bb70-fc6c449247fd" d="M241.7,207.16l.21.2Z"/>
            <path class="a35687cf-7baf-495d-a821-b19bd9dd1750" d="M75.24,240.22a9.85,9.85,0,0,1-2.19,5.95A12.69,12.69,0,0,1,66,251c-2.88.73-5.3-.12-6.25-2.4a5.93,5.93,0,0,1,.35-4.86c1.79-3.92,4.67-6.69,9-7.5,2.59-.48,4.08-.34,5.42,1.76A4.14,4.14,0,0,1,75.24,240.22Z"/>
            <path class="ace18d6b-e102-4c43-a326-2280752576de" d="M89.81,270.05h.41c0,.15,0,.36-.25.31C89.9,270.34,89.86,270.16,89.81,270.05Z"/>
            <path class="a35687cf-7baf-495d-a821-b19bd9dd1750" d="M255.45,236.12a9.44,9.44,0,0,1,6.23,2.46,12.86,12.86,0,0,1,4.31,5.86c.85,2.68.46,5.51-2.4,6.52a6.19,6.19,0,0,1-4.57-.16c-3.94-1.62-6.8-4.23-8.11-8.37a6,6,0,0,1-.13-3.21C251.26,237.14,252.8,236.13,255.45,236.12Z"/>
            <path class="e901f684-2342-459b-b8af-a29cb4279d97" d="M266.64,241.63c.84.91.84.91.3,1.61C267.09,242.71,266.58,242.33,266.64,241.63Z"/>
            <path class="e901f684-2342-459b-b8af-a29cb4279d97" d="M268,263.47c0-.4.35-.46.61-.61C268.59,263.23,268.7,263.75,268,263.47Z"/>
            <path class="e901f684-2342-459b-b8af-a29cb4279d97" d="M246.64,269.23c.22-.3.54-.18.82-.2C247.31,269.61,247,269.51,246.64,269.23Z"/>
            <path class="e901f684-2342-459b-b8af-a29cb4279d97" d="M270.48,259.57c0-.28-.09-.61.21-.82C271,259.11,271.06,259.42,270.48,259.57Z"/>
            <path class="a005be83-96d3-48fd-9f9d-3ae0eb72d177" d="M263.29,265.53c-.12-.08-.2-.2-.08-.31s.36-.07.49.11A.42.42,0,0,1,263.29,265.53Z"/>
            <path class="e901f684-2342-459b-b8af-a29cb4279d97" d="M260.41,266.56c.15-.25.39-.2.62-.21C260.94,266.79,260.75,266.89,260.41,266.56Z"/>
            <path class="e901f684-2342-459b-b8af-a29cb4279d97" d="M249.93,268.62h.61c0,.21-.08.4-.35.37S250,268.78,249.93,268.62Z"/>
            <path class="e901f684-2342-459b-b8af-a29cb4279d97" d="M262.47,265.94c.14-.24.39-.2.61-.2C263,266.17,262.81,266.28,262.47,265.94Z"/>
            <path class="e901f684-2342-459b-b8af-a29cb4279d97" d="M272.41,251.17l.18.24c-.07,0-.14.12-.2.11s-.12-.11-.18-.17Z"/>
            <path class="ace18d6b-e102-4c43-a326-2280752576de" d="M219.86,246.29c.06,0,.15,0,.17.08s-.05.11-.07.16-.15,0-.16-.07S219.84,246.35,219.86,246.29Z"/>
            <path class="e901f684-2342-459b-b8af-a29cb4279d97" d="M273.68,256.22a1.34,1.34,0,0,1-.07.18c-.06,0-.14,0-.16-.08s0-.11.06-.17Z"/>
            <path class="e901f684-2342-459b-b8af-a29cb4279d97" d="M257.33,267.38a.4.4,0,0,1,.41-.2C257.7,267.44,257.65,267.69,257.33,267.38Z"/>
            <path class="e901f684-2342-459b-b8af-a29cb4279d97" d="M253.42,268.2a.42.42,0,0,1,.41-.2C253.79,268.26,253.75,268.51,253.42,268.2Z"/>
            <path class="e901f684-2342-459b-b8af-a29cb4279d97" d="M251.37,268.41h.41c0,.15,0,.35-.25.3C251.46,268.7,251.42,268.52,251.37,268.41Z"/>
            <path class="e901f684-2342-459b-b8af-a29cb4279d97" d="M254.13,271.68l-.14-.09s.11-.08.16-.08.09.06.14.09Z"/>
            <path class="efbf7a9f-72e1-4e24-b832-55d6a9693dee" d="M111.69,249.66c-.06,0-.06.19-.16.06l.11-.11Z"/>
            <path class="a005be83-96d3-48fd-9f9d-3ae0eb72d177" d="M108.11,270.05c0,.21-.09.41-.36.37s-.23-.2-.26-.37Z"/>
            <path class="ace18d6b-e102-4c43-a326-2280752576de" d="M228.14,270.26a.57.57,0,0,1-.67.6.56.56,0,0,1-.56-.6Z"/>
            <path class="ad9b8b82-b0b6-4163-88ef-f6fa3d925afc" d="M177.73,124.05a18.66,18.66,0,0,1,1.07-6.83,9.23,9.23,0,0,1,1-2,4.42,4.42,0,0,1,7.66.12,12.68,12.68,0,0,1,1.91,6.09,21.42,21.42,0,0,1-.9,9.4,8.27,8.27,0,0,1-1.62,2.82,4.3,4.3,0,0,1-6.3.18c-1.64-1.62-2.19-3.73-2.58-5.9A20.15,20.15,0,0,1,177.73,124.05Z"/>
            <path class="a76f8e2a-827d-41ac-ad5c-726506b3d9b0" d="M190.52,145.5a38.75,38.75,0,0,1-2.42,12.6,10.52,10.52,0,0,1-1.66,2.82,3.46,3.46,0,0,1-5.7-.08A16.4,16.4,0,0,1,178,154.6a59.69,59.69,0,0,1-1.4-9.46,9.79,9.79,0,0,0,3.55,3.46,7.71,7.71,0,0,0,9.7-2.34c.2-.28.33-.6.67-.75Z"/>
            <path class="a76f8e2a-827d-41ac-ad5c-726506b3d9b0" d="M190.53,145.51l.09-.22s0,.06,0,.07l-.12.14Z"/>
            <path class="ad9b8b82-b0b6-4163-88ef-f6fa3d925afc" d="M148,124.08a16.59,16.59,0,0,1-1.28,7.5c-.89,1.95-2.15,3.5-4.58,3.5a4.16,4.16,0,0,1-3.32-1.54,11.45,11.45,0,0,1-2.4-6.52,22.28,22.28,0,0,1,.69-9.22,9,9,0,0,1,1.3-2.66,4.41,4.41,0,0,1,7.55.11,13.8,13.8,0,0,1,2,6.78C148,122.71,148,123.4,148,124.08Z"/>
            <path class="a76f8e2a-827d-41ac-ad5c-726506b3d9b0" d="M135.32,145.65c1.77,2.38,4,3.85,7,3.76s5.16-1.68,6.78-4.26a45.17,45.17,0,0,1-2.18,12.07,9.05,9.05,0,0,1-2.73,4.38,3.16,3.16,0,0,1-4.51-.31,8.51,8.51,0,0,1-1.95-3A36.93,36.93,0,0,1,135.32,145.65Z"/>
            <path class="a35687cf-7baf-495d-a821-b19bd9dd1750" d="M163,173.18a7.6,7.6,0,0,1,6.19,2.42,1.82,1.82,0,0,1,.4,2.28,11.9,11.9,0,0,1-3.42,4.66,5,5,0,0,1-6.67-.19,13.1,13.1,0,0,1-3.42-5.06,1.26,1.26,0,0,1,.3-1.31C157.74,174.09,159.89,173.17,163,173.18Z"/>
            <path class="a5b7ca93-7774-4602-a10f-758aee466936" d="M170.49,174.55c-4.72-4.08-9.37-4.11-15.18-.11a9.6,9.6,0,0,1-.22-4.45c.27-1.45,1.47-2.17,2.7-2.74a12.75,12.75,0,0,1,7.24-.87,10.9,10.9,0,0,1,3.5,1.1,4.12,4.12,0,0,1,2.4,4.27A10,10,0,0,1,170.49,174.55Z"/>
            <text class="a377fb8d-3015-44b1-a593-50d272e8df20" transform="translate(0 30.13)">OOPSY!!! S<tspan class="b890d0db-e4e2-4be5-8720-26b8224971ea" x="156.2" y="0">A</tspan>
                <tspan class="f0e71102-4e9b-41c9-b972-ae84ae88b097" x="178.09" y="0">ME S</tspan>
                <tspan class="f2df32f3-1b7e-4ae0-aa12-a27944b1b2ad" x="250.12" y="0">A</tspan>
                <tspan x="272.01" y="0">ME</tspan>
            </text>
        </g>
    </g>
</svg>