<?xml version="1.0" encoding="utf-8"?>
<?xml-stylesheet type="text/css" href="../style.css"?>
<svg xmlns="http://www.w3.org/2000/svg" viewBox="0 0 499.38 427.28">
    <g id="lose-layer" data-name="Layer 2">
        <g id="lose" data-name="lose">
            <text class="e243b33c-647a-4576-8691-ac11434464b7" transform="translate(0 31.41)">Better Luck N<tspan class="af2b8b6c-0411-460e-a8dd-130971c43953" x="307.86" y="0">e</tspan>
                <tspan x="331.56" y="0">xt</tspan>
                <tspan class="aa440515-5663-4be0-8c68-0e8d0226c013" x="382.57" y="0"></tspan>
                <tspan class="fa078005-74e1-4e8f-9763-af692c5839d6" x="391.68" y="0">T</tspan>
                <tspan x="416.09" y="0">ime</tspan>
            </text>
            <path class="b7c70ad4-415b-486a-9461-b2c68665ec37" d="M284,63.45c1,.35,2,.75,3,1,2.25.61,3.6,2.37,4.55,4.49,1.79,4,2.31,8.31,2.67,12.66.74,8.84.57,17.71.56,26.57,0,1.39.31,1.77,1.54,1.69,1.48-.1,3,.19,4.45.05,2.94-.29,5,1.45,7,3.39a128.3,128.3,0,0,1,9.91,11.7,36.18,36.18,0,0,0,4.58,5,16.26,16.26,0,0,1,5.38,9v4.75c-.69-.14-1,.28-1.48.83-2.9,3.55-6.05,6.74-10.63,7.35a10.29,10.29,0,0,1-7.85-1.68c-2.65-2-5.25-4-7.88-6a3.77,3.77,0,0,0-1.27-.8c-.81-.2-1.42-.15-1.4,1.2.1,6.2.07,12.4.16,18.6,0,3,.21,5.95.34,8.93,0,.63-.29,1.56.41,1.78a2.26,2.26,0,0,0,2.36-.27,14.54,14.54,0,0,1,3.36-2.28c5.06-2.65,9.65-1.34,13.9,2.1,2.62,2.12,2.92,3.55,1.88,7a16.56,16.56,0,0,1-1.4,3.48,40,40,0,0,0-5,20c0,4.62-.25,9.24-.36,13.85a58,58,0,0,0,.31,7.46c.62,6-.69,11.52-2.79,17a149.45,149.45,0,0,1-10.69,22.26,9,9,0,0,1-1,1.44c-11.9,13.52-23.86,27-35.69,40.58a146,146,0,0,0-9.74,12.76c-1.19,1.72-1.39,3.79-1.63,5.84-.88,7.27.08,14.38,1.48,21.46,1,5,2.1,9.9,2.28,15a58,58,0,0,1-.6,10.71c-.26,1.69-.9,3.28-2.84,3.4a8.18,8.18,0,0,0,1.34-4,21.57,21.57,0,0,0,.62-5.84l0-1.06s.11-.08.1-.11a1.33,1.33,0,0,0-.1-.28v-.37a9.94,9.94,0,0,0-.43-5.48,4.59,4.59,0,0,0-.25-3.47v-.54a21.7,21.7,0,0,0-1-4.75l-.4-.71a3,3,0,0,0-.23-2.22l-.4-2.16a4.75,4.75,0,0,0-.34-1.79,18.07,18.07,0,0,0-.66-4.45c0-1.37.26-2.83-.42-4a2.8,2.8,0,0,1-.17-2.48.3.3,0,0,0,.24-.39.34.34,0,0,0,0-.35l.1-4.75a5.14,5.14,0,0,0,.23-2.17c.13-1.2-.39-2.54.6-3.57a24.23,24.23,0,0,1,4.45-6.74c10.94-13.35,22.31-26.25,33.62-39.21,3.48-4,7.35-7.59,10.16-12.22a125.25,125.25,0,0,0,11-23.4c1.16-3.3,2.31-6.7,2-10.26a150.63,150.63,0,0,1-.34-19.12c0-1-.31-1.46-1.12-1.64l.6-.25c1.17-1.11.88-2.25.06-3.4l.32-.27c.61-.24.32-.82.37-1.25.39-3.35,0-6.77.94-10.29a4,4,0,0,1-4.68-.65,6.73,6.73,0,0,1-1.79-7.67,54.12,54.12,0,0,1,5-9.21c.47-.74.77-.63,1.24-.05,1.23,1.47,2.47,2.94,3.77,4.35.56.61,1.13,2,1.72,1.63.88-.53.93-2,.92-3.13a4.22,4.22,0,0,0-.92-2.48,8.29,8.29,0,0,0-3.57-2.86c-6.64-2.77-12.07-.32-16.11,5.92a2.22,2.22,0,0,0-.3,1.56c.15,1.38.22,2.78.42,4.16a145.49,145.49,0,0,1,.72,37.06c-.35,2.95-.89,5.87-1.39,8.79-.1.59-.1,1.55-1,1.36s-.61-1-.49-1.64c0-.18.09-.35.13-.53A118.73,118.73,0,0,0,298,193.3a332.69,332.69,0,0,1-2-34.71c-.05-4.9,0-9.81,0-15l-2.24.83c-7.69,2.93-15.28,6.19-23.18,8.42-.54.15-.66.52-.77,1-1.88,8.89-4.93,17.55-4.59,26.91,0,.49.09,1.06-.49,1.18s-.85-.36-.94-1a17.7,17.7,0,0,1-.08-4.54c.7-7,2.65-13.76,4-20.63.57-2.83,1.32-5,4.38-5a2.23,2.23,0,0,0,.64-.19c7.92-2.73,15.76-5.75,23.54-8.94a3.23,3.23,0,0,1,3.76.62c3.16,2.64,6.39,5.19,9.76,7.48a6.76,6.76,0,0,0,5.55,1.19,14.89,14.89,0,0,0,9.86-7.62,7.53,7.53,0,0,0-1.06-8.78c-.17.79-.39,1.55-.49,2.32-.16,1.17-.68,1.4-1.58.88a7.78,7.78,0,0,1-3-2.46c.82-.27,1.31.38,1.88.83,1.76,1.36,1.81,1.37,2.23-.94.17-.94,1-1.92,0-3-2.15-2.16-4.29-4.33-6.33-6.6-.87-1-1.26-.18-1.69.33s-1.71.78-.81,2c1.09,1.51,2.13,3.08,3.24,4.57a2.06,2.06,0,0,1,.6,1.76,28.88,28.88,0,0,1-3.93-5.09c-1.41-2.1-1.43-2.18.4-3.85.83-.75.73-1.19.09-2-1.68-2.08-3.28-4.24-4.95-6.33a15.4,15.4,0,0,0-5.7-4.78c-.61-.27-1.24-.6-1.78.15L302,112c-2.47-.28-4.54,1.3-6.85,1.8-8.05,1.75-15.93,4.24-23.83,6.62-7.54,2.26-15,4.7-22.37,7.66a7.88,7.88,0,0,0-4.68,5.17c-4.26,12.05-7.57,24.45-11.19,36.74-1.61,5.48-3.1,11-4.65,16.5-.17.59-.42,1.29-1.12,1s-.47-.91-.29-1.53c1.32-4.62,2.65-9.25,3.9-13.9.5-1.86,1.3-3.63,1.36-5.61a241.15,241.15,0,0,0-.87-29.69,1.3,1.3,0,0,0-.7-1.24A24.42,24.42,0,0,0,216,132.3c-3.53.39-6.87,1.62-10.28,2.57-2.17.61-3.13,2-3.46,4.23A118.27,118.27,0,0,0,201,154.15q-.47,22.62.4,45.22c0,.66.41,1.7-.57,1.79s-.83-1-.86-1.75c-.21-6.92-.46-13.85-.56-20.78-.13-8.57-.2-17.14.19-25.71,0-.84.14-1.54-1-1.49-3,.14-6.06.21-9.08.54a28.67,28.67,0,0,0-9.27,2.94c2.16-2.77,5-3.84,8.22-4.26A59.88,59.88,0,0,1,198,150c1.52,0,1.84-.61,1.91-2.05a56.75,56.75,0,0,1,1.33-10.23,3.87,3.87,0,0,1,1.9-2.77c5.6-3.1,11.49-4.78,17.81-4.17a20.14,20.14,0,0,1,9.24,3,5.53,5.53,0,0,1,2.85,4.68c.36,6.18.81,12.36.76,18.56a9.47,9.47,0,0,0,.48,3.27c.58-1.86,1.18-3.71,1.73-5.58,2-6.95,4.36-13.79,6.44-20.71a11.31,11.31,0,0,1,7.22-7.83c5.82-2.34,11.75-4.25,17.68-6.18.82-.26,1.48-.49,1.48-1.73,0-7.47.13-15,0-22.42-.06-3.44-1-6.81-1.19-10.27-.36-5.43,0-10.77,2.59-15.47,2-3.68,5.49-5.46,9.31-6.26.3-.06.68.11.84-.35Zm9.33,34.32h0c0-3.41,0-6.82,0-10.22a70.3,70.3,0,0,0-1.65-14.62c-1.32-5.86-4.53-8.37-10-7.87-.61,0-1.21.14-1.81.23-6,.88-9.4,4.54-10.41,11.07a39.41,39.41,0,0,0,0,11.27,104.18,104.18,0,0,1,.95,18.68c-.19,3.77-.07,7.54-.17,11.31,0,1.2.2,1.38,1.28,1.07q10.29-3,20.63-5.84c1.14-.31,1.34-.83,1.33-1.95C293.32,106.52,293.35,102.14,293.35,97.77ZM312,175.71a46.4,46.4,0,0,0-5.07,9.4,5.85,5.85,0,0,0,2.49,6.93,3,3,0,0,0,4.24-1.45c1.21-2.44,2.32-5,3.52-7.4a1.34,1.34,0,0,0-.19-1.75C315.29,179.59,313.68,177.69,312,175.71ZM298.74,110.5c-1.3,0-2.15,0-3,0-.34,0-.83-.17-.84.51,0,.3-.05.68.1.87.29.38.71.16,1,0C296.8,111.52,297.56,111.1,298.74,110.5Z"/>
            <path class="b7c70ad4-415b-486a-9461-b2c68665ec37" d="M189.67,378.64c-1.16.39-1.76-.14-2.22-1.35-1.29-3.35-1.57-6.92-2.08-10.44a66,66,0,0,0-3-13.17c-1-2.67-1.23-2.81-3.7-2.29-3.37.71-4,.24-5-3.42a60.39,60.39,0,0,1-.94-6.27c0-.33.11-.75-.33-.91v-3.65c.65-1.3.8-2.8,1.34-4.17,1-2.46,2.74-4.22,4.24-6.15a20.89,20.89,0,0,0,4.43-17c-1.6-9.75-3.66-19.4-5.23-29.16-2-12.68-3.73-25.39-3.39-38.3a229.67,229.67,0,0,1,2.73-27.1,77.92,77.92,0,0,0,1-13.15c-.28-11.17-.36-22.35-.45-33.52,0-3.22.14-6.44.29-9.65.13-2.77.28-2.92,2.32-3.21a12.28,12.28,0,0,0-1,6c0,8.32.07,16.65,0,25,0,7.53.78,15.08,0,22.59-.66,6.27-1.67,12.49-2.48,18.74a139,139,0,0,0-.33,33.43c1,8.68,2.37,17.28,3.88,25.86,1,5.59,1.9,11.2,3.2,16.72l1.09,5.86.3,2.12,0,2.54a30.43,30.43,0,0,1-2,8l-.58,1.37-.22.29q-1.32,2.07-2.65,4.14l-.6.72-1,1.09-.43.52-.06.1a8.07,8.07,0,0,0-3,7.43l.14.9.17,1.37a39.93,39.93,0,0,0,1.29,8.72c.39,1.8,1.41,1.15,2.36.74,1.17-.37,2.27-1.14,3.56-.62a15,15,0,0,1,2.23,2.83,35.22,35.22,0,0,1,1.24,3.53c.57,2.43,1,4.91,1.51,7.37,0,.6.06,1.21.1,1.81,0,.06-.07.13,0,.16a1.21,1.21,0,0,0,.18.28l.17.67c0,.61-.17,1.31.59,1.59-.68,1.86.74.94.41,5.34s.21,1.3.5,1.89l.16.67a6.71,6.71,0,0,0,.93,2.3Z"/>
            <path class="b7c70ad4-415b-486a-9461-b2c68665ec37" d="M199.94,427.28c-2.37-3.64-1.62-7.79-1.5-11.79a11.94,11.94,0,0,0-.49-5.1c-1.54-3.86-1.42-8-.79-12,1.72-10.87,1.63-21.73.88-32.66a37,37,0,0,0-2-10.22,3.81,3.81,0,0,1-.39-1.93h.34l1,1.13.79,1.49.39,1.08.56,2.16a1.26,1.26,0,0,0,.27,1.05,14.67,14.67,0,0,0,.39,3.3,6.57,6.57,0,0,0,.62,3.66c0,.52-.46.9-.27,1.45a9.75,9.75,0,0,0,.22,3.32c0,1.69.05,3.38.08,5.06l0,3a6.37,6.37,0,0,0,.16,2.57l.09.69a.46.46,0,0,0,0,.73l-.15,2.09a.18.18,0,0,0,0,.27l-.12,1,0,.68-.28,1.46-.74,5.45-.26,1.48-.07,1.45a2,2,0,0,0-.25,1.53l-.07,2.53v2.17l0,1.82a6.57,6.57,0,0,0,.57,2.94,1.9,1.9,0,0,0,.67,1.48h0c1,1.71.29,3.55.27,5.32,0,2.79-.47,5.57,0,8.35.12.65.3,1.52.95,1.51s.65-.9.77-1.47a65.24,65.24,0,0,0,1.33-12.63l.2-3.61,0-1.5,0-2.58a2.74,2.74,0,0,1,.3-2.47,5.35,5.35,0,0,0,.75-2.63,6.31,6.31,0,0,0,.34-1c.19-1.3.09-3,.44-3.86a16.41,16.41,0,0,0,.9-5.31c.63-.77-.82-1.86.32-2.56a55.93,55.93,0,0,0,.59-7.65,49.52,49.52,0,0,0,0-6.56c.32-.69-.33-1.23-.24-1.88.59-.83.24-1.81.33-2.72.15-1.69.09-3.42,1-4.92l0,0A122.9,122.9,0,0,1,205,402.1c-.84,3.36-.33,6.89-.68,10.34-.41,4.13-.39,8.27-1.75,12.32-.48,1.4-1.48,1.56-2,2.52Z"/>
            <polygon class="a1aaeae6-8e60-4eb6-9574-61401c821bcd" points="202.2 309.45 205.23 309.39 206.38 305.47 209.23 309.45 209.23 316.92 204.59 318 202.2 316.92 202.2 309.45"/>
            <path class="b7c70ad4-415b-486a-9461-b2c68665ec37" d="M228.74,358.92c-1.46,1.77-1.62,4.06-2,6.23-1,6.26-1.73,12.57-3.34,18.68-.51,1.91-1.05,3.87-2.79,5l-.21-.21a17.77,17.77,0,0,0,1.31-4l.07-.68a9.2,9.2,0,0,0,.84-3c.08-.38.15-.77.23-1.15s.1-.46.14-.7l.71-4a32,32,0,0,0,.83-5.06l.66-4.32c.13-.88.25-1.76.38-2.63l.38-1.87,1.2-3.45c1-1.38,2.14-2.6,3.84-2.85l1-.17.57.07,1.14.25.86.73c.19,1-.47,2,0,2.94l.15.69a5.32,5.32,0,0,0,3.19,4.38l.84,1.48.07.66-.11,1.07-.4,1.57a1.35,1.35,0,0,0-.21,1.42l.16,5.49c-.06,1.21-.12,2.41-.19,3.62,0,.85,0,1.7-.07,2.56l-.41,1.7a2.32,2.32,0,0,0-.23,1.94,7.56,7.56,0,0,0,1.06,2.53,4.88,4.88,0,0,1,0,2.28c-.24,1.21-.84,2.34-.78,3.63l-.09.08,0,.09-.15.89c-.64,2.06-.1,4.16-.16,6.24-1.37-.65-1.52-1.94-1.42-3.35s.1-2.67.3-4c.35-2.22,1.22-4.3.2-6.69-.72-1.68-.25-3.65,0-5.53a63.08,63.08,0,0,0,.4-11.58,1.6,1.6,0,0,1,0-.72c1.39-2.84-.28-4.57-1.81-6.43a8.9,8.9,0,0,1-1.89-3.77v-.71c0-1.86-.64-2.42-2.23-1.83a2.82,2.82,0,0,0-1.85,1.86Z"/>
            <path class="b7c70ad4-415b-486a-9461-b2c68665ec37" d="M250.9,375.87c-1.12.23-1.59-.33-1.66-1.54-.28-4.53-.89-9-.66-13.61,0-.58.53-1.7-.54-1.73s-2.41-.74-2.88,1.13a33,33,0,0,0-1.15,7.13,55,55,0,0,0,.25,8.89,46,46,0,0,1-.52,12.28c-.34,2.51-.11,5.1-.75,7.57-.3,1.16-.69,2.29-1,3.45-.5,1.92-1.65,2.73-3.42,2.55.61-1,1.81-1.49,2.06-2.81a7,7,0,0,0,1-3c.69-3.45.19-7,1.05-10.47a4.69,4.69,0,0,0,.25-2.23c0-.82.06-1.64.1-2.45l-.11-4.07-.06-1.53a1.24,1.24,0,0,0-.8-1.42l.28-1.07c.46-.3.24-.74.2-1.14l0-4.69.11-1.86c.44-.92.21-2,.43-2.92l.12-.74.47-2.1a12.94,12.94,0,0,1,1.6-2.95c2.52-1.29,3.46-.86,4.67,2.14l.09,1.81.07.74-.19,1.85v1.06a8.89,8.89,0,0,0,.3,3.33C250.17,370.28,250,373.13,250.9,375.87Z"/>
            <path class="b7c70ad4-415b-486a-9461-b2c68665ec37" d="M220.65,388.79c-.46,2-1,2.18-2.53.84a2.74,2.74,0,0,1-1.29-2.65,6.42,6.42,0,0,0-1-4.47,3.31,3.31,0,0,1-.38-2.75,28.8,28.8,0,0,1,1.86-5.41,3.73,3.73,0,0,0-.32-4c-1.75-2.49-2.16-5.51-2.43-8.55-.08-.94.12-2.39-.74-2.58-1.25-.28-2.68-.58-3.93.54-.82.74-1.08,1.95-2,2.58l0,0c.07-2.21,1.45-3.59,2.66-5.08l1.29-.75,1.64,0,.35.23.66.43c.33.37.65.75,1,1.13.15.47.3.95.44,1.43.12,1.7-.3,3.44.26,5.12a9.4,9.4,0,0,0,2.47,5.26c1.4,1.85.34,3.58-.22,5.34-.39,1.52-1.54,2.69-1.6,4.36-.11,1-.23,1.94.91,2.3-.16.23-.45.45,0,.65l.39.71c.3,1.52.2,3.12.73,4.61.37,1,.82,1.19,1.56.47Z"/>
            <path class="a1aaeae6-8e60-4eb6-9574-61401c821bcd" d="M182.18,301.51l9.53,5.22L202,324l10.33-1.09,8.15-7.92,5.55-18.3c7.59-2.72,11.42,8.93,15.06,21.28l9.74,2.82c1.57,18.06,4,40.65,3.1,45.14-.13,4.15-.74,7.52-2,9.83-1.32-.14-3.66-10.6-5.85-19.64l-3.15,27.3c.19,5.89-.23,11.37-2.29,15.73-5,10.24-4.17-11.47-2.54-20.07l-1.32-16c-1.15.72-2.66-3.59-4.2-8.27l-5.39,2.95c-1.81,11.94-3.63,25.81-5.44,26.83-.61,4.77-1.6,5.54-2.87,3.52-2.33-4.54-3.27-9.27.24-14.62-2.36-5.44-3.81-10.58-3.64-15.16l-4.91-1.08-2.69,5.06-1.06,16.1L205,393.93l-1.53,7.5-.62,12.31c.92,6,.75,10.61-2.05,11.95-1,2.65-1.3-4.09-1.21-15.17-1.74-4.6-1.56-9.87-.63-15.4l.38-31.35-3.41-10.21-6.6,24.19c-2.81,1.21-4.14-13.68-5.74-25.61-7.31,1.18-13-.32-9.13-18.28l7.39-9.95L184.42,312Z"/>
            <path class="f4992d85-31bc-4b13-9706-c16eb98477b3" d="M183,304c-1.3-5.52-2.21-11.13-3.2-16.72-1.51-8.58-2.9-17.18-3.88-25.86a139,139,0,0,1,.33-33.43c.81-6.25,1.82-12.47,2.48-18.74.79-7.51,0-15.06,0-22.59,0-8.32,0-16.65,0-25a12.28,12.28,0,0,1,1-6l.44-.81a28.67,28.67,0,0,1,9.27-2.94c3-.33,6.05-.4,9.08-.54,1.15-.05,1.05.65,1,1.49-.39,8.57-.32,17.14-.19,25.71.1,6.93.35,13.86.56,20.78,0,.72-.25,1.86.86,1.75s.59-1.13.57-1.79q-.84-22.6-.4-45.22a118.27,118.27,0,0,1,1.28-15.05c.33-2.27,1.29-3.62,3.46-4.23,3.41-1,6.75-2.18,10.28-2.57a24.42,24.42,0,0,1,14.7,3.24,1.3,1.3,0,0,1,.7,1.24,241.15,241.15,0,0,1,.87,29.69c-.06,2-.86,3.75-1.36,5.61-1.25,4.65-2.58,9.28-3.9,13.9-.18.62-.41,1.27.29,1.53s1-.45,1.12-1c1.55-5.5,3-11,4.65-16.5,3.62-12.29,6.93-24.69,11.19-36.74a7.88,7.88,0,0,1,4.68-5.17c7.35-3,14.83-5.4,22.37-7.66,7.9-2.38,15.78-4.87,23.83-6.62,2.31-.5,4.38-2.08,6.85-1.8-.19.88-1,1.69-.27,2.81l.56-2.31c.54-.75,1.17-.42,1.78-.15a15.4,15.4,0,0,1,5.7,4.78c1.67,2.09,3.27,4.25,4.95,6.33.64.78.74,1.22-.09,2-1.83,1.67-1.81,1.75-.4,3.85a28.88,28.88,0,0,0,3.93,5.09,1,1,0,0,0,.91,1,7.78,7.78,0,0,0,3,2.46c.9.52,1.42.29,1.58-.88.1-.77.32-1.53.49-2.32a7.53,7.53,0,0,1,1.06,8.78,14.89,14.89,0,0,1-9.86,7.62,6.76,6.76,0,0,1-5.55-1.19c-3.37-2.29-6.6-4.84-9.76-7.48a3.23,3.23,0,0,0-3.76-.62c-7.78,3.19-15.62,6.21-23.54,8.94a2.23,2.23,0,0,1-.64.19c-3.06,0-3.81,2.2-4.38,5-1.38,6.87-3.33,13.6-4,20.63a17.7,17.7,0,0,0,.08,4.54c.09.62.31,1.1.94,1s.5-.69.49-1.18c-.34-9.36,2.71-18,4.59-26.91.11-.5.23-.87.77-1,7.9-2.23,15.49-5.49,23.18-8.42l2.24-.83c0,5.14,0,10.05,0,15a332.69,332.69,0,0,0,2,34.71,118.73,118.73,0,0,1-1.49,36.08c0,.18-.1.35-.13.53-.12.65-.34,1.46.49,1.64s.88-.77,1-1.36c.5-2.92,1-5.84,1.39-8.79a145.49,145.49,0,0,0-.72-37.06c-.2-1.38-.27-2.78-.42-4.16a2.22,2.22,0,0,1,.3-1.56c4-6.24,9.47-8.69,16.11-5.92a8.29,8.29,0,0,1,3.57,2.86A4.22,4.22,0,0,1,319,178c0,1.16,0,2.6-.92,3.13-.59.36-1.16-1-1.72-1.63-1.3-1.41-2.54-2.88-3.77-4.35-.47-.58-.77-.69-1.24.05a54.12,54.12,0,0,0-5,9.21,6.73,6.73,0,0,0,1.79,7.67,4,4,0,0,0,4.68.65c-.93,3.52-.55,6.94-.94,10.29-.05.43.24,1-.37,1.25a7,7,0,0,0-4.69-1.78,42.33,42.33,0,0,1,4.37,2.05c.82,1.15,1.11,2.29-.06,3.4a24.42,24.42,0,0,1-5-3,8.93,8.93,0,0,0,4.41,3.3c.81.18,1.16.63,1.12,1.64A150.63,150.63,0,0,0,312,229c.31,3.56-.84,7-2,10.26a125.25,125.25,0,0,1-11,23.4c-2.81,4.63-6.68,8.24-10.16,12.22-11.31,13-22.68,25.86-33.62,39.21a24.23,24.23,0,0,0-4.45,6.74c-1-.44-2,.74-3-.19-.1-.09-.19.47-.24.75l0,.15a.71.71,0,0,0-.57,1c-.58.29-.42,1-.76,1.47h0c-.23.13-.2.26,0,.39-.27.39-.5.24-.79,0s0-1.33-.86-.83a1.37,1.37,0,0,0-.63,1.89l-.05.06c-.65-.15-1-.74-1.3-1.26-.61-.94-1.79-1.41-2.39-1.09-1,.57-1.34-.11-1.88-.6-.05-.16-.1-.45-.15-.45-.31,0-.21.28-.24.47a.55.55,0,0,1-.63.33c-.33-.37-.42-.94-.91-1.19a.59.59,0,0,1-.23-.87c.38-.74.35-.76-.46-1.26-.42-1-1.47-1.29-2.08-2.08a2.18,2.18,0,0,0-1.61-.45c-.07-.87-.21-1.65-1.12-2-.42-.16-.82-.84-.4-1.13a2.14,2.14,0,0,0,.7-2.11c-.19-1.3.7-1.29,1.22-1.77.15-.13.18-.41.26-.63h0a.63.63,0,0,0,.65-.74c.22-.23,1.17.73.75-.55-.52-1.58-1.32-2.78-3.05-2.75,0-.74.11-1.47,1-.67.23.2.46.4.71.19s.08-.66-.06-.94c-.41-.77-1.11-1.34-1.31-2.26-.08-.39-.24-.72-.66-.59s-.32.57-.38.91h-.59c-.24-.65.74-1.62-.34-2s-1.45.49-1.83,1.32l-.52,1.11-3,1.48a6.42,6.42,0,0,0-.35,5.1q-1.46,1.86-.69,3c.28.8-1.29.07-.74,1.05.84,1.48.76,3.36,1.77,4.75-.42.58-.9-.6-1.21,0a1.79,1.79,0,0,0,0,1.68c.38.59.44,0,.52-.28l.64.07a3.15,3.15,0,0,0,1.32,2.17c-.57.55-.57.55.68,1.44.3.08.75-.06.82.38s-.37.6-.65.65c-.75.15-1.51.2-2.61.33,1.67,1,3.09,0,4.41.47l-.33,1.09-1-.41-.17,0,.1.11.06.73c-.42.24-1.15.11-1,1l-.65.11c.88-1.41-.9-.88-1-1.64-.06-.53-.44-.66-.86-.41-.14.08-.26.41-.17.39,1-.23-.48,1.46.7,1.11.62-.19.6,0,.32.6-.42.91.39.5.69.64l-.31.42c-.59-.22-1.48.39-1.71-.77l-.3-.38v-.36c-.07-.48-.16-.91-.67-.34l-.31,0a1.08,1.08,0,0,0-.68-1.07l-.33,0a4.06,4.06,0,0,1-.78-1.14c-.57-2.27-1.92-1.46-3.19-1.05h-.66c-1-.8-1,0-1,.76h0c-.35-.29-.55-.93-1.2-.48-.48.34-.42.72-.34,1.23a3.85,3.85,0,0,1-.12,1c.55,1.16-.23,2.47.33,3.63v0c0,1.27,1.1,2,1.33,3.33-1.09-.4-1.68.36-2.3,1-.14-.5-.21-1.32-.88-.52a1.87,1.87,0,0,1-1.18.84c-.32,0-.84-.47-.83.31,0,.58.52.48.9.48l.08.36a.81.81,0,0,1-.76.36c-.4-.31-.3.15-.39.32h-.84l-.15-.67c.1-1.87.1-1.87-.94-2.35-.07,0-.08-.23-.15-.31a.92.92,0,0,0-1.2-.21c-1,1.17-2.55.87-3.6,1.78-.14-1-.83-.72-1.38-.71-.31,0-.42.16-.4.56,0,.77,0,.77-.89.5-.12-.11-.23-.23-.35-.35.36-.25.38-.5,0-.76,0-.53.73-1.6-.67-1.1-.43-.93-.43-.92.37-1.25.51-.21.25-.68.28-1.06.69.5,1.14.44.95-.6a1.23,1.23,0,0,0-1.23-1.13c.1-2.07-1.05-3.07-2.65-2.06-.76.48-1.23,0-1.29-.34-.21-1.25-.13-1.27-1-1.6-.47.36-2-.86-1.38,1.15-.67,1.07-1.32.68-1.9-.09,0,0,.2-.53-.19-.59s-.5.33-.56.69c-.43,0-.63-.31-.68-.76a2.73,2.73,0,0,0,.74-3,3.89,3.89,0,0,1-.1-2.12v-1.44l-.37-1.82-.21-.4v-.73l-.38-1.79a2.49,2.49,0,0,0,.22-1.22c-.24-2.34-1.88-3.12-3.53-3.88l-.31-.23-.13-.1c.31-.65-.32-1.29.11-2.06.33-.59-1.28-2.41-1.4-2.08C183.87,304.93,183.41,303.75,183,304Zm24.17,5.43c-.12-.74-.23-1.5-.37-2.24-.06-.27-.34-.67-.53-.32-.42.79-1.72,1.18-1.07,2.52,0,.29,0,.59-.32.76a3.52,3.52,0,0,1-2.71-.7c-.08.24-.13.3-.12.34s.2.34.18.48c-.33,1.63,3,2.36.7,4.5.61-.16,1-.51,1.38-.47,1.66.17.84-.64.47-1.29l1.11.36c.5.45,1,.92,1.52,1.35s1,.46,1.28-.13,0-1.11-.7-1.22a1.88,1.88,0,0,1-.57-.31c1.67-1.58,1.66-1.81,0-3C207.32,309.94,207.28,309.64,207.2,309.43Zm3-173.38a4.49,4.49,0,0,0,1.78-.14c2.62-.61,5.2-1.41,8-.63,1.52.43,3,1.08,4.53,1.38a8.15,8.15,0,0,0-5.42-1.93c-1.18,0-2.41.54-3.52.29a7.51,7.51,0,0,0-5.32,1l-.26.3ZM252.09,250l-1.51,1.15-9.65,7c-.5.36-1.08.61-.91,1.49,1,5.18,2.89,9.67,7.36,12.34a2.11,2.11,0,0,0,2.82-.19c5.09-4.15,10.26-8.18,15.39-12.28a1.51,1.51,0,0,1,2.12-.18c4.42,2.85,8.91,5.55,13.37,8.32a1.81,1.81,0,0,0,1.83.35c4.3-1.72,6.93-4.93,7.78-10,.3-1.78-.13-2.69-1.65-3.48-3.31-1.74-6.5-3.75-9.93-5.75,4.2-3.34,8.18-6.55,12.22-9.69a2,2,0,0,0,.81-2.27c-.89-4.4-3.69-7-6.92-9.3a1.72,1.72,0,0,0-2.35.06c-5.17,3.82-10.4,7.54-15.55,11.37a2.12,2.12,0,0,1-2.55.24c-5.95-3-11.93-5.92-17.88-8.92a2.16,2.16,0,0,0-2.57.22c-3.42,2.53-5,6.12-5.34,10.56-.13,1.77.25,2.81,1.94,3.52C244.64,246.18,248.25,248.09,252.09,250Zm-68-93.95c3.86-.84,7.66-2.1,11.66-1.88C191.71,153.14,187.92,154.58,184.13,156Zm37.69-17.77c-3-1.42-6.07-1-9.12-.21a44.49,44.49,0,0,0,4.47-.13A18.6,18.6,0,0,1,221.82,138.23Zm23.92-6.2c1.15,2.47,3.57,4.36,5.48,4.38A16.28,16.28,0,0,1,245.74,132Zm-56.6,25.13c1.75-.06,3.42-.53,5.13-.59A5.9,5.9,0,0,0,189.14,157.16ZM249.33,295l-.41-.08c-.21.73,0,1.57-.45,2.28-.36.51.59.67.77,1.15.11.28.33.29.5,0,.29-.43-.07-.69-.18-1.06A11.88,11.88,0,0,1,249.33,295Zm-1.22-165.36,2.92,1.22A2.6,2.6,0,0,0,248.11,129.61ZM213.78,319c-.41-.49-.52-1.15-1.16-1a.48.48,0,0,0-.26.72C212.66,319.31,213.11,319.38,213.78,319Zm11.79,6.62.07-.24-.13,0Z"/>
            <path class="f3cd3fe7-1d4c-4dbf-b7bc-509f7912f078" d="M293.35,97.77c0,4.37,0,8.75,0,13.13,0,1.12-.19,1.64-1.33,1.95q-10.35,2.79-20.63,5.84c-1.08.31-1.31.13-1.28-1.07.1-3.77,0-7.54.17-11.31a104.18,104.18,0,0,0-.95-18.68,39.41,39.41,0,0,1,0-11.27c1-6.53,4.45-10.19,10.41-11.07.6-.09,1.2-.18,1.81-.23,5.5-.5,8.71,2,10,7.87a70.3,70.3,0,0,1,1.65,14.62c0,3.4,0,6.81,0,10.22Zm-8.67-25.91,3.86,6.54c.26.42.56.69.77,0,.82-2.65-1.33-6.75-3.79-7.25C285,71.05,284.47,70.92,284.68,71.86Zm-8.94,12.39c.44-1.36,2.13-2,2.9-1a3.66,3.66,0,0,0,2.43,1.7.79.79,0,0,1,.7.69c.14,1.93,1.35,1.47,2.4,1.35s2.41-.26,3.6-.5c1.94-.38,2.28-1,1.73-3a17.71,17.71,0,0,0-4-7.65,5.55,5.55,0,0,1-1.83-4.48,1.17,1.17,0,0,0-.77-1.24,4.52,4.52,0,0,0-4.29-.46,5.46,5.46,0,0,0-3.59,4.75c-.2,2.36-.39,4.73-.81,7-.24,1.3.85,2.13.57,3.35-.52,2.33-.5,2.39,1.65,2.64a23.63,23.63,0,0,0,3.47.08,1.45,1.45,0,0,0,1.39-.81c.33-.72-.15-.65-.56-.59A14.94,14.94,0,0,0,275.74,84.25Zm4.12,20.68c2,.24,4-.2,6,.49C283.94,104.13,281.91,104.39,279.86,104.93Zm3.28,4.45,0-.47-4.11-.24C280.35,109.71,281.78,109.16,283.14,109.38Z"/>
            <path class="ea46fb36-bdda-401b-9e23-767774bdd16d" d="M312,175.71c1.72,2,3.33,3.88,5,5.73a1.34,1.34,0,0,1,.19,1.75c-1.2,2.45-2.31,5-3.52,7.4a3,3,0,0,1-4.24,1.45,5.85,5.85,0,0,1-2.49-6.93A46.4,46.4,0,0,1,312,175.71Z"/>
            <path class="ea46fb36-bdda-401b-9e23-767774bdd16d" d="M319.05,135.32a1,1,0,0,1-.91-1,2.06,2.06,0,0,0-.6-1.76c-1.11-1.49-2.15-3.06-3.24-4.57-.9-1.25.35-1.48.81-2s.82-1.29,1.69-.33c2,2.27,4.18,4.44,6.33,6.6,1,1,.2,2,0,3-.42,2.31-.47,2.3-2.23.94C320.36,135.7,319.87,135.05,319.05,135.32Z"/>
            <path class="e994b441-0396-46b8-bd7b-5c77ec5ebb04" d="M310.51,208.23a8.93,8.93,0,0,1-4.41-3.3,24.42,24.42,0,0,0,5,3Z"/>
            <path class="e994b441-0396-46b8-bd7b-5c77ec5ebb04" d="M311.17,204.58a42.33,42.33,0,0,0-4.37-2.05,7,7,0,0,1,4.69,1.78Z"/>
            <path class="e994b441-0396-46b8-bd7b-5c77ec5ebb04" d="M302.27,112.48l-.56,2.31c-.77-1.12.08-1.93.27-2.81Z"/>
            <path class="a5952b56-a29d-4282-b3d6-0690fdb3813c" d="M253.93,364.9c-.26-.13-.31-.26,0-.39a1.33,1.33,0,0,1,.1.28S254,364.86,253.93,364.9Z"/>
            <path class="e973c043-af19-45cf-b093-f968dd0e1a0a" d="M174,339.1c.06.46.12.91.17,1.37"/>
            <path class="af6e9e2f-22b5-4c7c-b253-ca64cf0cc119" d="M177,330.68l.42-.53"/>
            <path class="a17fcb6b-4343-466d-b011-c2ce6c51cfe9" d="M186.58,365.29c.19,0,.48-.13.52.16s-.22.34-.35.51Z"/>
            <path class="bd5e8fef-75c0-4289-b3f3-72c56569b226" d="M225.61,363.08l.38-1.87"/>
            <path class="e994b441-0396-46b8-bd7b-5c77ec5ebb04" d="M252.09,250c-3.84-1.86-7.45-3.77-11.17-5.36-1.69-.71-2.07-1.75-1.94-3.52.33-4.44,1.92-8,5.34-10.56a2.16,2.16,0,0,1,2.57-.22c6,3,11.93,5.92,17.88,8.92a2.12,2.12,0,0,0,2.55-.24c5.15-3.83,10.38-7.55,15.55-11.37a1.72,1.72,0,0,1,2.35-.06c3.23,2.27,6,4.9,6.92,9.3a2,2,0,0,1-.81,2.27c-4,3.14-8,6.35-12.22,9.69,3.43,2,6.62,4,9.93,5.75,1.52.79,1.95,1.7,1.65,3.48-.85,5-3.48,8.23-7.78,10a1.81,1.81,0,0,1-1.83-.35c-4.46-2.77-8.95-5.47-13.37-8.32a1.51,1.51,0,0,0-2.12.18c-5.13,4.1-10.3,8.13-15.39,12.28a2.11,2.11,0,0,1-2.82.19c-4.47-2.67-6.37-7.16-7.36-12.34-.17-.88.41-1.13.91-1.49l9.65-7Zm-11,10c.94,4.69,2.77,8.7,6.77,11.12.77.47,1.28.21,1.92-.29q20.28-16.14,40.62-32.21a1.72,1.72,0,0,0,.66-2.12c-1.06-3.83-3.62-6.12-6.55-8.08-.59-.4-.92.05-1.31.34q-20.67,15-41.35,30C241.46,259,240.91,259.22,241.09,259.93Zm24.26-19.3c-6.17-3-12.31-6-18.4-9.15a2.11,2.11,0,0,0-2.67.36,12.7,12.7,0,0,0-4.34,9.62,1.8,1.8,0,0,0,1.18,2c3.71,1.72,7.44,3.39,11,5.39,1.68.94,2.37-.43,3.45-1,1.26-.64-.15-1.05-.13-1.58a3.11,3.11,0,0,1,.31-1c.39-.94.79-1.87,1.2-2.8.93-2.12,1-2.22,2.9-1.1S263.68,243.21,265.35,240.63Zm24.44,16.52c.3-.83-.37-1.11-1-1.45a64.48,64.48,0,0,1-7.39-4.39c-2.58-2-4.61-1.9-6.7.62-.9,1.1-2.42,1.5-3,3-.34.88-.6,1.46-1.76,1.28-.84-.13-1.82.81-2.14,1.68-.2.55.91.84,1.45,1.18,4,2.48,7.95,4.93,11.91,7.42a1.87,1.87,0,0,0,2,.25C287,265,289.24,261.86,289.79,257.15Zm-27.51-13.81c-4.18-2.46-4.18-2.46-5.91,1.86-.05.12-.09.23-.14.33a.82.82,0,0,0,.14,1.11.66.66,0,0,0,1,.1C259,245.6,260.59,244.51,262.28,243.34Z"/>
            <path class="e994b441-0396-46b8-bd7b-5c77ec5ebb04" d="M210.22,136.07a7.51,7.51,0,0,1,5.32-1c1.11.25,2.34-.25,3.52-.29a8.15,8.15,0,0,1,5.42,1.93c-1.56-.3-3-.95-4.53-1.38-2.76-.78-5.34,0-8,.63a4.49,4.49,0,0,1-1.78.14Z"/>
            <path class="e994b441-0396-46b8-bd7b-5c77ec5ebb04" d="M184.13,156c3.79-1.42,7.58-2.86,11.66-1.88C191.79,153.9,188,155.16,184.13,156Z"/>
            <path class="e994b441-0396-46b8-bd7b-5c77ec5ebb04" d="M221.82,138.23a18.6,18.6,0,0,0-4.65-.34,44.49,44.49,0,0,1-4.47.13C215.75,137.18,218.8,136.81,221.82,138.23Z"/>
            <path class="e994b441-0396-46b8-bd7b-5c77ec5ebb04" d="M245.74,132a16.28,16.28,0,0,0,5.48,4.38C249.31,136.39,246.89,134.5,245.74,132Z"/>
            <path class="e994b441-0396-46b8-bd7b-5c77ec5ebb04" d="M189.14,157.16a5.9,5.9,0,0,1,5.13-.59C192.56,156.63,190.89,157.1,189.14,157.16Z"/>
            <path class="f4992d85-31bc-4b13-9706-c16eb98477b3" d="M249.33,295a11.88,11.88,0,0,0,.23,2.33c.11.37.47.63.18,1.06-.17.25-.39.24-.5,0-.18-.48-1.13-.64-.77-1.15.48-.71.24-1.55.45-2.28Z"/>
            <path class="e994b441-0396-46b8-bd7b-5c77ec5ebb04" d="M248.11,129.61a2.6,2.6,0,0,1,2.92,1.22Z"/>
            <path class="b8c7380d-63b2-4427-9107-e825d77eafd5" d="M199.28,333.86c-.32-.26-1,.46-1.09-.56-.07-.73.12-1,.74-.92,1.4-.5.67.57.67,1.1Z"/>
            <path class="af6e9e2f-22b5-4c7c-b253-ca64cf0cc119" d="M213.78,319c-.67.39-1.12.32-1.42-.24a.48.48,0,0,1,.26-.72C213.26,317.84,213.37,318.5,213.78,319Z"/>
            <path class="b8c7380d-63b2-4427-9107-e825d77eafd5" d="M215.83,323.27c0,.72-.47.78-1,.76C214.87,323.28,214.83,322.47,215.83,323.27Z"/>
            <path class="b8c7380d-63b2-4427-9107-e825d77eafd5" d="M221.47,326.55c-.68,0-.68-.54-.68-1.07A1.08,1.08,0,0,1,221.47,326.55Z"/>
            <path class="af6e9e2f-22b5-4c7c-b253-ca64cf0cc119" d="M232.71,309.42v-.74h.65A.63.63,0,0,1,232.71,309.42Z"/>
            <path class="e994b441-0396-46b8-bd7b-5c77ec5ebb04" d="M210.21,136.05l-.25.32.26-.3Z"/>
            <path class="ae57ed1a-7320-49dd-bf2f-2930003b84a5" d="M280.76,86.14c.41-.06.89-.13.56.59a1.45,1.45,0,0,1-1.39.81,23.63,23.63,0,0,1-3.47-.08c-2.15-.25-2.17-.31-1.65-2.64.28-1.22-.81-2-.57-3.35.42-2.31.61-4.68.81-7a5.46,5.46,0,0,1,3.59-4.75,4.52,4.52,0,0,1,4.29.46,1.17,1.17,0,0,1,.77,1.24,5.55,5.55,0,0,0,1.83,4.48,17.71,17.71,0,0,1,4,7.65c.55,2,.21,2.59-1.73,3-1.19.24-2.4.36-3.6.5s-2.26.58-2.4-1.35a.79.79,0,0,0-.7-.69,3.66,3.66,0,0,1-2.43-1.7c-.77-1-2.46-.35-2.9,1-.05.74-.93,1.88-.09,2.13C277.3,86.85,279.12,87.53,280.76,86.14Zm4,0c1-.17,2.06-.35,3.09-.5s1.35-.78,1-1.9A18,18,0,0,0,285,76.45,6.37,6.37,0,0,1,283,71.87a1.17,1.17,0,0,0-.61-1.15c-2.25-1.44-5.86.16-6.4,3a59,59,0,0,0-.94,7.75c-.07,1.31.25,1.72,1.33,1,1.27-.88,2.36-.84,3.2.69a1.88,1.88,0,0,0,1.51,1c.52.06,1.09.3,1.2.83C282.61,86.56,283.69,86.22,284.72,86.19Z"/>
            <path class="ea46fb36-bdda-401b-9e23-767774bdd16d" d="M280.76,86.14c-1.64,1.39-3.46.71-5.11.24-.84-.25,0-1.39.09-2.13A14.94,14.94,0,0,1,280.76,86.14Z"/>
            <path class="ea46fb36-bdda-401b-9e23-767774bdd16d" d="M288.54,78.4l-3.86-6.54C287.57,72.42,288.81,74.51,288.54,78.4Z"/>
            <path class="e994b441-0396-46b8-bd7b-5c77ec5ebb04" d="M288.54,78.4c.27-3.89-1-6-3.86-6.54-.21-.94.33-.81.84-.71,2.46.5,4.61,4.6,3.79,7.25C289.1,79.09,288.8,78.82,288.54,78.4Z"/>
            <path class="aeb06d88-8796-4dae-baac-40e72676d65a" d="M241.09,259.93c-.18-.71.37-.92.76-1.2q20.67-15,41.35-30c.39-.29.72-.74,1.31-.34,2.93,2,5.49,4.25,6.55,8.08a1.72,1.72,0,0,1-.66,2.12q-20.34,16.06-40.62,32.21c-.64.5-1.15.76-1.92.29C243.86,268.63,242,264.62,241.09,259.93Zm20.49-4.23-.27,0,.05-.13.24.13c.1.83.47,1.87,1.22,1.44a33.34,33.34,0,0,0,4-3.15l-.3-.43a26.6,26.6,0,0,0-2.59,2.15A1.35,1.35,0,0,1,261.58,255.7Zm-.73-1h0l-.05,0a28.32,28.32,0,0,0-1.65-2.45c-.56-.69-.43-1.07.18-1.56,1.68-1.35,3.33-2.74,5-4.12s3.48-2.77,5.17-4.22c.71-.61,1.09-.52,1.49.34a24.14,24.14,0,0,0,1.81,3.46c.83,1.24.55,1.94-.54,2.7s-2.35,1.9-3.53,2.86l.31.42c1.54-1.25,3.08-2.5,4.63-3.73.51-.4.5-.78.19-1.36-1.11-2-2.16-4.07-3.32-6.26l-6.45,5.46-5.19,4.13a1.28,1.28,0,0,0-.25,2.07A16.28,16.28,0,0,0,260.85,254.7Zm-5.78,0c-.12-.72-.54-1.1-1.13-1.07a1,1,0,0,0-1,1.18,1,1,0,0,0,1.12,1C254.71,255.79,255,255.34,255.07,254.69Zm20.45-15c.06-.71-.32-.86-.79-.79s-1-.32-1.06.55c0,.63.23,1,.84,1.06A.88.88,0,0,0,275.52,239.66Zm8.13-5.63a.93.93,0,0,0-.94-1,.86.86,0,0,0-1,.92.91.91,0,0,0,.91,1C283.21,235,283.52,234.62,283.65,234ZM258.17,259.9c-.06-.65-.42-1-1-1a.9.9,0,0,0-1,.94.93.93,0,0,0,.93,1C257.71,260.88,258,260.48,258.17,259.9Zm-7.1,5.41c0-.66-.41-1.05-.93-1.05a1,1,0,0,0,0,2C250.66,266.32,251,265.9,251.07,265.31Zm34.17-26.19a1,1,0,0,0,1-.94.92.92,0,0,0-.92-1,.87.87,0,0,0-1,.92A.94.94,0,0,0,285.24,239.12Zm-7.63,4.14c-.6,0-1,.24-1.07.88a.91.91,0,0,0,.86,1.06.87.87,0,0,0,1-.88A.87.87,0,0,0,277.61,243.26Z"/>
            <path class="aeb06d88-8796-4dae-baac-40e72676d65a" d="M265.35,240.63c-1.67,2.58-3.49,2-5.49.78s-2-1-2.9,1.1c-.41.93-.81,1.86-1.2,2.8a3.11,3.11,0,0,0-.31,1c0,.53,1.39.94.13,1.58-1.08.54-1.77,1.91-3.45,1-3.57-2-7.3-3.67-11-5.39a1.8,1.8,0,0,1-1.18-2,12.7,12.7,0,0,1,4.34-9.62,2.11,2.11,0,0,1,2.67-.36C253,234.59,259.18,237.58,265.35,240.63ZM248.6,236a1,1,0,0,0-.89-1,1,1,0,0,0-.13,2C248.13,237,248.51,236.68,248.6,236Zm3.14,7.54c0-.69-.36-1.08-.89-1.12a.87.87,0,0,0-1,.92.91.91,0,0,0,.85,1.08C251.28,244.48,251.6,244.08,251.74,243.55Zm.71-5.93c-.49.11-.92.31-.94,1a.91.91,0,0,0,.88,1.05c.56,0,.92-.31,1-1A1,1,0,0,0,252.45,237.62ZM246.08,241a1,1,0,0,0-.94-.88.9.9,0,0,0-.92,1,.88.88,0,0,0,.92,1C245.67,242.1,246.05,241.76,246.08,241Z"/>
            <path class="aeb06d88-8796-4dae-baac-40e72676d65a" d="M289.79,257.15c-.55,4.71-2.76,7.82-6.6,9.59a1.87,1.87,0,0,1-2-.25c-4-2.49-7.94-4.94-11.91-7.42-.54-.34-1.65-.63-1.45-1.18.32-.87,1.3-1.81,2.14-1.68,1.16.18,1.42-.4,1.76-1.28.58-1.5,2.1-1.9,3-3,2.09-2.52,4.12-2.62,6.7-.62a64.48,64.48,0,0,0,7.39,4.39C289.42,256,290.09,256.32,289.79,257.15Zm-13,1.46c0-.69-.34-1.08-.92-1.09s-1,.48-1,1.16a1,1,0,0,0,.93,1.07C276.46,259.75,276.76,259.26,276.78,258.61Zm5.09,3.24a.92.92,0,0,0-1,1.06.93.93,0,1,0,1.86-.15A.85.85,0,0,0,281.87,261.85Zm3-3.17a1,1,0,0,0,1-1,.93.93,0,0,0-.94-1,.88.88,0,0,0-.93,1A1,1,0,0,0,284.85,258.68Zm-5.15-4.39a1,1,0,0,0-.81-1.09.89.89,0,0,0-1.09.79.87.87,0,0,0,.79,1.11C279.13,255.19,279.53,255,279.7,254.29Z"/>
            <path class="aeb06d88-8796-4dae-baac-40e72676d65a" d="M262.28,243.34c-1.69,1.17-3.32,2.26-4.91,3.4a.66.66,0,0,1-1-.1.82.82,0,0,1-.14-1.11c0-.1.09-.21.14-.33C258.1,240.88,258.1,240.88,262.28,243.34Z"/>
            <path class="f4992d85-31bc-4b13-9706-c16eb98477b3" d="M229.76,313.23c.26,0,.32.27.25.49s-.2.46-.34.48c-.31.06-.25-.27-.24-.47S229.45,313.26,229.76,313.23Z"/>
            <path class="e994b441-0396-46b8-bd7b-5c77ec5ebb04" d="M264.11,246.22l6.45-5.46c1.16,2.19,2.21,4.24,3.32,6.26.31.58.32,1-.19,1.36-1.55,1.23-3.09,2.48-4.63,3.73l-.31-.42c1.18-1,2.3-2,3.53-2.86s1.37-1.46.54-2.7a24.14,24.14,0,0,1-1.81-3.46c-.4-.86-.78-.95-1.49-.34-1.69,1.45-3.44,2.82-5.17,4.22Z"/>
            <path class="e994b441-0396-46b8-bd7b-5c77ec5ebb04" d="M264.35,246.55c-1.65,1.38-3.3,2.77-5,4.12-.61.49-.74.87-.18,1.56a28.32,28.32,0,0,1,1.65,2.45v0a16.28,16.28,0,0,1-2.18-2.28,1.28,1.28,0,0,1,.25-2.07l5.19-4.13Z"/>
            <path class="e994b441-0396-46b8-bd7b-5c77ec5ebb04" d="M261.58,255.7a1.35,1.35,0,0,0,2.31,0,26.6,26.6,0,0,1,2.59-2.15l.3.43a33.34,33.34,0,0,1-4,3.15c-.75.43-1.12-.61-1.22-1.44Z"/>
            <path class="e994b441-0396-46b8-bd7b-5c77ec5ebb04" d="M275.52,239.66a.88.88,0,0,1-1,.82c-.61,0-.87-.43-.84-1.06,0-.87.67-.49,1.06-.55S275.58,239,275.52,239.66Z"/>
            <path class="e994b441-0396-46b8-bd7b-5c77ec5ebb04" d="M283.65,234c-.13.59-.44,1-1,.94a.91.91,0,0,1-.91-1,.86.86,0,0,1,1-.92A.93.93,0,0,1,283.65,234Z"/>
            <path class="e994b441-0396-46b8-bd7b-5c77ec5ebb04" d="M258.17,259.9c-.14.58-.46,1-1,1a.93.93,0,0,1-.93-1,.9.9,0,0,1,1-.94C257.75,258.89,258.11,259.25,258.17,259.9Z"/>
            <path class="e994b441-0396-46b8-bd7b-5c77ec5ebb04" d="M251.07,265.31c-.1.59-.41,1-1,1a1,1,0,0,1,0-2C250.66,264.26,251,264.65,251.07,265.31Z"/>
            <path class="e994b441-0396-46b8-bd7b-5c77ec5ebb04" d="M285.24,239.12a.94.94,0,0,1-.89-1.05.87.87,0,0,1,1-.92.92.92,0,0,1,.92,1A1,1,0,0,1,285.24,239.12Z"/>
            <path class="e994b441-0396-46b8-bd7b-5c77ec5ebb04" d="M277.61,243.26a.87.87,0,0,1,.81,1.06.87.87,0,0,1-1,.88.91.91,0,0,1-.86-1.06C276.58,243.5,277,243.24,277.61,243.26Z"/>
            <path class="e994b441-0396-46b8-bd7b-5c77ec5ebb04" d="M254.34,254a.88.88,0,0,1,.8,1.06.87.87,0,0,1-1,.88.9.9,0,0,1-.86-1.06C253.3,254.21,253.73,254,254.34,254Z"/>
            <path class="e994b441-0396-46b8-bd7b-5c77ec5ebb04" d="M261.6,255.72l-.24-.13-.05.13.27,0Z"/>
            <polygon class="e994b441-0396-46b8-bd7b-5c77ec5ebb04" points="260.84 254.68 260.89 254.71 260.85 254.7 260.84 254.68"/>
            <path class="e994b441-0396-46b8-bd7b-5c77ec5ebb04" d="M248.6,236c-.09.67-.47,1-1,.92a1,1,0,0,1,.13-2A1,1,0,0,1,248.6,236Z"/>
            <path class="e994b441-0396-46b8-bd7b-5c77ec5ebb04" d="M251.74,243.55c-.14.53-.46.93-1,.88a.91.91,0,0,1-.85-1.08.87.87,0,0,1,1-.92C251.38,242.47,251.73,242.86,251.74,243.55Z"/>
            <path class="e994b441-0396-46b8-bd7b-5c77ec5ebb04" d="M252.45,237.62a1,1,0,0,1,.89,1.08c0,.64-.39,1-1,1a.91.91,0,0,1-.88-1.05C251.53,237.93,252,237.73,252.45,237.62Z"/>
            <path class="e994b441-0396-46b8-bd7b-5c77ec5ebb04" d="M246.08,241c0,.78-.41,1.12-.94,1.12a.88.88,0,0,1-.92-1,.9.9,0,0,1,.92-1A1,1,0,0,1,246.08,241Z"/>
            <path class="e994b441-0396-46b8-bd7b-5c77ec5ebb04" d="M276.78,258.61c0,.65-.32,1.14-1,1.14a1,1,0,0,1-.93-1.07c0-.68.31-1.17,1-1.16S276.74,257.92,276.78,258.61Z"/>
            <path class="e994b441-0396-46b8-bd7b-5c77ec5ebb04" d="M281.87,261.85a.85.85,0,0,1,.9.91.93.93,0,1,1-1.86.15A.92.92,0,0,1,281.87,261.85Z"/>
            <path class="e994b441-0396-46b8-bd7b-5c77ec5ebb04" d="M284.85,258.68a1,1,0,0,1-.91-1,.88.88,0,0,1,.93-1,.93.93,0,0,1,.94,1A1,1,0,0,1,284.85,258.68Z"/>
            <path class="e994b441-0396-46b8-bd7b-5c77ec5ebb04" d="M279.7,254.29c-.17.67-.57.9-1.11.81a.87.87,0,0,1-.79-1.11.89.89,0,0,1,1.09-.79A1,1,0,0,1,279.7,254.29Z"/>
        </g>
    </g>
</svg>