<?xml version="1.0" encoding="utf-8"?>
<?xml-stylesheet type="text/css" href="../style.css"?>
<svg xmlns="http://www.w3.org/2000/svg" viewBox="0 0 109.58 144.8">
    <g id="paper-layer" data-name="Layer 2">
        <g id="paper" data-name="paper">
            <path class="b44bf4b2-0fca-4c20-8cd3-a52553aa9992" d="M103.07,133l.41.8c-.44.08-.85.22-.68.72s.64.38,1,.42c.49,2,1,4.08,1.46,6.13.39,1.87-.11,2.37-2.3,2.19-3.72-.3-7.43-.64-11.13-1.08-2-.23-3.92-.31-5.89-.36-21.23-.5-42.43.15-63.63,1-6.5.27-12.9,1.14-19.33,1.87C.57,145-.09,144.38.8,142.35c1-2.39,1.33-4.92,2.05-7.37h.39l.08.36.2-.1L3.25,135l-.11-1,.17-1.23c.59.53,1,.95,1.23-.28s-.38-3,.14-4c1.29-2.55,1-5,.67-7.58a.32.32,0,0,1,0-.35l.85,0c.55-.4.36-1,.39-1.48,0-1.91-1.07-3.82,0-5.73v3H7v-3c.17-.68-.43-1.63.84-1.92A118.65,118.65,0,0,1,5.62,130c-.85,4.33-2,8.6-3,12.7,33.73-2.46,67.4-4.14,101.21-1.09-4.43-14.82-5.46-30-5.8-45.22-.49-21.79,1.66-43.47,4.67-65.08,2.28,1.16.31,2.3,0,3.45V37h.4V35.16c.78.81.26,1.79.43,2.68a.35.35,0,0,1,0,.37h-.82c-.79,1.32-.31,2.83-.84,4.19,0,.89,0,1.78,0,2.68-.84,1.2-.23,2.53-.42,3.79v0a.89.89,0,0,0,0,1.51,4.42,4.42,0,0,1-.83,2.7c.15,1.12-.39,2.32.4,3.38-.17,1.28.43,2.62-.42,3.83-.09-.61.19-1.25-.41-2.15V62.6c-.85,1.33-.22,2.77-.41,4.15a3,3,0,0,0-.42,2c0,1,0,2,0,3a10.47,10.47,0,0,1-.41,3.85q0,4.74,0,9.49v1.52c-.81,2.39-.37,4.81-.24,7.22,0,.14.42.26.65.38v2a20.94,20.94,0,0,0,0,9.12l0,1.16c0,.41-.05.84.4,1.11a4.09,4.09,0,0,1-.15,4.07A1.94,1.94,0,0,0,99.7,114c.12.76-.3,1.6.42,2.27v1.17c.16,1-.39,2.09.41,3h0c.17,1.14-.39,2.35.42,3.43a3,3,0,0,1,.42,1.91c-.4.25-.38.5,0,.75h0l.41.75.42,2.33c-.5.37-.48.74,0,1.11a2.46,2.46,0,0,1,.42,1.55c-.05,0-.14.08-.14.1s.1.17.15.26Zm-26,7.73,0,.17H87.24v-.17Zm-37.29.4v.19h6.55v-.19Zm-17.95.94v-.18H19.41v.18Zm-5.18.38a2.65,2.65,0,0,0-2.28,0Zm77.92-.75a1.51,1.51,0,0,0-1.7,0ZM2.46,144.05c.35-.18.8.39,1.18-.38C3.18,143.89,2.77,143.54,2.46,144.05Zm101.3-6.5c-.11.18-.22.28-.21.38a2,2,0,0,0,.16.49c.07-.1.18-.2.18-.3A2.63,2.63,0,0,0,103.76,137.55Zm-50.7,3.29c.2.1.32.2.42.2a2.57,2.57,0,0,0,.54-.16c-.11,0-.22-.15-.33-.15A3,3,0,0,0,53.06,140.84Zm-18.9,1,.4-.18a2.72,2.72,0,0,0-.53-.17c-.11,0-.23.09-.34.14Zm2-.23c.2.09.32.2.42.19a2.72,2.72,0,0,0,.54-.15c-.11-.06-.22-.16-.33-.16A3,3,0,0,0,36.14,141.61Zm60.23.45a1.19,1.19,0,0,0-.27-.17s-.12,0-.18,0,.06.22.09.22A2,2,0,0,0,96.37,142.06Z"/>
            <path class="ab493fef-27f5-4d4b-8868-eb035b2f7c6b" d="M6.64,113.27c-1.09,1.91,0,3.82,0,5.73-.56.4-.37,1-.39,1.48l-.85,0c1.69-19,.84-38,.59-57.06C5.82,51.7,4.07,40,3,28.35c-.65-7.27-1.84-14.49-2-21.8A28.05,28.05,0,0,0,.14,2.07C-.24.17.06-.19,2.09.08c19.07,2.53,38.34,2.4,57.54,3.2,13.09.54,26.17-.61,39.18-2.14,1.61-.18,3-1,4.7-1V.88h-1.7a1.32,1.32,0,0,0-1.26.76H99.28c-.47,0-.94,0-1.26.37l-.45,0h-.42a.92.92,0,0,0-.82.36l-3,0c-.46,0-.94,0-1.25.38-.62.58-1.41.3-2.13.37a1.55,1.55,0,0,0-2.09,0l-.9.37a8.51,8.51,0,0,0-5.46,0h0c-2.53.2-5.11-.43-7.6.37H51.05a1.61,1.61,0,0,0-1.15-.37c-4.7-.07-9.38-.61-14.08-.39H33.68a28.56,28.56,0,0,0-10.1,0l-3.65,0-.59,0,0-.43a7,7,0,0,0,2.91-.38h-5c-.46-.51-1.11-.33-1.7-.38-1.49-.78-3.12-.2-4.67-.37-2,.15-3.92-1-5.88,0l-1.86,0L1.54,1.6c-.59,0-.42.43-.4.68.18,1.92.27,3.83.58,5.75.44,2.77,1.33,5.54,1.12,8.44a19.17,19.17,0,0,0,.25,5.15A37,37,0,0,1,3.68,26c.17,1.26-.41,2.58.4,3.79.79.81.29,1.79.43,2.69a.89.89,0,0,0,0,1.51h0c.19.76-.38,1.62.42,2.28a1.24,1.24,0,0,1,0,1.87,1.55,1.55,0,0,0-.17,2.1,3.68,3.68,0,0,1,.56,2.51c0,1,0,2,0,3l.82,1.55a2.67,2.67,0,0,0,0,3L6.62,52a3.24,3.24,0,0,0,0,3.38c-.38,2.42-.86,4.84,0,7.26.09.64-.24,1.36.42,1.9.19,1.41-.53,3,.84,4.2,0,1.27,0,2.54,0,3.8H7.47v-3H7.15v8.17a7.41,7.41,0,0,0,.33-2.93h.43q0,3,0,6.08H7.47c-.54.45-.41,1.05-.41,1.6q0,10.59,0,21.18c0,.55-.13,1.15.41,1.6a1,1,0,0,1,.46.87c0,1.74,0,3.48,0,5.22-1.27.29-.67,1.24-.84,1.92ZM4,.94c-.35.19-.8-.38-1.16.34C3.31,1.14,3.72,1.42,4,.94ZM7.28,110.19c.25-.37.35-.73-.11-1C7.05,109.52,6.92,109.87,7.28,110.19Z"/>
            <path class="faa573e0-2a34-45df-9ddb-c5a05db8ff38" d="M108.56,5.45c0,.2,0,.4,0,.6s-.21.61-.31.92c-3.07,7.9-4.27,16.15-5.54,24.38C99.68,53,97.53,74.64,98,96.43c.34,15.21,1.37,30.4,5.8,45.22C70,138.6,36.34,140.28,2.61,142.74c1-4.1,2.16-8.37,3-12.7a118.65,118.65,0,0,0,2.26-18.69c0-1.74,0-3.48,0-5.22.22-8.42.17-16.84,0-25.26q0-3,0-6.08c0-.77,0-1.53,0-2.3,0-1.26,0-2.53,0-3.8,0-.63.07-1.26.06-1.9C7.64,50.9,5.21,35.15,4,19.32,3.49,13.37,1.9,7.56,1.54,1.6l1.56.07A93,93,0,0,0,19.34,3.21l.59,0a8.59,8.59,0,0,0,3.31.4c6.48.23,13,.26,19.43.71a326.87,326.87,0,0,0,49-.65c4.79-.38,9.35-1.8,14.12-2.24,3.23-.3,3.22-.29,2.83,2.53A12.69,12.69,0,0,0,108.56,5.45ZM46.84,26a2.33,2.33,0,0,0-2.57,0c-2.9.5-3.81,2.71-4.5,4.76-.55,1.6-1.42,1.95-3,1.81-1.25-.12-2.51-.2-3.78-.28s-2.74-.14-4.11-.2l-.07.61c2.79.45,5.55,1,8.36,1.32,1.33.13,1.62.45,1.52,1.58a27.83,27.83,0,0,0,.25,7.57c.29,1.54-.31,2-1.84,1.82a12,12,0,0,0-1.47,0,14.19,14.19,0,0,0-8.9.38,49.12,49.12,0,0,1,5.7.27L35,46.2l2.05.26,2.51.15c.2,1.71,0,3.44.44,5.13a7.65,7.65,0,0,0,.41,3.94c.61,1.78.07,2.54-2,2.71-4.35.36-8.59,1.63-13.16,1.27A4.81,4.81,0,0,0,29,60.8a66.32,66.32,0,0,0,9.87-.89c2.11-.44,2,.33,1.78,1.71-.45,3.56-2.19,6.78-3.09,10.21-.37.26-.83.45-.87,1-2.88-1.39-5.69-3.39-6.32-6.07-1.05-4.5-4.72-5.65-8.49-7a5.39,5.39,0,0,0-5.68,1.57c-1.34,1.58-.78,3.09.25,4.57.49.69,1,1.36,1.54,2,3.18,4.31,6.82,8.38,8.53,13.46a15.09,15.09,0,0,0,1.72,2.89c.15.69.75,1,1.3,1.44-.48.2-.32.39-.06.68.95,1,1.85,2.07,2.84,3.19-.81,0-1.45,0-2.08,0a3.76,3.76,0,0,0-2.38.47c5,.24,8.92,1.88,11.68,4.92S46.2,99.82,50,101.72c2.32,1.16,4.82,1.89,7.27,1.14A34.67,34.67,0,0,0,73.38,92.05c1.25-1.43,2.11-2.69,4.31-2.47H86a23.9,23.9,0,0,0-8.37-1.29c-1.27,0-1.83-.11-1.19-1.46a39.08,39.08,0,0,0,3.3-10.57c.16-1,.56-1.17,1.6-1.19a12.92,12.92,0,0,0,6-1.42c-2.18-.09-3.87.47-5.61.3-1.09-.11-1.61-.34-1.46-1.52.57-4.6,1.42-9.15,2.4-13.69.3-1.42,1.12-1.62,2.34-1.31.79.2,1.47.42,2.05-.45a12,12,0,0,0-1.23-.23c-1.93-.11-2.37-.73-1.54-2.45,1.67-3.43,3.17-7,2.38-10.82-.16-.78,1.08-1.25.57-1.38-1.12-.31-1-1.15-1.37-1.74S85,38.9,84,38.6a2.19,2.19,0,0,0-2.34-.13c-1.46.52-2,1.72-2.72,2.77-1.83.25-2.27-.37-2.23-2.08,0-2,.28-3.91.17-5.86-.07-1.31.51-1.58,1.81-1.6,2.94-.05,5.88-.24,8.82-.37a61.13,61.13,0,0,0-9-1c-1.26-.06-1.82-.4-2.12-1.54A3.73,3.73,0,0,0,73,26a4.32,4.32,0,0,0-4.32,1.81,6.39,6.39,0,0,0-.79,1.33c-.27.63-.55,1.16-1.46,1.09s-.81-.75-.95-1.25a6.8,6.8,0,0,0-1.29-3,3.14,3.14,0,0,0-1.28-1.56v0c-2.3-1.67-4.38-1.89-6-.41a11.51,11.51,0,0,0-3.36,6.06c-.19.82-.37,1.29-1.37,1.26s-1.87.46-2.23-.95-.8-3.05-2.4-4A.8.8,0,0,0,46.84,26Zm16.07,92.65c-3-.85-6-2-9.21-1.88q-10.65.38-21.28,1.1c-2.22.15-4.43.29-6.15.31a5.34,5.34,0,0,0,1.91.54,102.88,102.88,0,0,0,15.8.13c5-.4,10.1-1.22,15.06.42a21.38,21.38,0,0,0,8.08,1c6.53-.36,13-1.09,19.6-.7a24.71,24.71,0,0,0,3.32-.24c-3.37-.22-6.62-1.08-10-1.11a10.07,10.07,0,0,0-4.91,0l-6.77.46a6.73,6.73,0,0,0-2.49.12H63.7Zm20.68-14.26A83.71,83.71,0,0,0,61.85,104a89,89,0,0,1-17,0,67.73,67.73,0,0,0-14,.35c1.24.19,2.48.17,3.7.32a134.43,134.43,0,0,0,29.81.78c5.58-.57,11.25-.44,16.87-.63A4.4,4.4,0,0,0,83.59,104.39Z"/>
            <path class="eeed917e-496b-4557-82c0-2bfc43cf1130" d="M77,140.77H87.24v.17H77.05Z"/>
            <ellipse class="eeed917e-496b-4557-82c0-2bfc43cf1130" cx="43" cy="141.26" rx="4.63" ry="0.13"/>
            <ellipse class="eeed917e-496b-4557-82c0-2bfc43cf1130" cx="20.59" cy="142.02" rx="1.68" ry="0.13"/>
            <path class="eeed917e-496b-4557-82c0-2bfc43cf1130" d="M16.6,142.49H14.32A2.65,2.65,0,0,1,16.6,142.49Z"/>
            <path class="eeed917e-496b-4557-82c0-2bfc43cf1130" d="M94.52,141.74h-1.7A1.51,1.51,0,0,1,94.52,141.74Z"/>
            <path class="eeed917e-496b-4557-82c0-2bfc43cf1130" d="M53.06,140.84a3,3,0,0,1,.63-.11c.11,0,.22.1.33.15a2.57,2.57,0,0,1-.54.16C53.38,141,53.26,140.94,53.06,140.84Z"/>
            <path class="eeed917e-496b-4557-82c0-2bfc43cf1130" d="M34.16,141.84l-.47-.21c.11,0,.23-.15.34-.14a2.72,2.72,0,0,1,.53.17Z"/>
            <path class="eeed917e-496b-4557-82c0-2bfc43cf1130" d="M36.14,141.61a3,3,0,0,1,.63-.12c.11,0,.22.1.33.16a2.72,2.72,0,0,1-.54.15C36.46,141.81,36.34,141.7,36.14,141.61Z"/>
            <path class="b44bf4b2-0fca-4c20-8cd3-a52553aa9992" d="M108.56,5.45a12.69,12.69,0,0,1,0-1.51c.39-2.82.4-2.83-2.83-2.53-4.77.44-9.33,1.86-14.12,2.24a326.87,326.87,0,0,1-49,.65c-6.46-.45-13-.48-19.43-.71a8.59,8.59,0,0,1-3.31-.4l3.65,0H35.82a1.81,1.81,0,0,0,1.36.38l13.87.38h0a2,2,0,0,0,1.56.37H71.47A2,2,0,0,0,73,3.93h.87c2.53-.07,5.1.34,7.6-.37H87l.9-.37H90c.72-.07,1.51.21,2.13-.37.46,0,.94,0,1.25-.38l3,0h.83L97.57,2,98,2a1.41,1.41,0,0,0,1.26-.37h1.27c.61,0,1.19,0,1.26-.76h1.7a30.27,30.27,0,0,0,5-.18c.46-.1,1.12,0,1,.34C109.11,2.49,110.23,4.24,108.56,5.45Z"/>
            <path class="b44bf4b2-0fca-4c20-8cd3-a52553aa9992" d="M19.34,3.21A93,93,0,0,1,3.1,1.67L5,1.63c2-.41,3.91,1,5.88,0,1.55.17,3.18-.41,4.67.37H12.22V2.4h5c.6.59,1.4.3,2.11.38Z"/>
            <path class="eeed917e-496b-4557-82c0-2bfc43cf1130" d="M73,3.93a2,2,0,0,1-1.56.37H52.61a2,2,0,0,1-1.56-.37Z"/>
            <path class="eeed917e-496b-4557-82c0-2bfc43cf1130" d="M51.05,3.92,37.18,3.54a1.81,1.81,0,0,1-1.36-.38c4.7-.22,9.38.32,14.08.39A1.61,1.61,0,0,1,51.05,3.92Z"/>
            <path class="eeed917e-496b-4557-82c0-2bfc43cf1130" d="M33.68,3.15H23.58A28.56,28.56,0,0,1,33.68,3.15Z"/>
            <path class="eeed917e-496b-4557-82c0-2bfc43cf1130" d="M81.5,3.55c-2.5.71-5.07.3-7.6.37C76.39,3.12,79,3.75,81.5,3.55Z"/>
            <path class="eeed917e-496b-4557-82c0-2bfc43cf1130" d="M10.84,1.65c-2,1-3.92-.43-5.88,0C6.92.62,8.88,1.8,10.84,1.65Z"/>
            <path class="eeed917e-496b-4557-82c0-2bfc43cf1130" d="M87,3.53H81.51A8.51,8.51,0,0,1,87,3.53Z"/>
            <path class="eeed917e-496b-4557-82c0-2bfc43cf1130" d="M17.21,2.4h-5V2h3.29C16.1,2.07,16.75,1.89,17.21,2.4Z"/>
            <path class="eeed917e-496b-4557-82c0-2bfc43cf1130" d="M19.32,2.78c-.71-.08-1.51.21-2.11-.38h5A7,7,0,0,1,19.32,2.78Z"/>
            <path class="eeed917e-496b-4557-82c0-2bfc43cf1130" d="M90,3.16H87.87A1.55,1.55,0,0,1,90,3.16Z"/>
            <path class="eeed917e-496b-4557-82c0-2bfc43cf1130" d="M93.34,2.41c-.31.4-.79.36-1.25.38C92.4,2.37,92.88,2.41,93.34,2.41Z"/>
            <path class="a9857edf-4f0f-4d60-b43b-684f9b463339" d="M29.51,85.7c-.55-.4-1.15-.75-1.3-1.44a16.46,16.46,0,0,0-2.49-6.77c-1.9-3.3-3.7-6.64-5.54-10,.87,0,1.1.66,1.49,1.12,1.34,1.58,2.62,3.19,3.92,4.78,2,4.41,4.77,8.45,7.25,12.63a6.68,6.68,0,0,0,2.21,2.25,51.74,51.74,0,0,1,9.61,7.36c2.42,2.52,5.66,3.45,9,4.24A7.61,7.61,0,0,0,60,98.69c2.48-1.75,5.21-3.26,7.55-5.15,2.07-1.69,4.29-3.57,5.19-5.91a69.64,69.64,0,0,0,3.49-14.81c.45-3,.51-6,1.2-9A32,32,0,0,1,79.87,59c.18-.24.5-.58.08-.77-.23-.11-.66.1-1,.17-2.27-1.22-2.64-1.16-3.87.78-1,1.56-1.92,3.16-2.93,4.83a3.14,3.14,0,0,1-1.07-2.22,32.88,32.88,0,0,1,0-5.87c.32-2.14.19-3.67-2.76-3.66a1.38,1.38,0,0,1-.09-.29c2.35.45,3.46-.45,3.48-2.52a2.21,2.21,0,0,1,.2-.74c2.23-5.58,2.29-11.41,2.43-17.24A6.93,6.93,0,0,0,74.28,30a1.74,1.74,0,0,0-1.73-1.42c-.86-.06-1.21.53-1.48,1.14a8.48,8.48,0,0,0-.52,3c-.21,3.08.27,6.19-.44,9.26a57.1,57.1,0,0,1-6.83,17.65v-.83c2.85-8.31,5.44-16.66,5.62-25.44a8.15,8.15,0,0,1,.78-3.71c.59-1.13,1.3-2.17,2.94-2a2.71,2.71,0,0,1,2.42,2.33,19.64,19.64,0,0,1,.42,9.42c-.94,4.48-1.9,9-2.82,13.43-.64,3.12-1.49,6.24-.76,9.65,4-6.18,5.64-12.82,7.15-19.5.29-.69.52-1.41.88-2.08.71-1.34,1.72-2.28,3.58-1.8l0,0,.47.44c1.65,3,1.27,6,.61,9.08-1.07,5-3.56,9.55-4.91,14.47-2.27,8.24-2.14,16.85-5,25a44.57,44.57,0,0,1-16.35,12.84,7.86,7.86,0,0,1-5.1.71,22.58,22.58,0,0,1-9.87-4.79A162.73,162.73,0,0,0,29.51,85.7Zm47-28.48a8.35,8.35,0,0,1,1.88.11c2.13.72,2.5-.48,2.91-1.93A55.32,55.32,0,0,1,83.19,50c1.22-3.06.39-6.12.1-9.18,0-.42-.15-.93-.81-.94-.5,0-.7.39-.88.71a12.33,12.33,0,0,0-1.86,5.78C79.58,50.1,79.13,53.79,76.49,57.22Z"/>
            <path class="bb53acdc-8e7f-4653-b045-f4165afe54b5" d="M79,42.94c-1.51,6.68-3.19,13.32-7.15,19.5-.73-3.41.12-6.53.76-9.65.92-4.48,1.88-8.95,2.82-13.43a19.64,19.64,0,0,0-.42-9.42,2.71,2.71,0,0,0-2.42-2.33c-1.64-.15-2.35.89-2.94,2a8.15,8.15,0,0,0-.78,3.71c-.18,8.78-2.77,17.13-5.62,25.44-.42-.65-.85-1.29-1.27-1.93a53.28,53.28,0,0,1,.73-12.09c.72-3.72,1.37-7.47,1.88-11.22.48-3.54-1.92-7.74-4.88-8.93l3.2-.15v0c-.09.87-.1,1.67,1.28,1.56a6.8,6.8,0,0,1,1.29,3c.14.5,0,1.19.95,1.25s1.19-.46,1.46-1.09a6.39,6.39,0,0,1,.79-1.33A4.32,4.32,0,0,1,73,26a3.73,3.73,0,0,1,3.38,2.76c.3,1.14.86,1.48,2.12,1.54a61.13,61.13,0,0,1,9,1c-2.94.13-5.88.32-8.82.37-1.3,0-1.88.29-1.81,1.6.11,2-.14,3.9-.17,5.86,0,1.71.4,2.33,2.23,2.08C79,41.81,79,42.38,79,42.94Zm-15,7.82,2.19-7.23c2.26-3.65.61-7.54.85-11.31,0-.11-.24-.3-.39-.32a.42.42,0,0,0-.5.47c.41,3-1,5.7-1.21,8.58,0,.42-.2.95.57,1,1.56.08.72,1,.73,1.63-1.25-.19-1.69.28-1.81,1.42-.19,1.8-.61,3.59-.94,5.38a11,11,0,0,0-.38,5.1C63.48,53.9,63.77,52.33,64.07,50.76Zm10,2.28c.31-.12.51-.13.53-.2,1.23-3.15,1.54-6.54,3.26-9.55.17-.28.11-.49-.23-.55a1.65,1.65,0,0,0-.83,0c-.54.22-.43.75-.53,1.16C75.52,46.91,74.81,49.9,74.06,53Z"/>
            <path class="b44bf4b2-0fca-4c20-8cd3-a52553aa9992" d="M74.67,88c2.88-8.12,2.75-16.73,5-25,1.35-4.92,3.84-9.49,4.91-14.47.66-3.09,1-6.13-.61-9.08L83.52,39l0,0L84,38.6c1,.3,1.34,1,1.8,1.76s.25,1.43,1.37,1.74c.51.13-.73.6-.57,1.38.79,3.85-.71,7.39-2.38,10.82-.83,1.72-.39,2.34,1.54,2.45A12,12,0,0,1,87,57c-.58.87-1.26.65-2.05.45-1.22-.31-2-.11-2.34,1.31-1,4.54-1.83,9.09-2.4,13.69-.15,1.18.37,1.41,1.46,1.52,1.74.17,3.43-.39,5.61-.3a12.92,12.92,0,0,1-6,1.42c-1,0-1.44.18-1.6,1.19a39.08,39.08,0,0,1-3.3,10.57c-.64,1.35-.08,1.46,1.19,1.46A23.9,23.9,0,0,1,86,89.58h-8.3C77.18,88.3,75.21,89.25,74.67,88Z"/>
            <path class="bb53acdc-8e7f-4653-b045-f4165afe54b5" d="M74.67,88c.54,1.25,2.51.3,3,1.58-2.2-.22-3.06,1-4.31,2.47a34.67,34.67,0,0,1-16.12,10.81c-2.45.75-4.95,0-7.27-1.14C46.2,99.82,42.4,98.13,39.51,95S32.83,90.28,27.83,90a3.76,3.76,0,0,1,2.38-.47c.63,0,1.27,0,2.08,0-1-1.12-1.89-2.17-2.84-3.19-.26-.29-.42-.48.06-.68A162.73,162.73,0,0,1,43.35,96.76a22.58,22.58,0,0,0,9.87,4.79,7.86,7.86,0,0,0,5.1-.71A44.57,44.57,0,0,0,74.67,88Z"/>
            <path class="b44bf4b2-0fca-4c20-8cd3-a52553aa9992" d="M80.07,118.18c3.35,0,6.6.89,10,1.11a24.71,24.71,0,0,1-3.32.24c-6.56-.39-13.07.34-19.6.7a21.38,21.38,0,0,1-8.08-1c-5-1.64-10-.82-15.06-.42a102.88,102.88,0,0,1-15.8-.13,5.34,5.34,0,0,1-1.91-.54c1.72,0,3.93-.16,6.15-.31q10.62-.74,21.28-1.1c3.2-.11,6.19,1,9.21,1.88a.5.5,0,0,0,.79.12h2.2a2.73,2.73,0,0,0,2.49-.12l6.77-.46v.4c-.15.07-.44,0-.31.31A.26.26,0,0,0,75,119h3.83v-.37H76.43C77.56,117.85,78.87,118.39,80.07,118.18Zm-38.84.32v-.19h-7v.19Zm22.31.94-.09.19h5.24v-.19Zm-16.2-1.89v.18h4.88v-.18Zm6.08.21c.74,0,1.26.26,2-.28C54.67,117.52,54.15,117.3,53.42,117.76Z"/>
            <path class="b44bf4b2-0fca-4c20-8cd3-a52553aa9992" d="M63,24.46l-3.2.15a.21.21,0,0,1-.27,0l.43-.74c-.26,0-.59-.13-.76,0-.39.23,0,.52.07.78l0,0c-1.32-.19-2.52-.24-2.08,1.53h0c-1.87.23-1.89,1.43-1.77,2.71a.18.18,0,0,1-.07.24c-1.35.37-.64,1.37-.78,2.11,0,1.52,0,3,0,4.57-.78,3.71.76,7.54-.8,11.26-.49,1.15-.05,2.61,0,3.94l-.1.6-.28.47,0-.05c-.66.27-.52.8-.51,1.29l-.08.56-.49-.61c.1-.81.18-1.62.28-2.43.19-1.56.38-3.12.56-4.68.08-.66-.32-.89-1-.94s-.89.07-1,.66c-.52,3.11-.82,6.21.44,9.26-.73.27-1-.5-1.63-.55a.68.68,0,0,0-.1-.27c-.95-7.82.18-15.74-1.34-23.53.56-1.56-1-2.78-.86-4.28l0,0c1.6.94,2,2.52,2.4,4s1.34.92,2.23.95,1.18-.44,1.37-1.26A11.51,11.51,0,0,1,57,24.05C58.57,22.57,60.65,22.79,63,24.46Zm-9.81,8c0,.78-.74.43-1.3.45-1,0-1.2.44-1.08,1.21a52.83,52.83,0,0,1,.35,8.15c0,.68,0,1.22,1,1.3,1.21.09,1-.68,1-1.25C53.16,39.07,53.14,35.78,53.14,32.49Z"/>
            <path class="eeed917e-496b-4557-82c0-2bfc43cf1130" d="M83.59,104.39a4.4,4.4,0,0,1-2.41.36c-5.62.19-11.29.06-16.87.63a134.43,134.43,0,0,1-29.81-.78c-1.22-.15-2.46-.13-3.7-.32a67.73,67.73,0,0,1,14-.35,89,89,0,0,0,17,0A83.71,83.71,0,0,1,83.59,104.39Z"/>
            <path class="a9857edf-4f0f-4d60-b43b-684f9b463339" d="M36.66,72.78c0-.5.5-.69.86-1a7.35,7.35,0,0,0,2.6-2.92,9.81,9.81,0,0,0,2.4-4.06l.1-.91c1-2.55.32-5-.39-7.5h0a10.16,10.16,0,0,0-.83-3.62A11.72,11.72,0,0,0,41.29,51c-1.17-5.26-1-10.58-.7-15.88.15-2.6.62-5.3,3.37-7-.93,2.44-2,4.84-1.9,7.52.14,4.43,0,8.87.16,13.31.08,2.9.17,5.8,1.54,8.55a9.06,9.06,0,0,1,1,5.38c-.63,4.53-3.65,7.69-7.39,10.43C36.94,73.33,36.69,73.18,36.66,72.78Z"/>
            <path class="bb53acdc-8e7f-4653-b045-f4165afe54b5" d="M36.66,72.78c0,.4.28.55.7.49.42.47,1.23.73,1,1.53-1,0-1.69-.78-2.54-1.16a11.73,11.73,0,0,1-6.8-7A10,10,0,0,0,27.87,64a7.39,7.39,0,0,0-6.45-3,2.74,2.74,0,0,0-2,.23c-2.27.77-2.74,1.7-1.62,3.46a8.38,8.38,0,0,0,2.42,2.93h0c1.84,3.32,3.64,6.66,5.54,10a16.46,16.46,0,0,1,2.49,6.77,15.09,15.09,0,0,1-1.72-2.89c-1.71-5.08-5.35-9.15-8.53-13.46-.51-.68-1.05-1.35-1.54-2-1-1.48-1.59-3-.25-4.57a5.39,5.39,0,0,1,5.68-1.57c3.77,1.33,7.44,2.48,8.49,7C31,69.39,33.78,71.39,36.66,72.78Z"/>
            <path class="bb53acdc-8e7f-4653-b045-f4165afe54b5" d="M44,28.08c-2.75,1.69-3.22,4.39-3.37,7-.3,5.3-.47,10.62.7,15.88a11.72,11.72,0,0,1,.14,1.88c-.18.21-.36.41-.53.62A8.74,8.74,0,0,0,40.1,50c-.27-1.12.42-2.37-.53-3.41l-2.51-.15A2.32,2.32,0,0,0,35,46.2l-2.58-.51c.82-1.2,2.15-.36,3.2-.65a12,12,0,0,1,1.47,0c1.53.13,2.13-.28,1.84-1.82a27.83,27.83,0,0,1-.25-7.57c.1-1.13-.19-1.45-1.52-1.58-2.81-.28-5.57-.87-8.36-1.32l.07-.61c1.37.06,2.74.12,4.11.2s2.53.16,3.78.28c1.58.14,2.45-.21,3-1.81.69-2.05,1.6-4.26,4.5-4.76,0,.8,1,.69,1.3,1.21a.76.76,0,0,0,0,.3A2.71,2.71,0,0,0,44,28.08Z"/>
            <path class="b44bf4b2-0fca-4c20-8cd3-a52553aa9992" d="M40.1,50a8.74,8.74,0,0,1,.8,3.43c.33,1-.91,2.67,1.36,3h0a10,10,0,0,0,.39,7.5l-.1.91c-.3-.86-1-.44-1.61-.42.08,1.54-1.32,2.87-.79,4.48a7.35,7.35,0,0,1-2.6,2.92c.91-3.43,2.65-6.65,3.1-10.21.18-1.38.33-2.15-1.78-1.71A66.32,66.32,0,0,1,29,60.8a4.81,4.81,0,0,1-3.72-1.14c4.57.36,8.81-.91,13.16-1.27,2.08-.17,2.62-.93,2-2.71A7.65,7.65,0,0,1,40,51.74Z"/>
            <path class="ade21a95-d959-4593-b2fe-e4695bcbbebf" d="M35.63,45c-1.05.29-2.38-.55-3.2.65a49.12,49.12,0,0,0-5.7-.27A14.19,14.19,0,0,1,35.63,45Z"/>
            <path class="eeed917e-496b-4557-82c0-2bfc43cf1130" d="M84,38.6l-.52.46c-1.86-.48-2.87.46-3.58,1.8-.36.67-.59,1.39-.88,2.08,0-.56-.05-1.13-.08-1.7.74-1.05,1.26-2.25,2.72-2.77A2.19,2.19,0,0,1,84,38.6Z"/>
            <path class="b44bf4b2-0fca-4c20-8cd3-a52553aa9992" d="M45.57,27.22c-.3-.52-1.32-.41-1.3-1.21a2.33,2.33,0,0,1,2.57,0l0,.05c-.83,0-.82.59-.82,1.13A.72.72,0,0,1,45.57,27.22Z"/>
            <path class="ade21a95-d959-4593-b2fe-e4695bcbbebf" d="M75.17,118.59v-.4a10.07,10.07,0,0,1,4.91,0c-1.2.21-2.51-.33-3.64.42Z"/>
            <path class="eeed917e-496b-4557-82c0-2bfc43cf1130" d="M40.1,50,40,51.74c-.48-1.69-.24-3.42-.44-5.13C40.52,47.65,39.83,48.9,40.1,50Z"/>
            <path class="b44bf4b2-0fca-4c20-8cd3-a52553aa9992" d="M64.22,26c-1.38.11-1.37-.69-1.28-1.56A3.14,3.14,0,0,1,64.22,26Z"/>
            <path class="eeed917e-496b-4557-82c0-2bfc43cf1130" d="M35,46.2a2.32,2.32,0,0,1,2.05.26Z"/>
            <path class="ade21a95-d959-4593-b2fe-e4695bcbbebf" d="M68.39,118.65a2.73,2.73,0,0,1-2.49.12A6.73,6.73,0,0,1,68.39,118.65Z"/>
            <path class="ade21a95-d959-4593-b2fe-e4695bcbbebf" d="M63.7,118.77a.5.5,0,0,1-.79-.12Z"/>
            <path class="b44bf4b2-0fca-4c20-8cd3-a52553aa9992" d="M46.84,26a.8.8,0,0,1,.79.43l0,0-.8-.4Z"/>
            <path class="a65fbf79-bf9b-4d11-8192-ce181aba5edd" d="M44,28.08a2.71,2.71,0,0,1,1.59-.56,3.07,3.07,0,0,1,1.36,2.23c.54,6.65,1.2,13.29,1.59,20a9.56,9.56,0,0,0,1.3,4.56.68.68,0,0,1,.1.27c-.21.88.35,1.51.86,2.15.38.47.75,1,1.3.13a3.75,3.75,0,0,0,.72-.65c3.64-5.55,5.09-11.48,3.65-17.88A27.4,27.4,0,0,1,56.15,30a4.73,4.73,0,0,1,2-3.25c.66-.54,1.76-1.12,2.42-.29,1.47,1.83,3.17,3.8,3,6.11a35.59,35.59,0,0,1-.9,7.73C61,46.12,61.26,52.06,61.16,58c0,.79-.22,1.67.56,2.33a.25.25,0,0,1,.06.2c-.15.38,0,.65.39.83.92-.3.7-1.18,1.11-1.75A57.1,57.1,0,0,0,70.11,42c.71-3.07.23-6.18.44-9.26a8.48,8.48,0,0,1,.52-3c.27-.61.62-1.2,1.48-1.14A1.74,1.74,0,0,1,74.28,30a6.93,6.93,0,0,1,.09,1.51c-.14,5.83-.2,11.66-2.43,17.24a2.21,2.21,0,0,0-.2.74c0,2.07-1.13,3-3.48,2.52a1.38,1.38,0,0,0,.09.29c3,0,3.08,1.52,2.76,3.66a32.88,32.88,0,0,0,0,5.87A3.14,3.14,0,0,0,72.16,64c1-1.67,1.93-3.27,2.93-4.83,1.23-1.94,1.6-2,3.87-.78-1.38,1.43-1.62,3.22-1.94,5,0,.11.27.26.42.39-.69,3-.75,6-1.2,9a69.64,69.64,0,0,1-3.49,14.81c-.9,2.34-3.12,4.22-5.19,5.91-2.34,1.89-5.07,3.4-7.55,5.15a7.61,7.61,0,0,1-6.36,1.22c-3.33-.79-6.57-1.72-9-4.24a51.74,51.74,0,0,0-9.61-7.36,6.68,6.68,0,0,1-2.21-2.25c-2.48-4.18-5.25-8.22-7.25-12.63a1.06,1.06,0,0,1,.83-1c1.13-.3,1.22-1,.93-1.91.61-.9,1.11-.9,1.82,0,2.2,2.8,5.66,3.77,9,4.76,1,.29.68-.19.16-.53.21-.8-.6-1.06-1-1.53,3.74-2.74,6.76-5.9,7.39-10.43a9.06,9.06,0,0,0-1-5.38c-1.37-2.75-1.46-5.65-1.54-8.55-.13-4.44,0-8.88-.16-13.31C42,32.92,43,30.52,44,28.08Zm9.16,51.16,0,.11,0-.09c2.34,3.46,4.46,7,4.2,11.71C59.55,86,57.76,81.52,53.12,79.24Zm-1.35-8.9c0,.52.51.74.9,1a48.53,48.53,0,0,0,13.7,6,10.71,10.71,0,0,0,4.49.43c-.47-.68-1.16-.39-1.58-.7-.24-.7-1-.83-1.58-1.15a75.84,75.84,0,0,0-14.86-6.1c-.93-.29-1.79-1-3.12-.66ZM43.44,39.41c1.15.17,2.32.64,3.78-.2A4.77,4.77,0,0,0,43.44,39.41Z"/>
            <path class="a33bb286-7368-464e-bd5f-4eda4b530bcd" d="M27.35,70.56c.29.88.2,1.61-.93,1.91a1.06,1.06,0,0,0-.83,1c-1.3-1.59-2.58-3.2-3.92-4.78-.39-.46-.62-1.15-1.49-1.12h0c.16-1-.65-1.76-1.09-2.58-.72-1.36-.94-2.6.29-3.81a2.74,2.74,0,0,1,2-.23c.35.64,1.13.66,1.72,1a8.8,8.8,0,0,1,4.26,5.36c.59,1.69-.93,2.52-1.61,3.7,0,.06.07.2.13.39Z"/>
            <path class="a33bb286-7368-464e-bd5f-4eda4b530bcd" d="M76.49,57.22c2.64-3.43,3.09-7.12,3.25-10.87a12.33,12.33,0,0,1,1.86-5.78c.18-.32.38-.73.88-.71.66,0,.77.52.81.94.29,3.06,1.12,6.12-.1,9.18a55.32,55.32,0,0,0-1.91,5.42c-.41,1.45-.78,2.65-2.91,1.93A8.35,8.35,0,0,0,76.49,57.22Z"/>
            <path class="a33bb286-7368-464e-bd5f-4eda4b530bcd" d="M77.44,63.8c-.15-.13-.44-.28-.42-.39.32-1.76.56-3.55,1.94-5,.33-.07.76-.28,1-.17.42.19.1.53-.08.77A32,32,0,0,0,77.44,63.8Z"/>
            <path class="eeed917e-496b-4557-82c0-2bfc43cf1130" d="M63.28,59.61c-.41.57-.19,1.45-1.11,1.75a.82.82,0,0,0-.39-.83.25.25,0,0,0-.06-.2c.22-1.15-.28-2.36.3-3.48.42.64.85,1.28,1.27,1.93Z"/>
            <path class="eeed917e-496b-4557-82c0-2bfc43cf1130" d="M83.52,39l.47.44Z"/>
            <path class="a9857edf-4f0f-4d60-b43b-684f9b463339" d="M62,56.85c-.58,1.12-.08,2.33-.3,3.48-.78-.66-.57-1.54-.56-2.33.1-5.94-.17-11.88,1.53-17.75a35.59,35.59,0,0,0,.9-7.73c.14-2.31-1.56-4.28-3-6.11-.66-.83-1.76-.25-2.42.29a4.73,4.73,0,0,0-2,3.25,27.4,27.4,0,0,0,.28,8.33c1.44,6.4,0,12.33-3.65,17.88a3.75,3.75,0,0,1-.72.65c-.06-.36-.11-.72-.17-1.08.61-.52.62-1.25.82-1.91l.09-.56A1.75,1.75,0,0,0,53.3,52l0,.05.28-.47c0-.2.07-.4.1-.61,1.84-5,1.57-10.08.84-15.19,0-1.53,0-3,0-4.57l.78-2.11a.18.18,0,0,0,.07-.24l1.77-2.71h0l2.08-1.53,0,0,.14,0,.12,0a.21.21,0,0,0,.27,0c3,1.19,5.36,5.39,4.88,8.93-.51,3.75-1.16,7.5-1.88,11.22A53.28,53.28,0,0,0,62,56.85Z"/>
            <path class="faa573e0-2a34-45df-9ddb-c5a05db8ff38" d="M66.31,43.57c0-.62.83-1.55-.73-1.63-.77,0-.6-.57-.57-1,.22-2.88,1.62-5.62,1.21-8.58a.42.42,0,0,1,.5-.47c.15,0,.4.21.39.32-.24,3.77,1.41,7.66-.85,11.31Z"/>
            <path class="faa573e0-2a34-45df-9ddb-c5a05db8ff38" d="M74.06,53c.75-3.14,1.46-6.13,2.2-9.1.1-.41,0-.94.53-1.16a1.65,1.65,0,0,1,.83,0c.34.06.4.27.23.55-1.72,3-2,6.4-3.26,9.55C74.57,52.91,74.37,52.92,74.06,53Z"/>
            <path class="faa573e0-2a34-45df-9ddb-c5a05db8ff38" d="M63.56,50.37c.33-1.79.75-3.58.94-5.38.12-1.14.56-1.61,1.81-1.42l0,0-2.19,7.23Z"/>
            <path class="a9857edf-4f0f-4d60-b43b-684f9b463339" d="M63.56,50.37l.51.39c-.3,1.57-.59,3.14-.89,4.71A11,11,0,0,1,63.56,50.37Z"/>
            <ellipse class="eeed917e-496b-4557-82c0-2bfc43cf1130" cx="37.73" cy="118.4" rx="4.95" ry="0.13"/>
            <path class="eeed917e-496b-4557-82c0-2bfc43cf1130" d="M63.54,119.44h5.15v.19H63.45Z"/>
            <ellipse class="eeed917e-496b-4557-82c0-2bfc43cf1130" cx="49.78" cy="117.64" rx="3.45" ry="0.13"/>
            <path class="eeed917e-496b-4557-82c0-2bfc43cf1130" d="M75.17,118.59h3.69V119H75a.26.26,0,0,1-.17-.06C74.73,118.61,75,118.66,75.17,118.59Z"/>
            <path class="eeed917e-496b-4557-82c0-2bfc43cf1130" d="M53.42,117.76c.73-.46,1.25-.24,2-.28C54.68,118,54.16,117.76,53.42,117.76Z"/>
            <path class="a9857edf-4f0f-4d60-b43b-684f9b463339" d="M49.8,54.26a9.56,9.56,0,0,1-1.3-4.56c-.39-6.66-1-13.3-1.59-20a3.07,3.07,0,0,0-1.36-2.23.76.76,0,0,1,0-.3.72.72,0,0,0,.41,0c1.62.73,1.63,2.38,2.48,3.55C50,38.52,48.85,46.44,49.8,54.26Z"/>
            <path class="faa573e0-2a34-45df-9ddb-c5a05db8ff38" d="M53.14,32.49c0,3.29,0,6.58,0,9.86,0,.57.23,1.34-1,1.25-1-.08-1-.62-1-1.3a52.83,52.83,0,0,0-.35-8.15c-.12-.77.12-1.18,1.08-1.21C52.4,32.92,53.19,33.27,53.14,32.49Z"/>
            <path class="faa573e0-2a34-45df-9ddb-c5a05db8ff38" d="M51.53,55.08c-1.26-3-1-6.15-.44-9.26.1-.59.42-.7,1-.66s1.06.28,1,.94c-.18,1.56-.37,3.12-.56,4.68-.1.81-.18,1.62-.28,2.43-.53.55-.21,1.28-.49,1.88A.15.15,0,0,0,51.53,55.08Z"/>
            <path class="bb53acdc-8e7f-4653-b045-f4165afe54b5" d="M54.47,35.75c.73,5.11,1,10.2-.84,15.19,0-1.32-.45-2.78,0-3.93C55.23,43.29,53.69,39.46,54.47,35.75Z"/>
            <path class="bb53acdc-8e7f-4653-b045-f4165afe54b5" d="M48.46,30.73c-.85-1.17-.86-2.82-2.48-3.55,0-.54,0-1.09.82-1.13l.8.4C47.46,28,49,29.17,48.46,30.73Z"/>
            <path class="f5c45a57-04a3-49fc-8985-8c5e7c93a89f" d="M51.53,55.08a.15.15,0,0,1,.2,0c.06.21.11.43.16.64.06.36.11.72.17,1.08-.55.88-.92.34-1.3-.13-.51-.64-1.07-1.27-.86-2.15C50.5,54.58,50.8,55.35,51.53,55.08Z"/>
            <path class="bb53acdc-8e7f-4653-b045-f4165afe54b5" d="M57.1,26.12l-1.77,2.71C55.21,27.55,55.23,26.35,57.1,26.12Z"/>
            <path class="bb53acdc-8e7f-4653-b045-f4165afe54b5" d="M59.17,24.59l-2.08,1.53C56.65,24.35,57.85,24.4,59.17,24.59Z"/>
            <path class="bb53acdc-8e7f-4653-b045-f4165afe54b5" d="M51.89,55.73c0-.21-.1-.43-.16-.64.28-.6,0-1.33.49-1.88.17.2.33.41.49.61C52.51,54.48,52.5,55.21,51.89,55.73Z"/>
            <path class="bb53acdc-8e7f-4653-b045-f4165afe54b5" d="M55.26,29.07l-.78,2.11C54.62,30.44,53.91,29.44,55.26,29.07Z"/>
            <path class="bb53acdc-8e7f-4653-b045-f4165afe54b5" d="M59.48,24.6l-.12,0-.14,0c-.11-.26-.46-.55-.07-.78.17-.11.5,0,.76,0Z"/>
            <path class="bb53acdc-8e7f-4653-b045-f4165afe54b5" d="M53.3,52a1.75,1.75,0,0,1-.5,1.29C52.78,52.77,52.64,52.24,53.3,52Z"/>
            <path class="bb53acdc-8e7f-4653-b045-f4165afe54b5" d="M53.53,51.55l-.28.47Z"/>
            <path class="ab493fef-27f5-4d4b-8868-eb035b2f7c6b" d="M42.62,63.94a10,10,0,0,1-.39-7.5C42.94,58.92,43.61,61.39,42.62,63.94Z"/>
            <path class="bb53acdc-8e7f-4653-b045-f4165afe54b5" d="M40.12,68.91c-.53-1.61.87-2.94.79-4.48.59,0,1.31-.44,1.61.42A9.81,9.81,0,0,1,40.12,68.91Z"/>
            <path class="ab493fef-27f5-4d4b-8868-eb035b2f7c6b" d="M42.26,56.45c-2.27-.33-1-2-1.36-3,.17-.21.35-.41.53-.62A10.16,10.16,0,0,1,42.26,56.45Z"/>
            <path class="a9857edf-4f0f-4d60-b43b-684f9b463339" d="M27.35,70.56l-1.43.78c-.06-.19-.17-.33-.13-.39.68-1.18,2.2-2,1.61-3.7a8.8,8.8,0,0,0-4.26-5.36c-.59-.31-1.37-.33-1.72-1a7.39,7.39,0,0,1,6.45,3A10,10,0,0,1,29,66.59a11.73,11.73,0,0,0,6.8,7c.85.38,1.5,1.13,2.54,1.16.52.34.83.82-.16.53-3.39-1-6.85-2-9-4.76C28.46,69.66,28,69.66,27.35,70.56Z"/>
            <path class="a9857edf-4f0f-4d60-b43b-684f9b463339" d="M19.39,61.15c-1.23,1.21-1,2.45-.29,3.81.44.82,1.25,1.55,1.09,2.58a8.38,8.38,0,0,1-2.42-2.93C16.65,62.85,17.12,61.92,19.39,61.15Z"/>
            <path class="bb53acdc-8e7f-4653-b045-f4165afe54b5" d="M51.77,70.34l-2.05-1.17c1.33-.29,2.19.37,3.12.66a75.84,75.84,0,0,1,14.86,6.1c.57.32,1.34.45,1.58,1.15a17.09,17.09,0,0,1-4.37-1.23C60.34,74.4,56.14,72.2,51.77,70.34Z"/>
            <path class="eeed917e-496b-4557-82c0-2bfc43cf1130" d="M53.11,79.24C57.76,81.52,59.55,86,57.39,91c.26-4.73-1.86-8.25-4.2-11.71Z"/>
            <path class="a9857edf-4f0f-4d60-b43b-684f9b463339" d="M51.77,70.34c4.37,1.86,8.57,4.06,13.14,5.51a17.09,17.09,0,0,0,4.37,1.23c.42.31,1.11,0,1.58.7a10.71,10.71,0,0,1-4.49-.43,48.53,48.53,0,0,1-13.7-6C52.28,71.08,51.81,70.86,51.77,70.34Z"/>
            <path class="a9857edf-4f0f-4d60-b43b-684f9b463339" d="M43.44,39.41a4.77,4.77,0,0,1,3.78-.2C45.76,40.05,44.59,39.58,43.44,39.41Z"/>
            <path class="a9857edf-4f0f-4d60-b43b-684f9b463339" d="M61.78,60.53a.82.82,0,0,1,.39.83C61.77,61.18,61.63,60.91,61.78,60.53Z"/>
            <path class="eeed917e-496b-4557-82c0-2bfc43cf1130" d="M51.19,34.26l0,.09a.49.49,0,0,0,0-.11Z"/>
        </g>
    </g>
</svg>