<?xml version="1.0" encoding="utf-8"?>
<?xml-stylesheet type="text/css" href="../style.css"?>
<svg xmlns="http://www.w3.org/2000/svg" viewBox="0 0 98.68 154.23">
    <g id="scissor-layer" data-name="Layer 2">
        <g id="scissor" data-name="scissor">
            <path class="f390c60b-ef94-4cc5-93c3-a4a8f0ae8ca4" d="M7.1,7.52c7.77,11.3,14.8,23.05,21.81,34.81A5.55,5.55,0,0,0,30.54,44a36.32,36.32,0,0,1,9.3,9.65c3.35,5.05,7.64,9.22,12.08,13.3,1.33,1.23,1.65.27,2.15-.61C58,59.48,61.75,52.5,65.85,45.71,73.54,33,81.44,20.42,89.22,7.76c1-1.71,1.89-3.55,2.81-5.35.65-1.26,1.44-2.54,3-2.4C96.86.16,97,1.86,97.24,3.12a21.81,21.81,0,0,1,.35,9.41c-1,4.61-1.72,9.3-3.58,13.69-1.1-.22-.82-.76-.54-1.56.83-2.29,1.8-4.59,1.25-7.13h0a1.53,1.53,0,0,0,1-1.07,14.7,14.7,0,0,0,1-5.58c0-.89,1.49-1.84.75-2.67-1.13-1.28-.77-2.62-.78-3.95s-.1-2.75-1.55-2.9-2.49,1.17-2.8,2.5a15.45,15.45,0,0,1-2,4.13c-.89,1.59-2.93,2.73-2.38,5l-1.77,3.41C85,18.1,84,19.83,83,21.55c-7.09,11.53-14.47,22.9-21,34.75-2.26,4.08-4.07,8.43-7.13,12-.67.8.23,1.13.23,1.69a2.78,2.78,0,0,1-2-.5,33.06,33.06,0,0,1-9-8.05A77.54,77.54,0,0,0,33.22,49.17l0,0a1,1,0,0,0-.83-.84,15.3,15.3,0,0,0-3.68-2.91c-.62-1.1-1.81-1.41-2.87-1.78-2.55-.88-3.79.22-3.38,2.86a14.79,14.79,0,0,0,3.13,6.33c2.87,3.94,6.59,7.12,9.77,10.78C37.4,66,39,68.73,41.47,70.79v0a1.07,1.07,0,0,0,.6,1.17c.12.67.84,1.16.63,2.11L39.6,72.63c-.06-.13-.08-.32-.18-.37-7.5-4.09-13.5-10-19.56-15.76a19.21,19.21,0,0,0-7-4.29c-1.54-.54-3.12-.67-4.31.51S7.86,55.54,8.12,57a3.39,3.39,0,0,0,.57,1.16c3.88,5.8,8.14,11.21,14.89,14.1a23.07,23.07,0,0,1,5,3.11c2.37,1.83,3.92,4.42,6.28,6.24A11.24,11.24,0,0,0,36,83.16c1.43,1.35.42,1.66-.79,1.92-1.72-.44-2.73.84-4,1.59-.77-.23-.19-.92-.47-1.31a7.17,7.17,0,0,1,1.93-.94c2.34-.37,1.74-1.61.63-2.49-4.51-3.57-8-8.29-13.58-10.71S10.29,64.39,7.12,59.34a8.54,8.54,0,0,1-1.06-6C6.38,51.13,9,49.66,11.65,50A32.13,32.13,0,0,1,17,51.76c-3.23-6.51-6.22-12.56-9.21-18.61.42-.32.69-.89,1,.22.4,1.35.81,2.94,2.72,3.12.51,1,1,2.07,1.54,3.07,3.61,6.5,6.13,13.58,11.45,19.18,3.81,4,7.72,7.74,12.71,10.39.13-1.27-.74-1.93-1.42-2.63-1.45-1.51-3.1-2.86-4.46-4.43-3.43-4-7.61-7.38-9.49-12.48.59-2.18-1.09-4.05-.89-6.18h0c1.13.19.91-1.72,1.47-1.32,1.32.93,2.09-.16,3.09-.4s.45-.65.21-1.05Q24.39,38.43,23,36.23L7.14,10.31C7.83,9.37,6.38,8.46,7.1,7.52Z"/>
            <path class="b8ab9482-481b-4482-aab8-b563cfd2a359" d="M37.19,117.68c-4,6.43-6.3,13.75-10.6,20-3.35,4.88-6.52,9.88-10.88,14-2.79,2.64-5.94,3.05-9.53,1.92S1,150.07.36,146.75A23.13,23.13,0,0,1,1,136c3.1-11,11-17,21.54-19.42a9.53,9.53,0,0,0,7.3-5.83c.56-1.16,1.25-2.27,1.88-3.4,1.45-.8,2.07-1.84,1.13-3.43-.57-1,.28-.78.79-.86l.51.42c0,.71.17,1.29,1.06,1.28,1.25,0,1.61.76,1.64,1.81l.4.38,0,0a.7.7,0,0,0,.92.46l0,0c.27,1.14,1.58,1,2.2,1.77.1.84.72.85,1.36.82h0l.54.39,0,0c-.41,1.91-2.18,2.76-3.35,4.07-.69.76-1.45,1.43-1.14,2.58l0,0C37.24,116.9,36.68,116.9,37.19,117.68Zm-2.57-12.16a85.25,85.25,0,0,1-5.48,10.26c-.54.9-1,2.07-2.36,2-4-.24-7.47,1.4-10.79,3.13-9.14,4.77-14.18,12.22-14.16,22.55,0,2.69.29,5.69,2.92,7.33,4.6,2.88,7.63,2.09,11.14-1.91a90.24,90.24,0,0,0,14.42-22c2.52-5.51,5-11,9.8-15.13.82-.7.39-1.06-.2-1.45A46.91,46.91,0,0,1,34.62,105.52Z"/>
            <path class="b8ab9482-481b-4482-aab8-b563cfd2a359" d="M94.72,17.53c.55,2.54-.42,4.84-1.25,7.13-.28.8-.56,1.34.54,1.56C93.26,29.31,91.46,32,90.5,35c-2.37,7.5-6,14.42-9.84,21.28a10.5,10.5,0,0,1-.75,1c-.29-.9-.59-1-.92,0a35.73,35.73,0,0,1-4.55,9,3.74,3.74,0,0,0-.65,2.82q-1.59,3-3.17,6a.52.52,0,0,0-.1-.18s-.16-.08-.18-.06c-.79.82-1.6,1.59-2.89,1.43a40.07,40.07,0,0,0-3.69-2.58c-1.6-.87-3.33-1.52-5-.07-4.63,1.51-8,5.19-12.58,6.83-.52.19-.52.54-.38,1a5.76,5.76,0,0,0,7.48,3.74c1.43-.52,2.83-1.17,4.66-.57-1.56.65-2.86,1.27-4.21,1.74-4.44,1.53-8.32-.31-9.84-4.59-.49-1.38-.24-2.39,1.28-2.88A42.26,42.26,0,0,0,57,72.72a1,1,0,0,0,.86-1.2,10,10,0,0,1,8.93,2.76c1.12,1,1.78.87,2.51-.56,3.62-7,7.28-14.06,11.06-21A160,160,0,0,0,91.07,29.43C92.45,25.5,93.54,21.51,94.72,17.53Z"/>
            <path class="b1df793c-b754-49c2-8dc8-7b608a065efa" d="M67.45,76.31c1.29.16,2.1-.61,2.89-1.43,0,0,.14,0,.18.06a.52.52,0,0,1,.1.18,2,2,0,0,0,.45,2.79c3.82,3.71,6.12,8.39,8,13.22,1.74,4.52,1.13,9.21-.3,13.73-.69,2.17-1.17,4.48-2.73,6.29-1,1.15-.24,1.36.73,1.61a35.54,35.54,0,0,1,12,5.84A23.75,23.75,0,0,1,98.61,137a25.48,25.48,0,0,1-.58,7.92c-1.93,7.42-12.4,10.48-16.92,5.64l.12-.12a4.7,4.7,0,0,1,2.47.62c1.34.82,2.86,1.56,4.52,1.09,3.37-.93,6.47-2.63,8.15-5.64,2.47-4.4,1.3-9.31,1-14,0-.69-.87-.88-1.54-1-.62-1.41-1.24-2.83-1.87-4.24a3.11,3.11,0,0,0-.27-1.66,14.18,14.18,0,0,0-5.37-6.2c-3.31-2-6.44-4.1-10.19-5.3-1.37-.44-3.36-.23-4-2.64-.67,2.75-2.54,1.66-3.88,1.93l-.14-.16c3.92-1.64,5.86-4.72,6.66-8.67.41-2,1-4,1.28-6.1a13,13,0,0,0-2.58-10.09h0c.16-.64-.29-1.08-.52-1.59C73.13,82.82,70.17,79.64,67.45,76.31Z"/>
            <path class="b1df793c-b754-49c2-8dc8-7b608a065efa" d="M37.76,116.9c-.31-1.15.45-1.82,1.14-2.58,1.17-1.31,2.94-2.16,3.35-4.07.82.44,1.66.87,2.47,1.33,6.09,3.42,12.45,5.21,19.47,3.23,2-.55,3.93-1,5.9-1.58l.14.16a6.24,6.24,0,0,1-4.41,1.73c-2.23.18-3.27,1.58-2.31,3.25,3,5.15,4.88,10.78,7.66,16,1.28,2.42,1.68,5.3,3.74,7.3a9.43,9.43,0,0,1,2.39,4.44l-.1.09c-3.4-3.89-5.69-8.44-7.85-13-2.28-4.85-3.92-10-6.7-14.62a2.15,2.15,0,0,0-2.45-1.22c-5.87.81-11.19-1-16-4.06-2.28-1.45-3.13-.36-4.32.95C39.16,115.09,38.48,116,37.76,116.9Z"/>
            <path class="b8ab9482-481b-4482-aab8-b563cfd2a359" d="M7.1,7.52c-.72.94.73,1.85,0,2.79C6.05,8.53,5,6.74,3.57,4.49a44.88,44.88,0,0,0,.13,10c1,7.5,3.79,14.37,7.25,21l.36.62.21.38c-1.91-.18-2.32-1.77-2.72-3.12-.33-1.11-.6-.54-1-.22h0c-.15-1.16.73-2.79-1.43-3.05L6,29.24c1.37-.54-.11-1.17.06-1.75v-1.3L5.18,24.9h0c0-.48,0-1-.43-1.29h0c0-.6.16-1.25-.44-1.71s-.43-.82-.44-1.3c-.18-1.4-.35-2.8-.57-4.54-.49,1,0,1.85-.74,2.37A40.17,40.17,0,0,1,1.6,5.22,2.33,2.33,0,0,1,3.24,2.91c1-.24,1.59.49,1.91,1.38a1.25,1.25,0,0,0,.66,1.26l0,.11-.1,0L5.55,6l.24-.22.18,0,.09.16c.11.69-.32,1.7,1,1.65ZM2.46,6.15a1.42,1.42,0,0,0,0,1.79Zm-.09,6.27c.13-.62.42-1.14-.13-1.68A1.89,1.89,0,0,0,2.37,12.42Z"/>
            <path class="b1df793c-b754-49c2-8dc8-7b608a065efa" d="M33.67,103c-.51.08-1.36-.1-.79.86.94,1.59.32,2.63-1.13,3.43,1.36-2,.72-3.28-1.32-4.49a16.51,16.51,0,0,1-5.07-5c-2.13-3.12-1.29-5.76,2.28-7,.87-.3,1-.75,1-1.58a4.09,4.09,0,0,1,2.13-3.94c.28.39-.3,1.08.47,1.31a4.23,4.23,0,0,0-.94,3c-.58-.19-.32-1-.88-1.31-.19.94-.35,1.77-.51,2.6a3.58,3.58,0,0,0-2.61,1.7c-1.72,1.58-.66,3,.38,4.28C28.63,99.36,31.35,101,33.67,103Z"/>
            <path class="b1df793c-b754-49c2-8dc8-7b608a065efa" d="M73.79,69.14a3.74,3.74,0,0,1,.65-2.82,35.73,35.73,0,0,0,4.55-9c.33-1,.63-.88.92,0A71.54,71.54,0,0,1,73.79,69.14Z"/>
            <path class="b1df793c-b754-49c2-8dc8-7b608a065efa" d="M81.11,150.58a13,13,0,0,1-3.91-4.36l.1-.09c2,.79,3.1,2.47,3.93,4.33Z"/>
            <path class="b1df793c-b754-49c2-8dc8-7b608a065efa" d="M37.19,117.68c-.51-.78.05-.78.59-.8Z"/>
            <path class="f4ca48f6-aff4-43a6-be96-d91aa542f55c" d="M57,72.72A42.26,42.26,0,0,1,45.15,79c-1.52.49-1.77,1.5-1.28,2.88,1.52,4.28,5.4,6.12,9.84,4.59,1.35-.47,2.65-1.09,4.21-1.74-1.83-.6-3.23,0-4.66.57a5.76,5.76,0,0,1-7.48-3.74c-.14-.49-.14-.84.38-1,4.55-1.64,8-5.32,12.58-6.83a6.09,6.09,0,0,1,3.51,1,37.39,37.39,0,0,1,5.13,4.7c2.67,3,5.38,6,8.07,9h0a10.9,10.9,0,0,0,.14,1.9c1.48,6.12.12,11.92-2,17.65a4,4,0,0,1-3,2.77c-2.2.5-4.37,1.14-6.57,1.62-5.47,1.19-10.93,2-16.13-1,2.14-.4,2.39-2,2.5-3.73,0-.37.05-.74.07-1.11,1.12.26,2.23.56,3.36.8,1.64.33,3,.1,3.7-1.69.47.13.65.53.92.87s.42,1.59,1.2,1.25,0-1.26-.1-1.86c-.28-1.26-.6-2.51-.84-3.78a37.86,37.86,0,0,1-.06-12.61c0-.78.86-1.43.46-2.4-3.29,3.65-4.26,6.34-3.78,10.4-.23.71,1,1.41,0,2.13a10.15,10.15,0,0,0-3.78-3.43c-2.93-1.69-5.83-3.42-8.75-5.13-.27-.27-.58-.8-.93-.38s.27.6.6.79a21.26,21.26,0,0,0,7.72,5.75c3,1.43,5.41,3.23,5.9,6.72-.95,1.42-2.07.7-3,.13-6.11-3.57-12.69-6.46-17.87-11.44A25.42,25.42,0,0,1,32.61,90c-1.36-1.73-1.16-2.45.73-3.55C34,86,34.91,86,35.2,85.08c1.21-.26,2.22-.57.79-1.92a11.24,11.24,0,0,1-1.17-1.55c-1.86-4-4.21-7.71-8.53-9.35A27.42,27.42,0,0,1,16.1,65c-2-2.13-4.72-3.84-5.48-6.86-.39-1.59-1.25-3.63.4-4.84,1.88-1.39,3.13.7,4.57,1.48a2.28,2.28,0,0,1,.51.42A94.33,94.33,0,0,0,31,68.16c2.69,1.86,5.36,3.67,8.6,4.47l3.11,1.47c.21-.95-.51-1.44-.63-2.11.06-.52.05-1-.6-1.17v0c0-1.49-.94-2.66-1.57-3.92-2.25-4.45-6.1-7.62-9.36-11.27-1.92-2.15-3.74-4.39-5.6-6.6a2.85,2.85,0,0,1-.57-3.38c.62-1,1.85-.46,2.82-.36.5.05,1,.36,1.49.14a15.3,15.3,0,0,1,3.68,2.91.85.85,0,0,0,.83.84l0,0A55.42,55.42,0,0,0,40.81,59.6c.91,1,1.51,1.82-.21,2.83,2-1,3.07.08,4,1.38A20.76,20.76,0,0,0,56.05,72,1.25,1.25,0,0,1,57,72.72Zm-4.3,9.1c1,.32,2,.21,2.33-.87.36-1.31-.48-2.28-1.26-3.19C53.82,81,53.79,81.13,52.72,81.82Z"/>
            <path class="fde99005-40e8-44b2-989f-251f4d39ecea" d="M94.72,17.53c-1.18,4-2.27,8-3.65,11.9A160,160,0,0,1,80.38,52.71c-3.78,6.95-7.44,14-11.06,21-.73,1.43-1.39,1.57-2.51.56a10,10,0,0,0-8.93-2.76l0,0-.57-.46C70.29,52,79.9,31,91.79,11.33c-2.36,1.66-3.64,4.12-5.35,6.23a1.17,1.17,0,0,1-.37-1.18L87.84,13c2.74-3.31,4.47-7.25,6.76-11A6.22,6.22,0,0,1,95.69,5c1,4.28-.24,8.38-1,12.53Z"/>
            <path class="af214332-f379-430c-bd25-8efe50083ece" d="M11.52,36.49l-.21-.38L11,35.49C7.49,28.82,4.68,22,3.7,14.45a44.88,44.88,0,0,1-.13-10c1.39,2.25,2.48,4,3.57,5.82L23,36.23q1.35,2.21,2.67,4.42c.24.4.74.87-.21,1.05-2.28.26-3.2-1.22-4.18-2.9-2.84-4.94-5.24-10.12-8.43-14.86-.42-.62-.64-1.64-1.83-1.59a149,149,0,0,0,9.68,19.07,2,2,0,0,1,.2,2h0c-1.1,2.26-.14,4.22.89,6.18,1.88,5.1,6.06,8.52,9.49,12.48,1.36,1.57,3,2.92,4.46,4.43.68.7,1.55,1.36,1.42,2.63-5-2.65-8.9-6.38-12.71-10.39-5.32-5.6-7.84-12.68-11.45-19.18C12.5,38.56,12,37.52,11.52,36.49Z"/>
            <path class="a840a722-5684-423a-9d16-6c5732b223d7" d="M39.6,72.63c-3.24-.8-5.91-2.61-8.6-4.47A94.33,94.33,0,0,1,16.1,55.22a2.28,2.28,0,0,0-.51-.42C14.15,54,12.9,51.93,11,53.32c-1.65,1.21-.79,3.25-.4,4.84.76,3,3.47,4.73,5.48,6.86a27.42,27.42,0,0,0,10.19,7.24c4.32,1.64,6.67,5.35,8.53,9.35-2.36-1.82-3.91-4.41-6.28-6.24a23.07,23.07,0,0,0-5-3.11c-6.75-2.89-11-8.3-14.89-14.1A3.39,3.39,0,0,1,8.12,57c-.26-1.46-.79-3.07.42-4.28s2.77-1,4.31-.51a19.21,19.21,0,0,1,7,4.29c6.06,5.81,12.06,11.67,19.56,15.76C39.52,72.31,39.54,72.5,39.6,72.63Z"/>
            <path class="af214332-f379-430c-bd25-8efe50083ece" d="M86.07,16.38a1.17,1.17,0,0,0,.37,1.18c-2,3.41-4,6.83-6,10.22-7.27,12.12-13.17,25-21,36.81a24.31,24.31,0,0,0-3,6c-.59.13-1-.33-1.42-.53,0-.56-.9-.89-.23-1.69,3.06-3.61,4.87-8,7.13-12,6.55-11.85,13.93-23.22,21-34.75C84,19.83,85,18.1,86.07,16.38Z"/>
            <path class="a840a722-5684-423a-9d16-6c5732b223d7" d="M28.68,45.4c-.52.22-1-.09-1.49-.14-1-.1-2.2-.68-2.82.36A2.85,2.85,0,0,0,24.94,49c1.86,2.21,3.68,4.45,5.6,6.6,3.26,3.65,7.11,6.82,9.36,11.27.63,1.26,1.53,2.43,1.57,3.92C39,68.73,37.4,66,35.33,63.59c-3.18-3.66-6.9-6.84-9.77-10.78a14.79,14.79,0,0,1-3.13-6.33c-.41-2.64.83-3.74,3.38-2.86C26.87,44,28.06,44.3,28.68,45.4Z"/>
            <path class="a840a722-5684-423a-9d16-6c5732b223d7" d="M35.2,85.08c-.29.89-1.2,1-1.86,1.33-1.89,1.1-2.09,1.82-.73,3.55a25.42,25.42,0,0,0,2.56,2.63c5.18,5,11.76,7.87,17.87,11.44,1,.57,2.09,1.29,3-.13.24,1.82-.89,1.89-2.18,1.56a40.41,40.41,0,0,1-8.53-3.34C39.44,99,34.1,95.23,30.3,89.65a4.23,4.23,0,0,1,.94-3C32.47,85.92,33.48,84.64,35.2,85.08Z"/>
            <path class="a840a722-5684-423a-9d16-6c5732b223d7" d="M55,70c.46.2.83.66,1.42.53l.66.53c0,.58.54.32.82.45l0,0a1,1,0,0,1-.86,1.2,1.25,1.25,0,0,0-1-.76A20.76,20.76,0,0,1,44.6,63.81c-.93-1.3-2-2.35-4-1.38,1.72-1,1.12-1.79.21-2.83a55.42,55.42,0,0,1-7.59-10.43A77.54,77.54,0,0,1,44,61.48a33.06,33.06,0,0,0,9,8.05A2.78,2.78,0,0,0,55,70Z"/>
            <path class="a55b164c-59d6-4be6-8cff-387685a0e58f" d="M20.94,43.42a2,2,0,0,0-.2-2,149,149,0,0,1-9.68-19.07c1.19-.05,1.41,1,1.83,1.59,3.19,4.74,5.59,9.92,8.43,14.86,1,1.68,1.9,3.16,4.18,2.9-1,.24-1.77,1.33-3.09.4C21.85,41.7,22.07,43.61,20.94,43.42Z"/>
            <path class="b8ab9482-481b-4482-aab8-b563cfd2a359" d="M94.74,17.52c.71-4.15,1.9-8.25,1-12.53A6.22,6.22,0,0,0,94.6,1.92c-2.29,3.8-4,7.74-6.76,11.05-.55-2.26,1.49-3.4,2.38-5a15.45,15.45,0,0,0,2-4.13c.31-1.33,1.3-2.66,2.8-2.5S96.6,3,96.61,4.25s-.35,2.67.78,3.95c.74.83-.75,1.78-.75,2.67a14.7,14.7,0,0,1-1,5.58A1.53,1.53,0,0,1,94.74,17.52Z"/>
            <path class="a55b164c-59d6-4be6-8cff-387685a0e58f" d="M21.85,49.59c-1-2-2-3.92-.89-6.18C20.76,45.54,22.44,47.41,21.85,49.59Z"/>
            <path class="a840a722-5684-423a-9d16-6c5732b223d7" d="M41.48,70.82c.65.16.66.65.6,1.17A1.07,1.07,0,0,1,41.48,70.82Z"/>
            <path class="a840a722-5684-423a-9d16-6c5732b223d7" d="M33.19,49.15a.85.85,0,0,1-.83-.84A1,1,0,0,1,33.19,49.15Z"/>
            <path class="af214332-f379-430c-bd25-8efe50083ece" d="M34.62,105.52a46.91,46.91,0,0,0,5.29,4.76c.59.39,1,.75.2,1.45-4.78,4.09-7.28,9.62-9.8,15.13a90.24,90.24,0,0,1-14.42,22c-3.51,4-6.54,4.79-11.14,1.91-2.63-1.64-2.91-4.64-2.92-7.33,0-10.33,5-17.78,14.16-22.55,3.32-1.73,6.79-3.37,10.79-3.13,1.32.08,1.82-1.09,2.36-2A85.25,85.25,0,0,0,34.62,105.52Zm-8.19,14.7a9.6,9.6,0,0,0-4,1.74c-2.38,1.53-4.7,3.14-7.11,4.63-5.87,3.64-8.52,9-8.94,15.64-.12,2-.64,4.59,1.72,5.54s4.2-1,5.73-2.63a111.58,111.58,0,0,0,10.62-14.45,31.9,31.9,0,0,0,3.72-8.45C28.6,120.85,28.12,120.16,26.43,120.22Z"/>
            <path class="a840a722-5684-423a-9d16-6c5732b223d7" d="M47.87,111.31c5.2,3,10.66,2.19,16.13,1,2.2-.48,4.37-1.12,6.57-1.62a4,4,0,0,0,3-2.77c2.11-5.73,3.47-11.53,2-17.65a10.9,10.9,0,0,1-.14-1.9A13,13,0,0,1,78,98.46c-.24,2.05-.87,4.06-1.28,6.1-.8,4-2.74,7-6.66,8.67-2,.53-3.94,1-5.9,1.58-7,2-13.38.19-19.47-3.23-.81-.46-1.65-.89-2.47-1.33l0,0-.54-.39h0l-1.36-.82c-.62-.72-1.93-.63-2.2-1.77.94,0,1.57.67,2.34,1C42.85,109.54,45.1,111.05,47.87,111.31Z"/>
            <path class="a840a722-5684-423a-9d16-6c5732b223d7" d="M33.67,103c-2.32-2-5-3.67-7-6.11-1-1.3-2.1-2.7-.38-4.28.43,2.42,2,4,4,5.3,3.92,2.6,7.74,5.34,11.76,7.78,2.22,1.35,4.12,3.54,7.12,3.34-.33,1.56-1.45,1.2-2.35.78-1.43-.68-2.76-1.56-4.14-2.34-2.74-1.54-5.41-3.25-8.51-4Z"/>
            <path class="f390c60b-ef94-4cc5-93c3-a4a8f0ae8ca4" d="M34.18,103.45c3.1.8,5.77,2.51,8.51,4,1.38.78,2.71,1.66,4.14,2.34.9.42,2,.78,2.35-.78.63-.31-.1-1.68,1.19-1.48-.11,1.71-.36,3.33-2.5,3.73-2.77-.26-5-1.77-7.4-3-.77-.37-1.4-1-2.34-1l0,0c-.13-.51-.52-.49-.92-.46l0,0-.4-.38c0-1.05-.39-1.81-1.64-1.81C34.35,104.74,34.17,104.16,34.18,103.45Z"/>
            <path class="b1df793c-b754-49c2-8dc8-7b608a065efa" d="M40.33,109.08l1.36.82C41.05,109.93,40.43,109.92,40.33,109.08Z"/>
            <path class="a840a722-5684-423a-9d16-6c5732b223d7" d="M37.24,106.89c.4,0,.79,0,.92.46A.7.7,0,0,1,37.24,106.89Z"/>
            <path class="b1df793c-b754-49c2-8dc8-7b608a065efa" d="M41.67,109.89l.54.39Z"/>
            <path class="a840a722-5684-423a-9d16-6c5732b223d7" d="M36.88,106.54l.4.38Z"/>
            <path class="a840a722-5684-423a-9d16-6c5732b223d7" d="M75.45,88.38c-2.69-3-5.4-6-8.07-9a37.39,37.39,0,0,0-5.13-4.7,6.09,6.09,0,0,0-3.51-1c1.69-1.45,3.42-.8,5,.07a40.07,40.07,0,0,1,3.69,2.58c2.72,3.33,5.68,6.51,7.48,10.48C75.16,87.3,75.61,87.74,75.45,88.38Z"/>
            <path class="fde99005-40e8-44b2-989f-251f4d39ecea" d="M93.92,127.26c.63,1.41,1.25,2.83,1.87,4.24a27.76,27.76,0,0,1,.74,11.11c-.38,4-2.74,6.52-6.47,7.89s-6.93.07-9.39-2.8a63,63,0,0,1-6.79-9.78c-3.71-6.46-5.68-13.7-9.47-20.12-.66-1.13.17-1.17.9-1.32a27.47,27.47,0,0,0,7-2.36,2.69,2.69,0,0,1,2.1,0C82.55,116.2,89.57,119.82,93.92,127.26Zm-2.26,11.91a19.7,19.7,0,0,0-1.58-6.46c-2.71-6.78-8-10.66-15-12.37-3.16-.78-4.29.55-3.34,3.59a11.2,11.2,0,0,0,.45,1.22,101.34,101.34,0,0,0,6.49,11.94,32.81,32.81,0,0,0,4,5.37c1.66,1.75,3.59,3.42,6.08,2.42S91.37,141.24,91.66,139.17Z"/>
            <path class="a55b164c-59d6-4be6-8cff-387685a0e58f" d="M93.92,127.26c-4.35-7.44-11.37-11.06-19.48-13.16a2.69,2.69,0,0,0-2.1,0,27.47,27.47,0,0,1-7,2.36c-.73.15-1.56.19-.9,1.32,3.79,6.42,5.76,13.66,9.47,20.12a63,63,0,0,0,6.79,9.78c2.46,2.87,5.55,4.2,9.39,2.8s6.09-3.86,6.47-7.89a27.76,27.76,0,0,0-.74-11.11c.67.12,1.5.31,1.54,1,.34,4.72,1.51,9.63-1,14-1.68,3-4.78,4.71-8.15,5.64-1.66.47-3.18-.27-4.52-1.09a4.7,4.7,0,0,0-2.47-.62c-.83-1.86-1.88-3.54-3.93-4.33a9.43,9.43,0,0,0-2.39-4.44c-2.06-2-2.46-4.88-3.74-7.3-2.78-5.24-4.69-10.87-7.66-16-1-1.67.08-3.07,2.31-3.25a6.24,6.24,0,0,0,4.41-1.73c1.34-.27,3.21.82,3.88-1.93.62,2.41,2.61,2.2,4,2.64,3.75,1.2,6.88,3.35,10.19,5.3a14.18,14.18,0,0,1,5.37,6.2A3.11,3.11,0,0,1,93.92,127.26Z"/>
            <path class="f390c60b-ef94-4cc5-93c3-a4a8f0ae8ca4" d="M11,35.49l.36.62Z"/>
            <path class="f390c60b-ef94-4cc5-93c3-a4a8f0ae8ca4" d="M30.3,89.65c3.8,5.58,9.14,9.38,15.07,12.47a40.41,40.41,0,0,0,8.53,3.34c1.29.33,2.42.26,2.18-1.56-.49-3.49-2.89-5.29-5.9-6.72a21.26,21.26,0,0,1-7.72-5.75l.33-.41c2.92,1.71,5.82,3.44,8.75,5.13a10.15,10.15,0,0,1,3.78,3.43,7.13,7.13,0,0,1,2.18,6c-.66,1.79-2.06,2-3.7,1.69-1.13-.24-2.24-.54-3.36-.8-1.65-.73-3.34-1.39-5-2.19C39,101,33.05,97,28.91,90.94c.16-.83.32-1.66.51-2.6C30,88.69,29.72,89.46,30.3,89.65Z"/>
            <path class="f5a8d0bc-0b6d-4835-a0e1-42f01fc5dc74" d="M28.91,90.94C33.05,97,39,101,45.48,104.28c1.62.8,3.31,1.46,5,2.19,0,.37,0,.74-.07,1.11-1.29-.2-.56,1.17-1.19,1.48-3,.2-4.9-2-7.12-3.34-4-2.44-7.84-5.18-11.76-7.78-2-1.31-3.57-2.88-4-5.3A3.58,3.58,0,0,1,28.91,90.94Z"/>
            <path class="a840a722-5684-423a-9d16-6c5732b223d7" d="M57.5,105.58a7.13,7.13,0,0,0-2.18-6c1-.72-.25-1.42,0-2.13.7-.21.43-.8.49-1.25a15.75,15.75,0,0,1,2.83-6.75,37.86,37.86,0,0,0,.06,12.61c.24,1.27.56,2.52.84,3.78.13.6,1,1.45.1,1.86s-.82-.79-1.2-1.25S58,105.71,57.5,105.58Z"/>
            <path class="b576aee4-855d-4e8c-8be9-315da1f137d9" d="M58.62,89.45a15.75,15.75,0,0,0-2.83,6.75c-.06.45.21,1-.49,1.25-.48-4.06.49-6.75,3.78-10.4C59.48,88,58.64,88.67,58.62,89.45Z"/>
            <path class="b576aee4-855d-4e8c-8be9-315da1f137d9" d="M52.72,81.82c1.07-.69,1.1-.83,1.07-4.06.78.91,1.62,1.88,1.26,3.19C54.75,82,53.75,82.14,52.72,81.82Z"/>
            <path class="f390c60b-ef94-4cc5-93c3-a4a8f0ae8ca4" d="M42.46,91.43c-.33-.19-.84-.5-.6-.79s.66.11.93.38Z"/>
            <path class="a55b164c-59d6-4be6-8cff-387685a0e58f" d="M57.11,71.09l-.66-.53a24.31,24.31,0,0,1,3-6c7.8-11.83,13.7-24.69,21-36.81,2-3.39,4-6.81,6-10.22,1.71-2.11,3-4.57,5.35-6.23C79.9,31,70.29,52,57.36,71.08Z"/>
            <path class="b8ab9482-481b-4482-aab8-b563cfd2a359" d="M57.11,71.09h.25l.57.46C57.65,71.41,57.13,71.67,57.11,71.09Z"/>
            <path class="b8ab9482-481b-4482-aab8-b563cfd2a359" d="M26.43,120.22c1.69-.06,2.17.63,1.76,2a31.9,31.9,0,0,1-3.72,8.45,111.58,111.58,0,0,1-10.62,14.45c-1.53,1.68-3.28,3.63-5.73,2.63s-1.84-3.5-1.72-5.54c.42-6.61,3.07-12,8.94-15.64,2.41-1.49,4.73-3.1,7.11-4.63A9.6,9.6,0,0,1,26.43,120.22ZM26.34,122c-5.38,1.68-9.18,4.93-12.82,8.31-4,3.73-5.34,8.6-5.31,13.89,0,.69,0,1.54.8,1.85s1.24-.29,1.76-.65a16.58,16.58,0,0,0,3.56-3.78C18.92,135.61,23.72,129.72,26.34,122Z"/>
            <path class="b8ab9482-481b-4482-aab8-b563cfd2a359" d="M91.66,139.17c-.29,2.07-.36,4.71-2.82,5.71s-4.42-.67-6.08-2.42a32.81,32.81,0,0,1-4-5.37,101.34,101.34,0,0,1-6.49-11.94,11.2,11.2,0,0,1-.45-1.22c-1-3,.18-4.37,3.34-3.59,7,1.71,12.25,5.59,15,12.37A19.7,19.7,0,0,1,91.66,139.17ZM89.77,139c-.92-8.54-6.61-14.77-14.9-16.87-1.34-.34-1.72.12-1.26,1.46,2.3,6.7,6.3,12.41,10.82,17.8.87,1,2.09,2.28,3.51,1.72s1.62-2.4,1.82-3.9C89.76,139.16,89.77,139.09,89.77,139Z"/>
            <path class="b9c705cd-d011-45b0-8f2c-8763078b76fd" d="M26.34,122c-2.62,7.73-7.42,13.62-12,19.62a16.58,16.58,0,0,1-3.56,3.78c-.52.36-1.07.93-1.76.65s-.79-1.16-.8-1.85c0-5.29,1.3-10.16,5.31-13.89C17.16,126.92,21,123.67,26.34,122Z"/>
            <path class="b9c705cd-d011-45b0-8f2c-8763078b76fd" d="M89.77,139c0,.07,0,.14,0,.21-.2,1.5-.27,3.29-1.82,3.9s-2.64-.69-3.51-1.72c-4.52-5.39-8.52-11.1-10.82-17.8-.46-1.34-.08-1.8,1.26-1.46C83.16,124.25,88.85,130.48,89.77,139Z"/>
        </g>
    </g>
</svg>