<?xml version="1.0" encoding="utf-8"?>
<?xml-stylesheet type="text/css" href="../style.css"?>
<svg xmlns="http://www.w3.org/2000/svg" viewBox="0 0 115.42 167.57">
    <g id="f632692f-7f9f-4dfe-8d1f-c4b6c97b250b" data-name="Layer 2">
        <g id="ed7db8d0-ec63-498f-8d4f-56d72c1e045e" data-name="stone">
            <path class="b2e2d445-ce15-481c-a866-bbab6d89b717" d="M114.26,93.81a7.9,7.9,0,0,0,0,5.91,18.84,18.84,0,0,1-1.26,15,26.47,26.47,0,0,0-2.75,13,11,11,0,0,1-3,8.31,4.74,4.74,0,0,0-1.38,3.27c-.2,7.47-4,13.06-9.5,17.77-1.9,1.63-4.23,2.11-6.59,2.46-7,1-13.48,3.74-20,6.22a27.25,27.25,0,0,1-13.85,1.46c-6.07-.86-12.18-1.37-18.26-2.11-5.46-.67-10.21-3.24-15-5.69a9.92,9.92,0,0,1-3.78-4.17,23.43,23.43,0,0,0-4.92-5.86,16,16,0,0,1-5.44-11.81c-.15-3.51-.91-6.94-1.1-10.45-.17-3.33-1.94-6.18-3.46-9A25.36,25.36,0,0,1,2.09,96.75,20.36,20.36,0,0,0,2.9,91C3.18,84.27,3.59,77.5,1.83,71-.66,61.82-.1,52.6.57,43.33c.85-11.81,5.5-22.26,12.06-32a27,27,0,0,1,5.55-5.9C22,2.37,26.46,1.92,31.1,2.1A53.56,53.56,0,0,1,43.35,4.22a10.38,10.38,0,0,0,7.51-.68c2.21-1,4.51-1.89,6.73-2.92a6.23,6.23,0,0,1,4.95-.2c1.47.53,3,1,4.39,1.63a30.61,30.61,0,0,0,9.36,2.72c5.54.56,9.67,3.42,12.81,7.79,3.61,5,8.23,9.15,12.26,13.8,2.44,2.81,4,5.7,3.71,9.47-.09,1.14,0,2.3-.09,3.43a13.77,13.77,0,0,0,2.48,9c1.73,2.73,3.12,5.68,4.59,8.56,1.66,3.24,1.28,6.75,1,10.15a36,36,0,0,0,1.57,13.14A25.17,25.17,0,0,1,114.26,93.81ZM112.71,78a5.28,5.28,0,0,0-.52-2.79,2.53,2.53,0,0,0-.27.18s0,.12,0,.19a6.66,6.66,0,0,1-.56-2.56c-.36-3.71.24-7.41.1-11.12a10.8,10.8,0,0,0-1-4.5,59.88,59.88,0,0,0-4.09-7.67,16.69,16.69,0,0,1-3.1-11.44c.09-.94.08-1.89.12-2.83a9.63,9.63,0,0,0-2.55-7C96.07,23.09,91,18,86.57,12.34a17.42,17.42,0,0,0-8.85-5.82C72.87,5,67.71,4.47,63,2.41a6.86,6.86,0,0,0-5.69.16c-5.07,2.09-10.26,3.6-15.89,2.65A81.34,81.34,0,0,0,30.91,3.88C26,3.71,21.16,3.7,17.37,8.19,8.08,19.19,3.54,31.86,2.75,46c-.32,5.72-.11,11.46-.18,17.19a30.07,30.07,0,0,0,1.09,9.19,36.48,36.48,0,0,1,1.16,8.79C5.16,87.2,4.07,93.08,2.93,99a26,26,0,0,0,2.44,18c1.64,3,3.48,6.13,3.8,9.74s.72,7.51,1.13,11.26,1.61,7.4,4.9,9.84a18.75,18.75,0,0,1,5,6.26c1.13,2,2.33,4.19,4.54,5.06,4.42,1.73,8.78,3.76,13.58,4.3,6,.67,11.92,1.26,17.86,2a27.17,27.17,0,0,0,12.85-1.35c5.3-1.87,10.44-4.18,16-5.47,5.72-1.32,11.48-2.91,14.82-8.62,1.31-2.24,2.69-4.34,2.93-7a14.6,14.6,0,0,1,3.4-8.69,8.22,8.22,0,0,0,2.17-5.56c-.28-6.89,1.86-13.13,4.75-19.22.37-.21.73-.49.73-.91,0-2.48.35-4.95-.32-7.42a17.59,17.59,0,0,1-.26-8.88A25.65,25.65,0,0,0,112.71,78ZM26.91,2.88v.18h5.92V2.88ZM4.09,80.58l-.31-4.37C3.6,77.68,3.2,79.18,4.09,80.58Zm.13,3.33a3.25,3.25,0,0,0,0,2.72Zm.09,3.65-.42-.38c-.11.13-.3.25-.31.38s.2.26.31.38Zm-.47,2.06-.16-.28s-.12.09-.12.13a1.91,1.91,0,0,0,.06.33Z"/>
            <path class="fe696c96-c070-4675-ae97-9559336ca3dc" d="M113.13,109.62c-2.89,6.09-5,12.33-4.75,19.22a8.22,8.22,0,0,1-2.17,5.56,14.6,14.6,0,0,0-3.4,8.69c-.24,2.64-1.62,4.74-2.93,7-3.34,5.71-9.1,7.3-14.82,8.62-5.55,1.29-10.69,3.6-16,5.47a27.17,27.17,0,0,1-12.85,1.35c-5.94-.79-11.9-1.38-17.86-2-4.8-.54-9.16-2.57-13.58-4.3-2.21-.87-3.41-3-4.54-5.06a18.75,18.75,0,0,0-5-6.26c-3.29-2.44-4.48-6-4.9-9.84s-.78-7.51-1.13-11.26S7,120,5.37,117A26,26,0,0,1,2.93,99C4.07,93.08,5.16,87.2,4.82,81.14a36.48,36.48,0,0,0-1.16-8.79,30.07,30.07,0,0,1-1.09-9.19c.07-5.73-.14-11.47.18-17.19C3.54,31.86,8.08,19.19,17.37,8.19,21.16,3.7,26,3.71,30.91,3.88A81.34,81.34,0,0,1,41.43,5.22c5.63,1,10.82-.56,15.89-2.65A6.86,6.86,0,0,1,63,2.41C67.71,4.47,72.87,5,77.72,6.52a17.42,17.42,0,0,1,8.85,5.82C91,18,96.07,23.09,100.8,28.48a9.63,9.63,0,0,1,2.55,7c0,.94,0,1.89-.12,2.83a16.69,16.69,0,0,0,3.1,11.44,59.88,59.88,0,0,1,4.09,7.67,10.8,10.8,0,0,1,1,4.5c.14,3.71-.46,7.41-.1,11.12a6.66,6.66,0,0,0,.56,2.56c.15.81.3,1.62.46,2.43l.34,1.23a10.89,10.89,0,0,0,.71,3.33l.11.73a19,19,0,0,1-.89,9.49,12.68,12.68,0,0,0-.19,7.12C113.14,103.11,114.34,106.3,113.13,109.62ZM19.41,23.8a.47.47,0,0,0,.17,0s0-.07.05-.11l-.18.18a.4.4,0,0,0-.47.35c-4.84,3.87-7.28,7.74-6.67,10.68A15.66,15.66,0,0,1,15,30.09a53,53,0,0,0,4.19-5.71A.45.45,0,0,0,19.41,23.8Zm88.34,62.39c.06.18.16.34.37.2,0,0-.11-.27-.16-.41-1.63-2.63-3.28-5.21-3.61-8.41a22.32,22.32,0,0,1,.22-8C101.09,74.6,102.68,82.22,107.75,86.19ZM87.36,96.69c0-.46-.33-.46-.66-.43l-.06,0c-.59-.8,0-1.31.42-1.89A27.68,27.68,0,0,0,89.51,91c1.32-2.45-.06-4.76-2.83-4.95a4.53,4.53,0,0,0-2.19.19c-1.06-.07-.64-.67-.53-1.26,1.1-5.87-2.29-9.29-8.23-8.35l-.2,0c.39-.72,1-1.38.7-2.29-.36-4.44-1.57-6.19-4.81-7-2.41-.58-4.51.3-6.57,1.37l-2.59,2.58c-4.36-2-8-1-11.56,2.11A67.86,67.86,0,0,0,41,84.78c-4.85,6.66-5.23,13.84-3.6,21.56,1.84,8.69,7.37,11.42,13.73,12.13s12.45-1.51,18-4.67l2.37-1.41a8.93,8.93,0,0,0,4.16-.82,40.28,40.28,0,0,0,11.47-7.94,6.57,6.57,0,0,0,2.13-3.6c.22-1.53,0-3-1.91-3.38Zm-6.1-78.6c-.17-.32-.39-.48-.72-.23a4,4,0,0,0,.33.54C86.21,25.31,88,33.8,91.45,41.6a50.66,50.66,0,0,0-3.82-14.77A23.23,23.23,0,0,0,81.26,18.09ZM31.16,65c.23,0,.46.08.62,0C40.24,60.59,47,54.4,51.33,45.87A10.13,10.13,0,0,0,52,39.05C49.17,51.11,39.63,57.61,31.16,65Zm4.36-40.81a39.32,39.32,0,0,1,26.66-.4A24.28,24.28,0,0,0,35.52,24.23Zm31.69,102A80.92,80.92,0,0,0,85.53,115,66.35,66.35,0,0,0,67.21,126.21ZM29.72,93.8c-3.12,7.27-.5,13.93,2.78,20.5C31.34,107.51,28.65,100.9,29.72,93.8ZM15.51,59.67c-2.49,5.64-1.31,16.45,2,18.38C15.11,72.12,16.13,65.66,15.51,59.67Zm17,71.79a78.74,78.74,0,0,0,14.74,9.37A37.26,37.26,0,0,0,32.46,131.46Zm-18-33.93a47.54,47.54,0,0,1-.87,17C16.93,110.61,17.11,101.85,14.46,97.53Zm56-46a42.52,42.52,0,0,0-15.88,6.21A65.11,65.11,0,0,0,70.42,51.51Zm9.5,82.9A90.7,90.7,0,0,0,95,127.1C90.11,127.86,82.3,131.6,79.92,134.41Zm4.43-80.47c-.44-4.82-1.06-9.6-4.39-13.45C81.68,44.88,82.19,49.67,84.35,53.94Zm-4.14,93.15a40.24,40.24,0,0,0-10.53,6.64A26.21,26.21,0,0,0,80.21,147.09ZM12.3,51.68A49.68,49.68,0,0,0,18.42,40.9,24.75,24.75,0,0,0,12.3,51.68ZM55.72,151.1c-4.72-.56-9.61.55-12.66,2.8Zm45.68-48.88a10,10,0,0,0-.64,8.41Zm-5.84,24.55,0,.12-.15-.08Z"/>
            <ellipse class="bb1c95d0-a3f8-4238-a849-acd718bd2bc0" cx="29.87" cy="2.97" rx="4.19" ry="0.13"/>
            <path class="b2e2d445-ce15-481c-a866-bbab6d89b717" d="M69.12,113.8c-5.59,3.16-11.54,5.4-18,4.67S39.19,115,37.35,106.34c-1.63-7.72-1.25-14.9,3.6-21.56A67.86,67.86,0,0,1,50.7,73.45c3.51-3.08,7.2-4.14,11.56-2.11l.46.27,1.45.7C66.66,75,69.38,77.4,73,78.53c.56.52,1,1.08.75,1.93-1.85,3.32-4.33,5.56-8.51,4.94-1.24-.6-2.76-.58-3.8-1.63l1-.09c3.39.72,6.53.68,8.63-2.67.94-.6.86-.94-.15-1.48a52.83,52.83,0,0,1-7.89-5c-3.35-2.61-7.56-2.85-10.74,0-8.86,8-15.57,17.17-14.06,30,0,.47,0,.95,0,1.42a8.91,8.91,0,0,0,4.43,7.49c6.28,4,12.91,3.41,19.67,1.7C64.63,114.67,66.78,113.78,69.12,113.8Z"/>
            <path class="e67071f5-0b90-46c4-9419-ccc62c8e45ba" d="M69.12,113.8c-2.34,0-4.49.87-6.71,1.43-6.76,1.71-13.39,2.29-19.67-1.7A8.91,8.91,0,0,1,38.31,106c0-.47,0-1,0-1.42-1.51-12.84,5.2-22,14.06-30,3.18-2.89,7.39-2.65,10.74,0a52.83,52.83,0,0,0,7.89,5c1,.54,1.09.88.15,1.48l-.18-.17c-1.34-1.6-3.34-2.18-5.07-3.16-.19-.1-.26.2-.38.3-.69.58-.8.55-1.12-.13-1.58-3.32-4.83-4.9-8.16-3.75a14.75,14.75,0,0,0-6.71,4.42c-5.89,7.07-9.76,14.92-10.21,24.32a9,9,0,0,0,2.87,7.57,13.41,13.41,0,0,0,8.39,3.72A50.83,50.83,0,0,0,64.73,113c1.82-.4,3.82-.12,5.46-1.28l1.3.67Z"/>
            <path class="e67071f5-0b90-46c4-9419-ccc62c8e45ba" d="M73,78.53c-3.63-1.13-6.35-3.51-8.84-6.22a3.62,3.62,0,0,1,2.75,1.52c1.55,1.6,3.54,2.47,5.43,3.52a1.19,1.19,0,0,0,1.9-.74c.71-2-1-5.32-3-6.27-3.11-1.41-5.8,0-8.49,1.27l-.46-.27,2.59-2.58c.74.86,1.55.33,2.37.15,3.78-.82,6.8.63,7.93,3.85a20.6,20.6,0,0,1,.52,2.58l.56-1c.25.91-.31,1.57-.7,2.29,0,.24-1.09.16-.24.56a4.78,4.78,0,0,0,1.82,0c2.93.07,3.83.79,4.69,3.52a6.74,6.74,0,0,1-1.39,6.6c-3.62,4.57-8.59,7.12-13.84,9.3a3.78,3.78,0,0,1-3.6-.4l-.55,0,.22-1.48c1,.41,1.84,1,3,.66,1.83-.61-.71-1.87.57-2.63.36,1.11.82,2.47,2.27,1.66,3.89-2.17,7.93-4.17,11.07-7.42.89-.92,1.88-2,1.78-3.47C81.07,79.27,77.23,77,73,78.53Z"/>
            <path class="fe31db14-ff67-4f4f-9860-4f3dd5549a8e" d="M63,96.27a3.78,3.78,0,0,0,3.6.4c5.25-2.18,10.22-4.73,13.84-9.3a6.74,6.74,0,0,0,1.39-6.6C80.94,78,80,77.32,77.11,77.25a4.78,4.78,0,0,1-1.82,0c-.85-.4.26-.32.24-.56l.2,0C81.67,75.68,85.06,79.1,84,85c-.11.59-.53,1.19.53,1.26a1.71,1.71,0,0,0,0,.32c-1,0-1.31.7-1.81,1.36-4.55,6-10.5,9.61-18.23,10C63.78,97.5,63.11,97.13,63,96.27Z"/>
            <path class="bb1c95d0-a3f8-4238-a849-acd718bd2bc0" d="M84.48,86.55a1.71,1.71,0,0,1,0-.32A4.53,4.53,0,0,1,86.68,86c2.77.19,4.15,2.5,2.83,4.95a27.68,27.68,0,0,1-2.45,3.41c-.43.58-1,1.09-.42,1.89-.36,0-.83-.3-.93.35-1-.19-.76.86-1.25,1.18-.53.05-.83.31-.82.86h0c-2.11,1.42-4.16,2.94-6.35,4.22-2.42,1.42-4.9,2.9-7.94,2.41a4,4,0,0,1-2.57-3.46c.2-.54-.21-1.28.55-1.63,0,.16.07.31.1.46a1,1,0,0,0,.24,1.22c.51,1.52,1.55,2.59,3.17,2a30.28,30.28,0,0,0,11.7-7.55c1.28-1.37,2.62-2.68,3.83-4.11,1-1.16,2.75-2,2.2-3.94C88,86.14,85.91,87,84.48,86.55Z"/>
            <path class="ee73117d-c410-4485-8028-e9a9f77c16aa" d="M31.16,65c8.47-7.43,18-13.93,20.88-26a10.13,10.13,0,0,1-.71,6.82C47,54.4,40.24,60.59,31.78,65,31.62,65.12,31.39,65,31.16,65Z"/>
            <path class="b2e2d445-ce15-481c-a866-bbab6d89b717" d="M71.49,112.39l-1.3-.67c-1.48-1.24-1.39-2.89-1.23-4.56h.45l.18,1.17c.18,2.68,1.88,3.56,4.54,2.1a70.5,70.5,0,0,0,12.37-8.5c2-1.75,2.11-2.86.84-5.27,1.93.41,2.13,1.85,1.91,3.38a6.57,6.57,0,0,1-2.13,3.6,40.28,40.28,0,0,1-11.47,7.94A8.93,8.93,0,0,1,71.49,112.39Z"/>
            <path class="ee73117d-c410-4485-8028-e9a9f77c16aa" d="M35.52,24.23a24.28,24.28,0,0,1,26.66-.4A39.32,39.32,0,0,0,35.52,24.23Z"/>
            <path class="ee73117d-c410-4485-8028-e9a9f77c16aa" d="M81.26,18.09a23.23,23.23,0,0,1,6.37,8.74A50.66,50.66,0,0,1,91.45,41.6C88,33.8,86.21,25.31,80.87,18.4Z"/>
            <path class="e67071f5-0b90-46c4-9419-ccc62c8e45ba" d="M87.34,96.65c1.27,2.41,1.17,3.52-.84,5.27a70.5,70.5,0,0,1-12.37,8.5c-2.66,1.46-4.36.58-4.54-2.1.85.38.87,1.84,2.38,1.46s.33-1.53.93-2.37c.53,1.66,1.37,1.32,2.34.65.66-.47,1.4-.83,2.1-1.24a40.9,40.9,0,0,0,7.94-5.66c1.51-1.47,2.3-2.85.43-4.52.1-.65.57-.36.93-.35l.06,0,.66.43Z"/>
            <path class="ee73117d-c410-4485-8028-e9a9f77c16aa" d="M67.21,126.21A66.35,66.35,0,0,1,85.53,115,80.92,80.92,0,0,1,67.21,126.21Z"/>
            <path class="ee73117d-c410-4485-8028-e9a9f77c16aa" d="M29.72,93.8c-1.07,7.1,1.62,13.71,2.78,20.5C29.22,107.73,26.6,101.07,29.72,93.8Z"/>
            <path class="ee73117d-c410-4485-8028-e9a9f77c16aa" d="M15.51,59.67c.62,6-.4,12.45,2,18.38C14.2,76.12,13,65.31,15.51,59.67Z"/>
            <path class="ee73117d-c410-4485-8028-e9a9f77c16aa" d="M32.46,131.46a37.26,37.26,0,0,1,14.74,9.37A78.74,78.74,0,0,1,32.46,131.46Z"/>
            <path class="ee73117d-c410-4485-8028-e9a9f77c16aa" d="M14.46,97.53c2.65,4.32,2.47,13.08-.87,17A47.54,47.54,0,0,0,14.46,97.53Z"/>
            <path class="ee73117d-c410-4485-8028-e9a9f77c16aa" d="M107.75,86.19c-5.07-4-6.66-11.59-3.18-16.65a22.32,22.32,0,0,0-.22,8c.33,3.2,2,5.78,3.61,8.41Z"/>
            <path class="ee73117d-c410-4485-8028-e9a9f77c16aa" d="M70.42,51.51a65.11,65.11,0,0,1-15.88,6.21A42.52,42.52,0,0,1,70.42,51.51Z"/>
            <path class="ee73117d-c410-4485-8028-e9a9f77c16aa" d="M79.92,134.41c2.38-2.81,10.19-6.55,15.06-7.31A90.7,90.7,0,0,1,79.92,134.41Z"/>
            <path class="b2e2d445-ce15-481c-a866-bbab6d89b717" d="M76.23,74.35l-.56,1a20.6,20.6,0,0,0-.52-2.58C74,69.54,71,68.09,67.22,68.91c-.82.18-1.63.71-2.37-.15,2.06-1.07,4.16-2,6.57-1.37C74.66,68.16,75.87,69.91,76.23,74.35Z"/>
            <path class="ee73117d-c410-4485-8028-e9a9f77c16aa" d="M84.35,53.94c-2.16-4.27-2.67-9.06-4.39-13.45C83.29,44.34,83.91,49.12,84.35,53.94Z"/>
            <path class="ee73117d-c410-4485-8028-e9a9f77c16aa" d="M80.21,147.09a26.21,26.21,0,0,1-10.53,6.64A40.24,40.24,0,0,1,80.21,147.09Z"/>
            <path class="ee73117d-c410-4485-8028-e9a9f77c16aa" d="M19.18,24.38A53,53,0,0,1,15,30.09a15.66,15.66,0,0,0-2.68,4.77c-.61-2.94,1.83-6.81,6.67-10.68Z"/>
            <path class="ee73117d-c410-4485-8028-e9a9f77c16aa" d="M12.3,51.68A24.75,24.75,0,0,1,18.42,40.9,49.68,49.68,0,0,1,12.3,51.68Z"/>
            <path class="ee73117d-c410-4485-8028-e9a9f77c16aa" d="M55.72,151.1l-12.66,2.8C46.11,151.65,51,150.54,55.72,151.1Z"/>
            <path class="bb1c95d0-a3f8-4238-a849-acd718bd2bc0" d="M101.4,102.22l-.64,8.41A10,10,0,0,1,101.4,102.22Z"/>
            <polygon class="ee73117d-c410-4485-8028-e9a9f77c16aa" points="95.56 126.77 95.39 126.81 95.54 126.89 95.56 126.77"/>
            <path class="ee73117d-c410-4485-8028-e9a9f77c16aa" d="M80.87,18.4a4,4,0,0,1-.33-.54c.33-.25.55-.09.72.23Z"/>
            <path class="b2e2d445-ce15-481c-a866-bbab6d89b717" d="M87.36,96.69l-.66-.43C87,96.23,87.35,96.23,87.36,96.69Z"/>
            <path class="ee73117d-c410-4485-8028-e9a9f77c16aa" d="M19.45,23.83l.18-.18s0,.09-.05.11a.47.47,0,0,1-.17,0Z"/>
            <path class="ee73117d-c410-4485-8028-e9a9f77c16aa" d="M19.41,23.8a.45.45,0,0,1-.23.58l-.2-.2a.4.4,0,0,1,.47-.35Z"/>
            <path class="ee73117d-c410-4485-8028-e9a9f77c16aa" d="M108,86c.05.14.19.39.16.41-.21.14-.31,0-.37-.2Z"/>
            <path class="ef682daa-09d1-4451-808d-1d0517bb4ab1" d="M73,78.53c4.22-1.58,8.06.74,8.35,5,.1,1.51-.89,2.55-1.78,3.47-3.14,3.25-7.18,5.25-11.07,7.42-1.45.81-1.91-.55-2.27-1.66-1.28.76,1.26,2-.57,2.63-1.19.39-2.06-.25-3-.66,0-.13-.07-.26-.1-.4s.09-.12.07-.16a1.59,1.59,0,0,0-.16-.32,16.87,16.87,0,0,0-1.28-5.28c1.56.18,3.14.49,4.43-.8,3.64-2,8.16-2.9,9.45-8l-1.29.64C74.06,79.61,73.57,79.05,73,78.53Z"/>
            <path class="ef682daa-09d1-4451-808d-1d0517bb4ab1" d="M62.72,71.61c2.69-1.31,5.38-2.68,8.49-1.27,2.08,1,3.75,4.26,3,6.27a1.19,1.19,0,0,1-1.9.74c-1.89-1-3.88-1.92-5.43-3.52a3.62,3.62,0,0,0-2.75-1.52Z"/>
            <path class="e67071f5-0b90-46c4-9419-ccc62c8e45ba" d="M71.11,81c-2.1,3.35-5.24,3.39-8.63,2.67a10.79,10.79,0,0,0-5.82-1.25c2.26-1.45,4.73-1.42,7.22-.91s4.81.61,7.05-.68Z"/>
            <path class="e67071f5-0b90-46c4-9419-ccc62c8e45ba" d="M73.76,80.46l1.29-.64c-1.29,5.07-5.81,6-9.45,8,.14-.87-.19-.87-.82-.47a4,4,0,0,1-4,.3.24.24,0,0,0-.1-.26l-.1-.7c1.72.21,3.48.51,4.65-1.26C69.43,86,71.91,83.78,73.76,80.46Z"/>
            <path class="a67d09ff-1639-4542-b141-1597a474ad69" d="M65.25,85.4c-1.17,1.77-2.93,1.47-4.65,1.26a6.06,6.06,0,0,0-2-2.23L59,86.3c-.5,1.13-.06,2.34-.28,3.49-.88-2.17,0-4.55-.83-6.72a10.65,10.65,0,0,1,3.58.7C62.49,84.82,64,84.8,65.25,85.4Z"/>
            <path class="bb1c95d0-a3f8-4238-a849-acd718bd2bc0" d="M61.45,83.77a10.65,10.65,0,0,0-3.58-.7l-2-.22a.23.23,0,0,0,.11-.27l.69-.15a10.78,10.78,0,0,1,5.81,1.25Z"/>
            <path class="b6fc66d8-b368-4eea-a1a7-be3f1a1a7d6a" d="M55.87,82.85l2,.22c.83,2.17,0,4.55.83,6.72.36,4.34.9,8.67,1.59,13v2a21.34,21.34,0,0,0,2.13-8.51l.55,0c.14.86.81,1.23,1.47,1.62-.1,1.46.87,1.64,2,1.62.07.78-.18,1.61.34,2.33a4,4,0,0,0,2.57,3.46c.3.71-.45,1.2-.4,1.86-.16,1.67-.25,3.32,1.23,4.56-1.64,1.16-3.64.88-5.46,1.28a50.83,50.83,0,0,1-14.19,1.13,13.41,13.41,0,0,1-8.39-3.72,9,9,0,0,1-2.87-7.57c.45-9.4,4.32-17.25,10.21-24.32A14.75,14.75,0,0,1,56.2,74.1c3.33-1.15,6.58.43,8.16,3.75.32.68.43.71,1.12.13.12-.1.19-.4.38-.3,1.73,1,3.73,1.56,5.07,3.16-2.24,1.29-4.61,1.18-7.05.68s-5-.54-7.22.91l-.68.15a1.8,1.8,0,0,0-.68.2c-.17.14,0,.38.18.37S55.74,83,55.87,82.85Z"/>
            <path class="a1af9a8d-6f9a-4b1f-9d3a-086cffa73108" d="M62.42,96.23a21.34,21.34,0,0,1-2.13,8.51v-2c.74-3.58.21-7.19.4-10.78,0-.76.31-1.56-.37-2.21l-.49-2.39.87,0a.24.24,0,0,1,.1.26c.12.32.24.65.37,1a16.87,16.87,0,0,1,1.28,5.28c0,.06-.07.12-.05.17a1.73,1.73,0,0,0,.14.31c0,.14.07.27.1.4C62.57,95.24,62.5,95.74,62.42,96.23Z"/>
            <path class="a67d09ff-1639-4542-b141-1597a474ad69" d="M66.45,99.51c-1.14,0-2.11-.16-2-1.62,7.73-.37,13.68-3.94,18.23-10,.5-.66.84-1.38,1.81-1.36,1.43.43,3.49-.41,4.1,1.7.55,1.91-1.22,2.78-2.2,3.94-1.21,1.43-2.55,2.74-3.83,4.11a1.07,1.07,0,0,0-1.11.3,65.3,65.3,0,0,1-9,5.45c-1.16.64-2.28,1.5-3-.49-.29-.81-.88.59-1.25-.1-.12-.39-.24-.77-.75-.79l-.1-.46c.08-.55.2-1.23-.3-1.51C66.73,98.52,66.69,99.25,66.45,99.51Z"/>
            <path class="ef682daa-09d1-4451-808d-1d0517bb4ab1" d="M85.71,96.64c1.87,1.67,1.08,3-.43,4.52a40.9,40.9,0,0,1-7.94,5.66c-.7.41-1.44.77-2.1,1.24-1,.67-1.81,1-2.34-.65-.6.84.6,2-.93,2.37s-1.53-1.08-2.38-1.46l-.18-1.17c.55-.31.45-1.29,1.42-1.19,3.58.35,6.33-1.69,9.1-3.38,1.5-.92,3.4-1.76,3.72-3.91h0c.67.09.84-.3.82-.86C85,97.5,84.73,96.45,85.71,96.64Z"/>
            <path class="e67071f5-0b90-46c4-9419-ccc62c8e45ba" d="M68.19,101.46c.37.69,1-.71,1.25.1.72,2,1.84,1.13,3,.49a65.3,65.3,0,0,0,9-5.45,1.07,1.07,0,0,1,1.11-.3,30.28,30.28,0,0,1-11.7,7.55c-1.62.63-2.66-.44-3.17-2Z"/>
            <path class="e67071f5-0b90-46c4-9419-ccc62c8e45ba" d="M83.65,98.67c-.32,2.15-2.22,3-3.72,3.91-2.77,1.69-5.52,3.73-9.1,3.38-1-.1-.87.88-1.42,1.19H69c0-.66.7-1.15.4-1.86,3,.49,5.52-1,7.94-2.41C79.49,101.61,81.54,100.09,83.65,98.67Z"/>
            <path class="fe696c96-c070-4675-ae97-9559336ca3dc" d="M66.45,99.51c.24-.26.28-1,.59-.81.5.28.38,1,.3,1.51-.76.35-.35,1.09-.55,1.63C66.27,101.12,66.52,100.29,66.45,99.51Z"/>
            <path class="fe696c96-c070-4675-ae97-9559336ca3dc" d="M68.19,101.46l-.51.43a1,1,0,0,1-.24-1.22C68,100.69,68.07,101.07,68.19,101.46Z"/>
            <path class="e67071f5-0b90-46c4-9419-ccc62c8e45ba" d="M84.46,97.82c0,.56-.15,1-.82.86C83.63,98.13,83.93,97.87,84.46,97.82Z"/>
            <path class="bb1c95d0-a3f8-4238-a849-acd718bd2bc0" d="M61.17,88.59c-.13-.32-.25-.65-.37-1a4,4,0,0,0,4-.3c.63-.4,1-.4.82.47C64.31,89.08,62.73,88.77,61.17,88.59Z"/>
            <path class="e67071f5-0b90-46c4-9419-ccc62c8e45ba" d="M62.54,94.35A1.73,1.73,0,0,1,62.4,94c0-.05,0-.11.05-.17a1.59,1.59,0,0,1,.16.32S62.57,94.3,62.54,94.35Z"/>
            <path class="bb1c95d0-a3f8-4238-a849-acd718bd2bc0" d="M60.7,87.36l-.87,0c-.44-.25-.26-1-.85-1.09l-.39-1.87a6.06,6.06,0,0,1,2,2.23C60.63,86.9,60.67,87.13,60.7,87.36Z"/>
            <path class="e67071f5-0b90-46c4-9419-ccc62c8e45ba" d="M59,86.3c.59.13.41.84.85,1.09l.49,2.39A4.54,4.54,0,0,0,60.69,92c-.19,3.59.34,7.2-.4,10.78-.69-4.31-1.23-8.64-1.59-13C58.92,88.64,58.48,87.43,59,86.3Z"/>
            <path class="a67d09ff-1639-4542-b141-1597a474ad69" d="M55.87,82.85c-.13.11-.26.3-.39.3s-.35-.23-.18-.37a1.8,1.8,0,0,1,.68-.2A.23.23,0,0,1,55.87,82.85Z"/>
            <path class="bb1c95d0-a3f8-4238-a849-acd718bd2bc0" d="M60.69,92a4.54,4.54,0,0,1-.37-2.21C61,90.43,60.7,91.23,60.69,92Z"/>
        </g>
    </g>
    <g id="paper-layer" data-name="Layer 2">
        <g id="paper" data-name="paper">
            <path class="b44bf4b2-0fca-4c20-8cd3-a52553aa9992" d="M103.07,133l.41.8c-.44.08-.85.22-.68.72s.64.38,1,.42c.49,2,1,4.08,1.46,6.13.39,1.87-.11,2.37-2.3,2.19-3.72-.3-7.43-.64-11.13-1.08-2-.23-3.92-.31-5.89-.36-21.23-.5-42.43.15-63.63,1-6.5.27-12.9,1.14-19.33,1.87C.57,145-.09,144.38.8,142.35c1-2.39,1.33-4.92,2.05-7.37h.39l.08.36.2-.1L3.25,135l-.11-1,.17-1.23c.59.53,1,.95,1.23-.28s-.38-3,.14-4c1.29-2.55,1-5,.67-7.58a.32.32,0,0,1,0-.35l.85,0c.55-.4.36-1,.39-1.48,0-1.91-1.07-3.82,0-5.73v3H7v-3c.17-.68-.43-1.63.84-1.92A118.65,118.65,0,0,1,5.62,130c-.85,4.33-2,8.6-3,12.7,33.73-2.46,67.4-4.14,101.21-1.09-4.43-14.82-5.46-30-5.8-45.22-.49-21.79,1.66-43.47,4.67-65.08,2.28,1.16.31,2.3,0,3.45V37h.4V35.16c.78.81.26,1.79.43,2.68a.35.35,0,0,1,0,.37h-.82c-.79,1.32-.31,2.83-.84,4.19,0,.89,0,1.78,0,2.68-.84,1.2-.23,2.53-.42,3.79v0a.89.89,0,0,0,0,1.51,4.42,4.42,0,0,1-.83,2.7c.15,1.12-.39,2.32.4,3.38-.17,1.28.43,2.62-.42,3.83-.09-.61.19-1.25-.41-2.15V62.6c-.85,1.33-.22,2.77-.41,4.15a3,3,0,0,0-.42,2c0,1,0,2,0,3a10.47,10.47,0,0,1-.41,3.85q0,4.74,0,9.49v1.52c-.81,2.39-.37,4.81-.24,7.22,0,.14.42.26.65.38v2a20.94,20.94,0,0,0,0,9.12l0,1.16c0,.41-.05.84.4,1.11a4.09,4.09,0,0,1-.15,4.07A1.94,1.94,0,0,0,99.7,114c.12.76-.3,1.6.42,2.27v1.17c.16,1-.39,2.09.41,3h0c.17,1.14-.39,2.35.42,3.43a3,3,0,0,1,.42,1.91c-.4.25-.38.5,0,.75h0l.41.75.42,2.33c-.5.37-.48.74,0,1.11a2.46,2.46,0,0,1,.42,1.55c-.05,0-.14.08-.14.1s.1.17.15.26Zm-26,7.73,0,.17H87.24v-.17Zm-37.29.4v.19h6.55v-.19Zm-17.95.94v-.18H19.41v.18Zm-5.18.38a2.65,2.65,0,0,0-2.28,0Zm77.92-.75a1.51,1.51,0,0,0-1.7,0ZM2.46,144.05c.35-.18.8.39,1.18-.38C3.18,143.89,2.77,143.54,2.46,144.05Zm101.3-6.5c-.11.18-.22.28-.21.38a2,2,0,0,0,.16.49c.07-.1.18-.2.18-.3A2.63,2.63,0,0,0,103.76,137.55Zm-50.7,3.29c.2.1.32.2.42.2a2.57,2.57,0,0,0,.54-.16c-.11,0-.22-.15-.33-.15A3,3,0,0,0,53.06,140.84Zm-18.9,1,.4-.18a2.72,2.72,0,0,0-.53-.17c-.11,0-.23.09-.34.14Zm2-.23c.2.09.32.2.42.19a2.72,2.72,0,0,0,.54-.15c-.11-.06-.22-.16-.33-.16A3,3,0,0,0,36.14,141.61Zm60.23.45a1.19,1.19,0,0,0-.27-.17s-.12,0-.18,0,.06.22.09.22A2,2,0,0,0,96.37,142.06Z"/>
            <path class="ab493fef-27f5-4d4b-8868-eb035b2f7c6b" d="M6.64,113.27c-1.09,1.91,0,3.82,0,5.73-.56.4-.37,1-.39,1.48l-.85,0c1.69-19,.84-38,.59-57.06C5.82,51.7,4.07,40,3,28.35c-.65-7.27-1.84-14.49-2-21.8A28.05,28.05,0,0,0,.14,2.07C-.24.17.06-.19,2.09.08c19.07,2.53,38.34,2.4,57.54,3.2,13.09.54,26.17-.61,39.18-2.14,1.61-.18,3-1,4.7-1V.88h-1.7a1.32,1.32,0,0,0-1.26.76H99.28c-.47,0-.94,0-1.26.37l-.45,0h-.42a.92.92,0,0,0-.82.36l-3,0c-.46,0-.94,0-1.25.38-.62.58-1.41.3-2.13.37a1.55,1.55,0,0,0-2.09,0l-.9.37a8.51,8.51,0,0,0-5.46,0h0c-2.53.2-5.11-.43-7.6.37H51.05a1.61,1.61,0,0,0-1.15-.37c-4.7-.07-9.38-.61-14.08-.39H33.68a28.56,28.56,0,0,0-10.1,0l-3.65,0-.59,0,0-.43a7,7,0,0,0,2.91-.38h-5c-.46-.51-1.11-.33-1.7-.38-1.49-.78-3.12-.2-4.67-.37-2,.15-3.92-1-5.88,0l-1.86,0L1.54,1.6c-.59,0-.42.43-.4.68.18,1.92.27,3.83.58,5.75.44,2.77,1.33,5.54,1.12,8.44a19.17,19.17,0,0,0,.25,5.15A37,37,0,0,1,3.68,26c.17,1.26-.41,2.58.4,3.79.79.81.29,1.79.43,2.69a.89.89,0,0,0,0,1.51h0c.19.76-.38,1.62.42,2.28a1.24,1.24,0,0,1,0,1.87,1.55,1.55,0,0,0-.17,2.1,3.68,3.68,0,0,1,.56,2.51c0,1,0,2,0,3l.82,1.55a2.67,2.67,0,0,0,0,3L6.62,52a3.24,3.24,0,0,0,0,3.38c-.38,2.42-.86,4.84,0,7.26.09.64-.24,1.36.42,1.9.19,1.41-.53,3,.84,4.2,0,1.27,0,2.54,0,3.8H7.47v-3H7.15v8.17a7.41,7.41,0,0,0,.33-2.93h.43q0,3,0,6.08H7.47c-.54.45-.41,1.05-.41,1.6q0,10.59,0,21.18c0,.55-.13,1.15.41,1.6a1,1,0,0,1,.46.87c0,1.74,0,3.48,0,5.22-1.27.29-.67,1.24-.84,1.92ZM4,.94c-.35.19-.8-.38-1.16.34C3.31,1.14,3.72,1.42,4,.94ZM7.28,110.19c.25-.37.35-.73-.11-1C7.05,109.52,6.92,109.87,7.28,110.19Z"/>
            <path class="faa573e0-2a34-45df-9ddb-c5a05db8ff38" d="M108.56,5.45c0,.2,0,.4,0,.6s-.21.61-.31.92c-3.07,7.9-4.27,16.15-5.54,24.38C99.68,53,97.53,74.64,98,96.43c.34,15.21,1.37,30.4,5.8,45.22C70,138.6,36.34,140.28,2.61,142.74c1-4.1,2.16-8.37,3-12.7a118.65,118.65,0,0,0,2.26-18.69c0-1.74,0-3.48,0-5.22.22-8.42.17-16.84,0-25.26q0-3,0-6.08c0-.77,0-1.53,0-2.3,0-1.26,0-2.53,0-3.8,0-.63.07-1.26.06-1.9C7.64,50.9,5.21,35.15,4,19.32,3.49,13.37,1.9,7.56,1.54,1.6l1.56.07A93,93,0,0,0,19.34,3.21l.59,0a8.59,8.59,0,0,0,3.31.4c6.48.23,13,.26,19.43.71a326.87,326.87,0,0,0,49-.65c4.79-.38,9.35-1.8,14.12-2.24,3.23-.3,3.22-.29,2.83,2.53A12.69,12.69,0,0,0,108.56,5.45ZM46.84,26a2.33,2.33,0,0,0-2.57,0c-2.9.5-3.81,2.71-4.5,4.76-.55,1.6-1.42,1.95-3,1.81-1.25-.12-2.51-.2-3.78-.28s-2.74-.14-4.11-.2l-.07.61c2.79.45,5.55,1,8.36,1.32,1.33.13,1.62.45,1.52,1.58a27.83,27.83,0,0,0,.25,7.57c.29,1.54-.31,2-1.84,1.82a12,12,0,0,0-1.47,0,14.19,14.19,0,0,0-8.9.38,49.12,49.12,0,0,1,5.7.27L35,46.2l2.05.26,2.51.15c.2,1.71,0,3.44.44,5.13a7.65,7.65,0,0,0,.41,3.94c.61,1.78.07,2.54-2,2.71-4.35.36-8.59,1.63-13.16,1.27A4.81,4.81,0,0,0,29,60.8a66.32,66.32,0,0,0,9.87-.89c2.11-.44,2,.33,1.78,1.71-.45,3.56-2.19,6.78-3.09,10.21-.37.26-.83.45-.87,1-2.88-1.39-5.69-3.39-6.32-6.07-1.05-4.5-4.72-5.65-8.49-7a5.39,5.39,0,0,0-5.68,1.57c-1.34,1.58-.78,3.09.25,4.57.49.69,1,1.36,1.54,2,3.18,4.31,6.82,8.38,8.53,13.46a15.09,15.09,0,0,0,1.72,2.89c.15.69.75,1,1.3,1.44-.48.2-.32.39-.06.68.95,1,1.85,2.07,2.84,3.19-.81,0-1.45,0-2.08,0a3.76,3.76,0,0,0-2.38.47c5,.24,8.92,1.88,11.68,4.92S46.2,99.82,50,101.72c2.32,1.16,4.82,1.89,7.27,1.14A34.67,34.67,0,0,0,73.38,92.05c1.25-1.43,2.11-2.69,4.31-2.47H86a23.9,23.9,0,0,0-8.37-1.29c-1.27,0-1.83-.11-1.19-1.46a39.08,39.08,0,0,0,3.3-10.57c.16-1,.56-1.17,1.6-1.19a12.92,12.92,0,0,0,6-1.42c-2.18-.09-3.87.47-5.61.3-1.09-.11-1.61-.34-1.46-1.52.57-4.6,1.42-9.15,2.4-13.69.3-1.42,1.12-1.62,2.34-1.31.79.2,1.47.42,2.05-.45a12,12,0,0,0-1.23-.23c-1.93-.11-2.37-.73-1.54-2.45,1.67-3.43,3.17-7,2.38-10.82-.16-.78,1.08-1.25.57-1.38-1.12-.31-1-1.15-1.37-1.74S85,38.9,84,38.6a2.19,2.19,0,0,0-2.34-.13c-1.46.52-2,1.72-2.72,2.77-1.83.25-2.27-.37-2.23-2.08,0-2,.28-3.91.17-5.86-.07-1.31.51-1.58,1.81-1.6,2.94-.05,5.88-.24,8.82-.37a61.13,61.13,0,0,0-9-1c-1.26-.06-1.82-.4-2.12-1.54A3.73,3.73,0,0,0,73,26a4.32,4.32,0,0,0-4.32,1.81,6.39,6.39,0,0,0-.79,1.33c-.27.63-.55,1.16-1.46,1.09s-.81-.75-.95-1.25a6.8,6.8,0,0,0-1.29-3,3.14,3.14,0,0,0-1.28-1.56v0c-2.3-1.67-4.38-1.89-6-.41a11.51,11.51,0,0,0-3.36,6.06c-.19.82-.37,1.29-1.37,1.26s-1.87.46-2.23-.95-.8-3.05-2.4-4A.8.8,0,0,0,46.84,26Zm16.07,92.65c-3-.85-6-2-9.21-1.88q-10.65.38-21.28,1.1c-2.22.15-4.43.29-6.15.31a5.34,5.34,0,0,0,1.91.54,102.88,102.88,0,0,0,15.8.13c5-.4,10.1-1.22,15.06.42a21.38,21.38,0,0,0,8.08,1c6.53-.36,13-1.09,19.6-.7a24.71,24.71,0,0,0,3.32-.24c-3.37-.22-6.62-1.08-10-1.11a10.07,10.07,0,0,0-4.91,0l-6.77.46a6.73,6.73,0,0,0-2.49.12H63.7Zm20.68-14.26A83.71,83.71,0,0,0,61.85,104a89,89,0,0,1-17,0,67.73,67.73,0,0,0-14,.35c1.24.19,2.48.17,3.7.32a134.43,134.43,0,0,0,29.81.78c5.58-.57,11.25-.44,16.87-.63A4.4,4.4,0,0,0,83.59,104.39Z"/>
            <path class="eeed917e-496b-4557-82c0-2bfc43cf1130" d="M77,140.77H87.24v.17H77.05Z"/>
            <ellipse class="eeed917e-496b-4557-82c0-2bfc43cf1130" cx="43" cy="141.26" rx="4.63" ry="0.13"/>
            <ellipse class="eeed917e-496b-4557-82c0-2bfc43cf1130" cx="20.59" cy="142.02" rx="1.68" ry="0.13"/>
            <path class="eeed917e-496b-4557-82c0-2bfc43cf1130" d="M16.6,142.49H14.32A2.65,2.65,0,0,1,16.6,142.49Z"/>
            <path class="eeed917e-496b-4557-82c0-2bfc43cf1130" d="M94.52,141.74h-1.7A1.51,1.51,0,0,1,94.52,141.74Z"/>
            <path class="eeed917e-496b-4557-82c0-2bfc43cf1130" d="M53.06,140.84a3,3,0,0,1,.63-.11c.11,0,.22.1.33.15a2.57,2.57,0,0,1-.54.16C53.38,141,53.26,140.94,53.06,140.84Z"/>
            <path class="eeed917e-496b-4557-82c0-2bfc43cf1130" d="M34.16,141.84l-.47-.21c.11,0,.23-.15.34-.14a2.72,2.72,0,0,1,.53.17Z"/>
            <path class="eeed917e-496b-4557-82c0-2bfc43cf1130" d="M36.14,141.61a3,3,0,0,1,.63-.12c.11,0,.22.1.33.16a2.72,2.72,0,0,1-.54.15C36.46,141.81,36.34,141.7,36.14,141.61Z"/>
            <path class="b44bf4b2-0fca-4c20-8cd3-a52553aa9992" d="M108.56,5.45a12.69,12.69,0,0,1,0-1.51c.39-2.82.4-2.83-2.83-2.53-4.77.44-9.33,1.86-14.12,2.24a326.87,326.87,0,0,1-49,.65c-6.46-.45-13-.48-19.43-.71a8.59,8.59,0,0,1-3.31-.4l3.65,0H35.82a1.81,1.81,0,0,0,1.36.38l13.87.38h0a2,2,0,0,0,1.56.37H71.47A2,2,0,0,0,73,3.93h.87c2.53-.07,5.1.34,7.6-.37H87l.9-.37H90c.72-.07,1.51.21,2.13-.37.46,0,.94,0,1.25-.38l3,0h.83L97.57,2,98,2a1.41,1.41,0,0,0,1.26-.37h1.27c.61,0,1.19,0,1.26-.76h1.7a30.27,30.27,0,0,0,5-.18c.46-.1,1.12,0,1,.34C109.11,2.49,110.23,4.24,108.56,5.45Z"/>
            <path class="b44bf4b2-0fca-4c20-8cd3-a52553aa9992" d="M19.34,3.21A93,93,0,0,1,3.1,1.67L5,1.63c2-.41,3.91,1,5.88,0,1.55.17,3.18-.41,4.67.37H12.22V2.4h5c.6.59,1.4.3,2.11.38Z"/>
            <path class="eeed917e-496b-4557-82c0-2bfc43cf1130" d="M73,3.93a2,2,0,0,1-1.56.37H52.61a2,2,0,0,1-1.56-.37Z"/>
            <path class="eeed917e-496b-4557-82c0-2bfc43cf1130" d="M51.05,3.92,37.18,3.54a1.81,1.81,0,0,1-1.36-.38c4.7-.22,9.38.32,14.08.39A1.61,1.61,0,0,1,51.05,3.92Z"/>
            <path class="eeed917e-496b-4557-82c0-2bfc43cf1130" d="M33.68,3.15H23.58A28.56,28.56,0,0,1,33.68,3.15Z"/>
            <path class="eeed917e-496b-4557-82c0-2bfc43cf1130" d="M81.5,3.55c-2.5.71-5.07.3-7.6.37C76.39,3.12,79,3.75,81.5,3.55Z"/>
            <path class="eeed917e-496b-4557-82c0-2bfc43cf1130" d="M10.84,1.65c-2,1-3.92-.43-5.88,0C6.92.62,8.88,1.8,10.84,1.65Z"/>
            <path class="eeed917e-496b-4557-82c0-2bfc43cf1130" d="M87,3.53H81.51A8.51,8.51,0,0,1,87,3.53Z"/>
            <path class="eeed917e-496b-4557-82c0-2bfc43cf1130" d="M17.21,2.4h-5V2h3.29C16.1,2.07,16.75,1.89,17.21,2.4Z"/>
            <path class="eeed917e-496b-4557-82c0-2bfc43cf1130" d="M19.32,2.78c-.71-.08-1.51.21-2.11-.38h5A7,7,0,0,1,19.32,2.78Z"/>
            <path class="eeed917e-496b-4557-82c0-2bfc43cf1130" d="M90,3.16H87.87A1.55,1.55,0,0,1,90,3.16Z"/>
            <path class="eeed917e-496b-4557-82c0-2bfc43cf1130" d="M93.34,2.41c-.31.4-.79.36-1.25.38C92.4,2.37,92.88,2.41,93.34,2.41Z"/>
            <path class="a9857edf-4f0f-4d60-b43b-684f9b463339" d="M29.51,85.7c-.55-.4-1.15-.75-1.3-1.44a16.46,16.46,0,0,0-2.49-6.77c-1.9-3.3-3.7-6.64-5.54-10,.87,0,1.1.66,1.49,1.12,1.34,1.58,2.62,3.19,3.92,4.78,2,4.41,4.77,8.45,7.25,12.63a6.68,6.68,0,0,0,2.21,2.25,51.74,51.74,0,0,1,9.61,7.36c2.42,2.52,5.66,3.45,9,4.24A7.61,7.61,0,0,0,60,98.69c2.48-1.75,5.21-3.26,7.55-5.15,2.07-1.69,4.29-3.57,5.19-5.91a69.64,69.64,0,0,0,3.49-14.81c.45-3,.51-6,1.2-9A32,32,0,0,1,79.87,59c.18-.24.5-.58.08-.77-.23-.11-.66.1-1,.17-2.27-1.22-2.64-1.16-3.87.78-1,1.56-1.92,3.16-2.93,4.83a3.14,3.14,0,0,1-1.07-2.22,32.88,32.88,0,0,1,0-5.87c.32-2.14.19-3.67-2.76-3.66a1.38,1.38,0,0,1-.09-.29c2.35.45,3.46-.45,3.48-2.52a2.21,2.21,0,0,1,.2-.74c2.23-5.58,2.29-11.41,2.43-17.24A6.93,6.93,0,0,0,74.28,30a1.74,1.74,0,0,0-1.73-1.42c-.86-.06-1.21.53-1.48,1.14a8.48,8.48,0,0,0-.52,3c-.21,3.08.27,6.19-.44,9.26a57.1,57.1,0,0,1-6.83,17.65v-.83c2.85-8.31,5.44-16.66,5.62-25.44a8.15,8.15,0,0,1,.78-3.71c.59-1.13,1.3-2.17,2.94-2a2.71,2.71,0,0,1,2.42,2.33,19.64,19.64,0,0,1,.42,9.42c-.94,4.48-1.9,9-2.82,13.43-.64,3.12-1.49,6.24-.76,9.65,4-6.18,5.64-12.82,7.15-19.5.29-.69.52-1.41.88-2.08.71-1.34,1.72-2.28,3.58-1.8l0,0,.47.44c1.65,3,1.27,6,.61,9.08-1.07,5-3.56,9.55-4.91,14.47-2.27,8.24-2.14,16.85-5,25a44.57,44.57,0,0,1-16.35,12.84,7.86,7.86,0,0,1-5.1.71,22.58,22.58,0,0,1-9.87-4.79A162.73,162.73,0,0,0,29.51,85.7Zm47-28.48a8.35,8.35,0,0,1,1.88.11c2.13.72,2.5-.48,2.91-1.93A55.32,55.32,0,0,1,83.19,50c1.22-3.06.39-6.12.1-9.18,0-.42-.15-.93-.81-.94-.5,0-.7.39-.88.71a12.33,12.33,0,0,0-1.86,5.78C79.58,50.1,79.13,53.79,76.49,57.22Z"/>
            <path class="bb53acdc-8e7f-4653-b045-f4165afe54b5" d="M79,42.94c-1.51,6.68-3.19,13.32-7.15,19.5-.73-3.41.12-6.53.76-9.65.92-4.48,1.88-8.95,2.82-13.43a19.64,19.64,0,0,0-.42-9.42,2.71,2.71,0,0,0-2.42-2.33c-1.64-.15-2.35.89-2.94,2a8.15,8.15,0,0,0-.78,3.71c-.18,8.78-2.77,17.13-5.62,25.44-.42-.65-.85-1.29-1.27-1.93a53.28,53.28,0,0,1,.73-12.09c.72-3.72,1.37-7.47,1.88-11.22.48-3.54-1.92-7.74-4.88-8.93l3.2-.15v0c-.09.87-.1,1.67,1.28,1.56a6.8,6.8,0,0,1,1.29,3c.14.5,0,1.19.95,1.25s1.19-.46,1.46-1.09a6.39,6.39,0,0,1,.79-1.33A4.32,4.32,0,0,1,73,26a3.73,3.73,0,0,1,3.38,2.76c.3,1.14.86,1.48,2.12,1.54a61.13,61.13,0,0,1,9,1c-2.94.13-5.88.32-8.82.37-1.3,0-1.88.29-1.81,1.6.11,2-.14,3.9-.17,5.86,0,1.71.4,2.33,2.23,2.08C79,41.81,79,42.38,79,42.94Zm-15,7.82,2.19-7.23c2.26-3.65.61-7.54.85-11.31,0-.11-.24-.3-.39-.32a.42.42,0,0,0-.5.47c.41,3-1,5.7-1.21,8.58,0,.42-.2.95.57,1,1.56.08.72,1,.73,1.63-1.25-.19-1.69.28-1.81,1.42-.19,1.8-.61,3.59-.94,5.38a11,11,0,0,0-.38,5.1C63.48,53.9,63.77,52.33,64.07,50.76Zm10,2.28c.31-.12.51-.13.53-.2,1.23-3.15,1.54-6.54,3.26-9.55.17-.28.11-.49-.23-.55a1.65,1.65,0,0,0-.83,0c-.54.22-.43.75-.53,1.16C75.52,46.91,74.81,49.9,74.06,53Z"/>
            <path class="b44bf4b2-0fca-4c20-8cd3-a52553aa9992" d="M74.67,88c2.88-8.12,2.75-16.73,5-25,1.35-4.92,3.84-9.49,4.91-14.47.66-3.09,1-6.13-.61-9.08L83.52,39l0,0L84,38.6c1,.3,1.34,1,1.8,1.76s.25,1.43,1.37,1.74c.51.13-.73.6-.57,1.38.79,3.85-.71,7.39-2.38,10.82-.83,1.72-.39,2.34,1.54,2.45A12,12,0,0,1,87,57c-.58.87-1.26.65-2.05.45-1.22-.31-2-.11-2.34,1.31-1,4.54-1.83,9.09-2.4,13.69-.15,1.18.37,1.41,1.46,1.52,1.74.17,3.43-.39,5.61-.3a12.92,12.92,0,0,1-6,1.42c-1,0-1.44.18-1.6,1.19a39.08,39.08,0,0,1-3.3,10.57c-.64,1.35-.08,1.46,1.19,1.46A23.9,23.9,0,0,1,86,89.58h-8.3C77.18,88.3,75.21,89.25,74.67,88Z"/>
            <path class="bb53acdc-8e7f-4653-b045-f4165afe54b5" d="M74.67,88c.54,1.25,2.51.3,3,1.58-2.2-.22-3.06,1-4.31,2.47a34.67,34.67,0,0,1-16.12,10.81c-2.45.75-4.95,0-7.27-1.14C46.2,99.82,42.4,98.13,39.51,95S32.83,90.28,27.83,90a3.76,3.76,0,0,1,2.38-.47c.63,0,1.27,0,2.08,0-1-1.12-1.89-2.17-2.84-3.19-.26-.29-.42-.48.06-.68A162.73,162.73,0,0,1,43.35,96.76a22.58,22.58,0,0,0,9.87,4.79,7.86,7.86,0,0,0,5.1-.71A44.57,44.57,0,0,0,74.67,88Z"/>
            <path class="b44bf4b2-0fca-4c20-8cd3-a52553aa9992" d="M80.07,118.18c3.35,0,6.6.89,10,1.11a24.71,24.71,0,0,1-3.32.24c-6.56-.39-13.07.34-19.6.7a21.38,21.38,0,0,1-8.08-1c-5-1.64-10-.82-15.06-.42a102.88,102.88,0,0,1-15.8-.13,5.34,5.34,0,0,1-1.91-.54c1.72,0,3.93-.16,6.15-.31q10.62-.74,21.28-1.1c3.2-.11,6.19,1,9.21,1.88a.5.5,0,0,0,.79.12h2.2a2.73,2.73,0,0,0,2.49-.12l6.77-.46v.4c-.15.07-.44,0-.31.31A.26.26,0,0,0,75,119h3.83v-.37H76.43C77.56,117.85,78.87,118.39,80.07,118.18Zm-38.84.32v-.19h-7v.19Zm22.31.94-.09.19h5.24v-.19Zm-16.2-1.89v.18h4.88v-.18Zm6.08.21c.74,0,1.26.26,2-.28C54.67,117.52,54.15,117.3,53.42,117.76Z"/>
            <path class="b44bf4b2-0fca-4c20-8cd3-a52553aa9992" d="M63,24.46l-3.2.15a.21.21,0,0,1-.27,0l.43-.74c-.26,0-.59-.13-.76,0-.39.23,0,.52.07.78l0,0c-1.32-.19-2.52-.24-2.08,1.53h0c-1.87.23-1.89,1.43-1.77,2.71a.18.18,0,0,1-.07.24c-1.35.37-.64,1.37-.78,2.11,0,1.52,0,3,0,4.57-.78,3.71.76,7.54-.8,11.26-.49,1.15-.05,2.61,0,3.94l-.1.6-.28.47,0-.05c-.66.27-.52.8-.51,1.29l-.08.56-.49-.61c.1-.81.18-1.62.28-2.43.19-1.56.38-3.12.56-4.68.08-.66-.32-.89-1-.94s-.89.07-1,.66c-.52,3.11-.82,6.21.44,9.26-.73.27-1-.5-1.63-.55a.68.68,0,0,0-.1-.27c-.95-7.82.18-15.74-1.34-23.53.56-1.56-1-2.78-.86-4.28l0,0c1.6.94,2,2.52,2.4,4s1.34.92,2.23.95,1.18-.44,1.37-1.26A11.51,11.51,0,0,1,57,24.05C58.57,22.57,60.65,22.79,63,24.46Zm-9.81,8c0,.78-.74.43-1.3.45-1,0-1.2.44-1.08,1.21a52.83,52.83,0,0,1,.35,8.15c0,.68,0,1.22,1,1.3,1.21.09,1-.68,1-1.25C53.16,39.07,53.14,35.78,53.14,32.49Z"/>
            <path class="eeed917e-496b-4557-82c0-2bfc43cf1130" d="M83.59,104.39a4.4,4.4,0,0,1-2.41.36c-5.62.19-11.29.06-16.87.63a134.43,134.43,0,0,1-29.81-.78c-1.22-.15-2.46-.13-3.7-.32a67.73,67.73,0,0,1,14-.35,89,89,0,0,0,17,0A83.71,83.71,0,0,1,83.59,104.39Z"/>
            <path class="a9857edf-4f0f-4d60-b43b-684f9b463339" d="M36.66,72.78c0-.5.5-.69.86-1a7.35,7.35,0,0,0,2.6-2.92,9.81,9.81,0,0,0,2.4-4.06l.1-.91c1-2.55.32-5-.39-7.5h0a10.16,10.16,0,0,0-.83-3.62A11.72,11.72,0,0,0,41.29,51c-1.17-5.26-1-10.58-.7-15.88.15-2.6.62-5.3,3.37-7-.93,2.44-2,4.84-1.9,7.52.14,4.43,0,8.87.16,13.31.08,2.9.17,5.8,1.54,8.55a9.06,9.06,0,0,1,1,5.38c-.63,4.53-3.65,7.69-7.39,10.43C36.94,73.33,36.69,73.18,36.66,72.78Z"/>
            <path class="bb53acdc-8e7f-4653-b045-f4165afe54b5" d="M36.66,72.78c0,.4.28.55.7.49.42.47,1.23.73,1,1.53-1,0-1.69-.78-2.54-1.16a11.73,11.73,0,0,1-6.8-7A10,10,0,0,0,27.87,64a7.39,7.39,0,0,0-6.45-3,2.74,2.74,0,0,0-2,.23c-2.27.77-2.74,1.7-1.62,3.46a8.38,8.38,0,0,0,2.42,2.93h0c1.84,3.32,3.64,6.66,5.54,10a16.46,16.46,0,0,1,2.49,6.77,15.09,15.09,0,0,1-1.72-2.89c-1.71-5.08-5.35-9.15-8.53-13.46-.51-.68-1.05-1.35-1.54-2-1-1.48-1.59-3-.25-4.57a5.39,5.39,0,0,1,5.68-1.57c3.77,1.33,7.44,2.48,8.49,7C31,69.39,33.78,71.39,36.66,72.78Z"/>
            <path class="bb53acdc-8e7f-4653-b045-f4165afe54b5" d="M44,28.08c-2.75,1.69-3.22,4.39-3.37,7-.3,5.3-.47,10.62.7,15.88a11.72,11.72,0,0,1,.14,1.88c-.18.21-.36.41-.53.62A8.74,8.74,0,0,0,40.1,50c-.27-1.12.42-2.37-.53-3.41l-2.51-.15A2.32,2.32,0,0,0,35,46.2l-2.58-.51c.82-1.2,2.15-.36,3.2-.65a12,12,0,0,1,1.47,0c1.53.13,2.13-.28,1.84-1.82a27.83,27.83,0,0,1-.25-7.57c.1-1.13-.19-1.45-1.52-1.58-2.81-.28-5.57-.87-8.36-1.32l.07-.61c1.37.06,2.74.12,4.11.2s2.53.16,3.78.28c1.58.14,2.45-.21,3-1.81.69-2.05,1.6-4.26,4.5-4.76,0,.8,1,.69,1.3,1.21a.76.76,0,0,0,0,.3A2.71,2.71,0,0,0,44,28.08Z"/>
            <path class="b44bf4b2-0fca-4c20-8cd3-a52553aa9992" d="M40.1,50a8.74,8.74,0,0,1,.8,3.43c.33,1-.91,2.67,1.36,3h0a10,10,0,0,0,.39,7.5l-.1.91c-.3-.86-1-.44-1.61-.42.08,1.54-1.32,2.87-.79,4.48a7.35,7.35,0,0,1-2.6,2.92c.91-3.43,2.65-6.65,3.1-10.21.18-1.38.33-2.15-1.78-1.71A66.32,66.32,0,0,1,29,60.8a4.81,4.81,0,0,1-3.72-1.14c4.57.36,8.81-.91,13.16-1.27,2.08-.17,2.62-.93,2-2.71A7.65,7.65,0,0,1,40,51.74Z"/>
            <path class="ade21a95-d959-4593-b2fe-e4695bcbbebf" d="M35.63,45c-1.05.29-2.38-.55-3.2.65a49.12,49.12,0,0,0-5.7-.27A14.19,14.19,0,0,1,35.63,45Z"/>
            <path class="eeed917e-496b-4557-82c0-2bfc43cf1130" d="M84,38.6l-.52.46c-1.86-.48-2.87.46-3.58,1.8-.36.67-.59,1.39-.88,2.08,0-.56-.05-1.13-.08-1.7.74-1.05,1.26-2.25,2.72-2.77A2.19,2.19,0,0,1,84,38.6Z"/>
            <path class="b44bf4b2-0fca-4c20-8cd3-a52553aa9992" d="M45.57,27.22c-.3-.52-1.32-.41-1.3-1.21a2.33,2.33,0,0,1,2.57,0l0,.05c-.83,0-.82.59-.82,1.13A.72.72,0,0,1,45.57,27.22Z"/>
            <path class="ade21a95-d959-4593-b2fe-e4695bcbbebf" d="M75.17,118.59v-.4a10.07,10.07,0,0,1,4.91,0c-1.2.21-2.51-.33-3.64.42Z"/>
            <path class="eeed917e-496b-4557-82c0-2bfc43cf1130" d="M40.1,50,40,51.74c-.48-1.69-.24-3.42-.44-5.13C40.52,47.65,39.83,48.9,40.1,50Z"/>
            <path class="b44bf4b2-0fca-4c20-8cd3-a52553aa9992" d="M64.22,26c-1.38.11-1.37-.69-1.28-1.56A3.14,3.14,0,0,1,64.22,26Z"/>
            <path class="eeed917e-496b-4557-82c0-2bfc43cf1130" d="M35,46.2a2.32,2.32,0,0,1,2.05.26Z"/>
            <path class="ade21a95-d959-4593-b2fe-e4695bcbbebf" d="M68.39,118.65a2.73,2.73,0,0,1-2.49.12A6.73,6.73,0,0,1,68.39,118.65Z"/>
            <path class="ade21a95-d959-4593-b2fe-e4695bcbbebf" d="M63.7,118.77a.5.5,0,0,1-.79-.12Z"/>
            <path class="b44bf4b2-0fca-4c20-8cd3-a52553aa9992" d="M46.84,26a.8.8,0,0,1,.79.43l0,0-.8-.4Z"/>
            <path class="a65fbf79-bf9b-4d11-8192-ce181aba5edd" d="M44,28.08a2.71,2.71,0,0,1,1.59-.56,3.07,3.07,0,0,1,1.36,2.23c.54,6.65,1.2,13.29,1.59,20a9.56,9.56,0,0,0,1.3,4.56.68.68,0,0,1,.1.27c-.21.88.35,1.51.86,2.15.38.47.75,1,1.3.13a3.75,3.75,0,0,0,.72-.65c3.64-5.55,5.09-11.48,3.65-17.88A27.4,27.4,0,0,1,56.15,30a4.73,4.73,0,0,1,2-3.25c.66-.54,1.76-1.12,2.42-.29,1.47,1.83,3.17,3.8,3,6.11a35.59,35.59,0,0,1-.9,7.73C61,46.12,61.26,52.06,61.16,58c0,.79-.22,1.67.56,2.33a.25.25,0,0,1,.06.2c-.15.38,0,.65.39.83.92-.3.7-1.18,1.11-1.75A57.1,57.1,0,0,0,70.11,42c.71-3.07.23-6.18.44-9.26a8.48,8.48,0,0,1,.52-3c.27-.61.62-1.2,1.48-1.14A1.74,1.74,0,0,1,74.28,30a6.93,6.93,0,0,1,.09,1.51c-.14,5.83-.2,11.66-2.43,17.24a2.21,2.21,0,0,0-.2.74c0,2.07-1.13,3-3.48,2.52a1.38,1.38,0,0,0,.09.29c3,0,3.08,1.52,2.76,3.66a32.88,32.88,0,0,0,0,5.87A3.14,3.14,0,0,0,72.16,64c1-1.67,1.93-3.27,2.93-4.83,1.23-1.94,1.6-2,3.87-.78-1.38,1.43-1.62,3.22-1.94,5,0,.11.27.26.42.39-.69,3-.75,6-1.2,9a69.64,69.64,0,0,1-3.49,14.81c-.9,2.34-3.12,4.22-5.19,5.91-2.34,1.89-5.07,3.4-7.55,5.15a7.61,7.61,0,0,1-6.36,1.22c-3.33-.79-6.57-1.72-9-4.24a51.74,51.74,0,0,0-9.61-7.36,6.68,6.68,0,0,1-2.21-2.25c-2.48-4.18-5.25-8.22-7.25-12.63a1.06,1.06,0,0,1,.83-1c1.13-.3,1.22-1,.93-1.91.61-.9,1.11-.9,1.82,0,2.2,2.8,5.66,3.77,9,4.76,1,.29.68-.19.16-.53.21-.8-.6-1.06-1-1.53,3.74-2.74,6.76-5.9,7.39-10.43a9.06,9.06,0,0,0-1-5.38c-1.37-2.75-1.46-5.65-1.54-8.55-.13-4.44,0-8.88-.16-13.31C42,32.92,43,30.52,44,28.08Zm9.16,51.16,0,.11,0-.09c2.34,3.46,4.46,7,4.2,11.71C59.55,86,57.76,81.52,53.12,79.24Zm-1.35-8.9c0,.52.51.74.9,1a48.53,48.53,0,0,0,13.7,6,10.71,10.71,0,0,0,4.49.43c-.47-.68-1.16-.39-1.58-.7-.24-.7-1-.83-1.58-1.15a75.84,75.84,0,0,0-14.86-6.1c-.93-.29-1.79-1-3.12-.66ZM43.44,39.41c1.15.17,2.32.64,3.78-.2A4.77,4.77,0,0,0,43.44,39.41Z"/>
            <path class="a33bb286-7368-464e-bd5f-4eda4b530bcd" d="M27.35,70.56c.29.88.2,1.61-.93,1.91a1.06,1.06,0,0,0-.83,1c-1.3-1.59-2.58-3.2-3.92-4.78-.39-.46-.62-1.15-1.49-1.12h0c.16-1-.65-1.76-1.09-2.58-.72-1.36-.94-2.6.29-3.81a2.74,2.74,0,0,1,2-.23c.35.64,1.13.66,1.72,1a8.8,8.8,0,0,1,4.26,5.36c.59,1.69-.93,2.52-1.61,3.7,0,.06.07.2.13.39Z"/>
            <path class="a33bb286-7368-464e-bd5f-4eda4b530bcd" d="M76.49,57.22c2.64-3.43,3.09-7.12,3.25-10.87a12.33,12.33,0,0,1,1.86-5.78c.18-.32.38-.73.88-.71.66,0,.77.52.81.94.29,3.06,1.12,6.12-.1,9.18a55.32,55.32,0,0,0-1.91,5.42c-.41,1.45-.78,2.65-2.91,1.93A8.35,8.35,0,0,0,76.49,57.22Z"/>
            <path class="a33bb286-7368-464e-bd5f-4eda4b530bcd" d="M77.44,63.8c-.15-.13-.44-.28-.42-.39.32-1.76.56-3.55,1.94-5,.33-.07.76-.28,1-.17.42.19.1.53-.08.77A32,32,0,0,0,77.44,63.8Z"/>
            <path class="eeed917e-496b-4557-82c0-2bfc43cf1130" d="M63.28,59.61c-.41.57-.19,1.45-1.11,1.75a.82.82,0,0,0-.39-.83.25.25,0,0,0-.06-.2c.22-1.15-.28-2.36.3-3.48.42.64.85,1.28,1.27,1.93Z"/>
            <path class="eeed917e-496b-4557-82c0-2bfc43cf1130" d="M83.52,39l.47.44Z"/>
            <path class="a9857edf-4f0f-4d60-b43b-684f9b463339" d="M62,56.85c-.58,1.12-.08,2.33-.3,3.48-.78-.66-.57-1.54-.56-2.33.1-5.94-.17-11.88,1.53-17.75a35.59,35.59,0,0,0,.9-7.73c.14-2.31-1.56-4.28-3-6.11-.66-.83-1.76-.25-2.42.29a4.73,4.73,0,0,0-2,3.25,27.4,27.4,0,0,0,.28,8.33c1.44,6.4,0,12.33-3.65,17.88a3.75,3.75,0,0,1-.72.65c-.06-.36-.11-.72-.17-1.08.61-.52.62-1.25.82-1.91l.09-.56A1.75,1.75,0,0,0,53.3,52l0,.05.28-.47c0-.2.07-.4.1-.61,1.84-5,1.57-10.08.84-15.19,0-1.53,0-3,0-4.57l.78-2.11a.18.18,0,0,0,.07-.24l1.77-2.71h0l2.08-1.53,0,0,.14,0,.12,0a.21.21,0,0,0,.27,0c3,1.19,5.36,5.39,4.88,8.93-.51,3.75-1.16,7.5-1.88,11.22A53.28,53.28,0,0,0,62,56.85Z"/>
            <path class="faa573e0-2a34-45df-9ddb-c5a05db8ff38" d="M66.31,43.57c0-.62.83-1.55-.73-1.63-.77,0-.6-.57-.57-1,.22-2.88,1.62-5.62,1.21-8.58a.42.42,0,0,1,.5-.47c.15,0,.4.21.39.32-.24,3.77,1.41,7.66-.85,11.31Z"/>
            <path class="faa573e0-2a34-45df-9ddb-c5a05db8ff38" d="M74.06,53c.75-3.14,1.46-6.13,2.2-9.1.1-.41,0-.94.53-1.16a1.65,1.65,0,0,1,.83,0c.34.06.4.27.23.55-1.72,3-2,6.4-3.26,9.55C74.57,52.91,74.37,52.92,74.06,53Z"/>
            <path class="faa573e0-2a34-45df-9ddb-c5a05db8ff38" d="M63.56,50.37c.33-1.79.75-3.58.94-5.38.12-1.14.56-1.61,1.81-1.42l0,0-2.19,7.23Z"/>
            <path class="a9857edf-4f0f-4d60-b43b-684f9b463339" d="M63.56,50.37l.51.39c-.3,1.57-.59,3.14-.89,4.71A11,11,0,0,1,63.56,50.37Z"/>
            <ellipse class="eeed917e-496b-4557-82c0-2bfc43cf1130" cx="37.73" cy="118.4" rx="4.95" ry="0.13"/>
            <path class="eeed917e-496b-4557-82c0-2bfc43cf1130" d="M63.54,119.44h5.15v.19H63.45Z"/>
            <ellipse class="eeed917e-496b-4557-82c0-2bfc43cf1130" cx="49.78" cy="117.64" rx="3.45" ry="0.13"/>
            <path class="eeed917e-496b-4557-82c0-2bfc43cf1130" d="M75.17,118.59h3.69V119H75a.26.26,0,0,1-.17-.06C74.73,118.61,75,118.66,75.17,118.59Z"/>
            <path class="eeed917e-496b-4557-82c0-2bfc43cf1130" d="M53.42,117.76c.73-.46,1.25-.24,2-.28C54.68,118,54.16,117.76,53.42,117.76Z"/>
            <path class="a9857edf-4f0f-4d60-b43b-684f9b463339" d="M49.8,54.26a9.56,9.56,0,0,1-1.3-4.56c-.39-6.66-1-13.3-1.59-20a3.07,3.07,0,0,0-1.36-2.23.76.76,0,0,1,0-.3.72.72,0,0,0,.41,0c1.62.73,1.63,2.38,2.48,3.55C50,38.52,48.85,46.44,49.8,54.26Z"/>
            <path class="faa573e0-2a34-45df-9ddb-c5a05db8ff38" d="M53.14,32.49c0,3.29,0,6.58,0,9.86,0,.57.23,1.34-1,1.25-1-.08-1-.62-1-1.3a52.83,52.83,0,0,0-.35-8.15c-.12-.77.12-1.18,1.08-1.21C52.4,32.92,53.19,33.27,53.14,32.49Z"/>
            <path class="faa573e0-2a34-45df-9ddb-c5a05db8ff38" d="M51.53,55.08c-1.26-3-1-6.15-.44-9.26.1-.59.42-.7,1-.66s1.06.28,1,.94c-.18,1.56-.37,3.12-.56,4.68-.1.81-.18,1.62-.28,2.43-.53.55-.21,1.28-.49,1.88A.15.15,0,0,0,51.53,55.08Z"/>
            <path class="bb53acdc-8e7f-4653-b045-f4165afe54b5" d="M54.47,35.75c.73,5.11,1,10.2-.84,15.19,0-1.32-.45-2.78,0-3.93C55.23,43.29,53.69,39.46,54.47,35.75Z"/>
            <path class="bb53acdc-8e7f-4653-b045-f4165afe54b5" d="M48.46,30.73c-.85-1.17-.86-2.82-2.48-3.55,0-.54,0-1.09.82-1.13l.8.4C47.46,28,49,29.17,48.46,30.73Z"/>
            <path class="f5c45a57-04a3-49fc-8985-8c5e7c93a89f" d="M51.53,55.08a.15.15,0,0,1,.2,0c.06.21.11.43.16.64.06.36.11.72.17,1.08-.55.88-.92.34-1.3-.13-.51-.64-1.07-1.27-.86-2.15C50.5,54.58,50.8,55.35,51.53,55.08Z"/>
            <path class="bb53acdc-8e7f-4653-b045-f4165afe54b5" d="M57.1,26.12l-1.77,2.71C55.21,27.55,55.23,26.35,57.1,26.12Z"/>
            <path class="bb53acdc-8e7f-4653-b045-f4165afe54b5" d="M59.17,24.59l-2.08,1.53C56.65,24.35,57.85,24.4,59.17,24.59Z"/>
            <path class="bb53acdc-8e7f-4653-b045-f4165afe54b5" d="M51.89,55.73c0-.21-.1-.43-.16-.64.28-.6,0-1.33.49-1.88.17.2.33.41.49.61C52.51,54.48,52.5,55.21,51.89,55.73Z"/>
            <path class="bb53acdc-8e7f-4653-b045-f4165afe54b5" d="M55.26,29.07l-.78,2.11C54.62,30.44,53.91,29.44,55.26,29.07Z"/>
            <path class="bb53acdc-8e7f-4653-b045-f4165afe54b5" d="M59.48,24.6l-.12,0-.14,0c-.11-.26-.46-.55-.07-.78.17-.11.5,0,.76,0Z"/>
            <path class="bb53acdc-8e7f-4653-b045-f4165afe54b5" d="M53.3,52a1.75,1.75,0,0,1-.5,1.29C52.78,52.77,52.64,52.24,53.3,52Z"/>
            <path class="bb53acdc-8e7f-4653-b045-f4165afe54b5" d="M53.53,51.55l-.28.47Z"/>
            <path class="ab493fef-27f5-4d4b-8868-eb035b2f7c6b" d="M42.62,63.94a10,10,0,0,1-.39-7.5C42.94,58.92,43.61,61.39,42.62,63.94Z"/>
            <path class="bb53acdc-8e7f-4653-b045-f4165afe54b5" d="M40.12,68.91c-.53-1.61.87-2.94.79-4.48.59,0,1.31-.44,1.61.42A9.81,9.81,0,0,1,40.12,68.91Z"/>
            <path class="ab493fef-27f5-4d4b-8868-eb035b2f7c6b" d="M42.26,56.45c-2.27-.33-1-2-1.36-3,.17-.21.35-.41.53-.62A10.16,10.16,0,0,1,42.26,56.45Z"/>
            <path class="a9857edf-4f0f-4d60-b43b-684f9b463339" d="M27.35,70.56l-1.43.78c-.06-.19-.17-.33-.13-.39.68-1.18,2.2-2,1.61-3.7a8.8,8.8,0,0,0-4.26-5.36c-.59-.31-1.37-.33-1.72-1a7.39,7.39,0,0,1,6.45,3A10,10,0,0,1,29,66.59a11.73,11.73,0,0,0,6.8,7c.85.38,1.5,1.13,2.54,1.16.52.34.83.82-.16.53-3.39-1-6.85-2-9-4.76C28.46,69.66,28,69.66,27.35,70.56Z"/>
            <path class="a9857edf-4f0f-4d60-b43b-684f9b463339" d="M19.39,61.15c-1.23,1.21-1,2.45-.29,3.81.44.82,1.25,1.55,1.09,2.58a8.38,8.38,0,0,1-2.42-2.93C16.65,62.85,17.12,61.92,19.39,61.15Z"/>
            <path class="bb53acdc-8e7f-4653-b045-f4165afe54b5" d="M51.77,70.34l-2.05-1.17c1.33-.29,2.19.37,3.12.66a75.84,75.84,0,0,1,14.86,6.1c.57.32,1.34.45,1.58,1.15a17.09,17.09,0,0,1-4.37-1.23C60.34,74.4,56.14,72.2,51.77,70.34Z"/>
            <path class="eeed917e-496b-4557-82c0-2bfc43cf1130" d="M53.11,79.24C57.76,81.52,59.55,86,57.39,91c.26-4.73-1.86-8.25-4.2-11.71Z"/>
            <path class="a9857edf-4f0f-4d60-b43b-684f9b463339" d="M51.77,70.34c4.37,1.86,8.57,4.06,13.14,5.51a17.09,17.09,0,0,0,4.37,1.23c.42.31,1.11,0,1.58.7a10.71,10.71,0,0,1-4.49-.43,48.53,48.53,0,0,1-13.7-6C52.28,71.08,51.81,70.86,51.77,70.34Z"/>
            <path class="a9857edf-4f0f-4d60-b43b-684f9b463339" d="M43.44,39.41a4.77,4.77,0,0,1,3.78-.2C45.76,40.05,44.59,39.58,43.44,39.41Z"/>
            <path class="a9857edf-4f0f-4d60-b43b-684f9b463339" d="M61.78,60.53a.82.82,0,0,1,.39.83C61.77,61.18,61.63,60.91,61.78,60.53Z"/>
            <path class="eeed917e-496b-4557-82c0-2bfc43cf1130" d="M51.19,34.26l0,.09a.49.49,0,0,0,0-.11Z"/>
        </g>
    </g>
    <g id="scissor-layer" data-name="Layer 2">
        <g id="scissor" data-name="scissor">
            <path class="f390c60b-ef94-4cc5-93c3-a4a8f0ae8ca4" d="M7.1,7.52c7.77,11.3,14.8,23.05,21.81,34.81A5.55,5.55,0,0,0,30.54,44a36.32,36.32,0,0,1,9.3,9.65c3.35,5.05,7.64,9.22,12.08,13.3,1.33,1.23,1.65.27,2.15-.61C58,59.48,61.75,52.5,65.85,45.71,73.54,33,81.44,20.42,89.22,7.76c1-1.71,1.89-3.55,2.81-5.35.65-1.26,1.44-2.54,3-2.4C96.86.16,97,1.86,97.24,3.12a21.81,21.81,0,0,1,.35,9.41c-1,4.61-1.72,9.3-3.58,13.69-1.1-.22-.82-.76-.54-1.56.83-2.29,1.8-4.59,1.25-7.13h0a1.53,1.53,0,0,0,1-1.07,14.7,14.7,0,0,0,1-5.58c0-.89,1.49-1.84.75-2.67-1.13-1.28-.77-2.62-.78-3.95s-.1-2.75-1.55-2.9-2.49,1.17-2.8,2.5a15.45,15.45,0,0,1-2,4.13c-.89,1.59-2.93,2.73-2.38,5l-1.77,3.41C85,18.1,84,19.83,83,21.55c-7.09,11.53-14.47,22.9-21,34.75-2.26,4.08-4.07,8.43-7.13,12-.67.8.23,1.13.23,1.69a2.78,2.78,0,0,1-2-.5,33.06,33.06,0,0,1-9-8.05A77.54,77.54,0,0,0,33.22,49.17l0,0a1,1,0,0,0-.83-.84,15.3,15.3,0,0,0-3.68-2.91c-.62-1.1-1.81-1.41-2.87-1.78-2.55-.88-3.79.22-3.38,2.86a14.79,14.79,0,0,0,3.13,6.33c2.87,3.94,6.59,7.12,9.77,10.78C37.4,66,39,68.73,41.47,70.79v0a1.07,1.07,0,0,0,.6,1.17c.12.67.84,1.16.63,2.11L39.6,72.63c-.06-.13-.08-.32-.18-.37-7.5-4.09-13.5-10-19.56-15.76a19.21,19.21,0,0,0-7-4.29c-1.54-.54-3.12-.67-4.31.51S7.86,55.54,8.12,57a3.39,3.39,0,0,0,.57,1.16c3.88,5.8,8.14,11.21,14.89,14.1a23.07,23.07,0,0,1,5,3.11c2.37,1.83,3.92,4.42,6.28,6.24A11.24,11.24,0,0,0,36,83.16c1.43,1.35.42,1.66-.79,1.92-1.72-.44-2.73.84-4,1.59-.77-.23-.19-.92-.47-1.31a7.17,7.17,0,0,1,1.93-.94c2.34-.37,1.74-1.61.63-2.49-4.51-3.57-8-8.29-13.58-10.71S10.29,64.39,7.12,59.34a8.54,8.54,0,0,1-1.06-6C6.38,51.13,9,49.66,11.65,50A32.13,32.13,0,0,1,17,51.76c-3.23-6.51-6.22-12.56-9.21-18.61.42-.32.69-.89,1,.22.4,1.35.81,2.94,2.72,3.12.51,1,1,2.07,1.54,3.07,3.61,6.5,6.13,13.58,11.45,19.18,3.81,4,7.72,7.74,12.71,10.39.13-1.27-.74-1.93-1.42-2.63-1.45-1.51-3.1-2.86-4.46-4.43-3.43-4-7.61-7.38-9.49-12.48.59-2.18-1.09-4.05-.89-6.18h0c1.13.19.91-1.72,1.47-1.32,1.32.93,2.09-.16,3.09-.4s.45-.65.21-1.05Q24.39,38.43,23,36.23L7.14,10.31C7.83,9.37,6.38,8.46,7.1,7.52Z"/>
            <path class="b8ab9482-481b-4482-aab8-b563cfd2a359" d="M37.19,117.68c-4,6.43-6.3,13.75-10.6,20-3.35,4.88-6.52,9.88-10.88,14-2.79,2.64-5.94,3.05-9.53,1.92S1,150.07.36,146.75A23.13,23.13,0,0,1,1,136c3.1-11,11-17,21.54-19.42a9.53,9.53,0,0,0,7.3-5.83c.56-1.16,1.25-2.27,1.88-3.4,1.45-.8,2.07-1.84,1.13-3.43-.57-1,.28-.78.79-.86l.51.42c0,.71.17,1.29,1.06,1.28,1.25,0,1.61.76,1.64,1.81l.4.38,0,0a.7.7,0,0,0,.92.46l0,0c.27,1.14,1.58,1,2.2,1.77.1.84.72.85,1.36.82h0l.54.39,0,0c-.41,1.91-2.18,2.76-3.35,4.07-.69.76-1.45,1.43-1.14,2.58l0,0C37.24,116.9,36.68,116.9,37.19,117.68Zm-2.57-12.16a85.25,85.25,0,0,1-5.48,10.26c-.54.9-1,2.07-2.36,2-4-.24-7.47,1.4-10.79,3.13-9.14,4.77-14.18,12.22-14.16,22.55,0,2.69.29,5.69,2.92,7.33,4.6,2.88,7.63,2.09,11.14-1.91a90.24,90.24,0,0,0,14.42-22c2.52-5.51,5-11,9.8-15.13.82-.7.39-1.06-.2-1.45A46.91,46.91,0,0,1,34.62,105.52Z"/>
            <path class="b8ab9482-481b-4482-aab8-b563cfd2a359" d="M94.72,17.53c.55,2.54-.42,4.84-1.25,7.13-.28.8-.56,1.34.54,1.56C93.26,29.31,91.46,32,90.5,35c-2.37,7.5-6,14.42-9.84,21.28a10.5,10.5,0,0,1-.75,1c-.29-.9-.59-1-.92,0a35.73,35.73,0,0,1-4.55,9,3.74,3.74,0,0,0-.65,2.82q-1.59,3-3.17,6a.52.52,0,0,0-.1-.18s-.16-.08-.18-.06c-.79.82-1.6,1.59-2.89,1.43a40.07,40.07,0,0,0-3.69-2.58c-1.6-.87-3.33-1.52-5-.07-4.63,1.51-8,5.19-12.58,6.83-.52.19-.52.54-.38,1a5.76,5.76,0,0,0,7.48,3.74c1.43-.52,2.83-1.17,4.66-.57-1.56.65-2.86,1.27-4.21,1.74-4.44,1.53-8.32-.31-9.84-4.59-.49-1.38-.24-2.39,1.28-2.88A42.26,42.26,0,0,0,57,72.72a1,1,0,0,0,.86-1.2,10,10,0,0,1,8.93,2.76c1.12,1,1.78.87,2.51-.56,3.62-7,7.28-14.06,11.06-21A160,160,0,0,0,91.07,29.43C92.45,25.5,93.54,21.51,94.72,17.53Z"/>
            <path class="b1df793c-b754-49c2-8dc8-7b608a065efa" d="M67.45,76.31c1.29.16,2.1-.61,2.89-1.43,0,0,.14,0,.18.06a.52.52,0,0,1,.1.18,2,2,0,0,0,.45,2.79c3.82,3.71,6.12,8.39,8,13.22,1.74,4.52,1.13,9.21-.3,13.73-.69,2.17-1.17,4.48-2.73,6.29-1,1.15-.24,1.36.73,1.61a35.54,35.54,0,0,1,12,5.84A23.75,23.75,0,0,1,98.61,137a25.48,25.48,0,0,1-.58,7.92c-1.93,7.42-12.4,10.48-16.92,5.64l.12-.12a4.7,4.7,0,0,1,2.47.62c1.34.82,2.86,1.56,4.52,1.09,3.37-.93,6.47-2.63,8.15-5.64,2.47-4.4,1.3-9.31,1-14,0-.69-.87-.88-1.54-1-.62-1.41-1.24-2.83-1.87-4.24a3.11,3.11,0,0,0-.27-1.66,14.18,14.18,0,0,0-5.37-6.2c-3.31-2-6.44-4.1-10.19-5.3-1.37-.44-3.36-.23-4-2.64-.67,2.75-2.54,1.66-3.88,1.93l-.14-.16c3.92-1.64,5.86-4.72,6.66-8.67.41-2,1-4,1.28-6.1a13,13,0,0,0-2.58-10.09h0c.16-.64-.29-1.08-.52-1.59C73.13,82.82,70.17,79.64,67.45,76.31Z"/>
            <path class="b1df793c-b754-49c2-8dc8-7b608a065efa" d="M37.76,116.9c-.31-1.15.45-1.82,1.14-2.58,1.17-1.31,2.94-2.16,3.35-4.07.82.44,1.66.87,2.47,1.33,6.09,3.42,12.45,5.21,19.47,3.23,2-.55,3.93-1,5.9-1.58l.14.16a6.24,6.24,0,0,1-4.41,1.73c-2.23.18-3.27,1.58-2.31,3.25,3,5.15,4.88,10.78,7.66,16,1.28,2.42,1.68,5.3,3.74,7.3a9.43,9.43,0,0,1,2.39,4.44l-.1.09c-3.4-3.89-5.69-8.44-7.85-13-2.28-4.85-3.92-10-6.7-14.62a2.15,2.15,0,0,0-2.45-1.22c-5.87.81-11.19-1-16-4.06-2.28-1.45-3.13-.36-4.32.95C39.16,115.09,38.48,116,37.76,116.9Z"/>
            <path class="b8ab9482-481b-4482-aab8-b563cfd2a359" d="M7.1,7.52c-.72.94.73,1.85,0,2.79C6.05,8.53,5,6.74,3.57,4.49a44.88,44.88,0,0,0,.13,10c1,7.5,3.79,14.37,7.25,21l.36.62.21.38c-1.91-.18-2.32-1.77-2.72-3.12-.33-1.11-.6-.54-1-.22h0c-.15-1.16.73-2.79-1.43-3.05L6,29.24c1.37-.54-.11-1.17.06-1.75v-1.3L5.18,24.9h0c0-.48,0-1-.43-1.29h0c0-.6.16-1.25-.44-1.71s-.43-.82-.44-1.3c-.18-1.4-.35-2.8-.57-4.54-.49,1,0,1.85-.74,2.37A40.17,40.17,0,0,1,1.6,5.22,2.33,2.33,0,0,1,3.24,2.91c1-.24,1.59.49,1.91,1.38a1.25,1.25,0,0,0,.66,1.26l0,.11-.1,0L5.55,6l.24-.22.18,0,.09.16c.11.69-.32,1.7,1,1.65ZM2.46,6.15a1.42,1.42,0,0,0,0,1.79Zm-.09,6.27c.13-.62.42-1.14-.13-1.68A1.89,1.89,0,0,0,2.37,12.42Z"/>
            <path class="b1df793c-b754-49c2-8dc8-7b608a065efa" d="M33.67,103c-.51.08-1.36-.1-.79.86.94,1.59.32,2.63-1.13,3.43,1.36-2,.72-3.28-1.32-4.49a16.51,16.51,0,0,1-5.07-5c-2.13-3.12-1.29-5.76,2.28-7,.87-.3,1-.75,1-1.58a4.09,4.09,0,0,1,2.13-3.94c.28.39-.3,1.08.47,1.31a4.23,4.23,0,0,0-.94,3c-.58-.19-.32-1-.88-1.31-.19.94-.35,1.77-.51,2.6a3.58,3.58,0,0,0-2.61,1.7c-1.72,1.58-.66,3,.38,4.28C28.63,99.36,31.35,101,33.67,103Z"/>
            <path class="b1df793c-b754-49c2-8dc8-7b608a065efa" d="M73.79,69.14a3.74,3.74,0,0,1,.65-2.82,35.73,35.73,0,0,0,4.55-9c.33-1,.63-.88.92,0A71.54,71.54,0,0,1,73.79,69.14Z"/>
            <path class="b1df793c-b754-49c2-8dc8-7b608a065efa" d="M81.11,150.58a13,13,0,0,1-3.91-4.36l.1-.09c2,.79,3.1,2.47,3.93,4.33Z"/>
            <path class="b1df793c-b754-49c2-8dc8-7b608a065efa" d="M37.19,117.68c-.51-.78.05-.78.59-.8Z"/>
            <path class="f4ca48f6-aff4-43a6-be96-d91aa542f55c" d="M57,72.72A42.26,42.26,0,0,1,45.15,79c-1.52.49-1.77,1.5-1.28,2.88,1.52,4.28,5.4,6.12,9.84,4.59,1.35-.47,2.65-1.09,4.21-1.74-1.83-.6-3.23,0-4.66.57a5.76,5.76,0,0,1-7.48-3.74c-.14-.49-.14-.84.38-1,4.55-1.64,8-5.32,12.58-6.83a6.09,6.09,0,0,1,3.51,1,37.39,37.39,0,0,1,5.13,4.7c2.67,3,5.38,6,8.07,9h0a10.9,10.9,0,0,0,.14,1.9c1.48,6.12.12,11.92-2,17.65a4,4,0,0,1-3,2.77c-2.2.5-4.37,1.14-6.57,1.62-5.47,1.19-10.93,2-16.13-1,2.14-.4,2.39-2,2.5-3.73,0-.37.05-.74.07-1.11,1.12.26,2.23.56,3.36.8,1.64.33,3,.1,3.7-1.69.47.13.65.53.92.87s.42,1.59,1.2,1.25,0-1.26-.1-1.86c-.28-1.26-.6-2.51-.84-3.78a37.86,37.86,0,0,1-.06-12.61c0-.78.86-1.43.46-2.4-3.29,3.65-4.26,6.34-3.78,10.4-.23.71,1,1.41,0,2.13a10.15,10.15,0,0,0-3.78-3.43c-2.93-1.69-5.83-3.42-8.75-5.13-.27-.27-.58-.8-.93-.38s.27.6.6.79a21.26,21.26,0,0,0,7.72,5.75c3,1.43,5.41,3.23,5.9,6.72-.95,1.42-2.07.7-3,.13-6.11-3.57-12.69-6.46-17.87-11.44A25.42,25.42,0,0,1,32.61,90c-1.36-1.73-1.16-2.45.73-3.55C34,86,34.91,86,35.2,85.08c1.21-.26,2.22-.57.79-1.92a11.24,11.24,0,0,1-1.17-1.55c-1.86-4-4.21-7.71-8.53-9.35A27.42,27.42,0,0,1,16.1,65c-2-2.13-4.72-3.84-5.48-6.86-.39-1.59-1.25-3.63.4-4.84,1.88-1.39,3.13.7,4.57,1.48a2.28,2.28,0,0,1,.51.42A94.33,94.33,0,0,0,31,68.16c2.69,1.86,5.36,3.67,8.6,4.47l3.11,1.47c.21-.95-.51-1.44-.63-2.11.06-.52.05-1-.6-1.17v0c0-1.49-.94-2.66-1.57-3.92-2.25-4.45-6.1-7.62-9.36-11.27-1.92-2.15-3.74-4.39-5.6-6.6a2.85,2.85,0,0,1-.57-3.38c.62-1,1.85-.46,2.82-.36.5.05,1,.36,1.49.14a15.3,15.3,0,0,1,3.68,2.91.85.85,0,0,0,.83.84l0,0A55.42,55.42,0,0,0,40.81,59.6c.91,1,1.51,1.82-.21,2.83,2-1,3.07.08,4,1.38A20.76,20.76,0,0,0,56.05,72,1.25,1.25,0,0,1,57,72.72Zm-4.3,9.1c1,.32,2,.21,2.33-.87.36-1.31-.48-2.28-1.26-3.19C53.82,81,53.79,81.13,52.72,81.82Z"/>
            <path class="fde99005-40e8-44b2-989f-251f4d39ecea" d="M94.72,17.53c-1.18,4-2.27,8-3.65,11.9A160,160,0,0,1,80.38,52.71c-3.78,6.95-7.44,14-11.06,21-.73,1.43-1.39,1.57-2.51.56a10,10,0,0,0-8.93-2.76l0,0-.57-.46C70.29,52,79.9,31,91.79,11.33c-2.36,1.66-3.64,4.12-5.35,6.23a1.17,1.17,0,0,1-.37-1.18L87.84,13c2.74-3.31,4.47-7.25,6.76-11A6.22,6.22,0,0,1,95.69,5c1,4.28-.24,8.38-1,12.53Z"/>
            <path class="af214332-f379-430c-bd25-8efe50083ece" d="M11.52,36.49l-.21-.38L11,35.49C7.49,28.82,4.68,22,3.7,14.45a44.88,44.88,0,0,1-.13-10c1.39,2.25,2.48,4,3.57,5.82L23,36.23q1.35,2.21,2.67,4.42c.24.4.74.87-.21,1.05-2.28.26-3.2-1.22-4.18-2.9-2.84-4.94-5.24-10.12-8.43-14.86-.42-.62-.64-1.64-1.83-1.59a149,149,0,0,0,9.68,19.07,2,2,0,0,1,.2,2h0c-1.1,2.26-.14,4.22.89,6.18,1.88,5.1,6.06,8.52,9.49,12.48,1.36,1.57,3,2.92,4.46,4.43.68.7,1.55,1.36,1.42,2.63-5-2.65-8.9-6.38-12.71-10.39-5.32-5.6-7.84-12.68-11.45-19.18C12.5,38.56,12,37.52,11.52,36.49Z"/>
            <path class="a840a722-5684-423a-9d16-6c5732b223d7" d="M39.6,72.63c-3.24-.8-5.91-2.61-8.6-4.47A94.33,94.33,0,0,1,16.1,55.22a2.28,2.28,0,0,0-.51-.42C14.15,54,12.9,51.93,11,53.32c-1.65,1.21-.79,3.25-.4,4.84.76,3,3.47,4.73,5.48,6.86a27.42,27.42,0,0,0,10.19,7.24c4.32,1.64,6.67,5.35,8.53,9.35-2.36-1.82-3.91-4.41-6.28-6.24a23.07,23.07,0,0,0-5-3.11c-6.75-2.89-11-8.3-14.89-14.1A3.39,3.39,0,0,1,8.12,57c-.26-1.46-.79-3.07.42-4.28s2.77-1,4.31-.51a19.21,19.21,0,0,1,7,4.29c6.06,5.81,12.06,11.67,19.56,15.76C39.52,72.31,39.54,72.5,39.6,72.63Z"/>
            <path class="af214332-f379-430c-bd25-8efe50083ece" d="M86.07,16.38a1.17,1.17,0,0,0,.37,1.18c-2,3.41-4,6.83-6,10.22-7.27,12.12-13.17,25-21,36.81a24.31,24.31,0,0,0-3,6c-.59.13-1-.33-1.42-.53,0-.56-.9-.89-.23-1.69,3.06-3.61,4.87-8,7.13-12,6.55-11.85,13.93-23.22,21-34.75C84,19.83,85,18.1,86.07,16.38Z"/>
            <path class="a840a722-5684-423a-9d16-6c5732b223d7" d="M28.68,45.4c-.52.22-1-.09-1.49-.14-1-.1-2.2-.68-2.82.36A2.85,2.85,0,0,0,24.94,49c1.86,2.21,3.68,4.45,5.6,6.6,3.26,3.65,7.11,6.82,9.36,11.27.63,1.26,1.53,2.43,1.57,3.92C39,68.73,37.4,66,35.33,63.59c-3.18-3.66-6.9-6.84-9.77-10.78a14.79,14.79,0,0,1-3.13-6.33c-.41-2.64.83-3.74,3.38-2.86C26.87,44,28.06,44.3,28.68,45.4Z"/>
            <path class="a840a722-5684-423a-9d16-6c5732b223d7" d="M35.2,85.08c-.29.89-1.2,1-1.86,1.33-1.89,1.1-2.09,1.82-.73,3.55a25.42,25.42,0,0,0,2.56,2.63c5.18,5,11.76,7.87,17.87,11.44,1,.57,2.09,1.29,3-.13.24,1.82-.89,1.89-2.18,1.56a40.41,40.41,0,0,1-8.53-3.34C39.44,99,34.1,95.23,30.3,89.65a4.23,4.23,0,0,1,.94-3C32.47,85.92,33.48,84.64,35.2,85.08Z"/>
            <path class="a840a722-5684-423a-9d16-6c5732b223d7" d="M55,70c.46.2.83.66,1.42.53l.66.53c0,.58.54.32.82.45l0,0a1,1,0,0,1-.86,1.2,1.25,1.25,0,0,0-1-.76A20.76,20.76,0,0,1,44.6,63.81c-.93-1.3-2-2.35-4-1.38,1.72-1,1.12-1.79.21-2.83a55.42,55.42,0,0,1-7.59-10.43A77.54,77.54,0,0,1,44,61.48a33.06,33.06,0,0,0,9,8.05A2.78,2.78,0,0,0,55,70Z"/>
            <path class="a55b164c-59d6-4be6-8cff-387685a0e58f" d="M20.94,43.42a2,2,0,0,0-.2-2,149,149,0,0,1-9.68-19.07c1.19-.05,1.41,1,1.83,1.59,3.19,4.74,5.59,9.92,8.43,14.86,1,1.68,1.9,3.16,4.18,2.9-1,.24-1.77,1.33-3.09.4C21.85,41.7,22.07,43.61,20.94,43.42Z"/>
            <path class="b8ab9482-481b-4482-aab8-b563cfd2a359" d="M94.74,17.52c.71-4.15,1.9-8.25,1-12.53A6.22,6.22,0,0,0,94.6,1.92c-2.29,3.8-4,7.74-6.76,11.05-.55-2.26,1.49-3.4,2.38-5a15.45,15.45,0,0,0,2-4.13c.31-1.33,1.3-2.66,2.8-2.5S96.6,3,96.61,4.25s-.35,2.67.78,3.95c.74.83-.75,1.78-.75,2.67a14.7,14.7,0,0,1-1,5.58A1.53,1.53,0,0,1,94.74,17.52Z"/>
            <path class="a55b164c-59d6-4be6-8cff-387685a0e58f" d="M21.85,49.59c-1-2-2-3.92-.89-6.18C20.76,45.54,22.44,47.41,21.85,49.59Z"/>
            <path class="a840a722-5684-423a-9d16-6c5732b223d7" d="M41.48,70.82c.65.16.66.65.6,1.17A1.07,1.07,0,0,1,41.48,70.82Z"/>
            <path class="a840a722-5684-423a-9d16-6c5732b223d7" d="M33.19,49.15a.85.85,0,0,1-.83-.84A1,1,0,0,1,33.19,49.15Z"/>
            <path class="af214332-f379-430c-bd25-8efe50083ece" d="M34.62,105.52a46.91,46.91,0,0,0,5.29,4.76c.59.39,1,.75.2,1.45-4.78,4.09-7.28,9.62-9.8,15.13a90.24,90.24,0,0,1-14.42,22c-3.51,4-6.54,4.79-11.14,1.91-2.63-1.64-2.91-4.64-2.92-7.33,0-10.33,5-17.78,14.16-22.55,3.32-1.73,6.79-3.37,10.79-3.13,1.32.08,1.82-1.09,2.36-2A85.25,85.25,0,0,0,34.62,105.52Zm-8.19,14.7a9.6,9.6,0,0,0-4,1.74c-2.38,1.53-4.7,3.14-7.11,4.63-5.87,3.64-8.52,9-8.94,15.64-.12,2-.64,4.59,1.72,5.54s4.2-1,5.73-2.63a111.58,111.58,0,0,0,10.62-14.45,31.9,31.9,0,0,0,3.72-8.45C28.6,120.85,28.12,120.16,26.43,120.22Z"/>
            <path class="a840a722-5684-423a-9d16-6c5732b223d7" d="M47.87,111.31c5.2,3,10.66,2.19,16.13,1,2.2-.48,4.37-1.12,6.57-1.62a4,4,0,0,0,3-2.77c2.11-5.73,3.47-11.53,2-17.65a10.9,10.9,0,0,1-.14-1.9A13,13,0,0,1,78,98.46c-.24,2.05-.87,4.06-1.28,6.1-.8,4-2.74,7-6.66,8.67-2,.53-3.94,1-5.9,1.58-7,2-13.38.19-19.47-3.23-.81-.46-1.65-.89-2.47-1.33l0,0-.54-.39h0l-1.36-.82c-.62-.72-1.93-.63-2.2-1.77.94,0,1.57.67,2.34,1C42.85,109.54,45.1,111.05,47.87,111.31Z"/>
            <path class="a840a722-5684-423a-9d16-6c5732b223d7" d="M33.67,103c-2.32-2-5-3.67-7-6.11-1-1.3-2.1-2.7-.38-4.28.43,2.42,2,4,4,5.3,3.92,2.6,7.74,5.34,11.76,7.78,2.22,1.35,4.12,3.54,7.12,3.34-.33,1.56-1.45,1.2-2.35.78-1.43-.68-2.76-1.56-4.14-2.34-2.74-1.54-5.41-3.25-8.51-4Z"/>
            <path class="f390c60b-ef94-4cc5-93c3-a4a8f0ae8ca4" d="M34.18,103.45c3.1.8,5.77,2.51,8.51,4,1.38.78,2.71,1.66,4.14,2.34.9.42,2,.78,2.35-.78.63-.31-.1-1.68,1.19-1.48-.11,1.71-.36,3.33-2.5,3.73-2.77-.26-5-1.77-7.4-3-.77-.37-1.4-1-2.34-1l0,0c-.13-.51-.52-.49-.92-.46l0,0-.4-.38c0-1.05-.39-1.81-1.64-1.81C34.35,104.74,34.17,104.16,34.18,103.45Z"/>
            <path class="b1df793c-b754-49c2-8dc8-7b608a065efa" d="M40.33,109.08l1.36.82C41.05,109.93,40.43,109.92,40.33,109.08Z"/>
            <path class="a840a722-5684-423a-9d16-6c5732b223d7" d="M37.24,106.89c.4,0,.79,0,.92.46A.7.7,0,0,1,37.24,106.89Z"/>
            <path class="b1df793c-b754-49c2-8dc8-7b608a065efa" d="M41.67,109.89l.54.39Z"/>
            <path class="a840a722-5684-423a-9d16-6c5732b223d7" d="M36.88,106.54l.4.38Z"/>
            <path class="a840a722-5684-423a-9d16-6c5732b223d7" d="M75.45,88.38c-2.69-3-5.4-6-8.07-9a37.39,37.39,0,0,0-5.13-4.7,6.09,6.09,0,0,0-3.51-1c1.69-1.45,3.42-.8,5,.07a40.07,40.07,0,0,1,3.69,2.58c2.72,3.33,5.68,6.51,7.48,10.48C75.16,87.3,75.61,87.74,75.45,88.38Z"/>
            <path class="fde99005-40e8-44b2-989f-251f4d39ecea" d="M93.92,127.26c.63,1.41,1.25,2.83,1.87,4.24a27.76,27.76,0,0,1,.74,11.11c-.38,4-2.74,6.52-6.47,7.89s-6.93.07-9.39-2.8a63,63,0,0,1-6.79-9.78c-3.71-6.46-5.68-13.7-9.47-20.12-.66-1.13.17-1.17.9-1.32a27.47,27.47,0,0,0,7-2.36,2.69,2.69,0,0,1,2.1,0C82.55,116.2,89.57,119.82,93.92,127.26Zm-2.26,11.91a19.7,19.7,0,0,0-1.58-6.46c-2.71-6.78-8-10.66-15-12.37-3.16-.78-4.29.55-3.34,3.59a11.2,11.2,0,0,0,.45,1.22,101.34,101.34,0,0,0,6.49,11.94,32.81,32.81,0,0,0,4,5.37c1.66,1.75,3.59,3.42,6.08,2.42S91.37,141.24,91.66,139.17Z"/>
            <path class="a55b164c-59d6-4be6-8cff-387685a0e58f" d="M93.92,127.26c-4.35-7.44-11.37-11.06-19.48-13.16a2.69,2.69,0,0,0-2.1,0,27.47,27.47,0,0,1-7,2.36c-.73.15-1.56.19-.9,1.32,3.79,6.42,5.76,13.66,9.47,20.12a63,63,0,0,0,6.79,9.78c2.46,2.87,5.55,4.2,9.39,2.8s6.09-3.86,6.47-7.89a27.76,27.76,0,0,0-.74-11.11c.67.12,1.5.31,1.54,1,.34,4.72,1.51,9.63-1,14-1.68,3-4.78,4.71-8.15,5.64-1.66.47-3.18-.27-4.52-1.09a4.7,4.7,0,0,0-2.47-.62c-.83-1.86-1.88-3.54-3.93-4.33a9.43,9.43,0,0,0-2.39-4.44c-2.06-2-2.46-4.88-3.74-7.3-2.78-5.24-4.69-10.87-7.66-16-1-1.67.08-3.07,2.31-3.25a6.24,6.24,0,0,0,4.41-1.73c1.34-.27,3.21.82,3.88-1.93.62,2.41,2.61,2.2,4,2.64,3.75,1.2,6.88,3.35,10.19,5.3a14.18,14.18,0,0,1,5.37,6.2A3.11,3.11,0,0,1,93.92,127.26Z"/>
            <path class="f390c60b-ef94-4cc5-93c3-a4a8f0ae8ca4" d="M11,35.49l.36.62Z"/>
            <path class="f390c60b-ef94-4cc5-93c3-a4a8f0ae8ca4" d="M30.3,89.65c3.8,5.58,9.14,9.38,15.07,12.47a40.41,40.41,0,0,0,8.53,3.34c1.29.33,2.42.26,2.18-1.56-.49-3.49-2.89-5.29-5.9-6.72a21.26,21.26,0,0,1-7.72-5.75l.33-.41c2.92,1.71,5.82,3.44,8.75,5.13a10.15,10.15,0,0,1,3.78,3.43,7.13,7.13,0,0,1,2.18,6c-.66,1.79-2.06,2-3.7,1.69-1.13-.24-2.24-.54-3.36-.8-1.65-.73-3.34-1.39-5-2.19C39,101,33.05,97,28.91,90.94c.16-.83.32-1.66.51-2.6C30,88.69,29.72,89.46,30.3,89.65Z"/>
            <path class="f5a8d0bc-0b6d-4835-a0e1-42f01fc5dc74" d="M28.91,90.94C33.05,97,39,101,45.48,104.28c1.62.8,3.31,1.46,5,2.19,0,.37,0,.74-.07,1.11-1.29-.2-.56,1.17-1.19,1.48-3,.2-4.9-2-7.12-3.34-4-2.44-7.84-5.18-11.76-7.78-2-1.31-3.57-2.88-4-5.3A3.58,3.58,0,0,1,28.91,90.94Z"/>
            <path class="a840a722-5684-423a-9d16-6c5732b223d7" d="M57.5,105.58a7.13,7.13,0,0,0-2.18-6c1-.72-.25-1.42,0-2.13.7-.21.43-.8.49-1.25a15.75,15.75,0,0,1,2.83-6.75,37.86,37.86,0,0,0,.06,12.61c.24,1.27.56,2.52.84,3.78.13.6,1,1.45.1,1.86s-.82-.79-1.2-1.25S58,105.71,57.5,105.58Z"/>
            <path class="b576aee4-855d-4e8c-8be9-315da1f137d9" d="M58.62,89.45a15.75,15.75,0,0,0-2.83,6.75c-.06.45.21,1-.49,1.25-.48-4.06.49-6.75,3.78-10.4C59.48,88,58.64,88.67,58.62,89.45Z"/>
            <path class="b576aee4-855d-4e8c-8be9-315da1f137d9" d="M52.72,81.82c1.07-.69,1.1-.83,1.07-4.06.78.91,1.62,1.88,1.26,3.19C54.75,82,53.75,82.14,52.72,81.82Z"/>
            <path class="f390c60b-ef94-4cc5-93c3-a4a8f0ae8ca4" d="M42.46,91.43c-.33-.19-.84-.5-.6-.79s.66.11.93.38Z"/>
            <path class="a55b164c-59d6-4be6-8cff-387685a0e58f" d="M57.11,71.09l-.66-.53a24.31,24.31,0,0,1,3-6c7.8-11.83,13.7-24.69,21-36.81,2-3.39,4-6.81,6-10.22,1.71-2.11,3-4.57,5.35-6.23C79.9,31,70.29,52,57.36,71.08Z"/>
            <path class="b8ab9482-481b-4482-aab8-b563cfd2a359" d="M57.11,71.09h.25l.57.46C57.65,71.41,57.13,71.67,57.11,71.09Z"/>
            <path class="b8ab9482-481b-4482-aab8-b563cfd2a359" d="M26.43,120.22c1.69-.06,2.17.63,1.76,2a31.9,31.9,0,0,1-3.72,8.45,111.58,111.58,0,0,1-10.62,14.45c-1.53,1.68-3.28,3.63-5.73,2.63s-1.84-3.5-1.72-5.54c.42-6.61,3.07-12,8.94-15.64,2.41-1.49,4.73-3.1,7.11-4.63A9.6,9.6,0,0,1,26.43,120.22ZM26.34,122c-5.38,1.68-9.18,4.93-12.82,8.31-4,3.73-5.34,8.6-5.31,13.89,0,.69,0,1.54.8,1.85s1.24-.29,1.76-.65a16.58,16.58,0,0,0,3.56-3.78C18.92,135.61,23.72,129.72,26.34,122Z"/>
            <path class="b8ab9482-481b-4482-aab8-b563cfd2a359" d="M91.66,139.17c-.29,2.07-.36,4.71-2.82,5.71s-4.42-.67-6.08-2.42a32.81,32.81,0,0,1-4-5.37,101.34,101.34,0,0,1-6.49-11.94,11.2,11.2,0,0,1-.45-1.22c-1-3,.18-4.37,3.34-3.59,7,1.71,12.25,5.59,15,12.37A19.7,19.7,0,0,1,91.66,139.17ZM89.77,139c-.92-8.54-6.61-14.77-14.9-16.87-1.34-.34-1.72.12-1.26,1.46,2.3,6.7,6.3,12.41,10.82,17.8.87,1,2.09,2.28,3.51,1.72s1.62-2.4,1.82-3.9C89.76,139.16,89.77,139.09,89.77,139Z"/>
            <path class="b9c705cd-d011-45b0-8f2c-8763078b76fd" d="M26.34,122c-2.62,7.73-7.42,13.62-12,19.62a16.58,16.58,0,0,1-3.56,3.78c-.52.36-1.07.93-1.76.65s-.79-1.16-.8-1.85c0-5.29,1.3-10.16,5.31-13.89C17.16,126.92,21,123.67,26.34,122Z"/>
            <path class="b9c705cd-d011-45b0-8f2c-8763078b76fd" d="M89.77,139c0,.07,0,.14,0,.21-.2,1.5-.27,3.29-1.82,3.9s-2.64-.69-3.51-1.72c-4.52-5.39-8.52-11.1-10.82-17.8-.46-1.34-.08-1.8,1.26-1.46C83.16,124.25,88.85,130.48,89.77,139Z"/>
        </g>
    </g>
</svg>