<?xml version="1.0" encoding="utf-8"?>
<?xml-stylesheet type="text/css" href="../style.css"?>
<svg xmlns="http://www.w3.org/2000/svg" viewBox="0 0 115.42 167.57">
    <g id="f632692f-7f9f-4dfe-8d1f-c4b6c97b250b" data-name="Layer 2">
        <g id="ed7db8d0-ec63-498f-8d4f-56d72c1e045e" data-name="stone">
            <path class="b2e2d445-ce15-481c-a866-bbab6d89b717" d="M114.26,93.81a7.9,7.9,0,0,0,0,5.91,18.84,18.84,0,0,1-1.26,15,26.47,26.47,0,0,0-2.75,13,11,11,0,0,1-3,8.31,4.74,4.74,0,0,0-1.38,3.27c-.2,7.47-4,13.06-9.5,17.77-1.9,1.63-4.23,2.11-6.59,2.46-7,1-13.48,3.74-20,6.22a27.25,27.25,0,0,1-13.85,1.46c-6.07-.86-12.18-1.37-18.26-2.11-5.46-.67-10.21-3.24-15-5.69a9.92,9.92,0,0,1-3.78-4.17,23.43,23.43,0,0,0-4.92-5.86,16,16,0,0,1-5.44-11.81c-.15-3.51-.91-6.94-1.1-10.45-.17-3.33-1.94-6.18-3.46-9A25.36,25.36,0,0,1,2.09,96.75,20.36,20.36,0,0,0,2.9,91C3.18,84.27,3.59,77.5,1.83,71-.66,61.82-.1,52.6.57,43.33c.85-11.81,5.5-22.26,12.06-32a27,27,0,0,1,5.55-5.9C22,2.37,26.46,1.92,31.1,2.1A53.56,53.56,0,0,1,43.35,4.22a10.38,10.38,0,0,0,7.51-.68c2.21-1,4.51-1.89,6.73-2.92a6.23,6.23,0,0,1,4.95-.2c1.47.53,3,1,4.39,1.63a30.61,30.61,0,0,0,9.36,2.72c5.54.56,9.67,3.42,12.81,7.79,3.61,5,8.23,9.15,12.26,13.8,2.44,2.81,4,5.7,3.71,9.47-.09,1.14,0,2.3-.09,3.43a13.77,13.77,0,0,0,2.48,9c1.73,2.73,3.12,5.68,4.59,8.56,1.66,3.24,1.28,6.75,1,10.15a36,36,0,0,0,1.57,13.14A25.17,25.17,0,0,1,114.26,93.81ZM112.71,78a5.28,5.28,0,0,0-.52-2.79,2.53,2.53,0,0,0-.27.18s0,.12,0,.19a6.66,6.66,0,0,1-.56-2.56c-.36-3.71.24-7.41.1-11.12a10.8,10.8,0,0,0-1-4.5,59.88,59.88,0,0,0-4.09-7.67,16.69,16.69,0,0,1-3.1-11.44c.09-.94.08-1.89.12-2.83a9.63,9.63,0,0,0-2.55-7C96.07,23.09,91,18,86.57,12.34a17.42,17.42,0,0,0-8.85-5.82C72.87,5,67.71,4.47,63,2.41a6.86,6.86,0,0,0-5.69.16c-5.07,2.09-10.26,3.6-15.89,2.65A81.34,81.34,0,0,0,30.91,3.88C26,3.71,21.16,3.7,17.37,8.19,8.08,19.19,3.54,31.86,2.75,46c-.32,5.72-.11,11.46-.18,17.19a30.07,30.07,0,0,0,1.09,9.19,36.48,36.48,0,0,1,1.16,8.79C5.16,87.2,4.07,93.08,2.93,99a26,26,0,0,0,2.44,18c1.64,3,3.48,6.13,3.8,9.74s.72,7.51,1.13,11.26,1.61,7.4,4.9,9.84a18.75,18.75,0,0,1,5,6.26c1.13,2,2.33,4.19,4.54,5.06,4.42,1.73,8.78,3.76,13.58,4.3,6,.67,11.92,1.26,17.86,2a27.17,27.17,0,0,0,12.85-1.35c5.3-1.87,10.44-4.18,16-5.47,5.72-1.32,11.48-2.91,14.82-8.62,1.31-2.24,2.69-4.34,2.93-7a14.6,14.6,0,0,1,3.4-8.69,8.22,8.22,0,0,0,2.17-5.56c-.28-6.89,1.86-13.13,4.75-19.22.37-.21.73-.49.73-.91,0-2.48.35-4.95-.32-7.42a17.59,17.59,0,0,1-.26-8.88A25.65,25.65,0,0,0,112.71,78ZM26.91,2.88v.18h5.92V2.88ZM4.09,80.58l-.31-4.37C3.6,77.68,3.2,79.18,4.09,80.58Zm.13,3.33a3.25,3.25,0,0,0,0,2.72Zm.09,3.65-.42-.38c-.11.13-.3.25-.31.38s.2.26.31.38Zm-.47,2.06-.16-.28s-.12.09-.12.13a1.91,1.91,0,0,0,.06.33Z"/>
            <path class="fe696c96-c070-4675-ae97-9559336ca3dc" d="M113.13,109.62c-2.89,6.09-5,12.33-4.75,19.22a8.22,8.22,0,0,1-2.17,5.56,14.6,14.6,0,0,0-3.4,8.69c-.24,2.64-1.62,4.74-2.93,7-3.34,5.71-9.1,7.3-14.82,8.62-5.55,1.29-10.69,3.6-16,5.47a27.17,27.17,0,0,1-12.85,1.35c-5.94-.79-11.9-1.38-17.86-2-4.8-.54-9.16-2.57-13.58-4.3-2.21-.87-3.41-3-4.54-5.06a18.75,18.75,0,0,0-5-6.26c-3.29-2.44-4.48-6-4.9-9.84s-.78-7.51-1.13-11.26S7,120,5.37,117A26,26,0,0,1,2.93,99C4.07,93.08,5.16,87.2,4.82,81.14a36.48,36.48,0,0,0-1.16-8.79,30.07,30.07,0,0,1-1.09-9.19c.07-5.73-.14-11.47.18-17.19C3.54,31.86,8.08,19.19,17.37,8.19,21.16,3.7,26,3.71,30.91,3.88A81.34,81.34,0,0,1,41.43,5.22c5.63,1,10.82-.56,15.89-2.65A6.86,6.86,0,0,1,63,2.41C67.71,4.47,72.87,5,77.72,6.52a17.42,17.42,0,0,1,8.85,5.82C91,18,96.07,23.09,100.8,28.48a9.63,9.63,0,0,1,2.55,7c0,.94,0,1.89-.12,2.83a16.69,16.69,0,0,0,3.1,11.44,59.88,59.88,0,0,1,4.09,7.67,10.8,10.8,0,0,1,1,4.5c.14,3.71-.46,7.41-.1,11.12a6.66,6.66,0,0,0,.56,2.56c.15.81.3,1.62.46,2.43l.34,1.23a10.89,10.89,0,0,0,.71,3.33l.11.73a19,19,0,0,1-.89,9.49,12.68,12.68,0,0,0-.19,7.12C113.14,103.11,114.34,106.3,113.13,109.62ZM19.41,23.8a.47.47,0,0,0,.17,0s0-.07.05-.11l-.18.18a.4.4,0,0,0-.47.35c-4.84,3.87-7.28,7.74-6.67,10.68A15.66,15.66,0,0,1,15,30.09a53,53,0,0,0,4.19-5.71A.45.45,0,0,0,19.41,23.8Zm88.34,62.39c.06.18.16.34.37.2,0,0-.11-.27-.16-.41-1.63-2.63-3.28-5.21-3.61-8.41a22.32,22.32,0,0,1,.22-8C101.09,74.6,102.68,82.22,107.75,86.19ZM87.36,96.69c0-.46-.33-.46-.66-.43l-.06,0c-.59-.8,0-1.31.42-1.89A27.68,27.68,0,0,0,89.51,91c1.32-2.45-.06-4.76-2.83-4.95a4.53,4.53,0,0,0-2.19.19c-1.06-.07-.64-.67-.53-1.26,1.1-5.87-2.29-9.29-8.23-8.35l-.2,0c.39-.72,1-1.38.7-2.29-.36-4.44-1.57-6.19-4.81-7-2.41-.58-4.51.3-6.57,1.37l-2.59,2.58c-4.36-2-8-1-11.56,2.11A67.86,67.86,0,0,0,41,84.78c-4.85,6.66-5.23,13.84-3.6,21.56,1.84,8.69,7.37,11.42,13.73,12.13s12.45-1.51,18-4.67l2.37-1.41a8.93,8.93,0,0,0,4.16-.82,40.28,40.28,0,0,0,11.47-7.94,6.57,6.57,0,0,0,2.13-3.6c.22-1.53,0-3-1.91-3.38Zm-6.1-78.6c-.17-.32-.39-.48-.72-.23a4,4,0,0,0,.33.54C86.21,25.31,88,33.8,91.45,41.6a50.66,50.66,0,0,0-3.82-14.77A23.23,23.23,0,0,0,81.26,18.09ZM31.16,65c.23,0,.46.08.62,0C40.24,60.59,47,54.4,51.33,45.87A10.13,10.13,0,0,0,52,39.05C49.17,51.11,39.63,57.61,31.16,65Zm4.36-40.81a39.32,39.32,0,0,1,26.66-.4A24.28,24.28,0,0,0,35.52,24.23Zm31.69,102A80.92,80.92,0,0,0,85.53,115,66.35,66.35,0,0,0,67.21,126.21ZM29.72,93.8c-3.12,7.27-.5,13.93,2.78,20.5C31.34,107.51,28.65,100.9,29.72,93.8ZM15.51,59.67c-2.49,5.64-1.31,16.45,2,18.38C15.11,72.12,16.13,65.66,15.51,59.67Zm17,71.79a78.74,78.74,0,0,0,14.74,9.37A37.26,37.26,0,0,0,32.46,131.46Zm-18-33.93a47.54,47.54,0,0,1-.87,17C16.93,110.61,17.11,101.85,14.46,97.53Zm56-46a42.52,42.52,0,0,0-15.88,6.21A65.11,65.11,0,0,0,70.42,51.51Zm9.5,82.9A90.7,90.7,0,0,0,95,127.1C90.11,127.86,82.3,131.6,79.92,134.41Zm4.43-80.47c-.44-4.82-1.06-9.6-4.39-13.45C81.68,44.88,82.19,49.67,84.35,53.94Zm-4.14,93.15a40.24,40.24,0,0,0-10.53,6.64A26.21,26.21,0,0,0,80.21,147.09ZM12.3,51.68A49.68,49.68,0,0,0,18.42,40.9,24.75,24.75,0,0,0,12.3,51.68ZM55.72,151.1c-4.72-.56-9.61.55-12.66,2.8Zm45.68-48.88a10,10,0,0,0-.64,8.41Zm-5.84,24.55,0,.12-.15-.08Z"/>
            <ellipse class="bb1c95d0-a3f8-4238-a849-acd718bd2bc0" cx="29.87" cy="2.97" rx="4.19" ry="0.13"/>
            <path class="b2e2d445-ce15-481c-a866-bbab6d89b717" d="M69.12,113.8c-5.59,3.16-11.54,5.4-18,4.67S39.19,115,37.35,106.34c-1.63-7.72-1.25-14.9,3.6-21.56A67.86,67.86,0,0,1,50.7,73.45c3.51-3.08,7.2-4.14,11.56-2.11l.46.27,1.45.7C66.66,75,69.38,77.4,73,78.53c.56.52,1,1.08.75,1.93-1.85,3.32-4.33,5.56-8.51,4.94-1.24-.6-2.76-.58-3.8-1.63l1-.09c3.39.72,6.53.68,8.63-2.67.94-.6.86-.94-.15-1.48a52.83,52.83,0,0,1-7.89-5c-3.35-2.61-7.56-2.85-10.74,0-8.86,8-15.57,17.17-14.06,30,0,.47,0,.95,0,1.42a8.91,8.91,0,0,0,4.43,7.49c6.28,4,12.91,3.41,19.67,1.7C64.63,114.67,66.78,113.78,69.12,113.8Z"/>
            <path class="e67071f5-0b90-46c4-9419-ccc62c8e45ba" d="M69.12,113.8c-2.34,0-4.49.87-6.71,1.43-6.76,1.71-13.39,2.29-19.67-1.7A8.91,8.91,0,0,1,38.31,106c0-.47,0-1,0-1.42-1.51-12.84,5.2-22,14.06-30,3.18-2.89,7.39-2.65,10.74,0a52.83,52.83,0,0,0,7.89,5c1,.54,1.09.88.15,1.48l-.18-.17c-1.34-1.6-3.34-2.18-5.07-3.16-.19-.1-.26.2-.38.3-.69.58-.8.55-1.12-.13-1.58-3.32-4.83-4.9-8.16-3.75a14.75,14.75,0,0,0-6.71,4.42c-5.89,7.07-9.76,14.92-10.21,24.32a9,9,0,0,0,2.87,7.57,13.41,13.41,0,0,0,8.39,3.72A50.83,50.83,0,0,0,64.73,113c1.82-.4,3.82-.12,5.46-1.28l1.3.67Z"/>
            <path class="e67071f5-0b90-46c4-9419-ccc62c8e45ba" d="M73,78.53c-3.63-1.13-6.35-3.51-8.84-6.22a3.62,3.62,0,0,1,2.75,1.52c1.55,1.6,3.54,2.47,5.43,3.52a1.19,1.19,0,0,0,1.9-.74c.71-2-1-5.32-3-6.27-3.11-1.41-5.8,0-8.49,1.27l-.46-.27,2.59-2.58c.74.86,1.55.33,2.37.15,3.78-.82,6.8.63,7.93,3.85a20.6,20.6,0,0,1,.52,2.58l.56-1c.25.91-.31,1.57-.7,2.29,0,.24-1.09.16-.24.56a4.78,4.78,0,0,0,1.82,0c2.93.07,3.83.79,4.69,3.52a6.74,6.74,0,0,1-1.39,6.6c-3.62,4.57-8.59,7.12-13.84,9.3a3.78,3.78,0,0,1-3.6-.4l-.55,0,.22-1.48c1,.41,1.84,1,3,.66,1.83-.61-.71-1.87.57-2.63.36,1.11.82,2.47,2.27,1.66,3.89-2.17,7.93-4.17,11.07-7.42.89-.92,1.88-2,1.78-3.47C81.07,79.27,77.23,77,73,78.53Z"/>
            <path class="fe31db14-ff67-4f4f-9860-4f3dd5549a8e" d="M63,96.27a3.78,3.78,0,0,0,3.6.4c5.25-2.18,10.22-4.73,13.84-9.3a6.74,6.74,0,0,0,1.39-6.6C80.94,78,80,77.32,77.11,77.25a4.78,4.78,0,0,1-1.82,0c-.85-.4.26-.32.24-.56l.2,0C81.67,75.68,85.06,79.1,84,85c-.11.59-.53,1.19.53,1.26a1.71,1.71,0,0,0,0,.32c-1,0-1.31.7-1.81,1.36-4.55,6-10.5,9.61-18.23,10C63.78,97.5,63.11,97.13,63,96.27Z"/>
            <path class="bb1c95d0-a3f8-4238-a849-acd718bd2bc0" d="M84.48,86.55a1.71,1.71,0,0,1,0-.32A4.53,4.53,0,0,1,86.68,86c2.77.19,4.15,2.5,2.83,4.95a27.68,27.68,0,0,1-2.45,3.41c-.43.58-1,1.09-.42,1.89-.36,0-.83-.3-.93.35-1-.19-.76.86-1.25,1.18-.53.05-.83.31-.82.86h0c-2.11,1.42-4.16,2.94-6.35,4.22-2.42,1.42-4.9,2.9-7.94,2.41a4,4,0,0,1-2.57-3.46c.2-.54-.21-1.28.55-1.63,0,.16.07.31.1.46a1,1,0,0,0,.24,1.22c.51,1.52,1.55,2.59,3.17,2a30.28,30.28,0,0,0,11.7-7.55c1.28-1.37,2.62-2.68,3.83-4.11,1-1.16,2.75-2,2.2-3.94C88,86.14,85.91,87,84.48,86.55Z"/>
            <path class="ee73117d-c410-4485-8028-e9a9f77c16aa" d="M31.16,65c8.47-7.43,18-13.93,20.88-26a10.13,10.13,0,0,1-.71,6.82C47,54.4,40.24,60.59,31.78,65,31.62,65.12,31.39,65,31.16,65Z"/>
            <path class="b2e2d445-ce15-481c-a866-bbab6d89b717" d="M71.49,112.39l-1.3-.67c-1.48-1.24-1.39-2.89-1.23-4.56h.45l.18,1.17c.18,2.68,1.88,3.56,4.54,2.1a70.5,70.5,0,0,0,12.37-8.5c2-1.75,2.11-2.86.84-5.27,1.93.41,2.13,1.85,1.91,3.38a6.57,6.57,0,0,1-2.13,3.6,40.28,40.28,0,0,1-11.47,7.94A8.93,8.93,0,0,1,71.49,112.39Z"/>
            <path class="ee73117d-c410-4485-8028-e9a9f77c16aa" d="M35.52,24.23a24.28,24.28,0,0,1,26.66-.4A39.32,39.32,0,0,0,35.52,24.23Z"/>
            <path class="ee73117d-c410-4485-8028-e9a9f77c16aa" d="M81.26,18.09a23.23,23.23,0,0,1,6.37,8.74A50.66,50.66,0,0,1,91.45,41.6C88,33.8,86.21,25.31,80.87,18.4Z"/>
            <path class="e67071f5-0b90-46c4-9419-ccc62c8e45ba" d="M87.34,96.65c1.27,2.41,1.17,3.52-.84,5.27a70.5,70.5,0,0,1-12.37,8.5c-2.66,1.46-4.36.58-4.54-2.1.85.38.87,1.84,2.38,1.46s.33-1.53.93-2.37c.53,1.66,1.37,1.32,2.34.65.66-.47,1.4-.83,2.1-1.24a40.9,40.9,0,0,0,7.94-5.66c1.51-1.47,2.3-2.85.43-4.52.1-.65.57-.36.93-.35l.06,0,.66.43Z"/>
            <path class="ee73117d-c410-4485-8028-e9a9f77c16aa" d="M67.21,126.21A66.35,66.35,0,0,1,85.53,115,80.92,80.92,0,0,1,67.21,126.21Z"/>
            <path class="ee73117d-c410-4485-8028-e9a9f77c16aa" d="M29.72,93.8c-1.07,7.1,1.62,13.71,2.78,20.5C29.22,107.73,26.6,101.07,29.72,93.8Z"/>
            <path class="ee73117d-c410-4485-8028-e9a9f77c16aa" d="M15.51,59.67c.62,6-.4,12.45,2,18.38C14.2,76.12,13,65.31,15.51,59.67Z"/>
            <path class="ee73117d-c410-4485-8028-e9a9f77c16aa" d="M32.46,131.46a37.26,37.26,0,0,1,14.74,9.37A78.74,78.74,0,0,1,32.46,131.46Z"/>
            <path class="ee73117d-c410-4485-8028-e9a9f77c16aa" d="M14.46,97.53c2.65,4.32,2.47,13.08-.87,17A47.54,47.54,0,0,0,14.46,97.53Z"/>
            <path class="ee73117d-c410-4485-8028-e9a9f77c16aa" d="M107.75,86.19c-5.07-4-6.66-11.59-3.18-16.65a22.32,22.32,0,0,0-.22,8c.33,3.2,2,5.78,3.61,8.41Z"/>
            <path class="ee73117d-c410-4485-8028-e9a9f77c16aa" d="M70.42,51.51a65.11,65.11,0,0,1-15.88,6.21A42.52,42.52,0,0,1,70.42,51.51Z"/>
            <path class="ee73117d-c410-4485-8028-e9a9f77c16aa" d="M79.92,134.41c2.38-2.81,10.19-6.55,15.06-7.31A90.7,90.7,0,0,1,79.92,134.41Z"/>
            <path class="b2e2d445-ce15-481c-a866-bbab6d89b717" d="M76.23,74.35l-.56,1a20.6,20.6,0,0,0-.52-2.58C74,69.54,71,68.09,67.22,68.91c-.82.18-1.63.71-2.37-.15,2.06-1.07,4.16-2,6.57-1.37C74.66,68.16,75.87,69.91,76.23,74.35Z"/>
            <path class="ee73117d-c410-4485-8028-e9a9f77c16aa" d="M84.35,53.94c-2.16-4.27-2.67-9.06-4.39-13.45C83.29,44.34,83.91,49.12,84.35,53.94Z"/>
            <path class="ee73117d-c410-4485-8028-e9a9f77c16aa" d="M80.21,147.09a26.21,26.21,0,0,1-10.53,6.64A40.24,40.24,0,0,1,80.21,147.09Z"/>
            <path class="ee73117d-c410-4485-8028-e9a9f77c16aa" d="M19.18,24.38A53,53,0,0,1,15,30.09a15.66,15.66,0,0,0-2.68,4.77c-.61-2.94,1.83-6.81,6.67-10.68Z"/>
            <path class="ee73117d-c410-4485-8028-e9a9f77c16aa" d="M12.3,51.68A24.75,24.75,0,0,1,18.42,40.9,49.68,49.68,0,0,1,12.3,51.68Z"/>
            <path class="ee73117d-c410-4485-8028-e9a9f77c16aa" d="M55.72,151.1l-12.66,2.8C46.11,151.65,51,150.54,55.72,151.1Z"/>
            <path class="bb1c95d0-a3f8-4238-a849-acd718bd2bc0" d="M101.4,102.22l-.64,8.41A10,10,0,0,1,101.4,102.22Z"/>
            <polygon class="ee73117d-c410-4485-8028-e9a9f77c16aa" points="95.56 126.77 95.39 126.81 95.54 126.89 95.56 126.77"/>
            <path class="ee73117d-c410-4485-8028-e9a9f77c16aa" d="M80.87,18.4a4,4,0,0,1-.33-.54c.33-.25.55-.09.72.23Z"/>
            <path class="b2e2d445-ce15-481c-a866-bbab6d89b717" d="M87.36,96.69l-.66-.43C87,96.23,87.35,96.23,87.36,96.69Z"/>
            <path class="ee73117d-c410-4485-8028-e9a9f77c16aa" d="M19.45,23.83l.18-.18s0,.09-.05.11a.47.47,0,0,1-.17,0Z"/>
            <path class="ee73117d-c410-4485-8028-e9a9f77c16aa" d="M19.41,23.8a.45.45,0,0,1-.23.58l-.2-.2a.4.4,0,0,1,.47-.35Z"/>
            <path class="ee73117d-c410-4485-8028-e9a9f77c16aa" d="M108,86c.05.14.19.39.16.41-.21.14-.31,0-.37-.2Z"/>
            <path class="ef682daa-09d1-4451-808d-1d0517bb4ab1" d="M73,78.53c4.22-1.58,8.06.74,8.35,5,.1,1.51-.89,2.55-1.78,3.47-3.14,3.25-7.18,5.25-11.07,7.42-1.45.81-1.91-.55-2.27-1.66-1.28.76,1.26,2-.57,2.63-1.19.39-2.06-.25-3-.66,0-.13-.07-.26-.1-.4s.09-.12.07-.16a1.59,1.59,0,0,0-.16-.32,16.87,16.87,0,0,0-1.28-5.28c1.56.18,3.14.49,4.43-.8,3.64-2,8.16-2.9,9.45-8l-1.29.64C74.06,79.61,73.57,79.05,73,78.53Z"/>
            <path class="ef682daa-09d1-4451-808d-1d0517bb4ab1" d="M62.72,71.61c2.69-1.31,5.38-2.68,8.49-1.27,2.08,1,3.75,4.26,3,6.27a1.19,1.19,0,0,1-1.9.74c-1.89-1-3.88-1.92-5.43-3.52a3.62,3.62,0,0,0-2.75-1.52Z"/>
            <path class="e67071f5-0b90-46c4-9419-ccc62c8e45ba" d="M71.11,81c-2.1,3.35-5.24,3.39-8.63,2.67a10.79,10.79,0,0,0-5.82-1.25c2.26-1.45,4.73-1.42,7.22-.91s4.81.61,7.05-.68Z"/>
            <path class="e67071f5-0b90-46c4-9419-ccc62c8e45ba" d="M73.76,80.46l1.29-.64c-1.29,5.07-5.81,6-9.45,8,.14-.87-.19-.87-.82-.47a4,4,0,0,1-4,.3.24.24,0,0,0-.1-.26l-.1-.7c1.72.21,3.48.51,4.65-1.26C69.43,86,71.91,83.78,73.76,80.46Z"/>
            <path class="a67d09ff-1639-4542-b141-1597a474ad69" d="M65.25,85.4c-1.17,1.77-2.93,1.47-4.65,1.26a6.06,6.06,0,0,0-2-2.23L59,86.3c-.5,1.13-.06,2.34-.28,3.49-.88-2.17,0-4.55-.83-6.72a10.65,10.65,0,0,1,3.58.7C62.49,84.82,64,84.8,65.25,85.4Z"/>
            <path class="bb1c95d0-a3f8-4238-a849-acd718bd2bc0" d="M61.45,83.77a10.65,10.65,0,0,0-3.58-.7l-2-.22a.23.23,0,0,0,.11-.27l.69-.15a10.78,10.78,0,0,1,5.81,1.25Z"/>
            <path class="b6fc66d8-b368-4eea-a1a7-be3f1a1a7d6a" d="M55.87,82.85l2,.22c.83,2.17,0,4.55.83,6.72.36,4.34.9,8.67,1.59,13v2a21.34,21.34,0,0,0,2.13-8.51l.55,0c.14.86.81,1.23,1.47,1.62-.1,1.46.87,1.64,2,1.62.07.78-.18,1.61.34,2.33a4,4,0,0,0,2.57,3.46c.3.71-.45,1.2-.4,1.86-.16,1.67-.25,3.32,1.23,4.56-1.64,1.16-3.64.88-5.46,1.28a50.83,50.83,0,0,1-14.19,1.13,13.41,13.41,0,0,1-8.39-3.72,9,9,0,0,1-2.87-7.57c.45-9.4,4.32-17.25,10.21-24.32A14.75,14.75,0,0,1,56.2,74.1c3.33-1.15,6.58.43,8.16,3.75.32.68.43.71,1.12.13.12-.1.19-.4.38-.3,1.73,1,3.73,1.56,5.07,3.16-2.24,1.29-4.61,1.18-7.05.68s-5-.54-7.22.91l-.68.15a1.8,1.8,0,0,0-.68.2c-.17.14,0,.38.18.37S55.74,83,55.87,82.85Z"/>
            <path class="a1af9a8d-6f9a-4b1f-9d3a-086cffa73108" d="M62.42,96.23a21.34,21.34,0,0,1-2.13,8.51v-2c.74-3.58.21-7.19.4-10.78,0-.76.31-1.56-.37-2.21l-.49-2.39.87,0a.24.24,0,0,1,.1.26c.12.32.24.65.37,1a16.87,16.87,0,0,1,1.28,5.28c0,.06-.07.12-.05.17a1.73,1.73,0,0,0,.14.31c0,.14.07.27.1.4C62.57,95.24,62.5,95.74,62.42,96.23Z"/>
            <path class="a67d09ff-1639-4542-b141-1597a474ad69" d="M66.45,99.51c-1.14,0-2.11-.16-2-1.62,7.73-.37,13.68-3.94,18.23-10,.5-.66.84-1.38,1.81-1.36,1.43.43,3.49-.41,4.1,1.7.55,1.91-1.22,2.78-2.2,3.94-1.21,1.43-2.55,2.74-3.83,4.11a1.07,1.07,0,0,0-1.11.3,65.3,65.3,0,0,1-9,5.45c-1.16.64-2.28,1.5-3-.49-.29-.81-.88.59-1.25-.1-.12-.39-.24-.77-.75-.79l-.1-.46c.08-.55.2-1.23-.3-1.51C66.73,98.52,66.69,99.25,66.45,99.51Z"/>
            <path class="ef682daa-09d1-4451-808d-1d0517bb4ab1" d="M85.71,96.64c1.87,1.67,1.08,3-.43,4.52a40.9,40.9,0,0,1-7.94,5.66c-.7.41-1.44.77-2.1,1.24-1,.67-1.81,1-2.34-.65-.6.84.6,2-.93,2.37s-1.53-1.08-2.38-1.46l-.18-1.17c.55-.31.45-1.29,1.42-1.19,3.58.35,6.33-1.69,9.1-3.38,1.5-.92,3.4-1.76,3.72-3.91h0c.67.09.84-.3.82-.86C85,97.5,84.73,96.45,85.71,96.64Z"/>
            <path class="e67071f5-0b90-46c4-9419-ccc62c8e45ba" d="M68.19,101.46c.37.69,1-.71,1.25.1.72,2,1.84,1.13,3,.49a65.3,65.3,0,0,0,9-5.45,1.07,1.07,0,0,1,1.11-.3,30.28,30.28,0,0,1-11.7,7.55c-1.62.63-2.66-.44-3.17-2Z"/>
            <path class="e67071f5-0b90-46c4-9419-ccc62c8e45ba" d="M83.65,98.67c-.32,2.15-2.22,3-3.72,3.91-2.77,1.69-5.52,3.73-9.1,3.38-1-.1-.87.88-1.42,1.19H69c0-.66.7-1.15.4-1.86,3,.49,5.52-1,7.94-2.41C79.49,101.61,81.54,100.09,83.65,98.67Z"/>
            <path class="fe696c96-c070-4675-ae97-9559336ca3dc" d="M66.45,99.51c.24-.26.28-1,.59-.81.5.28.38,1,.3,1.51-.76.35-.35,1.09-.55,1.63C66.27,101.12,66.52,100.29,66.45,99.51Z"/>
            <path class="fe696c96-c070-4675-ae97-9559336ca3dc" d="M68.19,101.46l-.51.43a1,1,0,0,1-.24-1.22C68,100.69,68.07,101.07,68.19,101.46Z"/>
            <path class="e67071f5-0b90-46c4-9419-ccc62c8e45ba" d="M84.46,97.82c0,.56-.15,1-.82.86C83.63,98.13,83.93,97.87,84.46,97.82Z"/>
            <path class="bb1c95d0-a3f8-4238-a849-acd718bd2bc0" d="M61.17,88.59c-.13-.32-.25-.65-.37-1a4,4,0,0,0,4-.3c.63-.4,1-.4.82.47C64.31,89.08,62.73,88.77,61.17,88.59Z"/>
            <path class="e67071f5-0b90-46c4-9419-ccc62c8e45ba" d="M62.54,94.35A1.73,1.73,0,0,1,62.4,94c0-.05,0-.11.05-.17a1.59,1.59,0,0,1,.16.32S62.57,94.3,62.54,94.35Z"/>
            <path class="bb1c95d0-a3f8-4238-a849-acd718bd2bc0" d="M60.7,87.36l-.87,0c-.44-.25-.26-1-.85-1.09l-.39-1.87a6.06,6.06,0,0,1,2,2.23C60.63,86.9,60.67,87.13,60.7,87.36Z"/>
            <path class="e67071f5-0b90-46c4-9419-ccc62c8e45ba" d="M59,86.3c.59.13.41.84.85,1.09l.49,2.39A4.54,4.54,0,0,0,60.69,92c-.19,3.59.34,7.2-.4,10.78-.69-4.31-1.23-8.64-1.59-13C58.92,88.64,58.48,87.43,59,86.3Z"/>
            <path class="a67d09ff-1639-4542-b141-1597a474ad69" d="M55.87,82.85c-.13.11-.26.3-.39.3s-.35-.23-.18-.37a1.8,1.8,0,0,1,.68-.2A.23.23,0,0,1,55.87,82.85Z"/>
            <path class="bb1c95d0-a3f8-4238-a849-acd718bd2bc0" d="M60.69,92a4.54,4.54,0,0,1-.37-2.21C61,90.43,60.7,91.23,60.69,92Z"/>
        </g>
    </g>
</svg>