<?xml version="1.0" encoding="utf-8"?>
<?xml-stylesheet type="text/css" href="../style.css"?>
<svg xmlns="http://www.w3.org/2000/svg" viewBox="0 0 87.63 173.04">
    <g id="user-player-layer" data-name="Layer 2">
        <g id="user-player" data-name="person">
            <path class="a54ac354-3ce8-4747-a56f-99d3b1bb261b" d="M49.67,88.27a9,9,0,0,0,3.14.34,16.32,16.32,0,0,0,2.79.72A131.3,131.3,0,0,0,69,90.14c1.41,0,2.83-.41,4.23,0a12.65,12.65,0,0,1-.42,3.22c-1.39.77-.75,1.62-.36,2.46v.39c-.24.69-2,1.32-.34,2.09.65,2.3-2,4.4-1.58,6.67-1.16.13-1.44.44-.74.94l.16,1-.13.53c-1.17.39-1,1-1.09,1.59s.14,1.3-1.56,1.48a21.69,21.69,0,0,0-7.93-2.12l-.78-.41c-.83-.79-3-1.51-.49-2.48.25-.1.13-.38-.14-.53-.85-.46-.38-.8.37-1.12a1.75,1.75,0,0,0,1.12-1c.68-2.15,1.53-4.29,2.11-6.45.3-1.13-1.49-2-2.2-3-.39-.54-1.5-.38-2.25-.56a3.63,3.63,0,0,1-1.19-.42c-1.89-1.26-5-1.66-7.49-2.4-1.56-.46-3.58-.65-5.36-1a30.51,30.51,0,0,0-4.36-.72A66.48,66.48,0,0,0,31.63,88c-.58,0-1.39.13-1.56-.31s-.93-.43-1.61-.44c-2.14,0-4.32.13-6.4,0a7.08,7.08,0,0,0-3.71.43c-.06-.3-.13-.6-.19-.9a26,26,0,0,1,5.77-.64,140.62,140.62,0,0,1,19.25,1.27A48.31,48.31,0,0,0,49.67,88.27Z"/>
            <path class="e998e5ca-ed60-4fba-ac1b-48bcc6757584" d="M58.44,108l.78.41c0,.37.63.39,1.07.55,1.81.67,4.19.87,5.72,1.77-.49.36-1.17.65-1.33,1.12-.92,2.75-3.34,5.32-3.87,8.12a6.15,6.15,0,0,0,2,6v1.3c-.82.15-.49.52-.59.81-.44,1.26-.84,2.53-1.36,3.78-.62,1.5-1.48,3-2,4.48-.42,1.24-.26,1.25-2.79,1.22.13-.72-.13-1.47.48-2.15a3.68,3.68,0,0,0,1.11-2.54c0-.24.34-.41.46-.6.78-1.32,2.06-2.63.69-4v-.75c.9-.08.73-.44.73-.74.07-2.88-2.35-5.12-6.78-6.91-1.3-.52-3.53-.69-3.46-1.88l0-.56A7.21,7.21,0,0,0,52.68,114c1.19-2.31.87-4.69.76-7,0-.51-.57-1-1.83-1.16h0c-.28-.36-.86-.4-1.5-.38l0-.37a4.58,4.58,0,0,1,2.41.35,28.21,28.21,0,0,1,3.72,2A2.82,2.82,0,0,0,58.44,108Z"/>
            <path class="b4b7a337-8138-4306-8e69-58d2f2ced7ce" d="M54.15,33.58l.12.2c0,.32.54.39.9.55.66.3.61.65-.24.67a25.22,25.22,0,0,0-4.36.81c-3,.54-6.22.21-9.36.22-.75,0-1.23-.3-1.33-.69A.84.84,0,0,0,38.74,35c-1.29.93-2.07-.14-3.08-.19-.37,0-.66-.68-.88-1.05-.08-.13.33-.16.57-.17,2.5,0,3-1.12,4.14-1.91a36.93,36.93,0,0,1,5.94,1.72,8.4,8.4,0,0,0,4.52.3A17,17,0,0,1,52.74,33,2.13,2.13,0,0,0,54.15,33.58Z"/>
            <path class="e998e5ca-ed60-4fba-ac1b-48bcc6757584" d="M52.54,31.34c.09.36.18.72.26,1.08l-.12.18a6,6,0,0,0-1.53.31,7.59,7.59,0,0,1-5.57-.29A8.81,8.81,0,0,0,42,31.36c-1.34-.06-1.84-.36-2.14-.91,1.37-.29,2.84.05,4.23-.16a35.88,35.88,0,0,0,4.52,0l2.69.1C51.14,30.89,51.32,31.29,52.54,31.34Z"/>
            <path class="bfbbce85-7a9e-4aa3-91f8-d7ec72b2924b" d="M59.1,138.68l-.38,0c-1.48.08-2.25-.76-3.48-.77-2.77,0-5.63-.35-8.29.34a3,3,0,0,1-1.42.09l-.06-.29,1.14-.52a12.67,12.67,0,0,1,1.62-.15c2.26,0,4.52.08,6.77.13h1.08c2.53,0,2.37,0,2.79-1.22.51-1.5,1.37-3,2-4.48.52-1.25.92-2.52,1.36-3.78.1-.29-.23-.66.59-.81a3.39,3.39,0,0,1-.57,3.25c-.17.2-.41.43-.36.63.52,2.19-1.8,4.08-2.54,6.14A6.22,6.22,0,0,0,59.1,138.68Z"/>
            <path class="a45b740d-d254-4a86-9b6e-c04a6c8c9a8b" d="M67.85,15.07a.53.53,0,0,1,.76-.21c1,.45,2.26.86,1.93,1.7l-.46.68c-.37.15-.29.34-.22.54s-.08.52-.13.78a3.28,3.28,0,0,0-1,1.46c-.17.44-1.14.36-1.58.62l-.41-.22A4.07,4.07,0,0,1,67,19.29,7.66,7.66,0,0,0,67.85,15.07Z"/>
            <path class="bfbbce85-7a9e-4aa3-91f8-d7ec72b2924b" d="M52.68,32.6l.12-.18c.8.28,1.36.64,1.35,1.16A2.13,2.13,0,0,1,52.74,33Z"/>
            <path class="ba96daf3-0610-447b-bb8e-d1543db768ff" d="M58.44,108a2.82,2.82,0,0,1-2.23-.68,28.21,28.21,0,0,0-3.72-2,4.58,4.58,0,0,0-2.41-.35,1,1,0,0,0-.76-.19l-.35-.21c-.26-.53-1.19-.45-1.92-.55l-.73,0c-.06-.21-.23-.39-.7-.33-.71.09-1.2.31-1.13.73l0,1.14a6.65,6.65,0,0,1-2.56.12,62.21,62.21,0,0,0-10.42-.5c-3,.12-6,.29-8.26,1.45l-.48.12-1.28.06-.9-.14-.34-.16-.39,0-.08,0a.42.42,0,0,0-.11-.61,2.51,2.51,0,0,0-.21-1.65c.4-.31.23-.63.08-1,.52-1.24.12-2.4-1.14-3.49-.27-1,.49-2.11-.1-3.16a.59.59,0,0,0,0-1c.34-.37.12-.73,0-1.09,0-.26.07-.51.1-.77.39-.2.43-.4-.07-.57L18,91.86c.64-.69.19-1.42.23-2.12,0-.4.44-.9-.59-1.19v-.63l.68-.26a7.08,7.08,0,0,1,3.71-.43c2.08.18,4.26,0,6.4,0,.68,0,1.4-.07,1.61.44s1,.34,1.56.31a66.48,66.48,0,0,1,6.93.24,30.51,30.51,0,0,1,4.36.72c1.78.39,3.8.58,5.36,1,2.54.74,5.6,1.14,7.49,2.4a3.63,3.63,0,0,0,1.19.42c.75.18,1.86,0,2.25.56.71,1,2.5,1.84,2.2,3-.58,2.16-1.43,4.3-2.11,6.45a1.75,1.75,0,0,1-1.12,1c-.75.32-1.22.66-.37,1.12.27.15.39.43.14.53C55.44,106.5,57.61,107.22,58.44,108ZM39.11,98.14c-3.09,0-3.85.46-3.29,1.8a2.61,2.61,0,0,1,.3.83c0,1.29,1.5,2.36,1.9,3.59.08.24.41.37.87.44,1.07.17,2.12.38,3.2.53.65.08,1.61.15,1.51-.38-.15-.83.6-1.38,1.75-1.87.34-.14.67-.33.49-.57-.55-.72-.16-1.42,0-2.14s-1.09-2-2.29-2C42,98.33,40.36,98.28,39.11,98.14Z"/>
            <path class="b1719641-42a6-4467-bed8-55a729bdc82b" d="M18.25,95.62a.59.59,0,0,1,0,1C17.12,96.32,17.13,96,18.25,95.62Z"/>
            <path class="bfbbce85-7a9e-4aa3-91f8-d7ec72b2924b" d="M19.83,106.5l.39,0,.34.16.9.14-.13.28H19.79Z"/>
            <path class="b1719641-42a6-4467-bed8-55a729bdc82b" d="M19.64,105.92a.42.42,0,0,1,.11.61C18.86,106.37,18.79,106.17,19.64,105.92Z"/>
            <path class="bfbbce85-7a9e-4aa3-91f8-d7ec72b2924b" d="M23.18,107.08l-.53-.2a.24.24,0,0,1,.09-.12l.48-.12.09.41Z"/>
            <path class="ec57c549-2681-4a4a-94da-e8bc06bf69b3" d="M66.31,20.43c.1.23,0,.41-.33.58-1.27.08-1.15.54-1.08,1-.87.88-1.75,1.76-2.62,2.65-.86,0-.84.29-.79.6A14.63,14.63,0,0,1,54,29.11a6.33,6.33,0,0,0-2.42.85c-1,.15-2.23-.29-3,.33a35.88,35.88,0,0,1-4.52,0c-1.52-.49-3.44-.39-5-.84a1.59,1.59,0,0,0-.36.19c-1.38-.17-1.9-.88-3-1.21a84.9,84.9,0,0,1-8.83-6.74c-.11-.41-.64-.7-1.12-1,.14-.15,0-.29-.14-.42-.41-1.78-1.43-3.53-1.39-5.35a.25.25,0,0,0,0-.43c.55-.58.12-1.2.2-1.8,1.45-.54,1.37-1.28,1-2,.31-.28.13-.6.37-.91.9-1.17,1.64-2.36,2.45-3.55,2.08-.08,2-1.28,3.64-1.74,1.06-.3,1.56-.61,2.55-.16a3.73,3.73,0,0,0,3.47,0,5,5,0,0,1,1.92-.58C41.88,3.49,43.91,3.15,46,3s3.55.74,2.89,1.72c-.26.38-1.5.69-.61,1.14A7.05,7.05,0,0,0,50.82,6a6.46,6.46,0,0,0,2.89-.56,9,9,0,0,1,5.45-.64c.72.15,1.82.2,1.32-.55-.16-.23-.18-.45.43-.51S62.09,3.79,62,4c-.52.74.89,1.41.19,2.11-.33.34-.53.66.28.77s1.18-.25,1.21-.57a6.3,6.3,0,0,0-.06-2.37c-.1-.39.18-.58.53-.82l.78.18c0,.28-.27.58.29.81,0,.58,0,1.15,0,1.72-1.28.8-1.09,1.31.65,1.73.08.81.17,1.62.26,2.44-.88.2-.3.68-.75,1-1,.64,0,.72,1,.76l.1,1.31c.14.73-.9,1.55.68,2.16a11.64,11.64,0,0,1-.24,2.35C66.7,18.48,65.29,19.41,66.31,20.43Z"/>
            <path class="bfbbce85-7a9e-4aa3-91f8-d7ec72b2924b" d="M25.58,20.26c.18.13.28.27.14.42-1.93-.53-3.65-1.11-4-2.36-.19-.61-1.25-1.08-1.15-1.82.18-1.28,1-1.84,3.61-2,.2.13.17.28,0,.42-.32.06-.61.16-.57.33C24,16.94,23.21,18.76,25.58,20.26Z"/>
            <path class="bfbbce85-7a9e-4aa3-91f8-d7ec72b2924b" d="M26.84,21.69a84.9,84.9,0,0,0,8.83,6.74c-1.33-.12-1.72-.75-2.48-1.18a31.26,31.26,0,0,1-6.42-5C26.58,22.05,26.61,21.86,26.84,21.69Z"/>
            <path class="e8d22f07-1849-4222-bf84-bd5804dc9566" d="M38.69,29.64a1.59,1.59,0,0,1,.36-.19c1.56.45,3.48.35,5,.84-1.39.21-2.86-.13-4.23.16l-.38,0-.14,0-.14,0Z"/>
            <path class="e998e5ca-ed60-4fba-ac1b-48bcc6757584" d="M24.24,12c.91-.33.21-1,1.13-1.33.35.77.43,1.51-1,2C24.32,12.44,24.28,12.2,24.24,12Z"/>
            <path class="e8d22f07-1849-4222-bf84-bd5804dc9566" d="M28.19,6.17c.28-.72,1.44-1.21,1.91-1.88a.92.92,0,0,0,.76-.38C32,1.77,35.77,1.38,39.1.84A71.3,71.3,0,0,1,59.32.61c1.4.18,2.9.07,4.26.36.34.07.78.16.8.36s-.5.22-.85.25c-.68,0-1.53,0-1.61.48s.83.47,1.4.64a6.17,6.17,0,0,1,.82.37c-.35.24-.63.43-.53.82a6.3,6.3,0,0,1,.06,2.37c0,.32-.5.67-1.21.57s-.61-.43-.28-.77c.7-.7-.71-1.37-.19-2.11.1-.16-.62-.28-1.08-.24s-.59.28-.43.51c.5.75-.6.7-1.32.55a9,9,0,0,0-5.45.64A6.46,6.46,0,0,1,50.82,6a7.05,7.05,0,0,1-2.56-.15c-.89-.45.35-.76.61-1.14.66-1-.74-1.92-2.89-1.72s-4.1.53-6.21.68a5,5,0,0,0-1.92.58,3.73,3.73,0,0,1-3.47,0c-1-.45-1.49-.14-2.55.16C30.22,4.89,30.27,6.09,28.19,6.17ZM38.71,2.39c0-.26-.23-.41-.78-.4s-1,.13-1,.43.32.48.91.47S38.67,2.68,38.71,2.39Z"/>
            <path class="e8d22f07-1849-4222-bf84-bd5804dc9566" d="M66.31,20.43c-1-1,.39-1.95.56-2.92a11.64,11.64,0,0,0,.24-2.35l.74-.09A7.66,7.66,0,0,1,67,19.29a4.07,4.07,0,0,0-.28,1.13Z"/>
            <path class="e8d22f07-1849-4222-bf84-bd5804dc9566" d="M65.87,7.51c-1.74-.42-1.93-.93-.65-1.73C66.35,6.27,65.89,6.91,65.87,7.51Z"/>
            <path class="e8d22f07-1849-4222-bf84-bd5804dc9566" d="M66.33,11.69c-1,0-1.91-.12-1-.76.45-.3-.13-.78.75-1l.58,1.17Z"/>
            <path class="bfbbce85-7a9e-4aa3-91f8-d7ec72b2924b" d="M66.33,11.69l.38-.57c.49.65,1,1.3-.28,1.88C66.4,12.56,66.37,12.12,66.33,11.69Z"/>
            <path class="e8d22f07-1849-4222-bf84-bd5804dc9566" d="M65.21,4.06c-.56-.23-.3-.53-.29-.81C65.88,3.44,66,3.71,65.21,4.06Z"/>
            <path class="e998e5ca-ed60-4fba-ac1b-48bcc6757584" d="M74,65.35a2.17,2.17,0,0,1-.36,0c0-.7-.08-1.39-.11-2.09,0-.34,0-.69.09-1,.1-.92-.35-1.88.68-2.75l1.22,0a.83.83,0,0,0,1,0l1.56-.07c2.28,0,4.26-.67,6.5-.78l1.48-.07c1.81,2.29,1.49,4.69,1.54,7.08,0,.71-.39.92-1.81.93A38.17,38.17,0,0,1,75,65.28,1.25,1.25,0,0,0,74,65.35Z"/>
            <path class="bd480672-7a72-4067-bc67-590a52afaddf" d="M76.55,59.46a.83.83,0,0,1-1,0A.89.89,0,0,1,76.55,59.46Z"/>
            <path class="ba96daf3-0610-447b-bb8e-d1543db768ff" d="M67.15,110.54a2.4,2.4,0,0,1-1.14.2c-1.53-.9-3.91-1.1-5.72-1.77-.44-.16-1.1-.18-1.07-.55A21.69,21.69,0,0,1,67.15,110.54Z"/>
            <path class="ba96daf3-0610-447b-bb8e-d1543db768ff" d="M72.43,96.24c.66.73.72,1.43-.34,2.09C70.39,97.56,72.19,96.93,72.43,96.24Z"/>
            <path class="ba96daf3-0610-447b-bb8e-d1543db768ff" d="M72.79,93.39c-.07.82.41,1.66-.36,2.46C72,95,71.4,94.16,72.79,93.39Z"/>
            <path class="ba96daf3-0610-447b-bb8e-d1543db768ff" d="M70.51,105a1.39,1.39,0,0,1-.74.94C69.07,105.44,69.35,105.13,70.51,105Z"/>
            <path class="b4b7a337-8138-4306-8e69-58d2f2ced7ce" d="M49.32,104.82a1,1,0,0,1,.76.19c0,.13,0,.25,0,.37.13.5.92.34,1.51.38h0a22.64,22.64,0,0,1,.6,2.25,8.41,8.41,0,0,1-2.07,7.56c-.51.59-1,1.16-.79,1.81,0,.19,0,.37,0,.56-1.58.8-1.21,1.6.73,2a11.53,11.53,0,0,1,3.57,1.17,18.84,18.84,0,0,1,3.84,3.27,3.82,3.82,0,0,1,1.37,3.14v.75a2.76,2.76,0,0,0-1.65,2,3.33,3.33,0,0,1-.35,1.58c-1.22,1.86-2,3.74-1.82,5.71-2.25,0-4.51-.11-6.77-.13a12.67,12.67,0,0,0-1.62.15c-1.39-.7-1.66-1.55-1.42-2.48,1.84.06,1.45.87,1.86,1.41.13.17,0,.42.52.43s.61-.25.62-.47c.07-1.3-1.07-2.53-.84-3.84,0-.12-.27-.3-.5-.39a1.19,1.19,0,0,1-.93-1.37c0-2.47-.05-4.94,0-7.42,0-.8-.43-1-1.91-.73a4.86,4.86,0,0,0-.1-2.15c-.44-.92.36-2-1.08-2.76A13.59,13.59,0,0,0,44,114.28c.11-3-.14-6.07,1.51-9,.3-.55.68-.66,1.59-.63h.36C47.85,105.2,48.57,105.06,49.32,104.82Zm-.73,16.47c-.07-.26.11-.66-.55-.62-.89.07-.82.56-.94.9s0,.71.66.63S48.45,121.61,48.59,121.29Z"/>
            <path class="a45b740d-d254-4a86-9b6e-c04a6c8c9a8b" d="M55,137.54c-.23-2,.6-3.85,1.82-5.71a3.33,3.33,0,0,0,.35-1.58,2.76,2.76,0,0,1,1.65-2c1.37,1.41.09,2.72-.69,4-.12.19-.47.36-.46.6a3.68,3.68,0,0,1-1.11,2.54c-.61.68-.35,1.43-.48,2.15Z"/>
            <path class="a45b740d-d254-4a86-9b6e-c04a6c8c9a8b" d="M58.82,127.47a3.82,3.82,0,0,0-1.37-3.14,18.84,18.84,0,0,0-3.84-3.27A11.53,11.53,0,0,0,50,119.89c-1.94-.35-2.31-1.15-.73-2-.07,1.19,2.16,1.36,3.46,1.88,4.43,1.79,6.85,4,6.78,6.91C59.55,127,59.72,127.39,58.82,127.47Z"/>
            <path class="a45b740d-d254-4a86-9b6e-c04a6c8c9a8b" d="M49.35,117.38c-.17-.65.28-1.22.79-1.81A8.41,8.41,0,0,0,52.21,108a22.64,22.64,0,0,0-.6-2.25c1.26.12,1.81.65,1.83,1.16.11,2.36.43,4.74-.76,7A7.21,7.21,0,0,1,49.35,117.38Z"/>
            <path class="b4b7a337-8138-4306-8e69-58d2f2ced7ce" d="M34.22,160.68l-2.5-8.47-3.66-9.11-2.12-8.59-.22-7.73-1-9-1.54-11.11c5.13-3.68,12.16-3.8,20.38-1.69l-1.43,41-1.46,4.37,2.46,2.51.43,8.75Z"/>
            <path class="a45b740d-d254-4a86-9b6e-c04a6c8c9a8b" d="M51.6,105.76c-.59,0-1.38.12-1.51-.38C50.74,105.36,51.32,105.4,51.6,105.76Z"/>
            <path class="bb166d50-5e1f-44b6-80cb-5d255a8bb600" d="M36.8,160.66a2.26,2.26,0,0,1,1.09.14l.36.34C37.42,161.24,37.23,160.86,36.8,160.66Z"/>
            <path class="bd480672-7a72-4067-bc67-590a52afaddf" d="M41.11,151.45c0-.26-.1-.53-.14-.79.49-.22.24-.3-.26-.34l-.09-.41c.53-.3.52-.6,0-.91l.06-.4c1-.09.68-.54.86-.82a2.32,2.32,0,0,1,.93-1.07c.53-.05,1-.15,1.1-.44.37-.92,2-1.29,3.24-1.75,2.17-.79,2.27-1.09-.06-1.79-2.91-.87-3.59-2.12-2-3.6.27-.25.5-.51.75-.77a2.83,2.83,0,0,0,1.42-.08c2.66-.69,5.52-.38,8.29-.34,1.23,0,2,.85,3.48.77.05.63.1,1.26.14,1.9,0,1,.24,1.88-2.08,2.53-2,.56-1.82,1.06-.21,2a15.28,15.28,0,0,0,2.62,1.33,1.23,1.23,0,0,1,.84.91c.87,2.35-1.24,4.18-4,5.88a19.61,19.61,0,0,1-3.68,2.22c-.07-.38.32-.85-.7-1.06a1.29,1.29,0,0,0-.64.1c-.56.44.66.62.59,1a1.49,1.49,0,0,0-.9.43,1.74,1.74,0,0,1-2,.13c-2.22-.91-4.35-1.85-5.55-3.2-.07-.08-.4-.11-.6-.16a.59.59,0,0,0-.21-.1c.21-.28.14-.49-.55-.55a.34.34,0,0,0-.09-.18C41.76,151.61,41.56,151.48,41.11,151.45Zm12.11.2c1.39-.63,1.57-1.59,2.51-2.35,1.27-1,0-2.26.3-3.42.14-.49-1.64-.42-2.27-.83s-1.77-.19-2.66-.3c-2-.22-4.67.36-5.06,1.29-.53,1.27-1,2.58-.1,3.88l0,1.33a4.36,4.36,0,0,0,2.64,2.11c1.23.46,3.12.07,3.69-.74Zm-1.53-12.79c-.51,0-.9,0-1.26.06-2.14.27-2.92,1.17-1.78,2.05s4.88,1.25,6.72.71.71-1.36,1.06-2c.17-.32-.76-.48-1.35-.54C53.92,139,52.73,138.94,51.69,138.86Z"/>
            <path class="bc416d79-e5cb-4f32-a2b0-b9d616bf05ed" d="M51.6,155.47c.07-.38-1.15-.56-.59-1a1.29,1.29,0,0,1,.64-.1c1,.21.63.68.7,1.06Z"/>
            <path class="a45b740d-d254-4a86-9b6e-c04a6c8c9a8b" d="M39.44,30.49l.38,0c.3.55.8.85,2.14.91a8.81,8.81,0,0,1,3.62,1.26,7.59,7.59,0,0,0,5.57.29,6,6,0,0,1,1.53-.31l.06.41A17,17,0,0,0,50,33.7a8.4,8.4,0,0,1-4.52-.3,36.93,36.93,0,0,0-5.94-1.72C39.47,31.28,39.46,30.89,39.44,30.49Z"/>
            <path class="b4b7a337-8138-4306-8e69-58d2f2ced7ce" d="M34.54,34.61c0,.12-.11.23-.34.15a.32.32,0,0,1-.25-.21c0-.09.14-.18.34-.12A.56.56,0,0,1,34.54,34.61Z"/>
            <path class="bc416d79-e5cb-4f32-a2b0-b9d616bf05ed" d="M51.22,36.25c-.09.3-.25.49-.78.14A1,1,0,0,1,51.22,36.25Z"/>
            <path class="e8d22f07-1849-4222-bf84-bd5804dc9566" d="M48.57,30.29c.77-.62,2-.18,3-.33l.15.19-.46.24Z"/>
            <path class="bb166d50-5e1f-44b6-80cb-5d255a8bb600" d="M44.45,138.14l1-.06.06.29c-.25.25-.48.51-.75.76-1.61,1.48-.93,2.73,2,3.6,2.33.7,2.23,1,.06,1.79-1.24.46-2.87.83-3.24,1.75-.12.29-.57.39-1.1.44l-.36-.22.05-.54.41,0c.85-.2,1.1-.67,1.71-1a1.48,1.48,0,0,0,.08-2.47A1.72,1.72,0,0,1,43.26,141,3.19,3.19,0,0,1,44.45,138.14Z"/>
            <path class="e8d22f07-1849-4222-bf84-bd5804dc9566" d="M64.9,22c-.07-.45-.19-.91,1.08-1l-.47.72Z"/>
            <path class="e8d22f07-1849-4222-bf84-bd5804dc9566" d="M61.49,25.25c-.05-.31-.07-.6.79-.6C62.31,24.94,62,25.14,61.49,25.25Z"/>
            <path class="a54ac354-3ce8-4747-a56f-99d3b1bb261b" d="M39.11,98.14c1.25.14,2.86.19,4.49.21,1.2,0,2.54,1.2,2.29,2s-.6,1.42,0,2.14c.18.24-.15.43-.49.57-1.15.49-1.9,1-1.75,1.87.1.53-.86.46-1.51.38-1.08-.15-2.13-.36-3.2-.53-.46-.07-.79-.2-.87-.44-.4-1.23-1.92-2.3-1.9-3.59a2.61,2.61,0,0,0-.3-.83C35.26,98.6,36,98.13,39.11,98.14Z"/>
            <path class="a45b740d-d254-4a86-9b6e-c04a6c8c9a8b" d="M42.87,117.79h-.56c-1.3-.7-.3-1.52,0-2.14.91-2.08.51-4.16.61-6.24a5,5,0,0,1,1.73-3.51c.14-.13.08-.24-.16-.33l0-1.14,1.83-.4.73,0,0,.55c-.91,0-1.29.08-1.59.63-1.65,3-1.4,6-1.51,9A13.59,13.59,0,0,1,42.87,117.79Z"/>
            <path class="e998e5ca-ed60-4fba-ac1b-48bcc6757584" d="M47.08,104.61l0-.55c.73.1,1.66,0,1.92.55H47.08Z"/>
            <path class="e998e5ca-ed60-4fba-ac1b-48bcc6757584" d="M46.32,104l-1.83.4c-.07-.42.42-.64,1.13-.73C46.09,103.64,46.26,103.82,46.32,104Z"/>
            <path class="a45b740d-d254-4a86-9b6e-c04a6c8c9a8b" d="M47.44,104.62H49l.35.21C48.57,105.06,47.85,105.2,47.44,104.62Z"/>
            <path class="bfbbce85-7a9e-4aa3-91f8-d7ec72b2924b" d="M18.32,93.76c-.49-.17-.54-.36-.07-.57C18.75,93.36,18.71,93.56,18.32,93.76Z"/>
            <path class="e998e5ca-ed60-4fba-ac1b-48bcc6757584" d="M20.56,106.68l-.34-.16Z"/>
            <path class="e998e5ca-ed60-4fba-ac1b-48bcc6757584" d="M25.58,20.26c-2.37-1.5-1.6-3.32-2-5,0-.17.25-.27.57-.33C24.15,16.73,25.17,18.48,25.58,20.26Z"/>
            <path class="ec57c549-2681-4a4a-94da-e8bc06bf69b3" d="M38.71,2.39c0,.29-.31.5-.89.5s-1-.17-.91-.47.45-.43,1-.43S38.72,2.13,38.71,2.39Z"/>
            <path class="bd480672-7a72-4067-bc67-590a52afaddf" d="M14.31,51.65,14,51.29l.72-.06.21.11C14.89,51.52,14.7,51.63,14.31,51.65Z"/>
            <path class="ec57c549-2681-4a4a-94da-e8bc06bf69b3" d="M12.83,49.92s-.06.12-.13.14a1.25,1.25,0,0,1-.29-.06s.06-.13.13-.14A.68.68,0,0,1,12.83,49.92Z"/>
            <path class="e998e5ca-ed60-4fba-ac1b-48bcc6757584" d="M17.17,68.24c-.7-.33-.25-.75-.38-1.13l.67-.19C17.48,67.36,17.83,67.83,17.17,68.24Z"/>
            <path class="a45b740d-d254-4a86-9b6e-c04a6c8c9a8b" d="M44.79,132.41c-.79-.17-.76-.53-.76-.88,0-2.94,0-5.89,0-8.83,1.48-.31,1.94-.07,1.91.73-.09,2.48,0,4.95,0,7.42a1.19,1.19,0,0,0,.93,1.37c.23.09.52.27.5.39-.23,1.31.91,2.54.84,3.84,0,.22,0,.49-.62.47s-.39-.26-.52-.43c-.41-.54,0-1.35-1.86-1.41,0-.38,0-.76,0-1.14C45.68,133.4,46.09,132.86,44.79,132.41Z"/>
            <path class="a45b740d-d254-4a86-9b6e-c04a6c8c9a8b" d="M48.59,121.29c-.14.32-.08.82-.83.91s-.75-.36-.66-.63,0-.83.94-.9C48.7,120.63,48.52,121,48.59,121.29Z"/>
            <path class="ba96daf3-0610-447b-bb8e-d1543db768ff" d="M42.12,146.49l.36.22a2.32,2.32,0,0,0-.93,1.07c-.18.28.1.73-.86.82a2.47,2.47,0,0,1,1.09-2.08A1.87,1.87,0,0,0,42.12,146.49Z"/>
            <path class="ba96daf3-0610-447b-bb8e-d1543db768ff" d="M40.63,149c.51.31.52.61,0,.91C40.09,149.6,40.09,149.3,40.63,149Z"/>
            <path class="ba96daf3-0610-447b-bb8e-d1543db768ff" d="M41.81,152c.69.06.76.27.55.55C41.67,152.51,41.79,152.25,41.81,152Z"/>
            <path class="ba96daf3-0610-447b-bb8e-d1543db768ff" d="M40.71,150.32c.5,0,.75.12.26.34C40.67,150.59,40.65,150.46,40.71,150.32Z"/>
            <path class="ba96daf3-0610-447b-bb8e-d1543db768ff" d="M41.11,151.45c.45,0,.65.16.61.39C41.25,151.81,41,151.7,41.11,151.45Z"/>
            <path class="e6de998a-917d-4e7a-add4-27b17395cf56" d="M46,151.25c0-.44,0-.88,0-1.32.11-.15.31-.28.32-.43.14-1.29-.8-2.72,2.08-3.65.5-.17.19-.89,1.53-.58.75.18,1.49-.18,2.36,0,2.92.71,4.31,2.4,2.57,3.78a5.14,5.14,0,0,0-1.58,2.57c-.3.33-.61.65-.91,1-2.79.38-3.68.22-5.39-.94A1.51,1.51,0,0,0,46,151.25Z"/>
            <path class="e6de998a-917d-4e7a-add4-27b17395cf56" d="M51.69,138.86c1,.08,2.23.13,3.39.25.59.06,1.52.22,1.35.54-.35.67.71,1.5-1.06,2s-5.56.21-6.72-.71-.36-1.78,1.78-2.05C50.79,138.88,51.18,138.89,51.69,138.86Z"/>
            <path class="bc416d79-e5cb-4f32-a2b0-b9d616bf05ed" d="M53.22,151.65a5.14,5.14,0,0,1,1.58-2.57c1.74-1.38.35-3.07-2.57-3.78-.87-.21-1.61.15-2.36,0-1.34-.31-1,.41-1.53.58-2.88.93-1.94,2.36-2.08,3.65,0,.15-.21.28-.32.43-.87-1.31-.43-2.62.1-3.89.39-.93,3.06-1.51,5.06-1.29.89.11,2-.15,2.66.3s2.41.34,2.27.83c-.33,1.16,1,2.38-.3,3.42C54.79,150.06,54.61,151,53.22,151.65Z"/>
            <path class="bc416d79-e5cb-4f32-a2b0-b9d616bf05ed" d="M46,151.25a1.51,1.51,0,0,1,.94.43c1.71,1.16,2.6,1.32,5.39.94-.57.81-2.46,1.2-3.69.74A4.36,4.36,0,0,1,46,151.25Z"/>
            <path class="b4b7a337-8138-4306-8e69-58d2f2ced7ce" d="M44.79,132.41c1.3.45.89,1,.35,1.53C44.44,133.47,44.92,132.92,44.79,132.41Z"/>
            <polygon class="bfbbce85-7a9e-4aa3-91f8-d7ec72b2924b" points="31.97 34.46 39.81 30.45 44.38 32.02 47.45 33.21 52.68 32.6 58.82 34.6 51.22 36.25 44.78 36.58 38.71 35.99 35.67 35.48 31.97 34.46"/>
            <path class="b4b7a337-8138-4306-8e69-58d2f2ced7ce" d="M3.32,45.86l11.44,5.37-3.07,2.71-.16,9.16,1.33,1.53L17.93,66l-.07,11.81c-4.61-1.08-8.92-3.73-12.75-9L.2,57.36C-.45,54.19.44,50.41,3.32,45.86Z"/>
            <path class="bc416d79-e5cb-4f32-a2b0-b9d616bf05ed" d="M17.32,85.75l1.25-30.89-3.32-4.13c-4.58,4.88-8.22-.4-11.93-4.87,2.09-6,5.8-10.57,14.25-10.88l13.34-.72a56.68,56.68,0,0,0,27.91.34l13.59,1.92c3.91,0,7.08,1.15,8.74,4.42,3.42,7.12,5.88,13.27,6,17.06-3.85,2.77-8.19,2.91-12.82,1.49l-.78,29.88C62.57,93.79,15.55,85.44,17.32,85.75Z"/>
            <path class="e6de998a-917d-4e7a-add4-27b17395cf56" d="M31.72,152.21l2.5,8.47c2.7.66,6-.7,9.38.9v-7.1c3.65,4.48,5.32,9.58.81,16.59-3,3-7.41,2.26-12.49,0-3.29-5.34-4.5-10.25-3.87-14.78C29.07,154,30.29,152.64,31.72,152.21Z"/>
        </g>
    </g>
</svg>