<?xml version="1.0" encoding="utf-8"?>
<?xml-stylesheet type="text/css" href="../style.css"?>
<svg xmlns="http://www.w3.org/2000/svg" viewBox="0 0 151.41 397.57">
    <g id="winner-layer" data-name="Layer 2">
        <g id="winner" data-name="win">
            <text class="ed581b44-12a8-4313-9b0c-b7ed421d4a0e" transform="translate(27.9 30.13)">WINNER</text>
            <path class="f0436cac-2f0f-44e6-8bc8-18e79dc2dbcf" d="M105.39,219.42a50.91,50.91,0,0,1,5.48-1.82c12.32-2.78,26.86,6,28.53,17.09.88,5.91-.75,11.39-3.4,16.71-.6,1.19-.44,1.62.89,2.25a12.13,12.13,0,0,1,7.32,11c.32,5.44-1.14,10.69-2.57,15.92-2,7.46-4.49,14.83-6.95,22.19-.94,2.8-.66,5.69-1.11,8.52-2,12.75-7.23,24.4-14.94,35.25a108.46,108.46,0,0,1-15.85,17.69,2.8,2.8,0,0,0-1.05,2.29c0,8.21,0,16.42,0,24.62,0,4.21-2.55,6.46-7.3,6.46H22.35c-5,0-7.47-2.2-7.47-6.62q0-12.76,0-25.54a5.65,5.65,0,0,0-.55-2.54A141.27,141.27,0,0,1,2.42,324.48,175,175,0,0,1,.28,285.36,195,195,0,0,1,10,234.87c2.11-6.35,2.47-12.8,2.34-19.32-.2-10.42-1.47-20.78-2-31.18-.29-5.54-.42-11.07-.45-16.61,0-10.78-1.23-21.52-1.27-32.29,0-7.08.08-14.16,2.24-21.06A22.86,22.86,0,0,1,13.3,109c5.23-8.2,16.73-10,24.83-3.87,4.39,3.32,6.76,7.76,8.54,12.47,2.76,7.28,4,14.84,4.89,22.43,1.5,12.35,1.87,24.77,2.87,37.14,1,12.22,2.14,24.43,5.51,36.37a23.37,23.37,0,0,0,1.87,4.91,9.53,9.53,0,0,0,1.61-3.69c2.33-7.88,3.77-15.93,5.94-23.84,5-18.23,7.93-36.83,12.54-55.13,2-7.8,4.19-15.53,8-22.82a30.48,30.48,0,0,1,5.34-7.53A18,18,0,0,1,122,106.74c3,3.78,4.1,8.1,4.41,12.6.57,8.11-.72,16.09-2.6,24-5.91,24.8-12.38,49.49-18.1,74.33C105.61,218.18,105.52,218.72,105.39,219.42Zm-.94-38.87c-.48-.16-1-.29-1.46-.48a64.54,64.54,0,0,0-20-4.24c-1.15-.06-1.76.19-1.79,1.26a3.57,3.57,0,0,1-.25,1c-.26.75-.1,1.16.86,1.47A114,114,0,0,0,94.62,183c3.06.61,6.17.94,9.23,1.5-8.79,2.82-16.43.95-23.24-4.58-.14.43-.28.81-.37,1.19q-3.55,14.49-7.11,29c-1,3.95-1.86,7.93-3.82,11.63a9.54,9.54,0,0,1-6.35,5.1,6,6,0,0,1-6.37-1.72,17.45,17.45,0,0,1-3.26-5.56,86,86,0,0,1-4.52-18.29c-2.27-14-3-28.07-3.9-42.15-.24-3.92-.6-7.84-.91-11.82-9.81,3.54-19.88,3.28-24.68-.62.64,0,1.2,0,1.75,0a173.47,173.47,0,0,0,21.39,0c.71,0,1.54.2,1.41-1-.87-7.55-1.78-15.09-4-22.45-.09-.29.1-.9-.68-.88-.06.14-.19.3-.16.41C40.25,127,40.34,127,35.43,129a9.55,9.55,0,0,1-1.32.38c-5.87,1.41-11.56.65-17.36-1.23v5.14c0,10.41,1.26,20.8,1.24,31.2,0,15.57,1.5,31.05,2.37,46.56.48,8.68.34,17.31-2.51,25.77A185,185,0,0,0,9.15,277a168.62,168.62,0,0,0,1.69,48.3,131.57,131.57,0,0,0,11.56,35.8,5.71,5.71,0,0,1,.65,2.66c0,8.36,0,16.73-.05,25.09,0,1.29.4,1.58,1.82,1.58q33.36-.06,66.71,0c1.68,0,1.94-.48,1.93-1.8-.07-8.31,0-16.62-.06-24.93A3.23,3.23,0,0,1,94.7,361a102.14,102.14,0,0,0,12.57-12.74c9.93-12.07,16.59-25.3,18.36-40.28.25-2.08,0-4.16.7-6.25,3.15-9.48,6.46-18.93,8.65-28.63.74-3.27,1.49-6.57.58-9.91-.79-2.93-3.3-4.16-6.6-3.39a19.65,19.65,0,0,0-5.32,2.2c-.86.49-1.71.75-2.51,0s-.5-1.39.05-2.08,1-1.37,1.52-2.07c3.85-5.51,7.4-11.14,8.49-17.69,1-5.94-1.9-10.85-8.25-14-5.82-2.9-11.14-2.37-16.54,1.63a28.3,28.3,0,0,0-6,6.18,9.32,9.32,0,0,1-2.71,2.78c-1.78,1-3.65.44-4.21-1.39a5.55,5.55,0,0,1,0-3c4.28-16.74,8.16-33.55,12.15-50.34,3.37-14.19,7.54-28.22,10.47-42.49.41-2,.8-4,1.11-6.06s.59-4.08.74-6.12.14-4.2.13-6.31a14.31,14.31,0,0,0-.89-5.56,39.48,39.48,0,0,1-.72,11.64,2.48,2.48,0,0,1-2.19,2.06,21.84,21.84,0,0,1-11.78-.75A33.5,33.5,0,0,1,93.83,124c-5.68,16.85-8.33,34.1-12.22,51.27,9.24-3.53,19.72.27,23.16,5.05Zm-84.58-58c.12,4.29-.6,3.48,3,4.18A21.28,21.28,0,0,0,35.16,126c.64-.26,1.25-.47,1.11-1.31-.69-3.91-1.47-7.8-3.91-11.22a6,6,0,0,0-7.08-2.14,6.59,6.59,0,0,0-4,3.86A18.22,18.22,0,0,0,19.87,122.58Zm94.39-2.94a19,19,0,0,0-.85-6A5.79,5.79,0,0,0,107,110a7.41,7.41,0,0,0-4.68,2.71c-2.45,2.76-3.62,6-4.64,9.35a.76.76,0,0,0,.41,1c4.28,2.3,8.76,4,13.94,3.46,1-.1,1.54-.42,1.62-1.41C113.77,123.14,114.08,121.11,114.26,119.64Z"/>
            <path class="a9045cef-77bd-4ac8-8652-554e08801bb6" d="M104.77,180.33c-3.44-4.78-13.92-8.58-23.16-5.05,3.89-17.17,6.54-34.42,12.22-51.27a33.5,33.5,0,0,0,8.77,4.33,21.84,21.84,0,0,0,11.78.75,2.48,2.48,0,0,0,2.19-2.06,39.48,39.48,0,0,0,.72-11.64,14.31,14.31,0,0,1,.89,5.56c0,2.11,0,4.21-.13,6.31s-.43,4.08-.74,6.12-.7,4.05-1.11,6.06c-2.93,14.27-7.1,28.3-10.47,42.49-4,16.79-7.87,33.6-12.15,50.34a5.55,5.55,0,0,0,0,3c.56,1.83,2.43,2.44,4.21,1.39a9.32,9.32,0,0,0,2.71-2.78,28.3,28.3,0,0,1,6-6.18c5.4-4,10.72-4.53,16.54-1.63,6.35,3.16,9.24,8.07,8.25,14-1.09,6.55-4.64,12.18-8.49,17.69-.49.7-1,1.39-1.52,2.07s-.79,1.4-.05,2.08,1.65.49,2.51,0a19.65,19.65,0,0,1,5.32-2.2c3.3-.77,5.81.46,6.6,3.39.91,3.34.16,6.64-.58,9.91-2.19,9.7-5.5,19.15-8.65,28.63-.69,2.09-.45,4.17-.7,6.25-1.77,15-8.43,28.21-18.36,40.28A102.14,102.14,0,0,1,94.7,361a3.23,3.23,0,0,0-1.3,2.69c0,8.31,0,16.62.06,24.93,0,1.32-.25,1.8-1.93,1.8q-33.36-.09-66.71,0c-1.42,0-1.83-.29-1.82-1.58.07-8.36,0-16.73.05-25.09a5.71,5.71,0,0,0-.65-2.66,131.57,131.57,0,0,1-11.56-35.8A168.62,168.62,0,0,1,9.15,277a185,185,0,0,1,8.7-40.09c2.85-8.46,3-17.09,2.51-25.77-.87-15.51-2.4-31-2.37-46.56,0-10.4-1.24-20.79-1.24-31.2v-5.14c5.8,1.88,11.49,2.64,17.36,1.23a9.55,9.55,0,0,0,1.32-.38c4.91-2,4.82-2.07,3.63-6.29,0-.11.1-.27.16-.41.78,0,.59.59.68.88,2.19,7.36,3.1,14.9,4,22.45.13,1.16-.7.93-1.41,1a173.47,173.47,0,0,1-21.39,0c-.55,0-1.11,0-1.75,0,4.8,3.9,14.87,4.16,24.68.62.31,4,.67,7.9.91,11.82.86,14.08,1.63,28.17,3.9,42.15a86,86,0,0,0,4.52,18.29,17.45,17.45,0,0,0,3.26,5.56A6,6,0,0,0,63,226.81a9.54,9.54,0,0,0,6.35-5.1c2-3.7,2.84-7.68,3.82-11.63q3.59-14.49,7.11-29c.09-.38.23-.76.37-1.19,6.81,5.53,14.45,7.4,23.24,4.58-3.06-.56-6.17-.89-9.23-1.5a114,114,0,0,1-12.82-3.38c-1-.31-1.12-.72-.86-1.47a3.57,3.57,0,0,0,.25-1c0-1.07.64-1.32,1.79-1.26a64.54,64.54,0,0,1,20,4.24c.48.19,1,.32,1.46.48l.37.15Zm9.06-32.7c-8.68.37-16.78-1.19-24.12-5.43C93.7,149.33,105.56,152.36,113.83,147.63ZM20.76,177.35a73.34,73.34,0,0,1,12.12-1.22,74.12,74.12,0,0,1,12.2,1C39.25,171.57,25.13,172.36,20.76,177.35Zm.16,3.48c5.51,4.95,19.8,4.52,24.2-.22A97,97,0,0,1,20.92,180.83Z"/>
            <path class="ec97d224-20ab-470f-8fc4-4c8b39925f59" d="M19.87,122.58a18.22,18.22,0,0,1,1.43-7.4,6.59,6.59,0,0,1,4-3.86,6,6,0,0,1,7.08,2.14c2.44,3.42,3.22,7.31,3.91,11.22.14.84-.47,1-1.11,1.31a21.28,21.28,0,0,1-12.26.77C19.27,126.06,20,126.87,19.87,122.58Z"/>
            <path class="ec97d224-20ab-470f-8fc4-4c8b39925f59" d="M114.26,119.64c-.18,1.47-.49,3.5-.66,5.54-.08,1-.61,1.31-1.62,1.41-5.18.5-9.66-1.16-13.94-3.46a.76.76,0,0,1-.41-1c1-3.32,2.19-6.59,4.64-9.35A7.41,7.41,0,0,1,107,110a5.79,5.79,0,0,1,6.46,3.57A19,19,0,0,1,114.26,119.64Z"/>
            <path class="b2584336-c7de-4824-9610-ff66490e5193" d="M113.83,147.63c-8.27,4.73-20.13,1.7-24.12-5.43C97.05,146.44,105.15,148,113.83,147.63Z"/>
            <path class="b2584336-c7de-4824-9610-ff66490e5193" d="M20.76,177.35c4.37-5,18.49-5.78,24.32-.23a74.12,74.12,0,0,0-12.2-1A73.34,73.34,0,0,0,20.76,177.35Z"/>
            <path class="b2584336-c7de-4824-9610-ff66490e5193" d="M20.92,180.83a97,97,0,0,0,24.2-.22C40.72,185.35,26.43,185.78,20.92,180.83Z"/>
            <path class="f0436cac-2f0f-44e6-8bc8-18e79dc2dbcf" d="M104.77,180.33l0,.37-.37-.15Z"/>
        </g>
    </g>
</svg>