<?xml version="1.0" encoding="utf-8"?>
<?xml-stylesheet type="text/css" href="../style.css"?>
<svg id="aniamtion" xmlns="http://www.w3.org/2000/svg" viewBox="0 0 1878.02 283.95">
  <g id="animation2">
    <path class="animation-1" d="M1802.62,46a18,18,0,0,0-19.07,1.3c-5.1,3.6-12,14.31-4.76,19.2,5.41,3.67,12.88,3,18.19-.53,6.1-4,9.23-10.52,7.93-17.76-.57-3.16-4.43-4.95-7.32-4.15-3.34.91-4.73,4.14-4.16,7.32.76,4.21-5.76,6.71-8.63,4.84l3,5.14c.11-4,5.38-7,8.86-5.07,6.72,3.69,12.74-6.59,6-10.29Z" transform="translate(-9.19 -0.64)"/>
    <path class="animation-1" d="M1761.62,185a18,18,0,0,0-19.07,1.3c-5.1,3.6-12,14.31-4.76,19.2,5.41,3.67,12.88,3,18.19-.53,6.1-4,9.23-10.52,7.93-17.76-.57-3.16-4.43-4.95-7.32-4.15-3.34.91-4.73,4.14-4.16,7.32.76,4.21-5.76,6.71-8.63,4.84l3,5.14c.11-4,5.38-7,8.86-5.07,6.72,3.69,12.74-6.59,6-10.29Z" transform="translate(-9.19 -0.64)"/>
    <path class="animation-1" d="M1740,109.68a12.8,12.8,0,0,0-14.65,15.37c1.92,8.52,12.15,12.29,19.86,9.54,8.18-2.93,14.52-14.38,7.28-21.61-5.3-5.3-17.08-3.78-18.24,4.63-.44,3.19.77,6.4,4.16,7.33,2.78.76,6.88-1,7.32-4.16.18-1.28-.11,0-.52.41-1.5,1.48-.86.29-.5.47,0,0-1.42-.89-1.05-.92s-.78,1.57-.73,1.52a4,4,0,0,1-2.57,1.33c-.85.1-2.78,0-3.28-.88-.86-1.45,1.73-1.2-.25-1.55,3.16.56,6.42-.85,7.32-4.15.79-2.88-1-6.76-4.15-7.33Z" transform="translate(-9.19 -0.64)"/>
    <path class="animation-1" d="M1671,195.68a12.8,12.8,0,0,0-14.65,15.37c1.92,8.52,12.15,12.29,19.86,9.54,8.18-2.93,14.52-14.38,7.28-21.61-5.3-5.3-17.08-3.78-18.24,4.63-.44,3.19.77,6.4,4.16,7.33,2.78.76,6.88-.95,7.32-4.16.18-1.28-.11,0-.52.41-1.5,1.48-.86.29-.5.47,0,0-1.42-.89-1.05-.92s-.78,1.57-.73,1.52a4,4,0,0,1-2.57,1.33c-.85.1-2.78-.05-3.28-.88-.86-1.45,1.73-1.2-.25-1.55,3.16.56,6.42-.85,7.32-4.15.79-2.88-1-6.76-4.15-7.33Z" transform="translate(-9.19 -0.64)"/>
    <path class="animation-1" d="M1649.62,91.62c-7.23,1.61-8.71,11.29-4,16.25,5.75,6.11,15.14,2.41,19.44-3.4s4.4-15-2.67-18.57c-6.3-3.15-14.6.77-14.75,8.15-.15,7.67,11.76,7.67,11.91,0a3.42,3.42,0,0,1-1.62,2.6c.6-.44.19,0-.21,0,1.47-.14-1.23-.17.28,0-.25,0-1.53-.51-1-.23.88.45-1.34-.8-.75-1a9.29,9.29,0,0,1-1,2.37,5.14,5.14,0,0,1-1.5,1.09c.54-.27-.93.24-.36.14s.24.23-.23-.07a2.13,2.13,0,0,1,1.41,1c.24.38.22.33-.07-.16.1.25.31,1.55.32.94s-.27.81-.4,1c-.38.62-3,1.59-1.56,1.26,3.14-.7,5-4.33,4.16-7.32a6.06,6.06,0,0,0-7.32-4.16Z" transform="translate(-9.19 -0.64)"/>
    <path class="animation-1" d="M1833,213.32c-2.35,1.67-9.66-1.63-13.72.06-6.39,2.64-7.55,10.8-2.92,15.68,11.6,12.25,26.79-7.52,24.92-19.23-2.14-13.47-21.63-19.35-27.21-4.87-2.1,5.47-.23,13.22,5.76,15.38,8,2.88,12.44-5.83,9.61-12.23-3.1-7-13.36-.94-10.28,6,.23.52,6.49-5,5.87-4.26.31-.35,0-1.12.58-1.33a2.24,2.24,0,0,1,2.69.72c2.91,2.8.61,7.73-1.82,10-1.41,1.32-1.6,1.09-2.45,3.23-1.53,3.86-1,1.26.37,2,1.1.62,3.18.6,4.46.79,3.53.52,7.13.45,10.15-1.7,6.18-4.42.24-14.75-6-10.28Z" transform="translate(-9.19 -0.64)"/>
    <path class="animation-2" d="M1868.24,41.7l1.26,2.94-.81-3a9.4,9.4,0,0,0,9.08,8.83,9.08,9.08,0,0,0,9.28-7.4c.77-4.66-1.28-9.47-5.8-11.38a11.52,11.52,0,0,0-12.52,2.47,6,6,0,0,0,0,8.42,6.06,6.06,0,0,0,8.41,0c.91-.87-1,.63,0,0s-1.21.44.2,0q.69-.15-.63.09c.52,0,.51,0,0-.07-1.2-.68,1,.76,0,0a1.8,1.8,0,0,1-1-.65c.44.44.36.3-.24-.43.57.93-.31-1.29,0-.16s0-1.39,0-.2l.14-.91c-.17.61-.07.46.28-.46-.25.41-.22.4.09,0a2.44,2.44,0,0,1,1-.84q-.61.34.15,0a2.41,2.41,0,0,1,1.4-.3c-1.15,0,1.45.39.33.09s1.16.65.28.1c.77.64.94.76.51.33l.58.72a3.38,3.38,0,0,1,.49,1.83l-.21-1.58a28.56,28.56,0,0,0-1.86-4.36c-1.24-2.88-5.68-3.73-8.15-2.14-3,1.93-3.45,5.07-2.13,8.15Z" transform="translate(-9.19 -0.64)"/>
    <path class="animation-2" d="M1719.07,64.9c-1.88,8.35,6.25,16.47,14.71,13.71,7.91-2.58,10.43-12.74,6.13-19.38-4.59-7.09-15.21-8.43-21.85-3.59-3.59,2.61-5.8,7-4.61,11.49,1.13,4.21,5.35,7.85,9.85,7.27,3.19-.41,6-2.44,6-6,0-2.89-2.74-6.36-6-5.95a3.54,3.54,0,0,1,1.63,1.48c-.37,1.22-.3,1.59.22,1.12.23.09,1.42-.43,1.62-.45,1.12-.11,2.73.18,3.3,1.28.35.66-.32,1-.22,1.53.23,1.26,1.32-2.15.7.61,1.68-7.46-9.8-10.65-11.48-3.16Z" transform="translate(-9.19 -0.64)"/>
    <path class="animation-2" d="M1631.07,71.9c-1.88,8.35,6.25,16.47,14.71,13.71,7.91-2.58,10.43-12.74,6.13-19.38-4.59-7.09-15.21-8.43-21.85-3.59-3.59,2.61-5.8,7-4.61,11.49,1.13,4.21,5.35,7.85,9.85,7.27,3.19-.41,6-2.44,6-6,0-2.89-2.74-6.36-6-6a3.54,3.54,0,0,1,1.63,1.48c-.37,1.22-.3,1.59.22,1.12.23.09,1.42-.43,1.62-.45,1.12-.11,2.73.18,3.3,1.28.35.66-.32,1-.22,1.53.23,1.26,1.32-2.15.7.61,1.68-7.46-9.8-10.65-11.48-3.16Z" transform="translate(-9.19 -0.64)"/>
    <path class="animation-2" d="M1703.46,172.41c-.09,4.31-.22,8.62-.28,12.93,0,3.59.34,7.45,3.89,9.38,7.28,3.95,13.49-5.77,15.1-11.6,3.91-14.26-9.44-29.53-24.28-24.16-13.61,4.93-16.48,28.6.22,31.23,7.39,1.17,14.92-5.39,13.29-13.11-1.38-6.48-8.9-9.83-14.86-7.59-7.74,2.92-8.92,13.68-3.19,19.16,6.22,5.93,15.23,3,19.78-3.21s-5.79-12.13-10.28-6a1.09,1.09,0,0,1-1.3.32c-1.93.43.08,1.4-1.44-.23.05,0-1.19-1.86-1.27-2a5.53,5.53,0,0,1,3.46-7.48c3-.89,6.42,1.1,7.85,3.66a8.14,8.14,0,0,1,.69,5.59,9.6,9.6,0,0,1-.89,2.56c-.49,1-2,2,.12,1.8l4.21,1.75c1.33,1.14.39,2.66.81,0a35.6,35.6,0,0,0,.1-4.62l.17-8.31c.16-7.66-11.74-7.66-11.9,0Z" transform="translate(-9.19 -0.64)"/>
    <path class="animation-2" d="M1691.64,51.1c-.41,4.56.51,10,4,13.28A9.51,9.51,0,0,0,1710.45,62,12.08,12.08,0,0,0,1708,47.82c-4.92-4.43-11.82-3.64-17.76-2.35-3.14.69-5,4.35-4.15,7.33a6.06,6.06,0,0,0,7.32,4.15,26.2,26.2,0,0,1,3.46-.61,6.25,6.25,0,0,1,3.29.32c-.63-.24-.3.09-.05.06l-.35-.44c.27.52.31.57.12.17s-.16-.34,0,.22c-.05-.7-.07-.82,0-.37a5.77,5.77,0,0,1,0,.72q.18-1.07,0-.42c-.35.66.62-.9,0,0a3,3,0,0,1,2.59-1.5c.45,0,1.51.8.77.21a1.41,1.41,0,0,1,.69.56c.27.36.25.29-.07-.2.21.56.24.63.09.22a7.67,7.67,0,0,1-.23-.78c-.07-.26-.27-1.83-.16-.65a18.85,18.85,0,0,1,0-3.36c.29-3.21-2.94-6-6-6-3.46,0-5.67,2.74-6,6Z" transform="translate(-9.19 -0.64)"/>
    <path class="animation-2" d="M1774.58,278.13c2.32,7.53,12.26,8.7,16.72,2.34,2.55-3.64,2.63-8.21,3.07-12.48.46-4.54,1.44-9.34,1.16-13.9-.5-8.08-8.24-12.71-15.6-9.21-8.77,4.17-8.17,14.12-5.63,22.06,1.1,3.43,5.42,5.81,8.75,3.56,7.92-5.37,8.22-17.2-.44-22.14-9.31-5.3-20.18,1.64-21.8,11.55-1.56,9.55,7.29,20.66,17.36,15.06,11.24-6.26,6.94-19.35.77-27.42-2.34-3.07-6.29-4.09-9.35-1.21a21,21,0,0,0-5.23,23.15c1.25,3,3.93,5.05,7.32,4.16,2.81-.74,5.4-4.36,4.16-7.32-1.79-4.29-1.29-8.31,2.17-11.57l-9.35-1.2c1.69,2.2,4.25,5,4.66,7.82.21,1.48-.79,4.73-.87,1.54,0-1.74.86-4.3,2.91-4.46.66,0,3,.84,1.68,1.75l8.74,3.56c-.84-2.63-.77-5.14-1.36-7.69-.25-1.09,1.69.46-.08-.95-1.16-.92-.73,1.42-.8,2.23-.2,2.66-.54,5.32-.81,8-.15,1.48-.28,3-.45,4.43l-.18,1.77q-1.14,3.25,4,3.43c-2.24-7.3-13.74-4.19-11.48,3.17Z" transform="translate(-9.19 -0.64)"/>
    <path class="animation-3" d="M1708.34,98.79c6.08,13.12,25.14,10.52,28.56-3.08a6.13,6.13,0,0,0-2.73-6.73,28.67,28.67,0,0,0-24-3c-7.26,2.35-4.16,13.85,3.16,11.48a17,17,0,0,1,14.8,1.78l-2.74-6.72c-1.06,4.22-5.15,3.8-6.8.24-1.36-2.94-5.54-3.62-8.15-2.13-3,1.71-3.48,5.24-2.13,8.14Z" transform="translate(-9.19 -0.64)"/>
    <path class="animation-3" d="M1843.31,135A13.81,13.81,0,0,0,1845,154.9c6.41,5,16,2.56,20.35-4,4.52-6.86,1.92-16.09-4.47-20.76-7.16-5.23-17-3.25-22.95,2.86-5.34,5.5,3.07,13.93,8.42,8.42,1.64-1.7,4.09-3.08,6.53-2.22,1.66.59,3.36,2.68,2.82,4.55-1,3.41-5.41,1.35-4-.33,5-5.78-3.4-14.23-8.42-8.42Z" transform="translate(-9.19 -0.64)"/>
    <path class="animation-3" d="M1853.21,149.82c7.66,0,7.67-11.91,0-11.91s-7.68,11.91,0,11.91Z" transform="translate(-9.19 -0.64)"/>
    <path class="animation-3" d="M1750.84,30.55c-.47,4.6,3.85,8,8.08,8.21a8.39,8.39,0,0,0,8.92-7.88,10.37,10.37,0,0,0-7.93-10.19c-4.93-1.27-9.41,1.36-13.07,4.34-2.5,2-2.11,6.31,0,8.42,2.47,2.47,5.92,2,8.42,0-.28.23,1-.67,1-.69.42-.28.64-.21.74-.38.34-.59.11.3-.28-.21-.41-.25-.44-.28-.07-.06s.33.19-.06,0l-.27-.29a2.19,2.19,0,0,1-.15-2.23,3.43,3.43,0,0,1,2.28-2.54,2,2,0,0,1,1.24-.07c.53.1.55.08,0,0l1.72,1c.75,3.22,1.16,4.1,1.25,2.66.33-3.2-3-5.95-6-5.95-3.49,0-5.62,2.74-6,5.95Z" transform="translate(-9.19 -0.64)"/>
    <path class="animation-3" d="M1777.47,160.34c4.41-3.67,8.71-7.91,10.12-13.69a14,14,0,0,0-6.11-14.91c-4.8-3.09-10.93-2.5-14.59,2-3.81,4.72-2.73,11.1-.64,16.3,1.19,3,4,5.09,7.32,4.16,2.83-.79,5.37-4.31,4.16-7.33-.25-.61-1.29-5.71-1.5-5.85.43.28-1.4.64-1.38.57a6.26,6.26,0,0,1,.94.85c1.22,3.63-4.34,7.46-6.74,9.45-5.9,4.91,2.56,13.29,8.42,8.42Z" transform="translate(-9.19 -0.64)"/>
    <path class="animation-3" d="M1718.47,233.34c4.41-3.67,8.71-7.91,10.12-13.69a14,14,0,0,0-6.11-14.91c-4.8-3.09-10.93-2.5-14.59,2-3.81,4.72-2.73,11.1-.64,16.3,1.19,3,4,5.09,7.32,4.16,2.83-.79,5.37-4.31,4.16-7.33-.25-.61-1.29-5.71-1.5-5.85.43.28-1.4.64-1.38.57a6.26,6.26,0,0,1,.94.85c1.22,3.63-4.34,7.46-6.74,9.45-5.9,4.91,2.56,13.29,8.42,8.42Z" transform="translate(-9.19 -0.64)"/>
    <path class="animation-3" d="M1850.64,72.21l6,.78c3.61.46,7.07-4.21,5.74-7.54-2.48-6.2-8.23-10.51-15.14-9.51s-11.3,6.85-11.76,13.48c-.22,3.21,2.9,6,6,6a6.06,6.06,0,0,0,6-6c.12-1.65,2.76-2.68,3.51-.8l5.74-7.54-6-.77c-3.19-.41-6,3-6,6,0,3.56,2.75,5.54,6,5.95Z" transform="translate(-9.19 -0.64)"/>
    <path class="animation-3" d="M1701.94,139.85c-3.35-3.45-7-6.14-11.93-6.53a15.66,15.66,0,0,0-11.9,4.38c-5.65,5.21,2.78,13.61,8.42,8.42,2.64-2.43,5.11.21,7,2.15,5.34,5.51,13.76-2.92,8.42-8.42Z" transform="translate(-9.19 -0.64)"/>
    <path class="animation-3" d="M1826.93,31.85c4.28,3.71,9.38,7,15.26,5.06,5.06-1.66,8.33-7,6.68-12.3-3.19-10.15-17.45-12.72-25.54-7.15s-9.2,18.81-.46,24.46c8.16,5.28,19.63-1.11,19.79-10.63.13-7.66-11.77-7.66-11.9,0,0,.29-1.17.69-1.92.45,1.23.39-.18,0-.21-.86a4,4,0,0,1,.69-3c1.5-1.78,4.72-1.76,6.66-.86.45.21,1,.83,1.41.95l.23.38c-.38-1.72,0-2.63,1-2.72a32.2,32.2,0,0,1-3.28-2.18c-5.77-5-14.23,3.39-8.42,8.42Z" transform="translate(-9.19 -0.64)"/>
  </g>
  <g id="animation1">
    <path class="animation-1" d="M93.77,239.28A17.94,17.94,0,0,0,112.84,238c5.1-3.61,12-14.31,4.77-19.2-5.42-3.67-12.88-3-18.2.53-6.1,4-9.23,10.52-7.93,17.75.57,3.17,4.43,5,7.33,4.16,3.33-.91,4.73-4.14,4.16-7.32-.76-4.21,5.75-6.71,8.63-4.84l-2.95-5.14c-.11,4-5.38,7-8.87,5.07-6.72-3.69-12.73,6.59-6,10.28Z" transform="translate(-9.19 -0.64)"/>
    <path class="animation-1" d="M134.77,100.28A17.94,17.94,0,0,0,153.84,99c5.1-3.61,12-14.31,4.77-19.2-5.42-3.67-12.88-3-18.2.53-6.1,4-9.23,10.52-7.93,17.75.57,3.17,4.43,5,7.33,4.16,3.33-.91,4.73-4.14,4.16-7.32-.76-4.21,5.75-6.71,8.63-4.84l-2.95-5.14c-.11,4-5.38,7-8.87,5.07-6.72-3.69-12.73,6.59-6,10.28Z" transform="translate(-9.19 -0.64)"/>
    <path class="animation-1" d="M156.44,175.56a12.81,12.81,0,0,0,14.65-15.37c-1.93-8.52-12.15-12.29-19.86-9.54-8.19,2.93-14.53,14.38-7.29,21.61,5.3,5.29,17.08,3.78,18.24-4.64.44-3.18-.77-6.39-4.15-7.32-2.78-.76-6.88.95-7.33,4.16-.17,1.27.11,0,.53-.41,1.5-1.48.85-.29.49-.47,0,0,1.42.89,1.05.92s.78-1.58.74-1.52a4,4,0,0,1,2.56-1.33c.85-.1,2.78,0,3.28.88.86,1.45-1.72,1.2.25,1.54-3.16-.56-6.41.86-7.32,4.16-.79,2.88,1,6.76,4.16,7.33Z" transform="translate(-9.19 -0.64)"/>
    <path class="animation-1" d="M225.44,89.56a12.81,12.81,0,0,0,14.65-15.37c-1.93-8.52-12.15-12.29-19.86-9.54C212,67.58,205.7,79,212.94,86.26c5.3,5.29,17.08,3.78,18.24-4.64.44-3.18-.77-6.39-4.15-7.32-2.78-.76-6.88,1-7.33,4.16-.17,1.27.11,0,.53-.41,1.5-1.48.85-.29.49-.47,0,0,1.42.89,1.05.92s.78-1.58.74-1.52a4,4,0,0,1,2.56-1.33c.85-.1,2.78,0,3.28.88.86,1.45-1.72,1.2.25,1.54-3.16-.56-6.41.86-7.32,4.16-.79,2.88,1,6.76,4.16,7.33Z" transform="translate(-9.19 -0.64)"/>
    <path class="animation-1" d="M246.78,193.62c7.22-1.61,8.71-11.29,4-16.25-5.75-6.11-15.14-2.41-19.44,3.4s-4.4,15,2.67,18.57c6.31,3.15,14.61-.77,14.75-8.15.15-7.67-11.75-7.67-11.9,0a3.42,3.42,0,0,1,1.62-2.6c-.6.44-.19,0,.2,0-1.47.14,1.24.17-.28,0,.25,0,1.54.51,1,.23-.87-.46,1.34.8.75,1a9.66,9.66,0,0,1,1.05-2.37,5.33,5.33,0,0,1,1.51-1.09c-.54.27.92-.24.36-.14s-.24-.23.22.07a2.11,2.11,0,0,1-1.4-1c-.25-.38-.23-.33.06.16-.09-.25-.3-1.55-.32-.94s.27-.81.41-1c.38-.62,3.05-1.6,1.55-1.26-3.14.7-5,4.33-4.16,7.32a6.07,6.07,0,0,0,7.33,4.16Z" transform="translate(-9.19 -0.64)"/>
    <path class="animation-1" d="M63.41,71.92c2.34-1.67,9.65,1.63,13.71-.06,6.4-2.65,7.55-10.8,2.93-15.68C68.44,43.93,53.26,63.69,55.12,75.41c2.15,13.47,21.63,19.35,27.21,4.87,2.11-5.47.23-13.23-5.76-15.38-8-2.88-12.44,5.83-9.6,12.23,3.09,7,13.36.94,10.28-6-.23-.52-6.49,5-5.88,4.26-.3.35,0,1.12-.58,1.33A2.26,2.26,0,0,1,68.1,76c-2.91-2.8-.6-7.73,1.83-10,1.4-1.32,1.59-1.09,2.44-3.23,1.54-3.86,1-1.26-.36-2-1.11-.62-3.18-.6-4.47-.79-3.52-.52-7.13-.45-10.14,1.7-6.19,4.42-.25,14.75,6,10.28Z" transform="translate(-9.19 -0.64)"/>
    <path class="animation-2" d="M28.16,243.54,26.9,240.6l.81,3a9.41,9.41,0,0,0-9.08-8.82,9.07,9.07,0,0,0-9.28,7.4c-.78,4.66,1.28,9.47,5.79,11.38a11.54,11.54,0,0,0,12.53-2.47,6,6,0,0,0,0-8.42,6.08,6.08,0,0,0-8.42,0c-.91.87.95-.63,0,0s1.21-.44-.21,0q-.69.15.63-.09c-.52,0-.51,0,0,.07,1.2.68-1.05-.76.05,0a1.76,1.76,0,0,1,1,.65c-.44-.44-.36-.3.25.43-.58-.93.3,1.29,0,.16s0,1.39,0,.2l-.14.9c.16-.6.07-.45-.28.47.24-.41.21-.4-.1,0a2.31,2.31,0,0,1-1,.84q.62-.34-.15,0a2.37,2.37,0,0,1-1.39.3c1.15,0-1.46-.39-.34-.09s-1.15-.65-.27-.1c-.78-.64-.95-.76-.51-.33l-.59-.72a3.39,3.39,0,0,1-.49-1.84l.21,1.59a29.65,29.65,0,0,0,1.87,4.36c1.23,2.87,5.67,3.73,8.14,2.14,3-1.93,3.46-5.07,2.14-8.15Z" transform="translate(-9.19 -0.64)"/>
    <path class="animation-2" d="M177.33,220.34c1.88-8.35-6.25-16.48-14.71-13.71-7.91,2.58-10.43,12.74-6.13,19.38,4.59,7.09,15.2,8.43,21.85,3.59,3.58-2.61,5.8-7,4.6-11.49-1.13-4.21-5.35-7.85-9.85-7.27-3.19.41-6,2.44-6,6,0,2.89,2.74,6.36,6,5.95a3.59,3.59,0,0,1-1.63-1.48c.37-1.22.3-1.59-.21-1.12-.24-.09-1.43.43-1.62.45-1.13.11-2.74-.18-3.31-1.28-.34-.67.32-1,.23-1.53-.24-1.26-1.32,2.15-.7-.61-1.68,7.46,9.79,10.65,11.48,3.16Z" transform="translate(-9.19 -0.64)"/>
    <path class="animation-2" d="M265.33,213.34c1.88-8.35-6.25-16.48-14.71-13.71-7.91,2.58-10.43,12.74-6.13,19.38,4.59,7.09,15.2,8.43,21.85,3.59,3.58-2.61,5.8-7,4.6-11.49-1.13-4.21-5.35-7.85-9.85-7.27-3.19.41-5.95,2.44-5.95,6,0,2.89,2.74,6.36,5.95,5.95a3.59,3.59,0,0,1-1.63-1.48c.37-1.22.3-1.59-.21-1.12-.24-.09-1.43.43-1.62.45-1.13.11-2.74-.18-3.31-1.28-.34-.67.32-1,.23-1.53-.24-1.26-1.32,2.15-.7-.61-1.68,7.46,9.79,10.65,11.48,3.16Z" transform="translate(-9.19 -0.64)"/>
    <path class="animation-2" d="M192.94,112.83c.09-4.31.22-8.62.27-12.93,0-3.59-.33-7.45-3.89-9.38-7.27-4-13.49,5.77-15.09,11.6-3.92,14.26,9.43,29.53,24.28,24.15,13.6-4.92,16.47-28.59-.23-31.22-7.38-1.17-14.92,5.39-13.28,13.11,1.37,6.48,8.9,9.83,14.85,7.59,7.75-2.92,8.93-13.68,3.19-19.16-6.22-5.93-15.22-3-19.78,3.21s5.8,12.13,10.28,6a1.07,1.07,0,0,1,1.3-.32c1.93-.43-.07-1.4,1.44.23-.05,0,1.19,1.86,1.27,2a5.53,5.53,0,0,1-3.45,7.48c-3,.89-6.43-1.1-7.86-3.66a8.25,8.25,0,0,1-.69-5.59,10,10,0,0,1,.89-2.56c.49-1,2-2-.12-1.8l-4.21-1.75c-1.33-1.14-.39-2.66-.81,0a35.56,35.56,0,0,0-.09,4.62l-.18,8.31c-.16,7.66,11.75,7.66,11.91,0Z" transform="translate(-9.19 -0.64)"/>
    <path class="animation-2" d="M204.75,234.14c.41-4.56-.51-10-4-13.28A9.5,9.5,0,0,0,186,223.2a12.06,12.06,0,0,0,2.44,14.22c4.91,4.42,11.81,3.64,17.75,2.35,3.14-.69,5-4.35,4.16-7.33a6.06,6.06,0,0,0-7.32-4.15,28,28,0,0,1-3.46.61,6.23,6.23,0,0,1-3.29-.32c.62.24.29-.09,0-.06l.35.44c-.27-.52-.31-.57-.12-.17s.17.34,0-.22c.06.7.07.82,0,.37a4.33,4.33,0,0,1,0-.72c-.12.71-.13.85,0,.42.34-.66-.62.9,0,0a3,3,0,0,1-2.6,1.5c-.44,0-1.51-.8-.76-.21a1.39,1.39,0,0,1-.7-.56c-.26-.36-.24-.29.07.2-.2-.56-.23-.64-.09-.22q.14.39.24.78c.06.26.26,1.83.16.65a18.86,18.86,0,0,1,0,3.36c-.29,3.2,2.95,6,6,6,3.46,0,5.66-2.74,5.95-6Z" transform="translate(-9.19 -0.64)"/>
    <path class="animation-2" d="M121.81,7.11c-2.32-7.54-12.26-8.71-16.72-2.34-2.55,3.64-2.62,8.2-3.06,12.48-.46,4.54-1.45,9.34-1.17,13.9.5,8.08,8.25,12.71,15.61,9.21,8.76-4.18,8.17-14.12,5.62-22.06-1.1-3.43-5.42-5.81-8.74-3.56-7.93,5.37-8.22,17.2.43,22.13,9.32,5.31,20.19-1.63,21.8-11.54,1.56-9.56-7.28-20.66-17.36-15.06-11.24,6.26-6.93,19.34-.77,27.42,2.35,3.07,6.3,4.09,9.35,1.21A21,21,0,0,0,132,15.75c-1.24-3-3.93-5.06-7.32-4.16-2.81.74-5.4,4.36-4.16,7.32,1.79,4.29,1.3,8.31-2.16,11.57l9.35,1.2c-1.69-2.21-4.26-5-4.66-7.82-.21-1.48.78-4.74.86-1.54,0,1.74-.86,4.3-2.91,4.46-.65,0-3-.84-1.67-1.76l-8.75-3.55c.84,2.63.78,5.14,1.36,7.69.25,1.09-1.69-.46.08.95,1.16.92.74-1.42.8-2.23.21-2.66.54-5.32.81-8,.15-1.48.28-3,.46-4.43l.18-1.77q1.13-3.26-4-3.43c2.24,7.3,13.74,4.18,11.48-3.17Z" transform="translate(-9.19 -0.64)"/>
    <path class="animation-3" d="M188.06,186.45c-6.09-13.12-25.15-10.52-28.57,3.08a6.13,6.13,0,0,0,2.74,6.73,28.67,28.67,0,0,0,24,3c7.26-2.35,4.15-13.85-3.17-11.48A17,17,0,0,1,168.24,186L171,192.7c1.06-4.22,5.16-3.8,6.81-.24,1.36,2.94,5.54,3.61,8.14,2.13,3-1.71,3.48-5.24,2.14-8.14Z" transform="translate(-9.19 -0.64)"/>
    <path class="animation-3" d="M53.08,150.26a13.8,13.8,0,0,0-1.67-19.92c-6.42-5-16-2.57-20.35,4-4.53,6.86-1.93,16.09,4.47,20.76,7.15,5.23,17,3.25,22.94-2.86,5.34-5.5-3.07-13.93-8.42-8.42-1.64,1.7-4.09,3.08-6.52,2.21-1.66-.58-3.37-2.67-2.82-4.54,1-3.41,5.4-1.35,3.95.33-5,5.78,3.41,14.23,8.42,8.42Z" transform="translate(-9.19 -0.64)"/>
    <path class="animation-3" d="M43.19,147.33c7.66,0,7.67-11.91,0-11.91s-7.68,11.91,0,11.91Z" transform="translate(-9.19 -0.64)"/>
    <path class="animation-3" d="M145.56,254.69c.47-4.6-3.86-8-8.09-8.21a8.38,8.38,0,0,0-8.91,7.88,10.37,10.37,0,0,0,7.92,10.19c4.93,1.27,9.41-1.36,13.07-4.35,2.5-2,2.11-6.3,0-8.41-2.46-2.47-5.91-2-8.41,0a11.89,11.89,0,0,0-1,.69c-.42.28-.64.21-.74.38-.35.59-.11-.3.28.21.41.25.43.28.07.06s-.34-.2.06,0l.26.28a2.23,2.23,0,0,1,.16,2.24,3.47,3.47,0,0,1-2.29,2.54,2,2,0,0,1-1.24.07c-.53-.1-.55-.08,0,0l-1.72-1q-1.11-4.81-1.25-2.65c-.33,3.2,3,5.95,5.95,5.95,3.5,0,5.63-2.74,6-5.95Z" transform="translate(-9.19 -0.64)"/>
    <path class="animation-3" d="M118.93,124.9c-4.42,3.67-8.72,7.91-10.12,13.69a14,14,0,0,0,6.11,14.91c4.79,3.09,10.93,2.5,14.59-2,3.81-4.72,2.72-11.1.63-16.3-1.19-3-4-5.09-7.32-4.16-2.83.79-5.37,4.31-4.16,7.33.25.61,1.29,5.71,1.51,5.85-.43-.28,1.39-.64,1.37-.57a7.41,7.41,0,0,1-.94-.85c-1.22-3.64,4.35-7.46,6.75-9.46,5.89-4.9-2.57-13.28-8.42-8.41Z" transform="translate(-9.19 -0.64)"/>
    <path class="animation-3" d="M177.93,51.9c-4.42,3.67-8.72,7.91-10.12,13.69a14,14,0,0,0,6.11,14.91c4.79,3.09,10.93,2.5,14.59-2,3.81-4.72,2.72-11.1.63-16.3-1.19-3-4-5.09-7.32-4.16-2.83.79-5.37,4.31-4.16,7.33.25.61,1.29,5.71,1.51,5.85-.43-.28,1.39-.64,1.37-.57a7.41,7.41,0,0,1-.94-.85c-1.22-3.64,4.35-7.46,6.75-9.46,5.89-4.9-2.57-13.28-8.42-8.41Z" transform="translate(-9.19 -0.64)"/>
    <path class="animation-3" d="M45.75,213l-6-.78c-3.62-.47-7.07,4.21-5.74,7.54,2.48,6.2,8.22,10.51,15.14,9.51s11.29-6.86,11.75-13.48c.22-3.21-2.9-5.95-6-5.95a6.07,6.07,0,0,0-6,5.95c-.11,1.65-2.75,2.68-3.5.8l-5.74,7.54,6,.77c3.2.41,6-3,6-6,0-3.56-2.74-5.54-6-5.95Z" transform="translate(-9.19 -0.64)"/>
    <path class="animation-3" d="M194.46,145.39c3.35,3.45,7,6.14,11.92,6.53a15.66,15.66,0,0,0,11.91-4.39c5.65-5.2-2.79-13.6-8.42-8.41-2.64,2.43-5.11-.21-7-2.15-5.35-5.51-13.76,2.92-8.42,8.42Z" transform="translate(-9.19 -0.64)"/>
    <path class="animation-3" d="M69.47,253.39c-4.28-3.71-9.38-7-15.27-5.06-5.06,1.66-8.33,7-6.68,12.3,3.19,10.15,17.45,12.72,25.54,7.15s9.2-18.81.47-24.46C65.37,238,53.89,244.43,53.73,254c-.13,7.66,11.78,7.66,11.91,0,0-.29,1.17-.69,1.91-.45-1.23-.4.19,0,.21.86a4,4,0,0,1-.69,3c-1.5,1.77-4.72,1.76-6.66.86-.44-.21-1-.83-1.41-.95l-.23-.38c.39,1.72,0,2.63-1,2.72a33.36,33.36,0,0,1,3.28,2.18c5.76,5,14.22-3.39,8.42-8.42Z" transform="translate(-9.19 -0.64)"/>
  </g>
</svg>