<svg xmlns="http://www.w3.org/2000/svg" viewBox="0 0 190.89 203.21"><defs><style>.cls-1{fill:#65785d;stroke-width:8px;}.cls-1,.cls-3,.cls-4,.cls-5,.cls-6{stroke:#231f20;stroke-miterlimit:10;}.cls-2,.cls-3{fill:#859c80;}.cls-3,.cls-4,.cls-5,.cls-6{stroke-width:2px;}.cls-4{fill:#231f20;}.cls-5{fill:#ef4839;}.cls-6{fill:none;}.cls-7{font-size:45px;fill:#fff;font-family:Impact;}</style></defs><g id="Layer_2" data-name="Layer 2"><g id="draw"><path class="cls-1" d="M24.83,136.9A69.35,69.35,0,0,1,45.4,86.25C60.77,71,87.58,56.4,128.82,71.29c46.12,16.65,48.74,51.37,44.67,74.17A55.59,55.59,0,0,1,150.67,181c-21.4,15.05-61.52,32.78-104.85-1.75C45.82,179.29,25.5,167.86,24.83,136.9Z"/><path class="cls-2" d="M40.82,112.29s12-42,67-40c0,0,36,3,52,43,0,0-36-39-58,9,0,0-4,58,52,28,0,0,11-7,9-29,0,0,4,37-29,40s-31.88-18.7-31.88-18.7l-19.12-.3s-36,39-48-18c0,0,18,50,50,14C84.82,140.29,91.82,87.29,40.82,112.29Z"/><circle class="cls-3" cx="62.32" cy="127.79" r="21"/><circle class="cls-3" cx="131.82" cy="129.29" r="22.5"/><circle class="cls-4" cx="133.32" cy="130.79" r="5"/><circle class="cls-4" cx="62.32" cy="127.79" r="5"/><path class="cls-4" d="M88,148.79s-4.65,4-2.65,6S92.63,153.79,88,148.79Z"/><path class="cls-4" d="M95.32,146.82s-1.76,7.22,3.62,8.59S103.32,147.86,95.32,146.82Z"/><path d="M55.32,75.79s-7-4.36,0-12.68c0,0-2.59,9.54,3.7,9.11Z"/><path d="M62.32,71.79s-7-4.36,0-12.68c0,0-2.59,9.54,3.7,9.11Z"/><path d="M109,63.78s-2-8,8.86-9.08c0,0-8.52,5-3.71,9.11Z"/><path d="M119,65.75s-2-8,8.86-9.07c0,0-8.52,5-3.71,9.11Z"/><line class="cls-5" x1="71.32" y1="175.12" x2="112.83" y2="175.12"/><path class="cls-6" d="M84.82,93.1s-8.52,10.83,0,13.69"/><path class="cls-6" d="M102.29,93.1s-10,12.83,0,13.69"/><text class="cls-7" transform="translate(48.55 40.3)">Draw</text></g></g></svg>