<?xml version="1.0" encoding="utf-8"?>
<?xml-stylesheet type="text/css" href="../style.css"?>
<svg id="draw" xmlns="http://www.w3.org/2000/svg" viewBox="0 0 158.02 148.51">
  <path class="draw-1" d="M125.5,202.26a69.36,69.36,0,0,1,20.56-50.65c15.38-15.22,42.18-29.86,83.42-15,46.13,16.65,48.75,51.37,44.68,74.17a55.56,55.56,0,0,1-22.82,35.57c-21.4,15.06-61.52,32.79-104.86-1.74C146.48,244.65,126.16,233.22,125.5,202.26Z" transform="translate(-121.48 -120.06)"/>
  <path class="draw-2" d="M141.48,177.65s12-42,67-40c0,0,36,3,52,43,0,0-36-39-58,9,0,0-4,58,52,28,0,0,11-7,9-29,0,0,4,37-29,40S202.6,210,202.6,210l-19.12-.3s-36,39-48-18c0,0,18,50,50,14C185.48,205.65,192.48,152.65,141.48,177.65Z" transform="translate(-121.48 -120.06)"/>
  <circle class="draw-3" cx="41.5" cy="73.08" r="21"/>
  <circle class="draw-3" cx="111" cy="74.58" r="22.5"/>
  <circle class="draw-4" cx="112.5" cy="76.08" r="5"/>
  <circle class="draw-4" cx="41.5" cy="73.08" r="5"/>
  <path class="draw-4" d="M188.64,214.15s-4.66,4-2.66,6S193.3,219.15,188.64,214.15Z" transform="translate(-121.48 -120.06)"/>
  <path class="draw-4" d="M196,212.18s-1.75,7.22,3.62,8.59S204,213.22,196,212.18Z" transform="translate(-121.48 -120.06)"/>
  <path d="M156,141.15s-7-4.36,0-12.68c0,0-2.59,9.54,3.71,9.11Z" transform="translate(-121.48 -120.06)"/>
  <path d="M163,137.15s-7-4.36,0-12.68c0,0-2.59,9.54,3.71,9.11Z" transform="translate(-121.48 -120.06)"/>
  <path d="M209.64,129.14s-2-8,8.86-9.08c0,0-8.52,5-3.72,9.11Z" transform="translate(-121.48 -120.06)"/>
  <path d="M219.64,131.11s-2-8,8.86-9.07c0,0-8.52,5-3.72,9.11Z" transform="translate(-121.48 -120.06)"/>
  <line class="draw-5" x1="50.5" y1="120.42" x2="92.02" y2="120.42"/>
  <path class="draw-6" d="M185.48,158.46s-8.51,10.83,0,13.69" transform="translate(-121.48 -120.06)"/>
  <path class="draw-6" d="M203,158.46s-10,12.83,0,13.69" transform="translate(-121.48 -120.06)"/>
</svg>