<svg xmlns="http://www.w3.org/2000/svg" viewBox="0 0 228.68 188.6"><defs><style>.cls-1{fill:#65785d;stroke-width:8px;}.cls-1,.cls-3,.cls-4,.cls-5{stroke:#231f20;stroke-miterlimit:10;}.cls-2,.cls-3{fill:#859c80;}.cls-3,.cls-4,.cls-5{stroke-width:2px;}.cls-4{fill:#231f20;}.cls-5{fill:#ef4839;}.cls-6{font-size:37px;fill:#fff;font-family:Impact;}.cls-7{letter-spacing:-0.04em;}</style></defs><g id="Layer_2" data-name="Layer 2"><g id="losing"><path class="cls-1" d="M44.3,122.29A69.35,69.35,0,0,1,64.87,71.64c15.37-15.22,42.18-29.85,83.42-15C194.41,73.33,197,108.05,193,130.85a55.59,55.59,0,0,1-22.82,35.58c-21.4,15-61.52,32.78-104.85-1.75C65.29,164.68,45,153.25,44.3,122.29Z"/><path class="cls-2" d="M60.29,97.68s12-42,67-40c0,0,36,3,52,43,0,0-36-39-58,9,0,0-4,58,52,28,0,0,11-7,9-29,0,0,4,37-29,40S121.41,130,121.41,130l-19.12-.3s-36,39-48-18c0,0,18,50,50,14C104.29,125.68,111.29,72.68,60.29,97.68Z"/><circle class="cls-3" cx="81.79" cy="113.18" r="21"/><circle class="cls-3" cx="151.29" cy="114.68" r="22.5"/><circle class="cls-4" cx="152.79" cy="116.18" r="5"/><circle class="cls-4" cx="81.79" cy="113.18" r="5"/><path class="cls-4" d="M107.44,134.18s-4.65,4-2.65,6S112.1,139.18,107.44,134.18Z"/><path class="cls-4" d="M114.79,132.21s-1.76,7.22,3.62,8.59S122.79,133.25,114.79,132.21Z"/><path d="M74.79,61.18s-7-4.36,0-12.68c0,0-2.59,9.54,3.7,9.11Z"/><path d="M81.79,57.18s-7-4.36,0-12.68c0,0-2.59,9.54,3.7,9.11Z"/><path d="M128.44,49.17s-2-8,8.86-9.08c0,0-8.52,5-3.71,9.11Z"/><path d="M138.44,51.14s-2-8,8.86-9.07c0,0-8.52,5-3.71,9.11Z"/><path class="cls-5" d="M96.8,155.57s4,14,15,13,10-13,10-13S104.8,164.57,96.8,155.57Z"/><text class="cls-6" transform="translate(49.37 33.13)"><tspan class="cls-7">Y</tspan><tspan x="15.84" y="0">ou Lose</tspan></text></g></g></svg>