<?xml version="1.0" encoding="utf-8"?>
<?xml-stylesheet type="text/css" href="../style.css"?>
<svg id="losing" xmlns="http://www.w3.org/2000/svg" viewBox="0 0 158.02 148.51">
  <path class="losing-1" d="M125.5,205.72a69.39,69.39,0,0,1,20.56-50.65c15.38-15.22,42.18-29.85,83.42-15,46.13,16.66,48.75,51.37,44.68,74.17a55.59,55.59,0,0,1-22.82,35.58c-21.4,15.05-61.52,32.78-104.86-1.75C146.48,248.11,126.16,236.68,125.5,205.72Z" transform="translate(-121.48 -123.53)"/>
  <path class="losing-2" d="M141.48,181.11s12-42,67-40c0,0,36,3,52,43,0,0-36-39-58,9,0,0-4,58,52,28,0,0,11-7,9-29,0,0,4,37-29,40s-31.88-18.69-31.88-18.69l-19.12-.31s-36,39-48-18c0,0,18,50,50,14C185.48,209.11,192.48,156.11,141.48,181.11Z" transform="translate(-121.48 -123.53)"/>
  <circle class="losing-3" cx="41.5" cy="73.08" r="21"/>
  <circle class="losing-3" cx="111" cy="74.58" r="22.5"/>
  <circle class="losing-4" cx="112.5" cy="76.08" r="5"/>
  <circle class="losing-4" cx="41.5" cy="73.08" r="5"/>
  <path class="losing-4" d="M188.64,217.61s-4.66,4-2.66,6S193.3,222.61,188.64,217.61Z" transform="translate(-121.48 -123.53)"/>
  <path class="losing-4" d="M196,215.65s-1.75,7.21,3.62,8.59S204,216.68,196,215.65Z" transform="translate(-121.48 -123.53)"/>
  <path d="M156,144.61s-7-4.36,0-12.68c0,0-2.59,9.54,3.71,9.11Z" transform="translate(-121.48 -123.53)"/>
  <path d="M163,140.61s-7-4.36,0-12.68c0,0-2.59,9.54,3.71,9.11Z" transform="translate(-121.48 -123.53)"/>
  <path d="M209.64,132.6s-2-8,8.86-9.07c0,0-8.52,5-3.72,9.1Z" transform="translate(-121.48 -123.53)"/>
  <path d="M219.64,134.58s-2-8,8.86-9.08c0,0-8.52,5-3.72,9.11Z" transform="translate(-121.48 -123.53)"/>
  <path class="losing-5" d="M178,239s4,14,15,13,10-13,10-13S186,248,178,239Z" transform="translate(-121.48 -123.53)"/>
</svg>