<?xml version="1.0" encoding="utf-8"?>
<?xml-stylesheet type="text/css" href="../style.css"?>
<svg xmlns="http://www.w3.org/2000/svg" viewBox="0 0 278.49 250">
  <g  id="paper" data-name="paper">
    <rect id="rec2" class="paper-1" x="4.5" y="4.5" width="269.49" height="241" rx="93.1"/>
    <g id="paper-2" data-name="paper">
      <path class="paper-2" d="M184.33,228.41s-19.92-7.17-22.08-21.77V147.4s1.7-16.52,14.37-3.3l.48-16.68s2.82-10.87,15.5-3.7v-9.67s10.24-14.08,16.42,0v7.15s11.13-8.5,14.43.31V150s11.27-5.67,15.83,0v46.66s-.91,20.92-16.56,29.11a27.57,27.57,0,0,1-7.65,2.63H224l.05,32s-27.95-17.09-47,0l-.35-32.51S168.35,219.59,184.33,228.41Z" transform="translate(-61.25 -74.62)"/>
      <path class="paper-3" d="M177.09,262.45c1.56-1.48,18-16.06,46.76,0a8.18,8.18,0,0,1,1.26.64c-1.62,1.72-21.5,19.81-49,.55A7.76,7.76,0,0,1,177.09,262.45Z" transform="translate(-61.25 -74.62)"/>
      <path class="paper-4" d="M193.82,255v22s-20.78,9-4.25,17.82c0,0,4.62,3.31,7.54,0,0,0,4.75-.91,5.49,1.47s14.52,3.49,10.11-13.59c0,0-2.21-5.51-7.72-4.41l-.56-22.82S198.62,250.42,193.82,255Z" transform="translate(-61.25 -74.62)"/>
      <line class="paper-4" x1="116.01" y1="98.29" x2="115.37" y2="69.48"/>
      <polyline class="paper-5" points="131.33 94.96 131.35 49.1 139.51 49.1"/>
      <line class="paper-4" x1="146.97" y1="94.96" x2="147.77" y2="46.58"/>
      <polyline class="paper-5" points="156.35 121.23 156.35 114.93 162.6 107.25 162.21 75.39 152.33 76.47"/>
      <line class="paper-5" x1="162.2" y1="56.14" x2="154.78" y2="56.14"/>
      <line class="paper-5" x1="139.51" y1="72.03" x2="131.34" y2="72.03"/>
      <line class="paper-5" x1="124.46" y1="62.6" x2="117.26" y2="62.6"/>
      <line class="paper-5" x1="124.46" y1="83.81" x2="116.01" y2="83.81"/>
      <line class="paper-5" x1="108.19" y1="83.81" x2="101" y2="83.81"/>
      <line class="paper-5" x1="108.19" y1="103.69" x2="101" y2="102.93"/>
    </g>
  </g>
</svg>