<?xml version="1.0" encoding="utf-8"?>
<?xml-stylesheet type="text/css" href="../style.css"?>
<svg id="rock-paper-scissors" xmlns="http://www.w3.org/2000/svg" viewBox="0 0 278.49 250">
  <g id="rock" data-name="rock">
    <path class="rock-2" d="M178.63,211.09s-28.34-13.3-28.76-45.79l-.42-32.5s5-21.35,19.22-5.69c0,0,6.36-26.42,20.62-5.74,0,0,11.41-18.46,22.08-2.8,0,0,15.55-13.75,20.23,3.09v9.39s23.34-1.42,19.71,13.69l.38,33.06S237.18,207.53,220,211.09l11.29-5.69.88,45.54s-33-24.91-63.18,0l-.33-42S163.69,200.41,178.63,211.09Z" transform="translate(-60.95 -74.62)"/>
    <path class="rock-3" d="M149.8,160s10.49,13.67,20.37,0l-1.5-32.88s8.6-4.27,11.06,0" transform="translate(-60.95 -74.62)"/>
    <path class="rock-3" d="M189.29,121.37v39s-6.23,15.44-19.12-.37" transform="translate(-60.95 -74.62)"/>
    <path class="rock-3" d="M211.37,118.57v15.66s-8.54,10.9,0,20.39v7.26s-10,14.65-22.08-1.52" transform="translate(-60.95 -74.62)"/>
    <line class="rock-3" x1="170.65" y1="56.43" x2="150.42" y2="56.43"/>
    <line class="rock-3" x1="176.77" y1="77.82" x2="150.42" y2="80"/>
    <polyline class="rock-3" points="160.53 106.22 160.53 97.5 170.65 88.78 170.65 78.33"/>
    <path class="rock-3" d="M181.47,152.44s-4.81-8.11-11.3,0" transform="translate(-60.95 -74.62)"/>
    <path class="rock-3" d="M149.45,132.8s12.28-4.65,12.19.17" transform="translate(-60.95 -74.62)"/>
    <path class="rock-3" d="M190,130s8.29-2.6,10.55-1.3" transform="translate(-60.95 -74.62)"/>
    <path class="rock-3" d="M189.29,152.44s10.26-5.26,12.26,0" transform="translate(-60.95 -74.62)"/>
    <path class="rock-3" d="M229.46,121.37s-7.46-3-10.29.29" transform="translate(-60.95 -74.62)"/>
    <path class="rock-3" d="M219.17,138.69s9.94,4.53,0,8.57" transform="translate(-60.95 -74.62)"/>
    <path class="rock-4" d="M168,255.93c5.25,3.63,31.42,19.44,64.66,0a.88.88,0,0,0,0-1.51c-6.47-3.93-37.43-20.66-64.71,0A.87.87,0,0,0,168,255.93Z" transform="translate(-60.95 -74.62)"/>
    <path class="rock-5" d="M189,246.83v25.28s-21.51,16.7,1.26,23.81c0,0,12.79-5,15.29,0,0,0,6.78,5,10.34-2.13,0,0,10.77-16.79-6-21.56L208,246.06S197.65,244,189,246.83Z" transform="translate(-60.95 -74.62)"/>
  </g>
  <g id="paper" data-name="paper">
    <path class="paper-2" d="M184.33,228.41s-19.92-7.17-22.08-21.77V147.4s1.7-16.52,14.37-3.3l.48-16.68s2.82-10.87,15.5-3.7v-9.67s10.24-14.08,16.42,0v7.15s11.13-8.5,14.43.31V150s11.27-5.67,15.83,0v46.66s-.91,20.92-16.56,29.11a27.57,27.57,0,0,1-7.65,2.63H224l.05,32s-27.95-17.09-47,0l-.35-32.51S168.35,219.59,184.33,228.41Z" transform="translate(-61.25 -74.62)"/>
    <path class="paper-3" d="M177.09,262.45c1.56-1.48,18-16.06,46.76,0a8.18,8.18,0,0,1,1.26.64c-1.62,1.72-21.5,19.81-49,.55A7.76,7.76,0,0,1,177.09,262.45Z" transform="translate(-61.25 -74.62)"/>
    <path class="paper-4" d="M193.82,255v22s-20.78,9-4.25,17.82c0,0,4.62,3.31,7.54,0,0,0,4.75-.91,5.49,1.47s14.52,3.49,10.11-13.59c0,0-2.21-5.51-7.72-4.41l-.56-22.82S198.62,250.42,193.82,255Z" transform="translate(-61.25 -74.62)"/>
    <line class="paper-4" x1="116.01" y1="98.29" x2="115.37" y2="69.48"/>
    <polyline class="paper-5" points="131.33 94.96 131.35 49.1 139.51 49.1"/>
    <line class="paper-4" x1="146.97" y1="94.96" x2="147.77" y2="46.58"/>
    <polyline class="paper-5" points="156.35 121.23 156.35 114.93 162.6 107.25 162.21 75.39 152.33 76.47"/>
    <line class="paper-5" x1="162.2" y1="56.14" x2="154.78" y2="56.14"/>
    <line class="paper-5" x1="139.51" y1="72.03" x2="131.34" y2="72.03"/>
    <line class="paper-5" x1="124.46" y1="62.6" x2="117.26" y2="62.6"/>
    <line class="paper-5" x1="124.46" y1="83.81" x2="116.01" y2="83.81"/>
    <line class="paper-5" x1="108.19" y1="83.81" x2="101" y2="83.81"/>
    <line class="paper-5" x1="108.19" y1="103.69" x2="101" y2="102.93"/>
  </g>
  <g id="scissor" data-name="scissor">
    <path class="scissor-2" d="M178.86,263.09a48.76,48.76,0,0,1-6.58-4.76c-6.17-5.21-14.54-14.52-15.18-27.07a41.85,41.85,0,0,0-1.84-10.59L154,216.52V203.73s0-9.88,12.46-6.4c0,0,2.69-12.16,10.69-8.81a9.55,9.55,0,0,1,5.62,7.29l1.55,9.34s5.42,2.17,5.42-3.25V154.3s-2.71-7.62,7-10.87S204.85,170,204.85,170l.1,30.28s.44,5.45,3.15.58S220,152.63,220,152.63s2.71-7,8.66-5.95,6,8.12,6,8.12l-13,50.35,9.75,5.42s4.87,1.08,3.25,9.2-2.17,22.2-2.17,22.2-4.57,9.69-11.89,16.1a22.45,22.45,0,0,1-8.84,5l8.82-4.88L219.47,294s-20.52-17.87-48.16,0l.51-33.57S169.65,256.05,178.86,263.09Z" transform="translate(-60.95 -106.62)"/>
    <path class="scissor-3" d="M171.49,301.88c2.07,1.55,21.06,14.83,47.77-.56a.16.16,0,0,0,0-.27c-2-1.59-21-15.34-47.77.57A.15.15,0,0,0,171.49,301.88Z" transform="translate(-60.95 -106.62)"/>
    <path class="scissor-4" d="M156.61,226.46s10.07,7.12,16.56-2.63c0,0-1.62-25.92-6.76-26.5" transform="translate(-60.95 -106.62)"/>
    <path class="scissor-4" d="M184.27,205.15s5.69,13.27,2.44,19.22c0,0-6.5,10.29-13.54-.54" transform="translate(-60.95 -106.62)"/>
    <path class="scissor-4" d="M221.63,205.15s-25.17-7.31-24.09,3.52,17.33,13,17.33,13,3.48,5.58-.7,7.12-8,5.33-6.88,11.83" transform="translate(-60.95 -106.62)"/>
    <path class="scissor-4" d="M206.94,205.15s4.33,7.61-1.45,8" transform="translate(-60.95 -106.62)"/>
    <path class="scissor-4" d="M169.71,197.33s3.46-2.2,5.09-1.65" transform="translate(-60.95 -106.62)"/>
    <path class="scissor-4" d="M174.8,217" transform="translate(-60.95 -106.62)"/>
    <path class="scissor-4" d="M180.44,217s-6.4-2.05-8.19,1.59" transform="translate(-60.95 -106.62)"/>
    <path class="scissor-4" d="M189.69,163.73s8.59-2.16,9,0" transform="translate(-60.95 -106.62)"/>
    <path class="scissor-4" d="M189.69,185s5.07-2.59,7.82,0" transform="translate(-60.95 -106.62)"/>
    <path class="scissor-4" d="M231.22,163.73s-6.42-3.79-8.41,0" transform="translate(-60.95 -106.62)"/>
    <path class="scissor-4" d="M226.84,185s-2.48-5.36-7.5-.57" transform="translate(-60.95 -106.62)"/>
    <path class="scissor-4" d="M154,210.74s1.9-11.82,8.94-3.69" transform="translate(-60.95 -106.62)"/>
    <path class="scissor-4" d="M155.26,220.67s5.14-5.75,9.63-2.11" transform="translate(-60.95 -106.62)"/>
    <path class="scissor-5" d="M187.92,291v19.23s-16.37,12.71,1,18.12c0,0,9.72-3.79,11.63,0,0,0,5.15,3.79,7.86-1.62,0,0,8.2-12.78-4.57-16.41l-1.38-19.9S194.54,288.83,187.92,291Z" transform="translate(-60.95 -106.62)"/>
  </g>
</svg>