<?xml version="1.0" encoding="utf-8"?>
<?xml-stylesheet type="text/css" href="../style.css"?>
<svg id="character" xmlns="http://www.w3.org/2000/svg" viewBox="0 0 259.6 374.92">
  <rect id="rectangle" class="character-1" x="4.5" y="4.5" width="250.6" height="365.92" rx="93.1"/>
  <g id="Text1">
    <path class="character-2" d="M204.23,333c-4.71.54-5.52,1.28-8.22,5.59-3,4.92-5.52,9.57-8.82,15.57a7.12,7.12,0,0,0-1,4v8.29c0,5.59.6,6,6.87,6.6v1.89H173.71V373c6.13-.81,6.61-.94,6.61-6.6v-8.69c0-1.35-.27-2-1.35-3.91-2.36-4.38-4.65-8.62-8.29-15-2.62-4.58-3.3-5.38-7.88-5.86v-1.88h16.57V333c-4.85.68-4.58,1.55-3.37,3.84,2.83,5.19,6,11.25,8.83,16.31,2.42-4.52,6.26-11.86,8.15-15.57,1.55-3.36,1.35-4-4-4.58v-1.88h15.22Z" transform="translate(-75.5 -13.53)"/>
    <path class="character-2" d="M213.05,344.52c8.42,0,14.69,6.4,14.69,15.09,0,10.92-8.08,16.1-14.69,16.1a14.79,14.79,0,0,1-15-15C198.1,349.71,206.65,344.52,213.05,344.52Zm-.8,2.29c-4.11,0-7.82,4-7.82,11.79,0,8.56,3.77,14.76,9.3,14.76,4.17,0,7.68-3,7.68-12.26C221.41,353.21,218.17,346.81,212.25,346.81Z" transform="translate(-75.5 -13.53)"/>
    <path class="character-2" d="M265.13,373.36a77.37,77.37,0,0,0-10.31,2.35v-5.18c-3.64,3-6.6,5.18-10.31,5.18-4.51,0-8.42-2.76-8.42-10.1V352.54c0-3.64-.54-4-2.22-4.38l-1.89-.34v-1.75a91.39,91.39,0,0,0,9.64-1.21c-.21,2.16-.21,5.39-.21,9.84v9.16c0,5.93,3.1,7.61,6.13,7.61a10.66,10.66,0,0,0,7.28-3.23v-15.7c0-3.64-.81-4.11-3.1-4.45l-2.15-.27v-1.75a94.82,94.82,0,0,0,10.57-1.21v22.57c0,3.37.54,3.84,3.1,4l1.89.07Z" transform="translate(-75.5 -13.53)"/>
  </g>
  <g id="character-2" data-name="character">
    <path class="character-3" d="M184.53,88.9s-42.67-15-92,31.86c0,0,30.06-10.22,46,0,0,0-28.25,25.54-25.84,31.55,0,0,25.84-16.83,33.05-12.62,0,0-21,35.46-10.81,65.51,0,0,13.15-32.22,18.59-35.34L151.17,186l14.34-16.11,6.84,35.34s15.49-47.48,19.69-51.09L206.47,183s20.12-37.45,42.81-37.05c0,0-9.76,35.25-15.17,38.86,0,0,4.21,8.41,36.67-20.44,0,0,1.8,16.89,0,26.48l.8,14.39S276.66,203,286,169.86c0,0,19.59-12.35,32.52-64.53,0,0-17.73,24.14-34,24.14,0,0,16.23-12.62-7.81-57.7,0,0-8.42,47.48-13.83,41.47l-6.84-35.15s-20.31-35.77-107.7-6.32C148.42,71.77,177.62,70.57,184.53,88.9Z" transform="translate(-75.5 -13.53)"/>
    <path class="character-4" d="M184.53,88.9s-40.32-5.6-66.89,19c0,0,38.94-15.68,61.78-6.06,0,0-42.79,16.19-50.54,35.74,0,0,9.5-10.11,22.21-4.9l-15.21,7.74s6.28-2.52,9.88-.72c0,0-11.41,36.06-8.41,44.47,0,0,13.82-39.06,43.87-54.69,0,0-21.63,27.65-21.63,37.27l5.92,3.12,7.9,19.71c-.56,2.26,8.87-40.89,21-43.27l10,32.59s17.5-44.22,53-46.22c0,0-14.34,44.88-18.55,47.89,0,0,30.65-24,30.65-30.65l7.22,1.8-6,12.62,3.87,25.24s9.35-18,6.94-37.86c0,0,24.32-17.42,25.69-33.95,0,0-14.87,14.12-22.68,11.71,0,0,3.61-26.44-5.41-33.65,0,0-15,23.43-16.23,17.42L252.68,78.09s-40.8-20.74-80.47-9.92Z" transform="translate(-75.5 -13.53)"/>
    <polygon class="character-5" points="102.12 213.91 86.08 213.91 72.09 176.05 90.01 156.33 102.12 213.91"/>
    <path class="character-5" d="M286,169.86l15.69,11S292,224.13,283,227.44l-22.18-2.71S287.18,176.89,286,169.86Z" transform="translate(-75.5 -13.53)"/>
    <path class="character-6" d="M192.64,149.91s-16.24,35.16-20.29,52.28l9.85,29.49,30.26,20.38s3.32,6.28,12,0,34-20.72,36.36-30.33l12.32-23.14-2.28-31a2.67,2.67,0,0,0-4.51-1.87c-7,6.76-20.72,18.51-27.47,14.81l13.22-37.87s-24.34-.9-45.67,37.27Z" transform="translate(-75.5 -13.53)"/>
    <path class="character-7" d="M187.55,235.28h5.59s-6.48-3.7-5.59-13c0,0,2.27,5.74,7.59,5.14l-7.68-9.14s-4.43,1.12-9.84-6l4.58,19.37Z" transform="translate(-75.5 -13.53)"/>
    <path class="character-8" d="M177.62,185.67s-11.16,20.52,4.33,26.64c0,0,14.27,10.32,30.51-2.9V196.33s.76-3.52-13.35-5.71a148.08,148.08,0,0,1-20.19-4.55Z" transform="translate(-75.5 -13.53)"/>
    <path class="character-8" d="M228.7,200.91s-4.44-3.95,6.8-11.25c0,0,28.66-6,35.28,1.15,0,0-6.77,23.05-14.51,25.33,0,0-19.15,1.68-21.56-1.92C234.71,214.22,226.3,208.64,228.7,200.91Z" transform="translate(-75.5 -13.53)"/>
    <path class="character-8" d="M212.46,196.33s2.42,5.23,12,2.54l4.2,2-.86,4.29s-15.38,1.83-15.37-3.29S212.46,196.33,212.46,196.33Z" transform="translate(-75.5 -13.53)"/>
    <path class="character-8" d="M213.92,227.44s5.77,9,14.78,0" transform="translate(-75.5 -13.53)"/>
    <path class="character-8" d="M207.67,237.65s14.61,4.81,22.63,0" transform="translate(-75.5 -13.53)"/>
    <path class="character-9" d="M197.94,278.24c3-5.15,2.18-18.24,1.2-27.12-.57-5.12-1.2-8.84-1.2-8.84l14.52,9.78c5.09,7.48,12,0,12,0l19.74-13.34s-3.21,25.68-.81,30.49,49.88,28.85,49.88,28.85c-59.5,28.85-145.44-3-138.23-2.41s44.94-29,44.94-29" transform="translate(-75.5 -13.53)"/>
    <path class="character-10" d="M239.09,252.68S228,273.07,224,272.64s.52-15.18.52-15.18-6.91,10-23.74-7.48c0,0,3,21-1.2,28.24,0,0-1.81,4.81-1.81-7.21l-6.61,6s14.43,33.66,51.09,15C242.23,292.05,235.36,271,239.09,252.68Z" transform="translate(-75.5 -13.53)"/>
    <path class="character-11" d="M254.25,279.43s-28.88,48.08-64.33,0c0,0-4.22-1.36,0,7.13,0,0,4.83,10.9,15,15.7,0,0-16.82-5.41-20.43-20.43,0,0-22,15.27-27.52,15.15,0,0,61,22.54,114.57,7.9l-23.82-7.21s-12.56,9.83-17.46,7.21c0,0,22.75-9.23,25.75-22.45C256.05,282.43,256.05,276.42,254.25,279.43Z" transform="translate(-75.5 -13.53)"/>
  </g>
</svg>