<svg xmlns="http://www.w3.org/2000/svg" viewBox="0 0 276.25 201.36"><defs><style>.cls-1{fill:#65785d;stroke-width:8px;}.cls-1,.cls-3,.cls-4,.cls-5{stroke:#231f20;stroke-miterlimit:10;}.cls-2,.cls-3{fill:#859c80;}.cls-3,.cls-4,.cls-5{stroke-width:2px;}.cls-4{fill:#231f20;}.cls-5{fill:#ef4839;}.cls-6{font-size:50px;fill:#fff;font-family:Impact;}.cls-7{letter-spacing:-0.04em;}</style></defs><g id="Layer_2" data-name="Layer 2"><g id="winasset"><g id="zombieface"><path class="cls-1" d="M61.53,135.05A69.36,69.36,0,0,1,82.09,84.4c15.38-15.23,42.18-29.86,83.42-15,46.13,16.66,48.75,51.37,44.68,74.17a55.56,55.56,0,0,1-22.82,35.58c-21.4,15-61.52,32.79-104.86-1.75C82.51,177.43,62.19,166,61.53,135.05Z"/><path class="cls-2" d="M77.51,110.43s12-42,67-40c0,0,36,3,52,43,0,0-36-39-58,9,0,0-4,58,52,28,0,0,11-7,9-29,0,0,4,37-29,40s-31.88-18.69-31.88-18.69l-19.12-.31s-36,39-48-18c0,0,18,50,50,14C121.51,138.43,128.51,85.43,77.51,110.43Z"/><circle class="cls-3" cx="99.01" cy="125.93" r="21"/><circle class="cls-3" cx="168.51" cy="127.43" r="22.5"/><circle class="cls-4" cx="170.01" cy="128.93" r="5"/><circle class="cls-4" cx="99.01" cy="125.93" r="5"/><path class="cls-4" d="M124.67,146.93s-4.66,4-2.66,6S129.33,151.93,124.67,146.93Z"/><path class="cls-4" d="M132,145s-1.75,7.22,3.62,8.59S140,146,132,145Z"/><path class="cls-5" d="M112,183.93s-1-20,18-21,20,19,19,20S123,178.93,112,183.93Z"/><path class="cls-4" d="M112,183.93s10-4,37-1c0,0-4.55-11-17.27-8S112,176.93,112,183.93Z"/><path d="M92,73.93s-7-4.36,0-12.68c0,0-2.59,9.55,3.71,9.11Z"/><path d="M99,69.93s-7-4.36,0-12.68c0,0-2.59,9.55,3.71,9.11Z"/><path d="M145.67,61.92s-2-8,8.86-9.07c0,0-8.52,5-3.72,9.11Z"/><path d="M155.67,63.9s-2-8,8.86-9.07c0,0-8.52,5-3.72,9.1Z"/></g><text class="cls-6" transform="translate(56.89 44.77)"><tspan class="cls-7">Y</tspan><tspan x="21.41" y="0">ou Win</tspan></text></g></g></svg>